<svg width="73" height="65" viewBox="0 0 53 45" fill="none" xmlns="http://www.w3.org/2000/svg">
<rect x="3" y="16.9855" width="47" height="1.90048" fill="white"/>
<g filter="url(#filter0_d_17_21)">
<path d="M5.87399 9.2268C5.87399 9.84318 6.02301 10.3967 6.32105 10.8872C6.63204 11.3653 7.04022 11.7426 7.54559 12.0194C8.05096 12.2961 8.62111 12.4345 9.25606 12.4345C9.91692 12.4345 10.5065 12.2961 11.0248 12.0194C11.5432 11.7426 11.9513 11.3653 12.2494 10.8872C12.5474 10.3967 12.6964 9.84318 12.6964 9.2268V0.415112H14.543V9.28341C14.543 10.2772 14.3032 11.1451 13.8238 11.8873C13.3573 12.6295 12.7224 13.2018 11.919 13.6043C11.1285 14.0069 10.2409 14.2081 9.25606 14.2081C8.27124 14.2081 7.38361 14.0069 6.59317 13.6043C5.80272 13.2018 5.17426 12.6295 4.70776 11.8873C4.24127 11.1451 4.00803 10.2772 4.00803 9.28341V0.415112H5.87399V9.2268Z" fill="white"/>
<path d="M30.5678 14.4912L19.7025 3.79261L20.2467 3.92469L20.2856 14.0572H18.4002V0H18.4974L29.2461 10.7363L28.7991 10.642L28.7602 0.415112H30.6262V14.4912H30.5678Z" fill="white"/>
<path d="M43.9195 12.2835H48.7399V14.0572H41.4121L43.9195 12.2835ZM33.7927 7.24558C33.7927 6.30215 33.9742 5.41532 34.337 4.5851C34.7128 3.7423 35.2311 3.00013 35.892 2.35859C36.5528 1.70447 37.3109 1.19502 38.1661 0.830224C39.0343 0.45285 39.9673 0.264163 40.9651 0.264163C41.9499 0.264163 42.8699 0.45285 43.7251 0.830224C44.5933 1.19502 45.3579 1.70447 46.0187 2.35859C46.6925 3.00013 47.2174 3.7423 47.5931 4.5851C47.9689 5.41532 48.1568 6.30215 48.1568 7.24558C48.1568 8.21418 47.9689 9.11988 47.5931 9.96268C47.2174 10.8055 46.6925 11.5477 46.0187 12.1892C45.3579 12.8181 44.5933 13.315 43.7251 13.6798C42.8699 14.032 41.9499 14.2081 40.9651 14.2081C39.9673 14.2081 39.0343 14.032 38.1661 13.6798C37.3109 13.3276 36.5528 12.837 35.892 12.2081C35.2311 11.5791 34.7128 10.8432 34.337 10.0004C33.9742 9.15762 33.7927 8.23934 33.7927 7.24558ZM35.7365 7.26445C35.7365 7.98147 35.8725 8.65445 36.1446 9.28341C36.4168 9.89978 36.7925 10.447 37.272 10.925C37.7514 11.403 38.3086 11.7741 38.9436 12.0382C39.5785 12.3024 40.2653 12.4345 41.0039 12.4345C41.7296 12.4345 42.4099 12.3024 43.0448 12.0382C43.6798 11.7741 44.2305 11.403 44.697 10.925C45.1635 10.447 45.5328 9.89978 45.8049 9.28341C46.077 8.65445 46.2131 7.97518 46.2131 7.24558C46.2131 6.54115 46.077 5.87446 45.8049 5.2455C45.5328 4.61655 45.157 4.06935 44.6776 3.60392C44.1981 3.12592 43.6409 2.75483 43.006 2.49067C42.371 2.21393 41.6907 2.07556 40.9651 2.07556C40.2264 2.07556 39.5397 2.21393 38.9047 2.49067C38.2698 2.75483 37.7126 3.12592 37.2331 3.60392C36.7537 4.08193 36.3844 4.63541 36.1252 5.26437C35.866 5.89333 35.7365 6.56002 35.7365 7.26445Z" fill="white"/>
</g>
<g filter="url(#filter1_d_17_21)">
<path d="M6.44758 23.0433L10.7219 29.5642L15.0065 23.0433H17.446L11.7777 31.4621V37H9.67639V31.4621L4.00803 23.0433H6.44758Z" fill="white"/>
<path d="M32.3601 35.0048C32.3601 35.2773 32.3054 35.5369 32.1961 35.7834C32.0868 36.0235 31.9364 36.2344 31.7451 36.416C31.5538 36.5977 31.3282 36.7405 31.0686 36.8443C30.8157 36.9481 30.5458 37 30.2588 37H21.8639C21.5769 37 21.3035 36.9481 21.0439 36.8443C20.791 36.7405 20.5689 36.5977 20.3776 36.416C20.1863 36.2344 20.0359 36.0235 19.9266 35.7834C19.8173 35.5369 19.7626 35.2773 19.7626 35.0048V25.0385C19.7626 24.766 19.8173 24.5097 19.9266 24.2697C20.0359 24.0231 20.1863 23.8122 20.3776 23.637C20.5689 23.4554 20.791 23.3126 21.0439 23.2088C21.3035 23.0985 21.5769 23.0433 21.8639 23.0433H30.2588C30.5458 23.0433 30.8157 23.0985 31.0686 23.2088C31.3282 23.3126 31.5538 23.4554 31.7451 23.637C31.9364 23.8122 32.0868 24.0231 32.1961 24.2697C32.3054 24.5097 32.3601 24.766 32.3601 25.0385V35.0048ZM21.8639 25.0385V35.0048H30.2588V25.0385H21.8639Z" fill="white"/>
<path d="M36.1424 23.0433H38.2437V35.0048H46.6386V23.0433H48.7399V35.0048C48.7399 35.2773 48.6853 35.5369 48.5759 35.7834C48.4666 36.0235 48.3163 36.2344 48.1249 36.416C47.9336 36.5977 47.7081 36.7405 47.4484 36.8443C47.1956 36.9481 46.9256 37 46.6386 37H38.2437C37.9567 37 37.6834 36.9481 37.4237 36.8443C37.1709 36.7405 36.9488 36.5977 36.7574 36.416C36.5661 36.2344 36.4158 36.0235 36.3064 35.7834C36.1971 35.5369 36.1424 35.2773 36.1424 35.0048V23.0433Z" fill="white"/>
</g>
<defs>
<filter id="filter0_d_17_21" x="0.00802612" y="0" width="52.7319" height="22.4912" filterUnits="userSpaceOnUse" color-interpolation-filters="sRGB">
<feFlood flood-opacity="0" result="BackgroundImageFix"/>
<feColorMatrix in="SourceAlpha" type="matrix" values="0 0 0 0 0 0 0 0 0 0 0 0 0 0 0 0 0 0 127 0" result="hardAlpha"/>
<feOffset dy="4"/>
<feGaussianBlur stdDeviation="2"/>
<feComposite in2="hardAlpha" operator="out"/>
<feColorMatrix type="matrix" values="0 0 0 0 0 0 0 0 0 0 0 0 0 0 0 0 0 0 0.25 0"/>
<feBlend mode="normal" in2="BackgroundImageFix" result="effect1_dropShadow_17_21"/>
<feBlend mode="normal" in="SourceGraphic" in2="effect1_dropShadow_17_21" result="shape"/>
</filter>
<filter id="filter1_d_17_21" x="0.00802612" y="23.0433" width="52.7319" height="21.9567" filterUnits="userSpaceOnUse" color-interpolation-filters="sRGB">
<feFlood flood-opacity="0" result="BackgroundImageFix"/>
<feColorMatrix in="SourceAlpha" type="matrix" values="0 0 0 0 0 0 0 0 0 0 0 0 0 0 0 0 0 0 127 0" result="hardAlpha"/>
<feOffset dy="4"/>
<feGaussianBlur stdDeviation="2"/>
<feComposite in2="hardAlpha" operator="out"/>
<feColorMatrix type="matrix" values="0 0 0 0 0 0 0 0 0 0 0 0 0 0 0 0 0 0 0.25 0"/>
<feBlend mode="normal" in2="BackgroundImageFix" result="effect1_dropShadow_17_21"/>
<feBlend mode="normal" in="SourceGraphic" in2="effect1_dropShadow_17_21" result="shape"/>
</filter>
</defs>
</svg>
