<svg width="670" height="83" viewBox="0 0 670 83" fill="none" xmlns="http://www.w3.org/2000/svg">
<g id="header-image">
<rect id="black-rectangle" x="335" width="335" height="68.6916" fill="black"/>
<rect id="red-rectangle" width="335" height="68.6916" fill="#FF0000"/>
<g id="UNQ" filter="url(#filter0_d_0_1)">
<path d="M65.8648 47.7539C65.8648 50.944 66.619 53.8086 68.1273 56.3477C69.7013 58.8216 71.7671 60.7747 74.3248 62.207C76.8824 63.6393 79.768 64.3555 82.9815 64.3555C86.3262 64.3555 89.3101 63.6393 91.9334 62.207C94.5566 60.7747 96.6224 58.8216 98.1308 56.3477C99.6392 53.8086 100.393 50.944 100.393 47.7539V2.14844H109.739V48.0469C109.739 53.1901 108.525 57.6823 106.099 61.5234C103.738 65.3646 100.525 68.3268 96.4585 70.4102C92.458 72.4935 87.9657 73.5352 82.9815 73.5352C77.9973 73.5352 73.505 72.4935 69.5045 70.4102C65.5041 68.3268 62.3234 65.3646 59.9624 61.5234C57.6015 57.6823 56.4211 53.1901 56.4211 48.0469V2.14844H65.8648V47.7539Z" fill="white"/>
<path d="M190.841 75L135.851 19.6289L138.606 20.3125L138.802 72.7539H129.26V0H129.752L184.152 55.5664L181.889 55.0781L181.692 2.14844H191.136V75H190.841Z" fill="white"/>
<path d="M258.414 63.5742H282.811V72.7539H245.724L258.414 63.5742ZM207.162 37.5C207.162 32.6172 208.081 28.0273 209.917 23.7305C211.819 19.3685 214.442 15.5273 217.787 12.207C221.131 8.82162 224.968 6.1849 229.296 4.29688C233.69 2.34375 238.412 1.36719 243.462 1.36719C248.446 1.36719 253.102 2.34375 257.431 4.29688C261.824 6.1849 265.694 8.82162 269.038 12.207C272.449 15.5273 275.105 19.3685 277.007 23.7305C278.908 28.0273 279.859 32.6172 279.859 37.5C279.859 42.513 278.908 47.2005 277.007 51.5625C275.105 55.9245 272.449 59.7656 269.038 63.0859C265.694 66.3411 261.824 68.9128 257.431 70.8008C253.102 72.6237 248.446 73.5352 243.462 73.5352C238.412 73.5352 233.69 72.6237 229.296 70.8008C224.968 68.9779 221.131 66.4388 217.787 63.1836C214.442 59.9284 211.819 56.1198 209.917 51.7578C208.081 47.3958 207.162 42.6432 207.162 37.5ZM217 37.5977C217 41.3086 217.688 44.7917 219.065 48.0469C220.443 51.237 222.344 54.069 224.771 56.543C227.198 59.0169 230.018 60.9375 233.231 62.3047C236.444 63.6719 239.92 64.3555 243.658 64.3555C247.331 64.3555 250.774 63.6719 253.988 62.3047C257.201 60.9375 259.988 59.0169 262.349 56.543C264.71 54.069 266.579 51.237 267.956 48.0469C269.334 44.7917 270.022 41.276 270.022 37.5C270.022 33.8542 269.334 30.4036 267.956 27.1484C266.579 23.8932 264.677 21.0612 262.251 18.6523C259.824 16.1784 257.004 14.2578 253.791 12.8906C250.577 11.4583 247.134 10.7422 243.462 10.7422C239.724 10.7422 236.248 11.4583 233.034 12.8906C229.821 14.2578 227.001 16.1784 224.574 18.6523C222.148 21.1263 220.279 23.9909 218.967 27.2461C217.655 30.5013 217 33.9518 217 37.5977Z" fill="white"/>
</g>
<g id="YOU" filter="url(#filter1_d_0_1)">
<path d="M403.383 2.10278L424.342 36.1621L445.351 2.10278H457.313L429.519 46.0749V75H419.215V46.0749L391.421 2.10278H403.383Z" fill="white"/>
<path d="M530.442 64.5788C530.442 66.0022 530.174 67.3578 529.637 68.6456C529.101 69.8995 528.364 71.001 527.426 71.9499C526.488 72.8988 525.382 73.6444 524.109 74.1866C522.869 74.7289 521.546 75 520.138 75H478.975C477.568 75 476.227 74.7289 474.954 74.1866C473.714 73.6444 472.625 72.8988 471.687 71.9499C470.749 71.001 470.012 69.8995 469.476 68.6456C468.94 67.3578 468.671 66.0022 468.671 64.5788V12.5239C468.671 11.1006 468.94 9.7619 469.476 8.50798C470.012 7.22016 470.749 6.11874 471.687 5.20371C472.625 4.25479 473.714 3.50921 474.954 2.96698C476.227 2.39085 477.568 2.10278 478.975 2.10278H520.138C521.546 2.10278 522.869 2.39085 524.109 2.96698C525.382 3.50921 526.488 4.25479 527.426 5.20371C528.364 6.11874 529.101 7.22016 529.637 8.50798C530.174 9.7619 530.442 11.1006 530.442 12.5239V64.5788ZM478.975 12.5239V64.5788H520.138V12.5239H478.975Z" fill="white"/>
<path d="M548.988 2.10278H559.291V64.5788H600.454V2.10278H610.758V64.5788C610.758 66.0022 610.49 67.3578 609.954 68.6456C609.418 69.8995 608.68 71.001 607.742 71.9499C606.804 72.8988 605.698 73.6444 604.425 74.1866C603.185 74.7289 601.862 75 600.454 75H559.291C557.884 75 556.544 74.7289 555.27 74.1866C554.031 73.6444 552.942 72.8988 552.003 71.9499C551.065 71.001 550.328 69.8995 549.792 68.6456C549.256 67.3578 548.988 66.0022 548.988 64.5788V2.10278Z" fill="white"/>
</g>
</g>
<defs>
<filter id="filter0_d_0_1" x="52.4211" y="0" width="234.389" height="83" filterUnits="userSpaceOnUse" color-interpolation-filters="sRGB">
<feFlood flood-opacity="0" result="BackgroundImageFix"/>
<feColorMatrix in="SourceAlpha" type="matrix" values="0 0 0 0 0 0 0 0 0 0 0 0 0 0 0 0 0 0 127 0" result="hardAlpha"/>
<feOffset dy="4"/>
<feGaussianBlur stdDeviation="2"/>
<feComposite in2="hardAlpha" operator="out"/>
<feColorMatrix type="matrix" values="0 0 0 0 0 0 0 0 0 0 0 0 0 0 0 0 0 0 0.25 0"/>
<feBlend mode="normal" in2="BackgroundImageFix" result="effect1_dropShadow_0_1"/>
<feBlend mode="normal" in="SourceGraphic" in2="effect1_dropShadow_0_1" result="shape"/>
</filter>
<filter id="filter1_d_0_1" x="387.421" y="2.10278" width="227.337" height="80.8972" filterUnits="userSpaceOnUse" color-interpolation-filters="sRGB">
<feFlood flood-opacity="0" result="BackgroundImageFix"/>
<feColorMatrix in="SourceAlpha" type="matrix" values="0 0 0 0 0 0 0 0 0 0 0 0 0 0 0 0 0 0 127 0" result="hardAlpha"/>
<feOffset dy="4"/>
<feGaussianBlur stdDeviation="2"/>
<feComposite in2="hardAlpha" operator="out"/>
<feColorMatrix type="matrix" values="0 0 0 0 0 0 0 0 0 0 0 0 0 0 0 0 0 0 0.25 0"/>
<feBlend mode="normal" in2="BackgroundImageFix" result="effect1_dropShadow_0_1"/>
<feBlend mode="normal" in="SourceGraphic" in2="effect1_dropShadow_0_1" result="shape"/>
</filter>
</defs>
</svg>
