<svg xmlns="http://www.w3.org/2000/svg" width="950" height="115" fill="none"><path fill="#000" d="M475 0h475v98H475z"/><path fill="red" d="M0 0h475v98H0z"/><g fill="#fff" filter="url(#a)"><path d="M93.39 68.129c0 4.551 1.07 8.638 3.209 12.26 2.231 3.53 5.16 6.316 8.787 8.36 3.626 2.043 7.718 3.065 12.274 3.065 4.743 0 8.974-1.022 12.693-3.065 3.72-2.044 6.649-4.83 8.788-8.36 2.138-3.622 3.208-7.709 3.208-12.26V3.065H155.6v65.482c0 7.338-1.721 13.746-5.161 19.226-3.348 5.48-7.904 9.707-13.67 12.679-5.672 2.972-12.042 4.458-19.109 4.458-7.067 0-13.436-1.486-19.109-4.458-5.672-2.972-10.182-7.198-13.53-12.679C81.674 82.293 80 75.885 80 68.547V3.065h13.39V68.13ZM270.596 107l-77.971-78.996 3.905.975.279 74.817h-13.53V0h.698l77.134 79.275-3.208-.697-.279-75.513h13.39V107h-.418ZM366.408 90.7H401v13.096h-52.585l17.993-13.097Zm-72.67-37.2c0-6.966 1.302-13.514 3.905-19.645 2.697-6.223 6.416-11.703 11.159-16.44 4.742-4.83 10.182-8.591 16.319-11.285 6.231-2.786 12.926-4.18 20.086-4.18 7.067 0 13.669 1.394 19.806 4.18a51.469 51.469 0 0 1 16.459 11.285 51.418 51.418 0 0 1 11.299 16.44c2.696 6.13 4.045 12.679 4.045 19.645 0 7.152-1.349 13.84-4.045 20.063a51.418 51.418 0 0 1-11.299 16.44c-4.742 4.644-10.228 8.313-16.459 11.006-6.137 2.601-12.739 3.901-19.806 3.901-7.16 0-13.855-1.3-20.086-3.901a52.254 52.254 0 0 1-16.319-10.867c-4.743-4.644-8.462-10.078-11.159-16.3-2.603-6.224-3.905-13.004-3.905-20.342Zm13.948.14c0 5.294.976 10.263 2.929 14.907a39.578 39.578 0 0 0 8.09 12.121 36.823 36.823 0 0 0 11.996 8.22c4.556 1.95 9.485 2.926 14.785 2.926 5.207 0 10.089-.975 14.646-2.926 4.556-1.95 8.508-4.69 11.856-8.22 3.347-3.53 5.997-7.57 7.95-12.121 1.953-4.644 2.929-9.66 2.929-15.047 0-5.201-.976-10.124-2.929-14.768-1.953-4.644-4.649-8.685-8.09-12.121a36.82 36.82 0 0 0-11.995-8.22c-4.557-2.044-9.439-3.065-14.646-3.065-5.3 0-10.229 1.021-14.785 3.065a36.824 36.824 0 0 0-11.996 8.22c-3.44 3.53-6.091 7.616-7.95 12.26-1.86 4.644-2.79 9.567-2.79 14.768Z"/></g><g fill="#fff" filter="url(#b)"><path d="m571.961 3 29.718 48.591L631.467 3h16.961l-39.409 62.734V107h-14.61V65.734L555 3h16.961ZM752.119 92.132c0 2.031-.38 3.965-1.141 5.802a15.067 15.067 0 0 1-3.135 4.715 14.569 14.569 0 0 1-4.704 3.191c-1.758.773-3.634 1.16-5.63 1.16h-58.366c-1.995 0-3.895-.387-5.701-1.16a14.79 14.79 0 0 1-4.632-3.191 15.087 15.087 0 0 1-3.136-4.715 15.03 15.03 0 0 1-1.14-5.802V17.868c0-2.031.38-3.941 1.14-5.73.761-1.837 1.806-3.409 3.136-4.714a14.77 14.77 0 0 1 4.632-3.191A13.606 13.606 0 0 1 679.143 3h58.366c1.996 0 3.872.411 5.63 1.233a14.55 14.55 0 0 1 4.704 3.191c1.33 1.305 2.375 2.877 3.135 4.714.761 1.789 1.141 3.699 1.141 5.73v74.264Zm-72.976-74.264v74.264h58.366V17.868h-58.366ZM778.415 3h14.61v89.132h58.366V3H866v89.132c0 2.031-.38 3.965-1.14 5.802a15.07 15.07 0 0 1-3.136 4.715 14.575 14.575 0 0 1-4.703 3.191c-1.758.773-3.635 1.16-5.63 1.16h-58.366a14.33 14.33 0 0 1-5.701-1.16 14.806 14.806 0 0 1-4.633-3.191 15.067 15.067 0 0 1-3.135-4.715 15.03 15.03 0 0 1-1.141-5.802V3Z"/></g><defs><filter id="a" width="329" height="115" x="76" y="0" color-interpolation-filters="sRGB" filterUnits="userSpaceOnUse"><feFlood flood-opacity="0" result="BackgroundImageFix"/><feColorMatrix in="SourceAlpha" result="hardAlpha" values="0 0 0 0 0 0 0 0 0 0 0 0 0 0 0 0 0 0 127 0"/><feOffset dy="4"/><feGaussianBlur stdDeviation="2"/><feComposite in2="hardAlpha" operator="out"/><feColorMatrix values="0 0 0 0 0 0 0 0 0 0 0 0 0 0 0 0 0 0 0.25 0"/><feBlend in2="BackgroundImageFix" result="effect1_dropShadow_0_1"/><feBlend in="SourceGraphic" in2="effect1_dropShadow_0_1" result="shape"/></filter><filter id="b" width="319" height="112" x="551" y="3" color-interpolation-filters="sRGB" filterUnits="userSpaceOnUse"><feFlood flood-opacity="0" result="BackgroundImageFix"/><feColorMatrix in="SourceAlpha" result="hardAlpha" values="0 0 0 0 0 0 0 0 0 0 0 0 0 0 0 0 0 0 127 0"/><feOffset dy="4"/><feGaussianBlur stdDeviation="2"/><feComposite in2="hardAlpha" operator="out"/><feColorMatrix values="0 0 0 0 0 0 0 0 0 0 0 0 0 0 0 0 0 0 0.25 0"/><feBlend in2="BackgroundImageFix" result="effect1_dropShadow_0_1"/><feBlend in="SourceGraphic" in2="effect1_dropShadow_0_1" result="shape"/></filter></defs></svg>