<svg xmlns="http://www.w3.org/2000/svg" width="332" height="248" fill="none"><g clip-path="url(#a)"><path fill="#23130C" d="M220.959 58.8944s14.549 10.42 21.04-11.4027c0 0 .197-34.212-14.354-40.1106l-6.686 51.5133Z"/><path fill="#23130C" d="M243.537 46.2733c.875-.312 1.506-1.1426 1.506-2.1253 0-1.1587-.874-2.1-1.996-2.2333.825-.3387 1.41-1.1441 1.41-2.0921 0-.8213-.444-1.532-1.1-1.9293.314-.388.508-.8773.508-1.412 0-.768-.382-1.4427-.966-1.8507.469-.4146.772-1.0146.772-1.6893 0-1.1467-.859-2.084-1.968-2.2307.48-.416.785-1.0186.785-1.7 0-1.1493-.853-2.0839-1.961-2.2319.358-.4.586-.9241.586-1.5054 0-1.1067-.797-2.024-1.849-2.2173.637-.4014 1.061-1.1054 1.061-1.9134 0-1.0533-.728-1.932-1.702-2.1813.204-.34.328-.7333.328-1.1587 0-1.1813-.911-2.144-2.07-2.2413.308-.3867.498-.8667.498-1.396 0-1.2493-1.014-2.2613-2.262-2.2613-.301 0-.586.0626-.848.1693.283-.38.454-.8427.454-1.3494 0-1.248-1.014-2.2613-2.262-2.2613-.436 0-.837.1294-1.182.3427.061-.2027.101-.4134.101-.6374 0-1.248-1.012-2.26-2.26-2.26-.937 0-1.743.568-2.085 1.3814-.114.268-.176.568-.176.8786 0 1.248 1.013 2.2614 2.261 2.2614.435 0 .839-.128 1.183-.3414-.059.204-.104.4134-.104.636 0 1.2494 1.014 2.2614 2.262 2.2614.303 0 .587-.0613.847-.1693-.281.3787-.455.8426-.455 1.3493 0 1.184.915 2.1413 2.068 2.2413-.304.3854-.494.8667-.494 1.396 0 1.0547.73 1.936 1.706 2.184-.205.3387-.326.7347-.326 1.156a2.256 2.256 0 0 0 1.841 2.2214c-.633.3986-1.056 1.1053-1.056 1.9093 0 1.1467.855 2.084 1.96 2.232-.357.4-.584.924-.584 1.5053 0 1.1467.859 2.084 1.965 2.2294-.478.416-.788 1.02-.788 1.7013 0 .7667.384 1.444.97 1.852-.472.4147-.772 1.012-.772 1.688 0 .8214.442 1.5333 1.1 1.9307-.318.388-.51.8746-.51 1.4106 0 1.1587.874 2.104 1.996 2.2347-.825.3387-1.406 1.1467-1.406 2.0907 0 .7453.362 1.3986.917 1.8106-.876.312-1.507 1.1401-1.507 2.1227 0 .496.164.9493.434 1.3227-1.032.2093-1.808 1.1213-1.808 2.216 0 .3173.064.6187.185.8933l-.092-.008c-1.245 0-2.255 1.0133-2.255 2.2587 0 .404.111.776.298 1.104l-.2-.02c-1.254 0-2.263 1.012-2.263 2.2613 0 .2227.04.4347.101.636-.345-.2093-.75-.34-1.182-.34-1.095 0-2.008.7774-2.218 1.8107-.372-.272-.828-.4347-1.322-.4347-.967 0-1.786.6093-2.107 1.4613-.373-.7466-1.133-1.2666-2.02-1.2666-.397 0-.763.1093-1.084.2853-.005-1.2453-1.016-2.2493-2.261-2.2493-1.248 0-2.259 1.012-2.259 2.26 0 1.2466 1.011 2.2613 2.259 2.2613.396 0 .762-.1107 1.084-.288.004 1.2453 1.013 2.2533 2.261 2.2533.964 0 1.783-.608 2.107-1.4613.368.7467 1.13 1.2653 2.02 1.2653 1.096 0 2.005-.7786 2.217-1.812.371.2707.825.436 1.323.436 1.248 0 2.262-1.0133 2.262-2.2626 0-.2227-.042-.432-.106-.636.345.212.75.3413 1.188.3413 1.248 0 2.261-1.0093 2.261-2.26 0-.4027-.117-.7733-.299-1.1027l.195.02c1.253 0 2.267-1.012 2.267-2.2626 0-.316-.068-.616-.188-.892l.085.008c1.249 0 2.264-1.0107 2.264-2.26 0-.4947-.165-.9507-.437-1.324 1.034-.208 1.814-1.12 1.814-2.2147 0-.7413-.366-1.396-.92-1.808ZM216.285 58.8944s-14.548 10.42-21.037-11.4027c0 0-.197-34.212 14.353-40.1106l6.684 51.5133Z"/><path fill="#23130C" d="M193.709 46.2733c-.877-.312-1.506-1.1426-1.506-2.1253 0-1.1587.873-2.1 1.996-2.2333-.826-.3387-1.407-1.1441-1.407-2.0921 0-.8213.441-1.532 1.097-1.9293-.313-.388-.509-.8773-.509-1.412 0-.768.385-1.4427.967-1.8507-.467-.4146-.77-1.0146-.77-1.6893 0-1.1467.859-2.084 1.964-2.2307-.476-.416-.784-1.0186-.784-1.7 0-1.1493.856-2.0839 1.96-2.2319-.358-.4-.586-.9241-.586-1.5054 0-1.1067.798-2.024 1.848-2.2173-.634-.4014-1.058-1.1054-1.058-1.9134 0-1.0533.724-1.932 1.706-2.1813-.207-.34-.331-.7333-.331-1.1587 0-1.1813.912-2.144 2.067-2.2413-.306-.3867-.494-.8667-.494-1.396 0-1.2493 1.012-2.2613 2.263-2.2613.3 0 .585.0626.849.1693-.285-.38-.458-.8427-.458-1.3494 0-1.248 1.013-2.2613 2.261-2.2613.437 0 .839.1294 1.184.3427-.061-.2027-.103-.4134-.103-.6374 0-1.248 1.012-2.26 2.263-2.26.936 0 1.739.568 2.083 1.3814.116.268.178.568.178.8786 0 1.248-1.016 2.2614-2.261 2.2614-.437 0-.84-.128-1.187-.3414.063.204.106.4134.106.636 0 1.2494-1.015 2.2614-2.263 2.2614-.3 0-.585-.0613-.848-.1693.283.3787.455.8426.455 1.3493 0 1.184-.914 2.1413-2.064 2.2413.3.3854.492.8667.492 1.396 0 1.0547-.726 1.936-1.706 2.184.204.3387.331.7347.331 1.156 0 1.1094-.8 2.0267-1.849 2.2214.633.3986 1.061 1.1053 1.061 1.9093 0 1.1467-.855 2.084-1.961 2.232.36.4.584.924.584 1.5053 0 1.1467-.859 2.084-1.964 2.2294.478.416.785 1.02.785 1.7013 0 .7667-.384 1.444-.968 1.852.469.4147.772 1.012.772 1.688 0 .8214-.444 1.5333-1.1 1.9307.313.388.511.8746.511 1.4106 0 1.1587-.875 2.104-1.996 2.2347.822.3387 1.405 1.1467 1.405 2.0907 0 .7453-.365 1.3986-.919 1.8106.879.312 1.51 1.1401 1.51 2.1227 0 .496-.17.9493-.436 1.3227 1.034.2093 1.81 1.1213 1.81 2.216 0 .3173-.065.6187-.185.8933l.087-.008c1.25 0 2.26 1.0133 2.26 2.2587 0 .404-.114.776-.296 1.104l.198-.02c1.248 0 2.263 1.012 2.263 2.2613 0 .2227-.043.4347-.103.636.344-.2093.746-.34 1.184-.34 1.096 0 2.007.7774 2.215 1.8107.373-.272.828-.4347 1.324-.4347.965 0 1.781.6093 2.108 1.4613.371-.7466 1.129-1.2666 2.023-1.2666.392 0 .756.1093 1.08.2853.004-1.2453 1.014-2.2493 2.261-2.2493 1.249 0 2.261 1.012 2.261 2.26 0 1.2466-1.012 2.2613-2.261 2.2613-.395 0-.757-.1107-1.083-.288-.004 1.2453-1.016 2.2533-2.258 2.2533-.968 0-1.791-.608-2.111-1.4613-.369.7467-1.132 1.2653-2.02 1.2653-1.096 0-2.008-.7786-2.219-1.812-.369.2707-.825.436-1.32.436-1.25 0-2.261-1.0133-2.261-2.2626 0-.2227.043-.432.101-.636-.344.212-.748.3413-1.184.3413-1.246 0-2.258-1.0093-2.258-2.26 0-.4027.11-.7733.296-1.1027l-.2.02c-1.248 0-2.262-1.012-2.262-2.2626 0-.316.068-.616.186-.892l-.087.008c-1.248 0-2.26-1.0107-2.26-2.26 0-.4947.163-.9507.432-1.324-1.029-.208-1.808-1.12-1.808-2.2147 0-.7413.361-1.396.917-1.808Z"/><path fill="#8A4B2D" d="m201.905 132.561-4.022 104.273h4.448l16.376-104.273h-16.802Z"/><path fill="#8A4B2D" d="M233.555 113.235c-1.462-2.992-2.396-5.435-2.987-7.219h-23.719c-.59 1.784-1.528 4.227-2.989 7.219h.067s-4.566 8.978-1.615 20.942h32.748c2.952-11.964-1.616-20.942-1.616-20.942h.111Z"/><path fill="#8A4B2D" d="m235.132 132.561-9.029 104.315h-4.446l-.75-104.315h14.225ZM202.436 236.504l-4.52-.019c-.043.811-.021 1.62-.301 2.458 0 0-1.392 2.109-7.72 5.082 0 0-1.706.623-.052 1.675 0 0 1.488 1.199 3.944.003l6.558-2.808s3.372-.576 2.107-4.75c-.088-.632-.02-1.116-.016-1.641Z"/><path fill="#24272F" d="m195.283 246.64 4.906-3.121 1.262-.738c2.51-1.349 1.053-4.46 1.053-4.46-.091 2.891-5.959 5.606-5.959 5.606-2.346 1.453-4.985 1.11-4.985 1.11-2.533-.44-.077-1.802-.077-1.802-2.891 1.373-4.568 2.201-4.568 2.201s-2.287 1.731 1.625 2.225c0 0 4.265.518 6.743-1.021Z"/><path fill="#111013" d="M202.908 239.945c-2.116 3.079-8.856 7.906-14.66 7.086-1.087-.296-1.568-.487-1.92-.887-.248.533.104 1.384 2.379 1.539 0 0 4.098.496 6.576-1.043l4.906-3.121.088-.05c.184.482.348 1.3.156 2.608l.668-.334s-.286-1.991 1.062-3.48l-.003-.01c.675-.68.805-1.553.748-2.308Z"/><path fill="#fff" d="M194.424 245.623c-1.137.38-2.2.652-3.408.75-1.047.087-2.083-.072-3.125-.065l-.022.132c1.978.435 4.808.324 6.622-.664l-.067-.153Z"/><path fill="#8A4B2D" d="m221.635 236.504 4.445-.019c.043.811.019 1.62.3 2.458 0 0 1.395 2.109 7.727 5.082 0 0 1.702.623.045 1.675 0 0-1.487 1.199-3.943.003l-6.56-2.808s-3.373-.576-2.106-4.75c.086-.632.124-1.008.092-1.641Z"/><path fill="#24272F" d="m228.712 246.64-4.907-3.121-1.256-.738c-2.517-1.349-1.056-4.46-1.056-4.46.087 2.891 5.955 5.606 5.955 5.606 2.351 1.453 4.985 1.11 4.985 1.11 2.534-.44.078-1.802.078-1.802 2.893 1.373 4.57 2.201 4.57 2.201s2.287 1.731-1.624 2.225c0 0-4.269.518-6.745-1.021Z"/><path fill="#111013" d="M221.087 239.945c2.117 3.079 8.861 7.906 14.66 7.086 1.088-.296 1.568-.487 1.92-.887.249.533-.103 1.384-2.379 1.539 0 0-4.1.496-6.576-1.043l-4.907-3.121-.085-.05c-.184.482-.348 1.3-.155 2.608l-.672-.334s.287-1.991-1.06-3.48l.003-.01c-.673-.68-.805-1.553-.749-2.308Z"/><path fill="#fff" d="M229.568 245.623c1.141.38 2.204.652 3.412.75 1.047.087 2.08-.072 3.124-.065l.019.132c-1.978.435-4.807.324-6.618-.664l.063-.153Z"/><path fill="#8A4B2D" d="M223.291 64.6173h-9.315l1.469-10.024h6.494l1.352 10.024Z"/><path fill="#1D0F09" d="m222.217 56.6641-.202-1.5094c.005-.0013.009-.004.014-.0053l.236 1.4387c-.016.0266-.03.0506-.048.076Z"/><path fill="#683720" d="m214.72 59.5438.641-4.38c1.104.4254 2.21.6387 3.314.6387.044 0 .086-.0013.13-.0013.911-.0134 1.822-.172 2.73-.4734.002-.0013.004-.0013.006-.0026.003-.0014.006-.0014.01-.0027.004-.0013.009-.004.013-.0053h.003c.149-.0507.298-.104.448-.1627l.202 1.5093c-.905 1.3987-3.226 1.6574-4.93 1.9-.97.1387-1.804.492-2.567.98Z"/><path fill="#8A4B2D" d="m234.892 66.6278-11.863-4.9479h-8.641l-11.863 4.9479s-3.432 2.8721-.846 10.3414l6.098 25.6358s-.656 3.946-3.917 10.63h29.695c-3.262-6.684-3.911-10.63-3.911-10.63l6.092-25.6358c2.591-7.4693-.844-10.3414-.844-10.3414Z"/><path fill="#8A4B2D" d="m207.14 72.6386-8.587 35.3654-.024.104c-.029.128-.077.266-.122.385l-12.29 30.555c-.366.9-1.389 1.337-2.288.976-.816-.33-1.246-1.195-1.057-2.023l.051-.226c.617-2.703 1.368-5.356 2.046-8.039l2.259-7.953c.725-2.66 1.597-5.267 2.4-7.899l2.449-7.879-.149.487 1.592-8.9641c.548-2.9853 1.019-5.9893 1.645-8.9546l1.788-8.9227c.675-2.956 1.274-5.928 2.015-8.8693l.043-.1734c.566-2.2693 2.87-3.6493 5.14-3.08 2.261.568 3.636 2.852 3.089 5.1107Z"/><path fill="#8A4B2D" d="M185.835 138.243c-2.512-3.011-7.031-.312-7.031-.312-.537.324-1.091.626-1.635.936-.148.084-.288.168-.433.25-.655.359-.469.855-.469.855.233.557.86.345.86.345l3.054-1.189-2.181 5.879s-.392.988.195 1.181c0 0 .337.212.774-.775l2.055-4.465s-1.347 4.252-1.889 5.532c0 0-.079.648.61.531 0 0 .399-.094.678-1.027 0 0 1.409-3.572 1.513-4.107 0 0-.575 3.232-1.072 4.446 0 0-.072.357.343.402 0 0 .302.019.518-.434 0 0 .742-1.724 1.474-4.034l-.35 2.696s.035.32.334.331c0 0 .356.065.473-.345l.859-2.72s1.818-3.042 1.32-3.976ZM238.073 69.1452l12.034 31.2998.037.094c.777 2.028-.232 4.306-2.261 5.085-2.016.775-4.276-.22-5.071-2.223l-12.357-31.1651-.039-.1c-.836-2.1093.195-4.5 2.307-5.336 2.11-.8374 4.498.1947 5.336 2.3067l.014.0386ZM232.955 36.2945c-.334 2.4813.668 4.6653 2.228 4.8693 1.562.208 3.097-1.636 3.425-4.1173.328-2.4853-.671-4.6667-2.233-4.8733-1.559-.2094-3.091 1.636-3.42 4.1213Z"/><path fill="#683720" d="M236.851 38.2946s.03-.136.093-.3654c.033-.1146.085-.244.113-.408.035-.1613.071-.3413.123-.536.029-.192.065-.4.104-.6226.043-.2147.041-.472.069-.72.026-.2187-.012-.4694-.056-.7094-.045-.24-.117-.4826-.224-.7-.098-.2173-.238-.4106-.41-.5293l-.112-.0733-.154-.06-.3-.0307c-.393.0307-.684.416-.853.7507-.172.3453-.271.668-.315.8973a4.8886 4.8886 0 0 0-.046.26.1143.1143 0 0 0-.024.0574 2.658 2.658 0 0 1-.026-.3267v-.0427c.047-.3093.09-.6147.128-.916.004-.0133.008-.0266.012-.0386.071-.2054.163-.4267.327-.6307.163-.204.415-.4054.732-.4507.064-.0107.129-.0147.193-.0147.091 0 .183.0094.274.0241l.216.064.229.1266c.268.1867.457.4467.587.7147.128.2693.204.5533.253.8347.048.284.056.5573.017.8453-.045.2533-.07.4906-.138.7253-.071.232-.132.4507-.202.648-.077.1894-.158.364-.225.5173-.067.1547-.144.2747-.195.3841-.116.2093-.19.3253-.19.3253Z"/><path fill="#683720" d="M235.363 39.0386c-.307 0-.634-.1667-.755-.4307-.028-.1107-.045-.1933-.045-.1933l-.003.004c-.023-.4214.428-1.0947.639-1.3827 0 0 .67-.912-.331-1.484 0 0-.012-.0187-.009-.0467.005.0307.009.0467.009.0467s.004-.0373.015-.104c.058-.0813.252-.1893.84-.2387 0 0 1.146.1507.56 1.3947-.127.2653-.235.544-.286.836-.076.4147.142.972-.108 1.344-.118.1773-.317.2547-.526.2547Z"/><path fill="#502917" d="M234.868 35.552s-.004-.016-.009-.0466a.1143.1143 0 0 1 .024-.0574c-.011.0667-.015.104-.015.104Z"/><path fill="#683720" d="M235.401 40.088c-.018 0-.158-.0027-.348-.0667l-.325-.1693-.157-.1413-.127-.1867-.099-.2013-.038-.2227.002-.204.046-.1787.133-.232.072-.0666c.001.0173.003.036.005.0533a.5386.5386 0 0 0 .043.136c.011.04.023.084.035.1293l.05.1347.054.136.137.2693.073.1347.095.1293.081.136.092.1134c.11.1466.179.2973.179.2973h-.003Z"/><path fill="#502917" d="M234.608 38.6078a.5379.5379 0 0 1-.043-.1359.9632.9632 0 0 1-.005-.0534l.003-.0039s.017.0825.045.1932Z"/><path fill="#8A4B2D" d="M203.999 36.2945c.332 2.4813-.667 4.6653-2.231 4.8693-1.559.208-3.089-1.636-3.423-4.1173-.329-2.4853.668-4.6667 2.231-4.8733 1.561-.2094 3.095 1.636 3.423 4.1213Z"/><path fill="#683720" d="M200.103 38.2946s-.075-.116-.191-.3253c-.049-.1094-.132-.2294-.197-.3841a32.2544 32.2544 0 0 1-.223-.5173c-.073-.1973-.133-.416-.199-.648-.073-.2347-.1-.472-.141-.7253-.043-.288-.031-.5613.016-.8453.049-.2814.125-.5654.256-.8347.129-.268.317-.528.581-.7147l.234-.1266.213-.064c.091-.0147.181-.0241.273-.0241.066 0 .132.004.198.0147.314.0453.57.2467.728.4507.166.204.257.4253.325.6307.135.4066.141.756.143.9973-.003.1573-.016.268-.026.3267-.001-.0174-.008-.036-.022-.0574a9.0735 9.0735 0 0 0-.047-.26c-.043-.2293-.145-.552-.315-.8973-.174-.3347-.457-.72-.849-.7507l-.305.0307-.152.06-.119.0733c-.165.1187-.304.312-.405.5293-.106.2174-.178.46-.227.7-.041.24-.076.4907-.055.7094.031.248.031.5053.068.72.038.2226.076.4306.108.6226.05.1947.09.3747.123.536.029.164.081.2934.109.408.064.2294.098.3654.098.3654Z"/><path fill="#683720" d="M201.591 39.0386c-.21 0-.41-.0774-.53-.2547-.248-.372-.03-.9293-.102-1.344-.058-.292-.162-.5707-.29-.836-.586-1.244.562-1.3947.562-1.3947.588.0494.781.1574.84.2387.01.0667.013.104.013.104s.004-.016.009-.0467c.003.028-.009.0467-.009.0467-1.004.572-.332 1.484-.332 1.484.213.288.661.9613.64 1.3827l-.003-.004s-.017.0853-.046.1973c-.123.2613-.448.4267-.752.4267Z"/><path fill="#502917" d="M202.084 35.552s-.003-.0373-.013-.104c.014.0214.021.04.022.0574a.6391.6391 0 0 1-.009.0466Z"/><path fill="#683720" d="M201.552 40.088h-.003s.066-.1507.176-.2973l.095-.1134.081-.136.09-.1293.074-.1347.144-.2693.051-.136.047-.1347c.013-.044.025-.0853.036-.1253a.5157.5157 0 0 0 .044-.14.9597.9597 0 0 0 .005-.0533l.071.0666.134.232.043.1787.003.204-.035.2227-.099.2013-.126.1867-.16.1413-.324.1693c-.187.064-.328.0667-.347.0667Z"/><path fill="#502917" d="M202.343 38.6119a3.974 3.974 0 0 0 .046-.1973l.003.0039a.9632.9632 0 0 1-.005.0534.5157.5157 0 0 1-.044.14Z"/><path fill="#8A4B2D" d="M227.241 10.5158s-3.678-1.644-8.584-1.6667c-4.87.0227-8.549 1.6667-8.549 1.6667s-13.875 6.6573-5.316 34.3533c1.227 3.9653 4.952 7.0053 8.459 9.2213 3.609 2.284 7.248 2.2787 10.849 0 3.505-2.216 7.235-5.256 8.457-9.2213 8.562-27.696-5.316-34.3533-5.316-34.3533Z"/><path fill="#60321D" d="M218.805 55.8013c.911-.0134 1.82-.172 2.73-.4734-.908.3014-1.819.46-2.73.4734Z"/><path fill="#E9E9E9" d="M218.8 8.852c-.032-.0013-.064-.0013-.095-.0013-.01 0-.021 0-.032-.0013.043.0013.084.0013.127.0026Z"/><path fill="#7F4429" d="M218.68 55.8028c1.445 0 2.891-.5746 4.329-1.712 2.803-2.216 5.778-5.256 6.759-9.2213 6.843-27.696-4.247-34.3533-4.247-34.3533s-2.914-1.628-6.816-1.6654c.031 0 .063 0 .095.0014 4.787.0546 8.368 1.6307 8.44 1.6627v.0013h.001s8.114 3.892 8.106 18.1066c-.002 1.7134-.12 3.5747-.386 5.5974-.038.3013-.081.6066-.128.916-.242 1.6293-.578 3.3573-1.022 5.1933-.35 1.4467-.766 2.96-1.254 4.54-1.222 3.9653-4.952 7.0053-8.457 9.2213-.843.5334-1.687.9427-2.533 1.2267h-.003c-.004.0013-.009.004-.013.0053-.004.0014-.007.0014-.01.0027-.002.0013-.004.0013-.006.0027-.91.3013-1.819.46-2.73.4733-.041 0-.084.0013-.125.0013ZM218.676 55.8026c-1.812 0-3.623-.5706-5.425-1.712-3.507-2.216-7.232-5.256-8.459-9.2213-.537-1.7387-.988-3.3973-1.357-4.9747-.612-2.6146-1.006-5.008-1.223-7.2026-.143-1.4414-.208-2.7974-.209-4.0694-.008-14.2146 8.105-18.1066 8.105-18.1066s3.679-1.644 8.549-1.6666c-3.889.0226-6.828 1.6666-6.828 1.6666s-11.092 6.6573-4.248 34.3533c.982 3.9653 3.955 7.0053 6.756 9.2213 1.443 1.1414 2.891 1.712 4.339 1.712Z"/><path fill="#5D3220" d="M216.025 40.1121s.403.0853 1.01.2106c.276.06.582.0987.884.1494.308.0173.609.0773.913.0493.304.0227.603-.032.911-.0493.301-.056.606-.092.885-.1534.285-.04.527-.1133.719-.1386.188-.0294.31-.04.31-.04s-.032.1093-.114.2893c-.088.1707-.206.4413-.443.672-.213.2627-.535.504-.921.704-.204.072-.411.1867-.642.2253-.232.0294-.468.0934-.708.0827-.981.0013-1.846-.5013-2.273-1.0147-.455-.5026-.531-.9866-.531-.9866Z"/><path fill="#331E15" d="M209.561 32.9558c.028.9653.835 1.7253 1.802 1.6947.969-.0307 1.726-.8413 1.698-1.8067-.033-.9666-.841-1.7253-1.806-1.696-.968.0294-1.727.8387-1.694 1.808Z"/><path fill="#1A0D08" d="M210.685 32.9613c.01.3493.303.624.652.6134.348-.0094.624-.3054.612-.6547a.6344.6344 0 0 0-.652-.6134.6309.6309 0 0 0-.612.6547Z"/><path fill="#1D0F09" d="M214.441 32.7c-.294.0214-.578-.1186-.856-.2186-.261-.1294-.501-.296-.758-.4454l-.018-.0147c-.245-.164-.542-.3239-.825-.4079-.288-.0867-.575-.1187-.849-.0561-.558.0934-1.058.5067-1.524.9934l.012-.0187c-.123.16-.24.26-.382.3613-.137.096-.292.1774-.457.2121-.327.0826-.667.0359-.931-.1107.304 0 .587-.0467.804-.1974l.295-.2466.207-.2974.012-.0173.31-.4787c.136-.1386.256-.2933.411-.4199.297-.2694.688-.4561 1.103-.5481.422-.0773.864-.0213 1.24.1374.378.164.696.3813.97.6986l-.016-.0146c.402.368.75.8173 1.252 1.0893Z"/><path fill="#1D0F09" d="M209.543 32.4666s-.515.1506-1.051.132c-.264-.0067-.548-.0867-.684-.2467-.131-.1587-.115-.3013-.125-.296.008-.0067.026.1374.168.252.144.1134.393.1347.63.0974.484-.0787.926-.304.926-.304l.136.3653Z"/><path fill="#1D0F09" d="M209.785 32.1786s-.532.064-1.057-.0427c-.257-.0533-.524-.1786-.631-.3573-.101-.18-.064-.3173-.074-.3147.008-.004.004.14.124.2774.122.1346.364.1973.605.2.489.004.96-.1454.96-.1454l.073.3827Z"/><path fill="#fff" d="M210.013 32.516c.008.2413.21.432.452.4253a.4396.4396 0 0 0 .424-.452.4355.4355 0 0 0-.453-.4213c-.241.004-.431.2053-.423.448Z"/><path fill="#fff" d="M210.688 32.9481c.007.1226.108.2173.231.2119l.212-.2239c-.004-.124-.106-.2201-.226-.2147-.122.004-.217.1053-.217.2267Z"/><path fill="#23130C" d="M206.877 29.4066s1.994-2.9013 7.252-1.3306c0 0 1.39.424 1.978.8786 0 0 .725-.0933.497-1.9493 0 0-8.809-3.4893-9.727 2.4013Z"/><path fill="#331E15" d="M228.124 32.9558c-.029.9653-.836 1.7253-1.805 1.6947-.967-.0307-1.724-.8413-1.694-1.8067.028-.9666.838-1.7253 1.804-1.696.97.0294 1.724.8387 1.695 1.808Z"/><path fill="#1A0D08" d="M227 32.9613c-.012.3493-.305.624-.652.6134-.349-.0094-.627-.3054-.612-.6547a.632.632 0 0 1 .652-.6134c.347.0107.621.304.612.6547Z"/><path fill="#1D0F09" d="M223.244 32.6997c.501-.272.848-.7213 1.249-1.0893l-.016.0146c.275-.3173.592-.5346.972-.6986.376-.1587.819-.2147 1.242-.1374.414.092.806.2787 1.102.5467.155.128.276.2813.412.4213l.311.4774.013.02.206.296.294.2467c.219.1506.5.1973.804.1973-.264.1453-.602.1933-.93.1107-.166-.0347-.319-.1147-.458-.2121-.14-.1013-.258-.2013-.381-.3626l.013.02c-.468-.4867-.968-.9-1.526-.9934-.275-.0626-.564-.0306-.852.0561-.282.084-.582.2439-.827.4079l-.016.0147c-.256.1494-.496.316-.757.4454-.278.1-.562.24-.855.2186Z"/><path fill="#1D0F09" d="M228.28 32.1013s.441.2253.924.304c.237.0373.487.0146.629-.0987.142-.1133.162-.2573.17-.2507-.011-.0053.004.1373-.127.296-.135.16-.419.2387-.681.248-.536.0174-1.051-.1333-1.051-.1333l.136-.3653Z"/><path fill="#1D0F09" d="M227.971 31.7959s.472.1493.961.1453c.241-.0013.484-.064.605-.1986.12-.1374.114-.2827.123-.2787-.012-.0027.029.1347-.073.3147-.107.18-.374.3066-.632.3573-.526.1053-1.059.0427-1.059.0427l.075-.3827Z"/><path fill="#fff" d="M227.671 32.516c-.01.2413-.21.432-.45.4253-.242-.008-.433-.2093-.425-.452.009-.2426.208-.4306.452-.4213.24.004.432.2053.423.448Z"/><path fill="#fff" d="M226.991 32.9481a.2158.2158 0 0 1-.226.2119c-.122-.0026-.218-.1053-.213-.2239.003-.124.108-.2201.227-.2147.122.004.218.1053.212.2267Z"/><path fill="#23130C" d="M230.805 29.4066s-1.994-2.9013-7.249-1.3306c0 0-1.389.424-1.98.8786 0 0-.725-.0933-.5-1.9493 0 0 8.812-3.4893 9.729 2.4013Z"/><path fill="#85422B" d="M232.456 37.2346c-.128-1.42-2.153-2.3974-4.525-2.1867-2.372.2107-4.19 1.5347-4.066 2.9547.13 1.4173 2.151 2.3959 4.524 2.1853 2.371-.2147 4.195-1.5333 4.067-2.9533ZM209.417 35.0479c-2.37-.2107-4.396.7667-4.524 2.1867-.128 1.42 1.694 2.7386 4.066 2.9533 2.372.2106 4.393-.768 4.522-2.1853.127-1.42-1.689-2.744-4.064-2.9547Z"/><path fill="#EBB72E" d="M236.527 40.5399c0 .5587-.452 1.0147-1.011 1.0147-.563 0-1.016-.456-1.016-1.0147 0-.5613.453-1.016 1.016-1.016.559 0 1.011.4547 1.011 1.016ZM203.185 40.5399c0 .5587-.456 1.0147-1.014 1.0147-.56 0-1.014-.456-1.014-1.0147 0-.5613.454-1.016 1.014-1.016.558 0 1.014.4547 1.014 1.016Z"/><path fill="#fff" d="M213.617 45.4585c1.079 2.2813 3.012 3.8053 5.223 3.8053 2.212 0 4.145-1.524 5.229-3.8053h-10.452Z"/><path fill="#7D2627" d="M213.617 45.4587s.202.132.518.3867c.149.132.348.2853.554.4227.215.144.418.304.679.4586.497.3254 1.081.612 1.664.844.305.0734.593.2054.901.232.152.02.299.0734.454.0667l.228.0107.113.0093.057.004.028.0027.015.0013.007.0013h.002l-.112.0054c.42-.028.912-.0547 1.072-.1147.223-.0107.563-.1507.854-.224.582-.2307 1.164-.5187 1.664-.8427.258-.1493.473-.3266.689-.4706.213-.1494.401-.288.549-.412.308-.2414.516-.3814.516-.3814s.004.2334-.042.648c-.024.208-.055.464-.158.732-.09.2734-.174.6067-.369.9107-.168.3253-.365.6787-.66.9987-.263.3453-.629.636-1.016.9373-.432.2533-.823.5347-1.428.684-.641.212-1.008.204-1.437.256l-.128.004-.014-.0013-.025-.0014-.051-.004-.102-.0106-.206-.0187-.406-.0413c-.276-.0107-.527-.1267-.784-.1947-.522-.132-.964-.4213-1.382-.672-.385-.3027-.752-.5933-1.014-.94-.294-.3187-.491-.672-.66-.9973-.191-.3-.287-.6507-.379-.9267-.108-.2773-.129-.5187-.149-.7187-.04-.4026-.042-.644-.042-.644Z"/><path fill="#7D2627" d="M224.069 45.4586s-.652.4561-1.633.7814c-.98.3613-2.287.5786-3.592.584-1.307-.0014-2.613-.2173-3.593-.5813-.98-.324-1.634-.7841-1.634-.7841s.654-.4599 1.634-.7839c.98-.3654 2.286-.5814 3.593-.5827 1.305.0053 2.612.2227 3.592.5853.981.324 1.633.7813 1.633.7813Z"/><path fill="#8A4B2D" d="M218.648 8.6746s.221.3613.38.9053c.168.5427.279 1.2667.284 1.9907-.004.724-.113 1.4479-.283 1.9906-.157.5427-.381.9054-.381.9054s-.224-.3627-.381-.9054c-.17-.5427-.279-1.2666-.283-1.9906.004-.724.116-1.448.284-1.9907.157-.544.38-.9053.38-.9053Z"/><path fill="#BFE7F1" d="M235.639 77.4119c-3.476-2.3626-3.78-7.9266-.916-10.852l-11.694-4.88h-8.641l-11.863 4.948-.105.1027c2.851 2.848 2.647 8.2813-.627 10.7427l5.674 25.4397s-2.011 5.406-4.658 12.354h31.83c-2.975-6.778-4.603-12.662-4.603-12.662l5.603-25.1931Z"/><path fill="#4D0815" d="m204.088 239.399 14.799-104.886.669 104.719h7.299l11.014-104.316v-.083c.674-9.458-.666-13.838-3.712-19.886h-30.942c-1.851 3.158-2.198 9.124-2.198 17.746h-.052l-3.576 106.762 6.699-.056Z"/><path fill="#5A3114" d="m236.796 121.199-1.113-2.79-.894-1.92h-32.31l-.751 1.92c.035.998-.451 1.924-.42 2.79h35.488Z"/><path fill="#F9A72B" d="M221.343 121.339v-.836H216.9v-3.323h3.608v4.159H222.179v-5.83h-6.95v6.664h6.95v-.834h-.836Z"/><path fill="#F9A72B" d="M221.573 119.376h-2.285v-1.071h2.285v1.071Z"/><path fill="#4D0815" d="M231.208 122.055h-2.141v-7.138h2.141v7.138ZM208.94 122.055h-2.143v-7.138h2.143v7.138Z"/><path fill="#BFE7F1" d="m203.593 85.8571 3.204-13.2947c.511-2.08-.765-5.584-2.845-6.0933-2.081-.5093-4.423 1.9-4.931 3.9787v-.0574c-.361 1.4733-.629 2.6614-.953 4.1414l-1.007 4.7586-.336 1.4547c2.031 1.8373 4.616 3.536 6.868 5.112ZM241.804 79.4388l-3.705-10.264v-.084c-.794-1.9906-3.528-3.3573-5.283-2.0693-1.728 1.2667-2.967 3.0453-2.173 5.0347l.033.088 5.056 12.728c1.832-2.0254 3.927-3.7574 6.072-5.4334Z"/><path fill="#141D20" d="M214.021 127.852V61.8335l-11.496 4.7947-.105.1026c2.851 2.848 4.939 17.0294 1.668 19.492l3.379 16.6902s-6.168 11.324-7.954 20.251l14.508 4.688ZM233.383 86.7252c-3.476-2.3613-1.524-17.24 1.34-20.1653l-11.694-4.88h-.304v66.6191l16.074-5.135c-2.683-8.704-8.763-20.559-8.763-20.559l3.347-15.8798Z"/><path fill="#89C1D2" d="m218.716 61.9734-4.445-3.4014-5.248 3.644 5.209 6.6334 4.484-6.876Z"/><path fill="#89C1D2" d="m218.701 61.9734 4.447-3.4014 5.251 3.644-5.214 6.6334-4.484-6.876Z"/><path fill="#DEDDDE" d="M234.472 116.607h-26.116V78.4399h26.116v38.1671Z"/><path fill="#fff" d="M236.563 118.364h-26.115V80.1973h26.115v38.1667Z"/><path fill="#8A4B2D" d="M244.564 105.62s-6.839-2.24-13.676-4.48c-6.859-2.1732-13.716-4.3479-13.716-4.3479-.905-.2867-1.405-1.2533-1.119-2.156.216-.6907.828-1.144 1.506-1.1973l.57-.0427c.003 0 .479-.036 1.295-.036.815.0173 1.993-.032 3.372.048 1.385.056 2.991.1573 4.695.332.853.0773 1.73.168 2.614.288.89.12 1.795.212 2.69.3613 1.792.2627 3.574.5614 5.236.8827 1.658.3213 3.2.6507 4.512.9747 1.312.3133 2.382.6453 3.146.8426.755.22 1.179.3707 1.179.3707l.416.148c2.208.7733 3.367 3.1889 2.589 5.3949-.764 2.173-3.129 3.329-5.309 2.617Z"/><path fill="#8A4B2D" d="M220.647 97.3693c2.402-3.9174-2.292-7.9227-2.292-7.9227-.562-.4773-1.106-.9853-1.658-1.472-.145-.128-.29-.256-.437-.3867-.644-.5933-1.124-.2027-1.124-.2027-.533.472-.059 1.0867-.059 1.0867l2.46 2.944-7.346-.216s-1.244-.064-1.238.664c0 0-.109.4507 1.151.568l5.731.6067s-5.227.1-6.855-.024c0 0-.747.1547-.357.8787 0 0 .25.4066 1.393.3666 0 0 4.497.2227 5.128.1414 0 0-3.804.572-5.341.476 0 0-.422.0533-.316.536 0 0 .092.3413.68.4093 0 0 2.192.1773 5.032.1227l-3.124.6253s-.347.1573-.243.4947c0 0 .059.416.559.396l3.342-.0694s4.062.8814 4.914-.0226Z"/><path fill="#23130C" d="M218.568 17.5854s-7.083-3.0107-11.575 1.5107c0 0-5.012 4.016-3.63 16.068 0 0-.504-3.3-2.762-2.9907 0 0-6.742-26.304 17.967-27.3094v12.7214Z"/><path fill="#23130C" d="M218.427 17.5854s7.082-3.0107 11.577 1.5107c0 0 5.012 4.016 3.631 16.068 0 0 .506-3.3 2.758-2.9907 0 0 6.746-26.304-17.966-27.3094v12.7214Z"/><path fill="#23130C" d="M209.945 17.0852s-7.532-11.0493.838-13.8946c0 0 3.85-1.3387 8.205-1.0027v15.3973s-4.188-2.1733-9.043-.5Z"/><path fill="#23130C" d="M227.927 17.0852s7.533-11.0493-.84-13.8946c0 0-3.848-1.3387-8.2-1.0027v15.3973s4.184-2.1733 9.04-.5Z"/></g><g clip-path="url(#b)"><path fill="#5F1F2A" d="M106.388 79.7732h39.796V23.2549h-39.796v56.5183Z"/><path fill="#2F0D11" d="M110.067 79.7732h32.438V23.2549h-32.438v56.5183Z"/><path fill="#5F1F2A" d="M107.172 36.7451s2.848 13.4733 15.02 16.7187h6.967s11.394-2.8227 14.386-16.4254l-36.373-.2933Z"/><path fill="#FABA75" d="m108.612 132.485 11.799 104.755h4.521l.777-104.755h-17.097Z"/><path fill="#FABA75" d="m125.647 132.827 4.849 104.756h4.521l7.732-104.756h-17.102Z"/><path fill="#FABA75" d="M140.821 112.817c-1.488-3.049-2.437-5.529-3.038-7.35h-24.146c-.601 1.821-1.55 4.301-3.038 7.35h.068s-4.652 9.139-1.644 21.312h33.328c3.008-12.173-1.643-21.312-1.643-21.312h.113Z"/><path fill="#FABA75" d="m145.075 67.4293 16.677 29.0214 1.265 2.2026-1.666 1.7617-17.023 18.002c-.647.686-1.724.716-2.409.068-.626-.594-.7-1.554-.208-2.234l.097-.136 14.627-20.199-.4 3.9613-17.996-28.236c-1.218-1.9093-.655-4.4439 1.257-5.6599 1.909-1.2187 4.444-.6574 5.661 1.2533l.09.1467.028.0479ZM113.78 71.8494 94.0547 98.536l.0933-3.7266 14.816 23.9676c.492.799.244 1.85-.553 2.343-.747.461-1.707.28-2.235-.391l-.091-.117-17.5556-22.2146c-.792-1.0054-.8107-2.376-.1334-3.384l.228-.3414 18.475-27.576c1.26-1.8813 3.81-2.384 5.689-1.124 1.881 1.2627 2.385 3.8094 1.127 5.6894l-.102.144-.033.044ZM130.373 63.3333h-9.477l1.492-10.2054h6.613l1.372 10.2054Z"/><path fill="#260A0C" d="m121.649 58.1693.654-4.46v.0013l-.651 4.4574-.003.0013Zm7.636-2.9333-.206-1.536c.005-.0014.01-.0041.016-.0054l.237 1.4653c-.015.0254-.031.0507-.047.0761Z"/><path fill="#B98955" d="m121.652 58.1679.651-4.4573c1.125.4334 2.25.6494 3.376.6494 1.06 0 2.118-.1907 3.174-.5747.075-.028.151-.056.226-.0853l.206 1.536c-.922 1.424-3.286 1.688-5.022 1.9346-.987.1414-1.834.5013-2.611.9973Z"/><path fill="#FABA75" d="m142.181 65.3802-12.072-5.0347h-8.801l-12.067 5.0347s-3.498 2.92-.864 10.5253l6.208 26.0895s-.666 4.017-3.986 10.822h30.222c-3.32-6.805-3.984-10.822-3.984-10.822l6.206-26.0895c2.634-7.6053-.862-10.5253-.862-10.5253Z"/><path fill="#fff" d="M143.003 76.0255c-3.238-2.4293-3.535-7.7133-.9-10.676l-10.774-4.5787-5.665.6387-5.749-.5107-10.506 4.4067c2.718 2.9907 2.39 8.4133-.994 10.8093l6.156 25.8802s-.662 4.017-3.984 10.822h30.225c-3.324-6.805-3.987-10.822-3.987-10.822l6.178-25.9695Z"/><path fill="#FABA75" d="M140.783 34.5053c-.339 2.5266.681 4.7466 2.272 4.9586 1.588.2107 3.148-1.6653 3.486-4.1946.335-2.528-.682-4.748-2.276-4.96-1.586-.212-3.146 1.6666-3.482 4.196Z"/><path fill="#B98955" d="M144.748 36.5401s.036-.1386.099-.3693c.028-.116.082-.252.116-.4187.032-.164.069-.3466.121-.5453.033-.1947.072-.4053.112-.632.039-.22.036-.4773.068-.732.021-.2213-.013-.4787-.059-.7227s-.121-.4906-.226-.7106c-.104-.224-.247-.42-.42-.5414l-.114-.0746-.156-.0614-.308-.028c-.397.028-.692.4214-.866.76-.171.3507-.274.68-.323.9134-.02.1106-.036.2013-.045.2653-.016.0213-.023.0413-.024.0573-.01-.0586-.022-.172-.026-.332 0-.2426.01-.6026.144-1.016.071-.2066.164-.4306.332-.64.166-.2093.42-.4093.742-.4586a1.297 1.297 0 0 1 .201-.0147c.093 0 .185.0093.276.024l.223.0667.232.1266c.27.192.464.456.596.7267.126.2787.212.5653.257.848.049.2907.061.572.017.8653-.044.2574-.068.4974-.142.7347-.07.2387-.132.4613-.203.6613-.081.1947-.159.372-.228.5254-.064.1573-.149.284-.2.3906-.12.2134-.196.332-.196.332Z"/><path fill="#B98955" d="M143.236 37.2974c-.316 0-.652-.1734-.772-.448a2.934 2.934 0 0 1-.041-.1854l-.003.0027c-.023-.4267.432-1.1147.649-1.4067 0 0 .687-.928-.338-1.5106 0 0-.012-.0187-.008-.0494.004.0334.008.0494.008.0494s.005-.0374.016-.1067c.06-.084.258-.1933.857-.2413 0 0 1.168.152.569 1.4173-.13.272-.238.556-.29.8507-.08.4226.142.9906-.108 1.3693-.123.18-.327.2587-.539.2587Z"/><path fill="#8C6640" d="M142.731 33.7493s-.004-.016-.008-.0494c.001-.016.008-.036.024-.0573-.011.0693-.016.1067-.016.1067Z"/><path fill="#B98955" d="M143.271 38.364c-.034 0-.168-.004-.351-.064l-.328-.1732-.164-.1454-.127-.188-.101-.208-.039-.224.004-.208.043-.1814.137-.2346.075-.0707a.8585.8585 0 0 0 .005.0534.6258.6258 0 0 0 .039.1293c.011.044.024.0934.039.1427l.049.1386.052.1347.145.2733.075.1387.093.132.083.136.096.1173c.113.152.181.3013.181.3013h-.006Z"/><path fill="#8C6640" d="M142.464 36.8495a.6267.6267 0 0 1-.039-.1294.8552.8552 0 0 1-.005-.0533l.003-.0027s.014.0787.041.1854Z"/><path fill="#FABA75" d="M110.911 34.5053c.337 2.5266-.683 4.7466-2.271 4.9586-1.591.2107-3.148-1.6653-3.487-4.1946-.334-2.528.68-4.748 2.275-4.96 1.585-.212 3.145 1.6666 3.483 4.196Z"/><path fill="#B98955" d="M106.943 36.5401s-.075-.1186-.194-.332c-.052-.1066-.132-.2333-.2-.3906a24.8315 24.8315 0 0 1-.226-.5254c-.072-.2-.136-.4226-.206-.6613-.072-.2373-.097-.4773-.142-.7347-.042-.2933-.028-.5746.02-.8653.048-.2827.125-.5693.256-.848.13-.2707.325-.5347.594-.7267l.235-.1266.219-.0667c.092-.0147.185-.024.278-.024.067 0 .135.004.202.0147.32.0493.577.2493.742.4586.168.2094.262.4334.334.64.13.4134.142.7734.142 1.016-.004.16-.016.272-.025.332-.001-.0173-.009-.0373-.025-.06-.011-.064-.027-.1533-.047-.2626-.044-.2334-.149-.5627-.323-.9134-.174-.3386-.468-.732-.861-.76l-.307.028-.16.0614-.117.0746c-.169.1214-.315.3174-.416.5414-.107.22-.183.4666-.232.7106-.041.244-.075.5014-.056.7227.033.2547.031.512.075.732.037.2267.073.4373.106.632.054.1987.088.3813.122.5453.032.1667.086.3027.112.4187.068.2307.1.3693.1.3693Z"/><path fill="#B98955" d="M108.457 37.2974c-.213 0-.417-.0787-.537-.2587-.253-.3787-.032-.9467-.107-1.3693-.057-.2947-.161-.5787-.294-.8507-.596-1.2653.569-1.4173.569-1.4173.595.048.795.156.859.2386.012.0707.017.1094.017.1094s.004-.016.008-.0494c.004.0307-.008.0494-.008.0494-1.023.5826-.339 1.5106-.339 1.5106.218.292.675.98.647 1.4067l-.003-.0027s-.013.0747-.037.1787c-.116.2787-.456.4547-.775.4547Z"/><path fill="#8C6640" d="M108.964 33.7493s-.005-.0387-.017-.1094c.016.0227.024.0427.025.06-.004.0334-.008.0494-.008.0494Z"/><path fill="#B98955" d="M108.42 38.364h-.007s.072-.1493.184-.3013l.095-.1173.085-.136.091-.132.075-.1387.142-.2733.058-.1347.049-.1386c.015-.052.028-.104.04-.1493a.5583.5583 0 0 0 .035-.1227.8585.8585 0 0 0 .005-.0534l.077.0707.136.2346.043.1814.003.208-.039.224-.099.208-.129.188-.164.1454-.328.1732c-.18.06-.319.064-.352.064Z"/><path fill="#8C6640" d="M109.232 36.8424c.024-.104.037-.1786.037-.1786l.003.0026a.848.848 0 0 1-.005.0533.5567.5567 0 0 1-.035.1227Z"/><path fill="#FABA75" d="M134.392 8.2682s-3.739-1.672-8.736-1.6947c-4.952.0226-8.696 1.6947-8.696 1.6947s-14.125 6.7746-5.413 34.9653c1.246 4.0346 5.04 7.1306 8.608 9.384 3.678 2.3266 7.381 2.3213 11.042 0 3.568-2.2534 7.362-5.3494 8.608-9.384 8.714-28.1907-5.413-34.9654-5.413-34.9654Z"/><path fill="#2C0C0F" d="M129.095 53.6945c.51-.2 1.022-.4454 1.533-.7347l.001-.0013c-.51.2906-1.022.536-1.534.736Z"/><path fill="#581D26" d="M130.628 52.9599c.189-.108.38-.2227.569-.3427-.189.12-.378.2347-.568.3413l-.001.0014Z"/><path fill="#E9E9E9" d="M126.12 6.5802c-.133-.004-.267-.0054-.4-.0067h-.045c.149 0 .297.0027.445.0067Z"/><path fill="#E5AA6A" d="M125.68 54.3599c1.472 0 2.949-.5827 4.409-1.7427 2.851-2.2533 5.882-5.3493 6.878-9.384.55-2.228.988-4.324 1.324-6.292.93-.5653 1.485-1.348 1.41-2.1613-.048-.5467-.373-1.028-.888-1.4054 2.399-19.9653-6.17-25.1066-6.17-25.1066s-2.962-1.6533-6.923-1.6947c.133.0014.267.0027.4.0067h.021c4.748.1254 8.251 1.688 8.251 1.688s8.26 3.9613 8.252 18.4293c-.001 1.3413-.073 2.7747-.229 4.3013-.218 2.1254-.598 4.4374-1.176 6.9467-.387 1.6733-.86 3.4333-1.434 5.288-1.246 4.0347-5.04 7.1307-8.608 9.384-.189.12-.38.2347-.569.3427-.511.2893-1.023.5346-1.533.7346-.006.0014-.011.004-.016.0054-.075.0293-.151.0573-.226.0853-1.056.3827-2.114.5747-3.173.5747ZM125.677 54.3599c-1.842 0-3.682-.58-5.522-1.7427-3.568-2.2533-7.362-5.3493-8.608-9.384-.526-1.6987-.967-3.3173-1.334-4.864-.662-2.7907-1.082-5.34-1.305-7.664-.136-1.4187-.199-2.7533-.2-4.008-.008-14.468 8.252-18.4293 8.252-18.4293s3.744-1.672 8.696-1.6947h.001c-3.958.024-6.948 1.6947-6.948 1.6947s-8.568 5.144-6.173 25.1093c-.513.3773-.837.8587-.885 1.4027-.074.8133.48 1.5933 1.406 2.1586.336 1.9694.774 4.064 1.324 6.2947 1.002 4.0347 4.031 7.1307 6.882 9.384 1.468 1.1627 2.941 1.7427 4.414 1.7427Z"/><path fill="#D19B61" d="m122.977 38.3905 1.192-.0533c.623-.0347 1.191-.0694 1.668-.0801.124.0254.247-.0159.375.0121.127-.0014.26-.0014.4.0199.277 0 .583.0281.891.0401.306.0253.597.02.826.0426.228.0214.384.0467.384.0467s-.001.1453-.049.3787c-.055.224-.131.5666-.356.8693-.192.3427-.525.6533-.948.9147-.436.2346-.975.3973-1.528.392-1.128.0026-2.095-.6387-2.476-1.3121-.432-.6453-.379-1.2706-.379-1.2706Z"/><path fill="#331E15" d="M116.399 31.104c.03.984.853 1.7573 1.837 1.7267.985-.0307 1.756-.8547 1.727-1.8387-.034-.9813-.858-1.756-1.84-1.724-.983.0293-1.755.8533-1.724 1.836Z"/><path fill="#1A0D08" d="M117.543 31.1119c.013.356.308.636.665.6254a.6458.6458 0 0 0 .624-.6667.6445.6445 0 0 0-.668-.6227c-.351.0094-.631.3067-.621.664Z"/><path fill="#1D0F09" d="M121.365 30.848c-.3.0186-.588-.1241-.87-.2227-.267-.1334-.511-.3027-.772-.4547l-.016-.016c-.251-.1653-.554-.3266-.842-.4133-.292-.088-.585-.12-.864-.056-.566.096-1.076.5147-1.552 1.012l.014-.0187c-.126.16-.246.2627-.39.3654-.141.0986-.297.1799-.465.2146-.333.084-.679.0374-.948-.1133.309 0 .596-.0467.819-.2013l.3-.2507.209-.3.012-.02.317-.4867c.138-.1413.262-.2987.418-.428.302-.2733.7-.464 1.124-.5586.429-.0787.88-.0227 1.261.1386.387.168.711.3893.991.7133l-.018-.0159c.408.3746.762.8333 1.272 1.112Z"/><path fill="#1D0F09" d="M116.377 30.6094s-.524.152-1.068.136c-.268-.008-.557-.0907-.693-.2534-.132-.1626-.116-.3066-.127-.3013.008-.008.027.14.17.256.145.116.398.136.641.0987.489-.0813.936-.3107.936-.3107l.141.3747Z"/><path fill="#1D0F09" d="M116.629 30.3171s-.542.0627-1.076-.0439c-.264-.0534-.533-.1814-.642-.364-.106-.1814-.066-.3227-.078-.3187.01-.0053.004.144.127.2813.124.1374.372.2014.617.2027.498.0013.976-.1507.976-.1507l.076.3933Z"/><path fill="#fff" d="M116.861 30.6588c.008.248.214.4413.458.4333.245-.0066.437-.2119.432-.4586-.011-.248-.212-.4413-.462-.4333-.242.008-.438.2146-.428.4586Z"/><path fill="#fff" d="M117.551 31.0999c.005.124.11.2201.232.2147.122-.004.218-.1067.216-.2293-.003-.1227-.108-.2213-.23-.216-.128.0027-.226.1053-.218.2306Z"/><path fill="#5F1F2A" d="M113.669 27.4931s2.028-2.952 7.38-1.3547c0 0 1.414.4347 2.012.8933 0 0 .739-.0893.51-1.9826 0 0-8.972-3.5494-9.902 2.444Z"/><path fill="#331E15" d="M135.295 31.104c-.032.984-.855 1.7573-1.835 1.7267-.987-.0307-1.763-.8547-1.728-1.8387.029-.9813.855-1.756 1.837-1.724.983.0293 1.758.8533 1.726 1.836Z"/><path fill="#1A0D08" d="M134.149 31.1119c-.013.356-.31.636-.664.6254-.357-.0134-.633-.3107-.624-.6667.014-.356.307-.6347.662-.6227.361.0094.637.3067.626.664Z"/><path fill="#1D0F09" d="M130.328 30.8478c.509-.2773.861-.736 1.268-1.1107l-.016.0147c.28-.324.604-.5453.991-.7133.382-.1614.833-.2174 1.262-.1387.423.0947.822.2853 1.124.5587.158.1293.28.2866.419.428l.316.4866.012.02.211.3014.3.2493c.221.1547.509.2013.817.2013-.268.1507-.613.1974-.947.1147-.168-.036-.325-.1173-.466-.2147-.144-.104-.264-.2066-.388-.368l.012.02c-.476-.4973-.986-.916-1.552-1.012-.279-.064-.574-.032-.866.056-.288.0867-.592.248-.841.4134l-.016.0146c-.261.1534-.504.3227-.771.456-.281.1-.57.244-.869.2227Z"/><path fill="#1D0F09" d="M135.453 30.2347s.447.232.939.3107c.243.0373.497.0173.643-.0987.144-.116.162-.264.17-.256-.01-.0053.006.1387-.128.3013-.137.1627-.425.2454-.694.2534-.546.016-1.071-.136-1.071-.136l.141-.3747Z"/><path fill="#1D0F09" d="M135.137 29.9238s.479.152.978.1507c.245-.0013.492-.0653.617-.2027.123-.1373.117-.2866.127-.2813-.012-.004.028.1373-.078.3187-.109.1826-.38.312-.642.364-.535.1066-1.078.0439-1.078.0439l.076-.3933Z"/><path fill="#fff" d="M134.832 30.6588a.4449.4449 0 0 1-.459.4333c-.245-.0066-.437-.2119-.43-.4586.009-.248.21-.4413.46-.4333.245.008.438.2146.429.4586Z"/><path fill="#fff" d="M134.141 31.0999c-.004.124-.108.2201-.229.2147-.124-.004-.223-.1067-.217-.2293.001-.1227.106-.2213.23-.216.123.0027.219.1053.216.2306Z"/><path fill="#5F1F2A" d="M138.023 27.4931s-2.028-2.952-7.379-1.3547c0 0-1.415.4347-2.013.8933 0 0-.736-.0893-.51-1.9826 0 0 8.972-3.5494 9.902 2.444Z"/><path fill="#F9AE77" d="M134.916 37.8146c-2.123 0-3.84-.9414-3.957-2.256-.102-1.1467 1.045-2.2307 2.73-2.7347.184-.0187.36-.064.524-.1347.284-.0613.579-.1066.884-.1333.223-.02.443-.0293.658-.0293 1.238 0 2.336.3213 3.058.848-.137 1.14-.31 2.328-.522 3.5667-.723.44-1.671.7506-2.727.8453-.22.0186-.436.028-.648.028Z"/><path fill="#E8A26E" d="M138.291 36.9415c.212-1.2387.385-2.4267.522-3.5667.515.3774.84.8587.888 1.4054.075.8133-.48 1.596-1.41 2.1613Z"/><path fill="#4F2D23" d="M133.689 32.8239c.17-.052.344-.096.524-.1347-.164.0707-.34.116-.524.1347Z"/><path fill="#F9AE77" d="M116.433 37.8146c-.213 0-.429-.0094-.649-.028-1.056-.0947-2.005-.4053-2.727-.848a71.8108 71.8108 0 0 1-.521-3.5613c.724-.5294 1.823-.8507 3.061-.8507.216 0 .436.0093.658.0293 2.414.2147 4.266 1.5587 4.134 3.0027-.116 1.3146-1.83 2.256-3.956 2.256Z"/><path fill="#E8A26E" d="M113.057 36.9386c-.926-.5654-1.48-1.3453-1.406-2.1587.048-.544.372-1.0253.885-1.4027a71.797 71.797 0 0 0 .521 3.5614Z"/><path fill="#fff" d="M143.845 38.8252c0 .5707-.46 1.0347-1.028 1.0347-.572 0-1.034-.464-1.034-1.0347 0-.568.462-1.032 1.034-1.032.568 0 1.028.464 1.028 1.032ZM109.909 38.8252c0 .5707-.465 1.0347-1.032 1.0347-.57 0-1.03-.464-1.03-1.0347 0-.568.46-1.032 1.03-1.032.567 0 1.032.464 1.032 1.032ZM120.528 43.832c1.1 2.32 3.065 3.8706 5.316 3.8706 2.255 0 4.22-1.5506 5.321-3.8706h-10.637Z"/><path fill="#D7504F" d="M120.528 43.832s.205.1346.528.392c.152.136.355.292.565.4306.219.1454.426.308.691.4654.508.3306 1.103.62 1.695.8546.31.076.602.208.916.236.154.0214.302.0734.46.0654l.232.0133.114.008.059.0053.028.0027h.015l.006.0013h.004l-.114.0054c.426-.0267.928-.0547 1.09-.1174.227-.0066.572-.1493.867-.2226.288-.136.605-.2254.876-.396.292-.1334.561-.2974.817-.4587.263-.1533.482-.3333.703-.4787.216-.152.408-.292.559-.4186.314-.2454.526-.388.526-.388s.004.2386-.042.66c-.024.2106-.056.472-.159.7453-.092.2787-.177.6173-.375.9293-.17.3307-.373.6907-.672 1.016-.266.3534-.641.648-1.034.956-.44.2574-.839.544-1.456.696-.652.2147-1.024.2067-1.462.2587l-.125.0053-.007-.0013-.012-.0013-.026-.0014-.052-.004-.104-.0093-.21-.0187-.414-.044c-.28-.0106-.536-.128-.798-.1973-.53-.136-.981-.428-1.406-.6853-.394-.308-.767-.604-1.034-.956-.298-.3254-.5-.6867-.67-1.016-.195-.3054-.292-.6627-.386-.944-.11-.2827-.132-.528-.152-.732-.041-.4094-.041-.656-.041-.656Z"/><path fill="#D7504F" d="M131.165 43.8319s-.665.3014-1.662.516c-.998.224-2.327.3867-3.656.3867-1.33.0027-2.659-.16-3.656-.3853-.998-.2134-1.663-.5174-1.663-.5174s.665-.304 1.663-.5173c.997-.224 2.326-.388 3.656-.3854 1.329 0 2.658.1627 3.656.3867.997.2147 1.662.516 1.662.516Z"/><path fill="#5F1F2A" d="M109.409 34.6478s0-4.6013-2.554-4.2586c-2.302-19.08 6.465-21.2787 6.465-21.2787-.455-3.4067 4.205-6.3587 4.205-6.3587 12.106-5.7493 19.963.1027 19.963.1027 13.045 8.696 7.692 27.5347 7.692 27.5347-3.511-.612-3.763 4.2586-3.763 4.2586-.34-15.3359-5.112-18.4026-5.112-18.4026-11.186-6.1947-21.784 0-21.784 0s-2.925 3.2413-2.354 8.012c0 0-2.502 1.3653-2.758 10.3906Z"/><path fill="#FABA75" d="m115.965 16.3385-1.188-4.6906 2.446 4.1746-1.258.516Z"/><path fill="#131A1E" d="m112.659 169.367-4.047-36.882h.052c-2.229-11.341 2.003-19.668 2.003-19.668h-.068c1.488-3.049 2.437-5.529 3.038-7.35h24.146c.601 1.821 1.55 4.301 3.038 7.35h-.113s4.317 8.492 1.936 20.01h.105l-2.582 36.54h-27.508Z"/><path fill="#5A3114" d="M138.079 106.629h-24.782l-1.462 3.556h27.702l-1.458-3.556Z"/><path fill="#F9A72B" d="M127.709 110.291v-.634h-3.356v-2.504h2.723v3.138h1.267v-4.403h-5.255v5.035h5.255v-.632h-.634Z"/><path fill="#F9A72B" d="M127.88 108.809h-1.724v-.806h1.724v.806Z"/><path fill="#141D20" d="M134.897 110.831h-1.612v-5.388h1.612v5.388ZM118.089 110.831h-1.613v-5.388h1.613v5.388Z"/><path fill="#D82930" d="M98.5867 93.0374 114.665 71.16c.402-2.1413-1.27-5.656-3.416-6.0587-2.142-.4013-4.08 1.0721-5.084 3.0774L92.5654 87.912l6.0213 5.1254ZM151.137 91.724l7.198-4.5947-12.816-18.504c-.407-2.1427-3.211-4.0973-5.351-3.6933-2.143.4027-3.467 2.948-3.06 5.0893l14.029 21.7027Z"/><path fill="#FABA75" d="m124.932 236.25-4.604-.002c-.043.807.129 1.76-.152 2.593 0 0-1.387 2.104-7.691 5.061 0 0-1.698.623-.046 1.668 0 0 1.477 1.194 3.924.004l6.537-2.796s3.355-.575 2.095-4.73c-.09-.632-.066-1.271-.063-1.798Z"/><path fill="#D82930" d="m117.851 246.511 4.889-3.11 1.253-.737c2.506-1.341 1.054-4.44 1.054-4.44-.09 2.877-5.935 5.58-5.935 5.58-2.337 1.448-4.964 1.107-4.964 1.107-2.521-.439-.077-1.794-.077-1.794-2.879 1.362-4.548 2.194-4.548 2.194s-2.283 1.718 1.613 2.213c0 0 4.252.516 6.715-1.013Z"/><path fill="#711316" d="M125.447 239.841c-2.11 3.062-8.818 7.87-14.599 7.058-1.081-.298-1.563-.488-1.912-.886-.247.532.103 1.382 2.368 1.532 0 0 4.084.495 6.547-1.034l4.889-3.11.087-.052c.182.478.348 1.296.152 2.594l.672-.331s-.287-1.98 1.054-3.463l-.002-.01c.674-.68.801-1.548.744-2.298Z"/><path fill="#fff" d="M116.997 245.493c-1.134.377-2.192.651-3.394.749-1.04.086-2.075-.073-3.111-.065l-.021.131c1.97.433 4.788.322 6.592-.664l-.066-.151Z"/><path fill="#FABA75" d="m130.376 236.25 4.603-.002c.041.807-.128 1.76.15 2.593 0 0 1.39 2.104 7.694 5.061 0 0 1.7.623.05 1.668 0 0-1.482 1.194-3.925.004l-6.537-2.796s-3.358-.575-2.095-4.73c.087-.632.063-1.271.06-1.798Z"/><path fill="#D82930" d="m137.457 246.511-4.889-3.11-1.256-.737c-2.505-1.341-1.051-4.44-1.051-4.44.092 2.877 5.934 5.58 5.934 5.58 2.341 1.448 4.964 1.107 4.964 1.107 2.525-.439.077-1.794.077-1.794 2.881 1.362 4.552 2.194 4.552 2.194s2.277 1.718-1.617 2.213c0 0-4.248.516-6.714-1.013Z"/><path fill="#711316" d="M129.865 239.841c2.104 3.062 8.819 7.87 14.598 7.058 1.081-.298 1.56-.488 1.909-.886.247.532-.101 1.382-2.365 1.532 0 0-4.084.495-6.55-1.034l-4.889-3.11-.088-.052c-.177.478-.344 1.296-.155 2.594l-.665-.331s.281-1.98-1.056-3.463l.003-.01c-.674-.68-.803-1.548-.742-2.298Z"/><path fill="#fff" d="M138.305 245.493c1.139.377 2.195.651 3.4.749 1.042.086 2.074-.073 3.114-.065l.016.131c-1.968.433-4.788.322-6.59-.664l.06-.151Z"/><path fill="#D82930" d="M119.645 112.579V60.7705l-10.236 4.292c2.718 2.992 2.39 8.4147-.994 10.812l6.156 25.8805s-.662 4.016-3.984 10.824h9.058ZM143.003 75.7839c-3.238-2.4293-3.535-7.712-.9-10.6746l-9.963-4.236v51.7057h8.672c-3.324-6.808-3.987-10.824-3.987-10.824l6.178-25.9711Z"/><path fill="#E0E0E0" d="m125.641 61.3428-4.313-3.2986-5.089 3.536 5.053 6.4306 4.349-6.668Z"/><path fill="#E0E0E0" d="m125.625 61.3428 4.315-3.2986 5.088 3.536-5.056 6.4306-4.347-6.668Z"/><path fill="#FABA75" d="M106.505 120.908c.031.793 2.139 2.131 2.139 2.131l1.439 1.676c.234.222.438.042.438.042.191-.12.091-.34.091-.34l-1.048-1.838c1.355 1.214 2.665 1.976 2.665 1.976.312.213.5.086.5.086.251-.188.074-.393.074-.393-.787-.599-2.391-2.469-2.391-2.469.272.305 2.545 2.082 2.545 2.082.538.499.83.406.83.406.49-.186.193-.574.193-.574-.839-.625-3.332-2.865-3.332-2.865l3.033 2.111c.66.472.796.206.796.206.304-.348-.321-.84-.321-.84l-4.645-3.74s-.892-.337-.223-1.894c0 0-3.233 1.002-2.783 4.237ZM144.059 118.456c-.035.795-2.147 2.129-2.147 2.129l-1.436 1.678c-.235.22-.439.044-.439.044-.186-.122-.089-.34-.089-.34l1.044-1.842c-1.352 1.216-2.66 1.978-2.66 1.978-.316.212-.503.086-.503.086-.253-.189-.068-.393-.068-.393.784-.599 2.387-2.469 2.387-2.469-.275.302-2.545 2.081-2.545 2.081-.535.499-.828.407-.828.407-.491-.186-.198-.576-.198-.576.842-.622 3.334-2.862 3.334-2.862l-3.034 2.108c-.656.474-.794.208-.794.208-.306-.349.322-.84.322-.84l4.646-3.741s.889-.332.221-1.895c0 0 3.232 1.003 2.787 4.239Z"/></g><g clip-path="url(#c)"><path fill="#080707" d="m316.658 234.88 2.045 4.716c3.026 6.042-3.367 6.095-3.367 6.095-8.352.495-6.795-5.115-6.795-5.115l.902-5.696s3.608 1.38 7.215 0Z"/><path fill="#080707" d="M314.332 245.722c-4.874-.001-5.806-2.348-5.897-3.873.311 1.47 1.56 3.256 5.816 3.256.316 0 .65-.01 1.001-.031 0 0 4.41-.041 4.165-3.52.829 4.029-3.924 4.135-4.078 4.136h-.004c-.352.022-.686.032-1.003.032Z"/><path fill="#322420" d="m316.285 233.532 1.912 4.608c2.92 6.515-3.13 6.18-3.13 6.18-8.173.365-6.363-5.225-6.363-5.225l.842-5.563s3.371 1.348 6.739 0Z"/><path fill="#080707" d="M314.613 244.355c-.45 0-.868-.018-1.256-.051.303.022.624.033.965.033.238 0 .487-.006.745-.018 0 0 .053.003.146.003.13 0 .339-.005.594-.032-.392.057-.68.06-.751.06h-.016c-.146.003-.287.005-.427.005Z"/><path fill="#9E9D9D" d="M308.519 240.665c-.058-.88.185-1.57.185-1.57s-.21.648-.164 1.486c-.004.012-.011.04-.021.084Z"/><path fill="#080707" d="M309.539 242.907c-.728-.697-.972-1.531-1.02-2.242.01-.044.017-.072.021-.084.039.729.27 1.604.999 2.326Z"/><path fill="#271B18" d="M314.322 244.337c-.341 0-.662-.011-.965-.033-1.921-.166-3.103-.715-3.818-1.397-.729-.722-.96-1.597-.999-2.326-.046-.838.164-1.486.164-1.486l.842-5.563s.647.261 1.658.437c-.907 3.552-1.306 7.96 3.189 8.853.366.074.74.11 1.113.11 1.234 0 2.464-.389 3.425-1.087-.342 1.78-2.091 2.296-3.124 2.446-.255.026-.464.031-.594.031-.093 0-.146-.002-.146-.002-.258.012-.507.017-.745.017Z"/><path fill="#080707" d="m282.883 234.88-2.044 4.716c-3.026 6.042 3.367 6.095 3.367 6.095 8.351.495 6.794-5.115 6.794-5.115l-.902-5.696s-3.608 1.38-7.215 0Z"/><path fill="#080707" d="M285.209 245.722c-.317 0-.651-.01-1.003-.032h-.004c-.154-.001-4.907-.107-4.077-4.136-.246 3.479 4.165 3.52 4.165 3.52.351.021.685.031 1.001.031 4.254 0 5.505-1.786 5.816-3.256-.002.024-.003.049-.005.073-.117 1.527-1.096 3.8-5.893 3.8Z"/><path fill="#322420" d="m283.256 233.532-1.91 4.608c-2.922 6.515 3.129 6.18 3.129 6.18 8.172.365 6.363-5.225 6.363-5.225l-.843-5.563s-3.37 1.348-6.739 0Z"/><path fill="#080707" d="M284.929 244.355c-.14 0-.282-.002-.427-.005h-.016c-.071 0-.36-.003-.753-.061.256.028.467.033.597.033.093 0 .145-.003.145-.003.258.012.507.018.745.018.34 0 .661-.011.963-.033-.387.033-.804.051-1.254.051Z"/><path fill="#9E9D9D" d="M291.022 240.672a2.4209 2.4209 0 0 0-.02-.086c.047-.842-.163-1.491-.163-1.491s.244.693.183 1.577Z"/><path fill="#080707" d="M289.992 242.917c.735-.722.97-1.6 1.01-2.331.004.015.011.044.02.086-.049.713-.296 1.549-1.03 2.245Z"/><path fill="#271B18" d="M285.22 244.337c-.238 0-.487-.005-.745-.017 0 0-.052.002-.145.002-.13 0-.341-.005-.597-.032-1.033-.149-2.78-.665-3.121-2.445.96.698 2.19 1.087 3.424 1.087.372 0 .745-.036 1.112-.11 4.495-.893 4.097-5.301 3.19-8.853 1.01-.176 1.657-.437 1.657-.437l.844 5.563s.21.649.163 1.491c-.04.731-.275 1.609-1.01 2.331-.716.679-1.897 1.223-3.809 1.387-.302.022-.623.033-.963.033Z"/><path fill="#141D20" d="M318.049 235.171h-9.413l-7.257-63.521-4.308-27.058-4.757 65.723s-.072 18.141-.61 24.271h-10.445l-2.151-94.141s-.14-3.953-.371-10.54v-15.532h35.86v15.532l3.452 105.266Z"/><path fill="#5A3114" d="m314.841 133.393.109-2.947v-2.029h-35.861v2.029c.036 1.054.07 2.034.102 2.947h35.65Z"/><path fill="#F9A72B" d="M299.808 133.544v-.953h-4.625v-3.372h3.671v4.325h1.908v-6.232h-7.486v7.187h7.486v-.955h-.954Z"/><path fill="#F9A72B" d="M300.048 131.469h-2.412v-1.13h2.412v1.13Z"/><path fill="#141D20" d="M310.226 134.296h-2.262v-7.539h2.262v7.539ZM286.705 134.296h-2.262v-7.539h2.262v7.539Z"/><path fill="#FABA75" d="M281.044 75.6827s-.269 2.0827-.95 5.1294c-.646 3.056-1.726 7.072-2.964 11.0453a186.03 186.03 0 0 1-1.93 5.8013c-.661 1.84-1.224 3.5723-2.021 4.9703-.781 1.402-1.643 2.511-2.378 3.254-.348.374-.671.657-.899.846-.237.188-.362.29-.362.29-1.013.804-2.486.636-3.29-.376-.154-.192-.275-.411-.359-.63 0 0-.056-.15-.163-.432-.099-.28-.233-.688-.339-1.188-.253-1.013-.425-2.409-.377-4.013.03-1.6093.433-3.3853.806-5.3026.388-1.916.833-3.9493 1.313-5.9733.969-4.0467 2.096-8.0494 3.106-11.0054.974-2.9666 1.809-4.8933 1.809-4.8933 1.034-2.388 3.81-3.4867 6.197-2.452 1.972.8547 3.062 2.9 2.801 4.9293ZM322.556 68.8412s.21.6173.579 1.696c.344 1.0866.853 2.6333 1.372 4.512.553 1.8693 1.118 4.0706 1.724 6.428.313 1.176.572 2.408.87 3.6506.283 1.2467.6 2.5054.865 3.7774 1.103 5.0746 2.042 10.188 2.69 14.0368.319 1.927.075 3.653-.302 4.911-.2.631-.408 1.139-.582 1.494-.198.358-.304.552-.304.552-.684 1.236-2.239 1.685-3.475 1.002l-.207-.128s-.18-.124-.52-.356c-.315-.237-.729-.597-1.191-1.07-.904-.954-1.898-2.386-2.481-4.248-1.154-3.73-2.617-8.7192-3.917-13.7472-.336-1.2546-.62-2.5213-.929-3.7626-.292-1.2427-.615-2.4587-.866-3.6507-.52-2.3787-1.006-4.5973-1.354-6.5173-.383-1.9094-.624-3.52-.805-4.6454-.158-1.1306-.248-1.776-.248-1.776-.356-2.564 1.433-4.932 3.998-5.2893 2.263-.3147 4.373 1.044 5.083 3.1307ZM292.246 59.3306h9.218v-9.0308h-9.218v9.0308Z"/><path fill="#B98955" d="M292.246 57.8198v-6.4253c.81.476 1.632.912 2.424 1.264 0 0 .91.2627 2.137.708v.0426l.053-.0213.054.0213v-.0426c1.226-.4453 2.136-.7107 2.136-.7107.789-.3506 1.607-.7853 2.414-1.2586v.972c-2.112 2.8386-5.878 2.248-8.402 4.4533-.326.2827-.593.6227-.816.9973Z"/><path fill="#FABA75" d="M310.47 32.1905c-.329 2.448.658 4.6 2.198 4.804 1.54.2067 3.053-1.6133 3.377-4.064.325-2.448-.659-4.5973-2.2-4.8027-1.538-.2066-3.049 1.612-3.375 4.0627Z"/><path fill="#B98955" d="M314.314 34.164s.032-.1334.095-.3574c.027-.112.078-.2453.11-.4053.031-.16.067-.3373.117-.528.033-.188.068-.396.104-.6147.042-.212.04-.4626.07-.7106.022-.2107-.014-.4627-.055-.7-.045-.236-.119-.4734-.223-.6867-.097-.2173-.236-.404-.402-.524l-.114-.072-.152-.0613-.296-.0267c-.176.012-.331.0987-.464.22.021-.1813.041-.3613.06-.5387.103-.0573.217-.0986.341-.1173.063-.0107.126-.0147.189-.0147.091 0 .181.0094.274.024l.211.0654.227.1213c.263.184.451.4427.578.7067.124.268.201.5453.25.8213.047.2813.058.552.016.836-.044.2493-.068.4827-.138.7133-.067.2294-.126.448-.198.64-.077.1867-.153.36-.218.5094-.066.1533-.144.276-.196.3786a8.8714 8.8714 0 0 1-.186.3214Z"/><path fill="#B98955" d="M312.846 34.8972a.9121.9121 0 0 1-.49-.1453l.274-1.7533c.019-.028.038-.0534.055-.0774 0 0 .395-.536.119-1.04l.024-.1466c.03-.196.058-.388.086-.58.083-.012.179-.024.288-.032 0 0 1.131.1453.55 1.3733-.124.264-.228.536-.283.8253-.072.408.142.9573-.103 1.324-.118.1747-.314.252-.52.252ZM312.884 35.9319c-.019 0-.155-.0013-.343-.064l-.32-.1707-.011-.0093.105-.672.06.116.073.1347.092.1266.079.1333.092.1121c.109.148.175.2933.175.2933h-.002Z"/><path fill="#FABA75" d="M283.239 32.1905c.327 2.448-.658 4.6-2.198 4.804-1.54.2067-3.052-1.6133-3.377-4.064-.326-2.448.658-4.5973 2.199-4.8027 1.541-.2066 3.051 1.612 3.376 4.0627Z"/><path fill="#B98955" d="M279.395 34.164s-.072-.1147-.186-.3214c-.05-.1026-.13-.2253-.194-.3786a13.752 13.752 0 0 1-.22-.5094c-.073-.192-.131-.4106-.199-.64-.069-.2306-.093-.464-.137-.7133-.041-.284-.031-.5547.017-.836.047-.276.123-.5533.249-.8213.127-.264.314-.5227.578-.7067l.226-.1213.213-.0654c.09-.0146.18-.024.272-.024.063 0 .127.004.19.0147.124.0187.238.06.34.1173.019.1787.039.356.06.5387-.132-.1213-.287-.208-.463-.22l-.295.0267-.155.0613-.112.072c-.165.12-.304.3067-.402.524-.105.2133-.179.4507-.223.6867-.043.2373-.076.4893-.056.7.031.248.028.4986.069.7106.038.2187.073.4267.105.6147.05.1907.087.368.118.528.031.16.083.2933.111.4053.062.224.094.3574.094.3574Z"/><path fill="#B98955" d="M280.863 34.8972c-.206 0-.404-.0773-.521-.252-.245-.3667-.029-.916-.104-1.324-.052-.2893-.157-.5613-.282-.8253-.58-1.228.552-1.3733.552-1.3733.109.008.204.02.287.032.028.1933.057.3893.088.5866l.014.1533c-.21.4-.004.816.088.968l.18 1.9814a.9081.9081 0 0 1-.302.0533ZM280.824 35.9319h-.003s.067-.1453.176-.2933l.092-.1121.08-.1333.041-.0573.044.4867-.085.0453c-.188.0627-.326.064-.345.064Z"/><path fill="#FABA75" d="M296.904 4.468V4.46l-.055.0026-.053-.0026v.008c-3.684.204-19.757 2.5066-15.913 27.2733l.943 10.3653s.822 2.3267 3.708 4.5213c0 0 4.968 4.1774 9.136 6.0307 0 0 .91.2627 2.137.708v.0427l.053-.0213.054.0213v-.0427c1.226-.4453 2.136-.7106 2.136-.7106 4.167-1.8534 9.134-6.0334 9.134-6.0334 2.885-2.196 3.024-4.5213 3.024-4.5213l1.62-10.3667c3.832-24.768-12.242-27.0653-15.924-27.2666Z"/><path fill="#E5AA6A" d="M296.807 53.4093v-.0427c-1.227-.4453-2.137-.708-2.137-.708-4.168-1.8533-9.136-6.0307-9.136-6.0307-2.886-2.1946-3.708-4.5213-3.708-4.5213l-.572-6.284-.044-.4866-.045-.4921-.18-1.9813-.088-.968-.014-.1533c-.031-.1973-.06-.3933-.088-.5867-.344-2.3813-.501-4.5493-.502-6.524-.001-18.1173 13.208-19.98 16.503-20.1626V4.46h.01v.008c-3.022.204-16.199 2.5066-13.046 27.2733l.774 10.364s.675 2.328 3.04 4.5226c0 0 4.073 4.1774 7.491 6.0307 0 0 .745.2627 1.752.708v.0374l-.01.0053ZM296.914 53.4093l-.01-.0053v-.0374c1.005-.4453 1.753-.7106 1.753-.7106 3.414-1.8534 7.487-6.0334 7.487-6.0334 2.364-2.1933 2.478-4.5213 2.478-4.5213l1.328-10.3667c3.142-24.7653-10.036-27.0653-13.057-27.2666V4.46h.011v.008c3.294.18 16.503 2.0373 16.51 20.156 0 1.976-.156 4.148-.5 6.5306-.028.192-.056.384-.086.58l-.024.1467-.174 1.1173-.274 1.7534-.042.264-.104.672-.173 1.1013-.829 5.312s-.139 2.3253-3.024 4.5213c0 0-4.967 4.18-9.134 6.0334 0 0-.91.2653-2.136.7106v.0427Z"/><path fill="#FABA75" d="M317.245 70.0651c1.206-5.0413-2.715-7.4853-2.715-7.4853l-13.459-5.3493h-8.433l-13.459 5.3493s-3.921 2.444-2.715 7.4853l5.378 37.8909s.252 1.896.05 6.417h29.955c-.402-3.115.021-6.417.021-6.417l5.377-37.8909Z"/><path fill="#A6E2F9" d="m301.455 57.3774 13.075 5.2027s3.921 2.444 2.715 7.4854l-1.011 61.2815h-39.706l-.064-61.2815c-1.206-5.0414 2.715-7.4854 2.715-7.4854l13.087-5.2173 4.524 1.9213 4.665-1.9067Z"/><path fill="#A6E2F9" d="M279.188 62.6094c2.313 6.0293-1.502 26.6693-1.502 26.6693l-11.554.0707 2.508-17.1054s-.303-4.5253 2.412-6.184l8.136-3.4506ZM329.054 89.2401l-4.522-18.3947s-.301-4.0226-3.417-5.5293l-6.856-2.808c-2.252 5.872 1.328 25.692 1.519 26.732h13.276Z"/><path fill="#351F17" d="M311.469 7.4173c-2.393-3.1747-11.255-3.42-13.93-3.428-3.727-.148-10.698.492-15.029 3.7786-4.595 6.756-3.031 20.748-3.031 20.748l1.15 2.9294.417 2.8946h.801s-1.566-9.5306 1.484-12.3266c0 0 .588-7.2454 3.959-8.2067 3.854-1.1987 7.189-1.0987 9.485-1.0667 3.425-.396 9.816.6 9.816.6 3.578.584 3.821 8.6734 3.821 8.6734 3.05 2.796 1.484 12.3266 1.484 12.3266h.8l.418-2.8946 1.144-3.232s2.298-13.6894-2.789-20.796Z"/><path fill="#1A333D" d="m291.06 57.8572-11.881 4.7226s-3.921 2.444-2.715 7.4854l.064 61.2808 14.532 5.235V57.8572ZM314.53 62.5802l-12.312-4.8947v78.7865l14.947-5.166.08-61.2405c1.206-5.0413-2.715-7.4853-2.715-7.4853Z"/><path fill="#1A333D" d="M279.188 62.6094c2.313 6.0293-1.502 26.6693-1.502 26.6693l-11.554.0707 2.508-17.1054s-.303-4.5253 2.412-6.184l8.136-3.4506Z"/><path fill="#FABA75" d="m329.552 108.904-16.036 31.714c-.473.936-1.614 1.311-2.55.838-.845-.428-1.232-1.402-.95-2.275l10.903-33.824c.794-2.461 3.432-3.813 5.892-3.02 2.46.793 3.812 3.431 3.019 5.891-.073.228-.175.468-.278.676Z"/><path fill="#FABA75" d="M314.346 137.264c-3.358-2.42-7.273 1.523-7.273 1.523-.464.476-.956.926-1.431 1.389-.126.123-.251.243-.378.364-.576.541-.258 1.001-.258 1.001.387.508.971.126.971.126l2.814-2.016-.694 6.587s-.141 1.115.513 1.158c0 0 .397.128.587-.994l.934-5.109s-.264 4.704-.486 6.158c0 0 .087.68.764.377 0 0 .385-.197.423-1.224 0 0 .506-4.025.474-4.597 0 0 .258 3.455.068 4.829 0 0 .019.378.459.321 0 0 .311-.059.414-.583 0 0 .307-1.957.451-4.513l.349 2.851s.119.319.428.252c0 0 .377-.026.393-.478l.166-3.006s1.065-3.591.312-4.416ZM280.539 138.845c2.914-2.941 7.424.307 7.424.307.535.391 1.095.757 1.641 1.133.143.102.287.2.43.299.656.44.42.944.42.944-.298.567-.938.285-.938.285l-3.106-1.525 1.764 6.381s.323 1.078-.316 1.226c0 0-.368.191-.741-.884l-1.76-4.886s1.034 4.596 1.49 5.994c0 0 .025.685-.691.501 0 0-.412-.136-.619-1.144 0 0-1.158-3.887-1.222-4.452 0 0 .313 3.448.727 4.773 0 0 .042.378-.4.392 0 0-.318-.006-.506-.509 0 0-.623-1.878-1.185-4.373l.124 2.868s-.065.333-.382.317c0 0-.377.036-.465-.406l-.657-2.939s-1.639-3.366-1.032-4.302Z"/><path fill="#FABA75" d="m275.147 103.589 9.111 34.98c.263 1.015-.344 2.051-1.359 2.313-.918.24-1.854-.237-2.219-1.081l-14.357-33.172c-1.027-2.373.063-5.128 2.436-6.156 2.372-1.0253 5.127.064 6.155 2.437.093.215.174.459.233.679Z"/><path fill="#141D20" d="M288.648 137.185s-3.138 5.266-8.716 5.718v11.458s9.951-.753 14.776-9.949l-6.06-7.227ZM305.836 136.684s3.296 3.856 8.874 4.309v11.459s-9.952-.754-14.776-9.952l5.902-5.816Z"/><path fill="#1A333D" d="M266.232 88.7373h10.756v6.9334l-2.011 5.6303 10.253 34.779-7.036 3.216-14.274-32.165 2.312-18.3937ZM329.055 88.9373l-12.161.0507v3.2666l2.663 9.3004-10.253 34.776 7.036 3.217 15.53-34.228-2.815-16.3827Z"/><path fill="#1A333D" d="m329.054 89.2401-4.522-18.3947s-.301-4.0226-3.417-5.5293l-6.856-2.808c-2.252 5.872 1.328 25.692 1.519 26.732h13.276Z"/><path fill="#0F1D22" d="M285.23 136.08c-.522-1.421-1.007-2.853-1.498-4.284-.5-1.428-.977-2.863-1.435-4.303-.928-2.876-1.886-5.742-2.744-8.64l-1.32-4.336c-.434-1.448-.894-2.886-1.306-4.34l-2.485-8.718-.051-.175.057-.161c.893-2.5737 1.868-5.1177 2.799-7.6777.461-1.2813.963-2.5493 1.455-3.82.49-1.2707.982-2.5413 1.502-3.804-.35 1.3187-.73 2.628-1.11 3.936-.38 1.3094-.749 2.6213-1.159 3.92-.813 2.6-1.579 5.2147-2.428 7.8017l.006-.336 2.641 8.672c.442 1.444.836 2.904 1.257 4.354l1.243 4.359c.851 2.899 1.602 5.828 2.382 8.748.396 1.459.774 2.921 1.129 4.392.363 1.469.732 2.935 1.065 4.412ZM309.254 136.18c.337-1.47.71-2.928 1.078-4.387.36-1.463.74-2.919 1.141-4.369.789-2.903 1.548-5.816 2.408-8.698l1.255-4.334c.424-1.443.823-2.894 1.27-4.33l2.665-8.621v.317c-.766-2.685-1.446-5.397-2.175-8.0943-.367-1.3493-.693-2.708-1.031-4.0653-.338-1.356-.674-2.7134-.982-4.0774.479 1.3147.93 2.6374 1.38 3.9614.45 1.3226.911 2.6439 1.33 3.9759.847 2.6627 1.74 5.312 2.55 7.9857l.047.153-.048.164-2.511 8.668c-.417 1.445-.881 2.876-1.319 4.316l-1.332 4.309c-.866 2.882-1.832 5.732-2.769 8.591-.463 1.432-.943 2.857-1.447 4.276-.495 1.423-.984 2.845-1.51 4.259Z"/><path fill="#D19B61" d="M294.447 37.8091s.318.056.774.08c.229.0173.488.0747.776.0707.289-.0027.595-.0054.902-.0094.307.0307.614.0374.9-.0053.287-.0267.556-.0493.786-.0707.462-.028.779-.0266.779-.0266l.053.252s-.156.7613-.607 1.3453c-.11.1507-.235.316-.378.428-.141.1267-.292.2773-.459.368-.328.2187-.702.3107-1.08.2973-.377-.012-.753-.1066-1.087-.28-.161-.068-.338-.2293-.489-.3613-.156-.1187-.288-.2867-.401-.4453-.234-.2987-.372-.6427-.433-.9174-.071-.2773-.101-.4746-.101-.4746l.065-.2507Z"/><path fill="#431F10" d="M304.773 29.7893c0 .8493-.689 1.536-1.537 1.536-.847 0-1.536-.6867-1.536-1.536s.689-1.5373 1.536-1.5373c.848 0 1.537.688 1.537 1.5373Z"/><path fill="#220D05" d="M303.945 29.7893c0 .392-.317.708-.709.708a.708.708 0 0 1-.708-.708c0-.3893.318-.708.708-.708.392 0 .709.3187.709.708Z"/><path fill="#fff" d="M304.503 29.3665a.5574.5574 0 0 1-.558.5573.5566.5566 0 0 1-.557-.5573c0-.3053.25-.5574.557-.5574.307 0 .558.2521.558.5574ZM303.374 28.9866a.3325.3325 0 0 1-.334.3333.3332.3332 0 0 1-.334-.3333c0-.184.15-.3333.334-.3333.185 0 .334.1493.334.3333Z"/><path fill="#351F17" d="M299.875 24.3052s7.943-1.3067 8.645 2.5133c0 0-2.11-.9053-5.126-.8053l-3.821.2013s-.401-1.3067.302-1.9093Z"/><path fill="#431F10" d="M288.934 29.7893c0 .8493.688 1.536 1.535 1.536.849 0 1.536-.6867 1.536-1.536s-.687-1.5373-1.536-1.5373c-.847 0-1.535.688-1.535 1.5373Z"/><path fill="#220D05" d="M289.762 29.7893c0 .392.318.708.707.708.392 0 .708-.316.708-.708 0-.3893-.316-.708-.708-.708-.389 0-.707.3187-.707.708Z"/><path fill="#fff" d="M289.204 29.3665c0 .3093.25.5573.558.5573.308 0 .558-.248.558-.5573 0-.3053-.25-.5574-.558-.5574-.308 0-.558.2521-.558.5574ZM290.333 28.9866c0 .1853.149.3333.334.3333.184 0 .333-.148.333-.3333a.3331.3331 0 0 0-.333-.3333.3334.3334 0 0 0-.334.3333Z"/><path fill="#351F17" d="M293.831 24.3052s-7.94-1.3067-8.645 2.5133c0 0 2.111-.9053 5.127-.8053l3.82.2013s.401-1.3067-.302-1.9093Z"/><path fill="#fff" d="M301.797 42.9878c-4.944.2907-6.63 0-9.888.068 0 0 4.247 5.9013 9.888-.068Z"/><path fill="#D19B61" d="M301.849 43.0358a7.9334 7.9334 0 0 1-.872 1.2187c-.347.3613-.702.736-1.126 1.0373-.828.624-1.875 1.0534-2.991 1.116-1.119.0627-2.219-.32-3.112-.8866-.451-.2814-.862-.612-1.222-.988-.364-.3774-.659-.7827-.937-1.2467l-.443-.74.755.1147c.832.128 1.659.2133 2.485.1733.822-.032 1.661-.2053 2.471-.316.815-.092 1.617-.0133 2.449.0147.827.048 1.656.1613 2.489.384l.108.0293-.054.0893Zm-.507.156c-.664.2014-1.326.352-1.995.4427-.814.1253-1.662.14-2.495.06-.839-.096-1.648-.3427-2.474-.4027-.823-.064-1.645.036-2.461.1587l.312-.6253c.307.3026.688.5893 1.048.844.369.256.741.4933 1.128.6866.387.1907.789.3347 1.195.416.405.084.808.1374 1.216.1254.816.0146 1.647-.2107 2.471-.5667.412-.1787.827-.3853 1.232-.6267.272-.1653.545-.3373.823-.512ZM295.358 46.8545s1.494.4427 2.99.0053c0 0-1.562 1.868-2.99-.0053Z"/><path fill="#254956" d="m291.06 57.8572-12.672 4.5066 9.499 14.1747-3.769 3.4667 4.974 14.7746v41.0122l1.968.789V57.8572ZM302.218 57.6853l12.672 4.508-9.499 14.1707 3.769 3.4706-4.975 14.7747v41.0117l-1.967.788V57.6853Z"/><path fill="#CFEFFC" d="m296.865 59.2839 4.599-3.5173 5.427 3.7693-5.389 6.86-4.637-7.112ZM296.79 59.2839l-4.598-3.5173-5.428 3.7693 5.39 6.86 4.636-7.112Z"/></g><g clip-path="url(#d)"><path fill="#080707" d="m27.408 235.005-2.0413 4.709c-3.0227 6.034 3.3613 6.089 3.3613 6.089 8.34.49 6.7853-5.112 6.7853-5.112l-.9013-5.686s-3.6013 1.378-7.204 0Z"/><path fill="#080707" d="M29.7253 245.832c-.316 0-.648-.01-.9973-.03l-.0027-.001c-.1533-.001-4.9013-.109-4.072-4.133-.2453 3.474 4.1587 3.516 4.1587 3.516.352.02.688.03 1.0053.03 4.2454 0 5.492-1.782 5.8027-3.25-.092 1.522-1.0213 3.868-5.8947 3.868Z"/><path fill="#322420" d="m27.7787 233.657-1.908 4.6c-2.9173 6.508 3.1266 6.175 3.1266 6.175 8.1614.365 6.3534-5.22 6.3534-5.22l-.84-5.555s-3.3667 1.348-6.732 0Z"/><path fill="#080707" d="M29.4493 244.467c-.1386 0-.28-.003-.424-.005h-.0173c-.068 0-.3427-.005-.7173-.057.24.024.4373.03.5613.03.092 0 .1453-.003.1453-.003.2574.012.5054.018.744.018.304 0 .592-.01.8654-.027-.36.028-.7454.044-1.1574.044Z"/><path fill="#9E9D9D" d="M35.536 240.783c-.0107-.046-.0173-.075-.0213-.087.0453-.839-.164-1.484-.164-1.484s.244.691.1853 1.571Z"/><path fill="#080707" d="M34.5347 243.002c.7146-.717.9413-1.583.98-2.306.004.012.0106.041.0213.087-.048.702-.288 1.527-1.0013 2.219Z"/><path fill="#271B18" d="M29.7413 244.449c-.2386 0-.4866-.006-.744-.018 0 0-.0533.003-.1453.003-.124 0-.3213-.005-.5613-.029-1.0267-.143-2.8067-.65-3.152-2.446.9586.696 2.1866 1.084 3.42 1.084.372 0 .7453-.034 1.1106-.107 4.488-.893 4.092-5.296 3.1854-8.843.9853-.172 1.624-.424 1.6546-.436h.0014l.84 5.555s.2093.645.164 1.484c-.0387.723-.2654 1.589-.98 2.306-.724.702-1.936 1.264-3.928 1.42-.2734.018-.5614.027-.8654.027Z"/><path fill="#080707" d="m60.2334 235.005 2.0413 4.709c3.0213 6.034-3.3627 6.089-3.3627 6.089-8.34.49-6.7853-5.112-6.7853-5.112l.9-5.686s3.604 1.378 7.2067 0Z"/><path fill="#080707" d="M57.916 245.832c-4.8733 0-5.8053-2.346-5.896-3.868.3107 1.468 1.5587 3.25 5.8027 3.25.3173 0 .6533-.01 1.0053-.03 0 0 4.4054-.042 4.16-3.516.828 4.024-3.92 4.132-4.072 4.133-.0027.001-.004.001-.004.001-.3493.02-.6813.03-.996.03Z"/><path fill="#322420" d="m59.8613 233.657 1.9067 4.6c2.9173 6.508-3.124 6.175-3.124 6.175-8.1613.365-6.3547-5.22-6.3547-5.22l.8414-5.555s3.3666 1.348 6.7306 0Z"/><path fill="#9E9D9D" d="M52.1054 240.784c-.06-.882.184-1.572.184-1.572s-.2094.647-.1641 1.485c-.004.012-.0106.043-.0199.087Z"/><path fill="#080707" d="M58.192 244.467c-.4133 0-.7987-.016-1.1587-.044.2734.017.5627.027.8667.027.2373 0 .4867-.006.744-.018 0 0 .052.003.144.003.1253 0 .3227-.006.564-.03-.376.052-.6507.057-.72.057h-.016c-.144.002-.2853.005-.424.005Zm-5.0787-1.458c-.7186-.692-.9613-1.52-1.008-2.225.0094-.044.016-.075.02-.087.0387.726.268 1.594.988 2.312Z"/><path fill="#271B18" d="M57.9 244.449c-.304 0-.5933-.009-.8667-.027-1.9853-.155-3.196-.714-3.92-1.413-.72-.719-.9493-1.587-.988-2.312-.0453-.838.164-1.485.164-1.485l.8414-5.555c.0146.007.6573.262 1.6546.436-.9053 3.547-1.3026 7.95 3.1867 8.843.3653.073.7373.107 1.1093.107 1.232 0 2.4614-.388 3.4214-1.084-.344 1.795-2.124 2.303-3.1507 2.446a5.7633 5.7633 0 0 1-.564.029c-.092 0-.144-.003-.144-.003-.2573.012-.5067.018-.744.018Z"/><path fill="#8A4B2D" d="m22.46 85.2317-.812 31.1093-.02.771-.1733.44-12.052 30.716c-.3827.977-1.4854 1.457-2.46 1.074-.876-.344-1.352-1.264-1.1654-2.154l6.7334-32.303-.1934 1.211.812-31.107c.068-2.576 2.2107-4.612 4.788-4.544 2.576.068 4.6107 2.2107 4.5427 4.7867Z"/><path fill="#8A4B2D" d="M10.056 147.535c-3.2053-2.61-7.3386 1.094-7.3386 1.094-.492.446-1.008.867-1.5094 1.3-.132.115-.2627.23-.396.344-.6067.503-.3173.979-.3173.979.3573.532.964.184.964.184l2.92-1.843-1.0734 6.524s-.2053 1.1.4454 1.181c0 0 .3866.154.6426-.957l1.2254-5.036s-.536 4.675-.8414 6.11c0 0 .048.683.74.424 0 0 .3947-.178.492-1.199 0 0 .74-3.984.7414-4.556 0 0 .056 3.46-.216 4.819 0 0-.0013.381.44.346 0 0 .3146-.041.4453-.556 0 0 .4227-1.932.7147-4.472l.1826 2.86s.0987.326.412.276c0 0 .3774-.002.42-.452l.3374-2.988s1.272-3.515.5693-4.382ZM64.4814 72.4293l8.4653 41.1547c.436 2.119-.928 4.191-3.048 4.627-2.0693.425-4.0947-.868-4.5933-2.906l-.0347-.141L55.34 74.3093c-.6093-2.504.928-5.0293 3.4334-5.6373 2.5053-.6094 5.0293.9266 5.6386 3.432l.032.1439.0374.1814ZM35.82 64.1958h9.2057v-9.0146H35.82v9.0146Z"/><path fill="#683720" d="M35.82 62.6933v-6.4174c.8093.4747 1.6293.9107 2.4213 1.2614 0 0 .908.2613 2.1334.708v.0386l.0093-.0026v-.0014l.044-.0146.044.016.0093.0026v-.0386c1.2254-.4467 2.1347-.7094 2.1347-.7094.7867-.3506 1.6027-.784 2.4093-1.2573v.968c-2.1106 2.8373-5.8693 2.248-8.3906 4.4493-.3254.284-.592.6214-.8147.9974Z"/><path fill="#8A4B2D" d="M54.02 37.0959c-.3267 2.4467.656 4.596 2.1933 4.7987 1.5374.204 3.0494-1.6093 3.372-4.056.3254-2.448-.656-4.5947-2.196-4.8-1.536-.204-3.0453 1.6133-3.3693 4.0573Z"/><path fill="#683720" d="M57.8574 39.0678s.032-.1334.0946-.3574c.0267-.1146.0787-.2453.1094-.404.032-.1586.0693-.336.1173-.528.0333-.1906.0707-.396.1053-.6146.0414-.212.04-.464.0694-.708.0213-.2107-.0147-.4614-.0547-.6987-.0467-.236-.12-.476-.2227-.6867-.0986-.216-.236-.404-.4013-.524l-.116-.0746-.1507-.0574-.2946-.0293c-.176.0133-.3307.1-.4627.2213.02-.18.04-.36.0587-.5373a1.0334 1.0334 0 0 1 .3413-.1173c.0653-.0107.132-.016.1973-.016.088 0 .176.0093.264.0253l.212.064.2254.1227c.2626.1853.4506.4413.5773.7066.1253.2654.2013.5427.2507.8174.0453.2826.056.552.0146.836-.0426.248-.068.4813-.136.712-.0693.2306-.1266.4466-.2.64-.076.188-.152.3586-.2173.5066-.0653.1547-.144.2734-.196.38-.1133.2054-.1853.3214-.1853.3214Z"/><path fill="#683720" d="M56.392 39.7998a.9131.9131 0 0 1-.4893-.1453l.2733-1.7494c.02-.028.0387-.0533.056-.0773 0 0 .3947-.5373.1187-1.0387l.0227-.148c.0306-.196.0586-.3866.0866-.5786a4.0091 4.0091 0 0 1 .2867-.0334s1.1306.148.5506 1.3747c-.1253.2613-.228.5333-.2826.8213-.072.408.1413.9574-.1027 1.324-.1173.1747-.3147.2507-.52.2507ZM56.4307 40.8333c-.02 0-.1587-.0027-.344-.064l-.32-.1707-.0107-.0093.1053-.6694.0587.1134.076.1346.0893.1267.08.1333.092.112c.108.148.176.2934.176.2934h-.0026Z"/><path fill="#8A4B2D" d="M26.8253 37.0959c.3254 2.4467-.6573 4.596-2.1946 4.7987-1.5387.204-3.048-1.6093-3.3734-4.056-.3253-2.448.6574-4.5947 2.1974-4.8 1.5373-.204 3.0466 1.6133 3.3706 4.0573Z"/><path fill="#683720" d="M22.9867 39.0678s-.0707-.116-.184-.3214c-.052-.1066-.132-.2253-.196-.38-.0667-.148-.144-.3186-.2187-.5066-.072-.1934-.132-.4094-.2-.64-.0693-.2307-.092-.464-.136-.712-.0413-.284-.0306-.5534.0174-.836.0453-.2747.1226-.552.2493-.8174.124-.2653.3133-.5213.576-.7066l.2267-.1227.2106-.064a1.478 1.478 0 0 1 .2653-.0253 1.24 1.24 0 0 1 .1974.016c.124.0186.2373.0613.3386.1173.0187.1773.0387.356.06.5373-.132-.1213-.2866-.208-.4626-.2213l-.2933.0293-.1534.0574-.1147.0746c-.1653.12-.3039.308-.3999.524-.1054.2107-.1787.4507-.2241.6867-.0413.2373-.0759.488-.0546.6987.0307.244.0266.496.0693.708.036.2186.072.424.104.6146.0507.192.0867.3694.1173.528.032.1587.0827.2894.1107.404.064.224.0947.3574.0947.3574Z"/><path fill="#683720" d="M24.452 39.7998c-.2067 0-.4027-.076-.52-.2507-.2453-.3666-.0293-.916-.1027-1.324-.0533-.288-.1586-.56-.2826-.8213-.5787-1.2267.5506-1.3747.5506-1.3747.1094.0094.204.02.2867.0334.028.1946.0574.3893.088.5866l.0133.1534c-.2053.3946-.0039.8066.0881.9613l.1799 1.9827a.904.904 0 0 1-.3013.0533ZM24.412 40.8332h-.0013s.068-.1454.176-.2934l.0906-.112.0814-.1333.04-.056.044.4853-.084.0454c-.188.0613-.3267.064-.3467.064Z"/><path fill="#8A4B2D" d="M40.472 9.412v-.0067l-.0547.004-.0533-.004v.0066c-3.6787.2027-19.7293 2.504-15.892 27.2374l.9413 10.3506s.8227 2.3227 3.7027 4.5174c0 0 4.9627 4.1706 9.1253 6.02 0 0 .908.2613 2.1334.708v.0386l.0533-.0186.0533.0186v-.0386c1.2253-.4467 2.1347-.7094 2.1347-.7094 4.16-1.8533 9.12-6.024 9.12-6.024 2.88-2.1946 3.0187-4.5186 3.0187-4.5186l1.6186-10.352C60.2 11.9079 44.1493 9.6146 40.472 9.4119Z"/><path fill="#60321D" d="m40.3747 58.2838.0093-.004v.0014l-.0093.0026Z"/><path fill="#7F4429" d="M40.3747 58.2839v-.0386c-1.2254-.4467-2.1334-.708-2.1334-.708-4.1626-1.8494-9.1253-6.02-9.1253-6.02-2.88-2.1947-3.7027-4.5174-3.7027-4.5174l-.5706-6.276-.044-.4853-.0454-.492-.18-1.9827-.088-.9613-.0133-.1533a51.691 51.691 0 0 1-.088-.5867c-.344-2.376-.5-4.5427-.5-6.5133-.0013-18.0947 13.1893-19.956 16.48-20.1374v-.0066h.0093v.0066c-3.0173.2027-16.1773 2.5027-13.028 27.236l.7747 10.352s.672 2.3227 3.0347 4.516c0 0 4.068 4.172 7.4813 6.0214 0 0 .744.2613 1.748.708v.0346l-.0093.004ZM40.4814 58.2839l-.0094-.0026v-.036c1.004-.4467 1.7494-.7094 1.7494-.7094 3.4106-1.8506 7.4773-6.024 7.4773-6.024 2.3613-2.1946 2.476-4.5186 2.476-4.5186L53.5 36.6413c3.1374-24.732-10.024-27.0267-13.04-27.2294v-.0066h.012v.0066c3.2894.1814 16.48 2.0347 16.4867 20.128.0013 1.9734-.156 4.1427-.4987 6.5227-.028.192-.056.3827-.0866.5787l-.0227.148-.1747 1.116-.2733 1.7493-.0413.2653-.1054.6694-.172 1.1-.8293 5.304s-.1387 2.324-3.0187 4.5186c0 0-3.26 2.7414-6.7106 4.7667-.8067.4733-1.6227.9067-2.4094 1.2573 0 0-.9093.2627-2.1346.7094v.0386Z"/><path fill="#8A4B2D" d="M60.784 74.9187c1.2053-5.0334-2.7106-7.4747-2.7106-7.4747l-13.4401-5.3427h-8.42L22.7707 67.444s-3.9147 2.4413-2.7107 7.4747l5.3693 37.8423s.252 1.891.0507 6.408h29.9133c-.4013-3.112.0227-6.408.0227-6.408l5.368-37.8423Z"/><path fill="#141D20" d="m38.1574 178.479 1.7093-28.721 5.0733 26.609 7.248 58.414h8.1267L58.14 134.679V119.17H22.3293v15.509l2.1747 44.802 1.796 55.633h10.0387l1.8187-56.635Z"/><path fill="#23130C" d="M40.4387 5.0068C52.2827 3.8028 56.9 11.2294 56.9 11.2294s4.8173 7.8294 1.3627 22.1694c-2.2067-.404-2.0307 4.4293-2.0307 4.4293l-1.0813.036.604-6.1707c.2493-3.4133-1.808-3.916-1.808-3.916 2.752-9.32-6.5827-10.4239-6.5827-10.4239l-14.0946-.016c-8.632.8026-6.124 8.732-6.124 8.732-2.5094.1-2.308 5.572-2.308 5.572l.652 6.2226-.8747-.036c-.7253-5.9093-1.8867-4.4293-1.8867-4.4293-.9613-4.0987-.5613-9.7214-.5613-9.7214-.1987-11.6426 5.6227-15.4586 5.6227-15.4586s3.6146-3.6133 12.6493-3.212Z"/><path fill="#BFE7F1" d="m45.76 62.5518 12.3134 4.892s3.9159 2.4414 2.7106 7.4747l-1.0067 61.1975H20.124l-.064-61.1975c-1.204-5.0333 2.7107-7.4747 2.7107-7.4747l12.02-4.7773 5.596 1.112 5.3733-1.2267Z"/><path fill="#BFE7F1" d="M22.78 67.4719c2.3107 6.0227-1.5013 26.6347-1.5013 26.6347l-10.192.068 1.16-17.0827s-.3027-4.516 2.408-6.172l8.1253-3.448ZM57.804 67.1719c-2.3093 6.0667 1.5 26.836 1.5 26.836l10.1934.068-1.1587-17.2133s.3-4.5493-2.4093-6.2173l-8.1254-3.4734Z"/><path fill="#1A333D" d="m34.636 62.74-11.8653 4.7146s-3.9147 2.4414-2.7107 7.476l.064 64.0224 14.512 5.23V62.74ZM58.0734 67.4548l-12.2961-4.884v81.5002l14.9267-5.156.08-63.9842c1.2054-5.0347-2.7106-7.476-2.7106-7.476Z"/><path fill="#254956" d="m34.636 62.74-12.6547 4.5013 9.4854 14.1547-3.764 3.4626 4.9693 14.7547v43.7797l1.964.79V62.74ZM45.7773 62.5708l12.6561 4.4987-9.4854 14.152 3.7627 3.464-4.968 14.756v43.7795l-1.9654.79V62.5708Z"/><path fill="#8A4B2D" d="m73.088 116.921-16.5893 26.685c-.788 1.268-2.4547 1.656-3.7214.868-1.1706-.726-1.592-2.204-1.0293-3.422l13.12-28.552c1.0773-2.347 3.8547-3.375 6.2013-2.296 2.3467 1.078 3.3747 3.854 2.296 6.201-.0786.172-.1813.359-.2773.516Z"/><path fill="#8A4B2D" d="M55.6853 142.775c-2.912-2.936-7.4133.309-7.4133.309-.536.388-1.0947.753-1.6387 1.131-.144.1-.288.201-.4306.298-.6574.438-.4187.942-.4187.942.2973.566.936.285.936.285l3.1-1.521-1.76 6.367s-.324 1.077.3147 1.228c0 0 .3706.191.7413-.885l1.7547-4.877s-1.0307 4.588-1.484 5.987c0 0-.028.682.688.497 0 0 .412-.132.6173-1.139 0 0 1.1587-3.881 1.2213-4.45 0 0-.312 3.445-.7253 4.767 0 0-.0427.381.4.393 0 0 .316-.007.5027-.507 0 0 .624-1.878 1.184-4.368l-.1214 2.863s.064.333.3787.317c0 0 .376.036.4653-.404l.656-2.935s1.6374-3.362 1.032-4.298Z"/><path fill="#141D20" d="M44.3707 141.841s5.536 4.504 13.7667 4.504v13.05s-13.6521.802-16.2614-12.047l2.4947-5.507Z"/><path fill="#1A333D" d="M22.78 67.4719c2.3107 6.0227-1.5013 26.6347-1.5013 26.6347l-10.192.068.4413-17.0827s-.6013-4.832 3.1267-6.172l8.1253-3.448ZM57.804 67.1719c-2.3093 6.0667 1.5 26.836 1.5 26.836l10.8454.068-1.8107-17.2133s.3-4.5493-2.4093-6.2173l-8.1254-3.4734Z"/><path fill="#1A333D" d="M59.108 92.3345h10.84l3.8147 19.8755s1.004 2.008-.8027 5.423l-15.4587 25.696-6.424-4.617 12.648-25.295-4.6173-21.0825ZM11.1267 92.937h10.64l-.2 29.312-10.8414 24.292L3.9 144.533l7.828-29.112-.6013-22.484Z"/><path fill="#0F1D22" d="m19.3587 90.9319.1573 1.94c.0734 1.2347.2307 2.9974.324 5.116.0934 2.1171.244 4.5881.328 7.2351.1 2.646.1587 5.472.22 8.296.0334 2.825.0734 5.65.0627 8.298.0067 2.65-.0613 5.123-.0827 7.243-.0213 2.12-.12 3.887-.1506 5.124-.06 1.236-.0934 1.944-.0934 1.944s-.0586-.707-.1586-1.94c-.0734-1.235-.232-2.997-.3254-5.116-.092-2.117-.2453-4.588-.328-7.235-.1-2.646-.156-5.473-.2173-8.296-.0347-2.825-.072-5.65-.0627-8.298-.004-2.65.0614-5.123.0827-7.2431.024-2.12.12-3.8866.1507-5.124.0586-1.2373.0933-1.944.0933-1.944ZM58.7067 89.7266c.5493 1.9466 1.028 3.908 1.5413 5.8613l1.4253 5.8851c.9734 3.92 1.772 7.878 2.6667 11.814l.0467.204-.1.206c-1.0174 2.127-2.1187 4.211-3.184 6.314-1.0787 2.094-2.1334 4.202-3.232 6.289l-3.3334 6.237c-1.1466 2.062-2.268 4.136-3.46 6.175.9174-2.176 1.9027-4.319 2.864-6.472l2.9907-6.411c1.0093-2.129 2.0627-4.238 3.092-6.357 1.0427-2.115 2.0493-4.247 3.14-6.336l-.0533.411c-.7787-3.962-1.6534-7.902-2.3534-11.878l-1.0826-5.9598c-.324-1.9933-.6814-3.98-.968-5.9826Z"/><path fill="#D82930" d="m39.948 122.344 4.3414-6.117-2.4334-46.7255h-3.5773l-2.396 46.7255 3.9907 6.108v.116l.0386-.055.036.055v-.107Z"/><path fill="#911A1E" d="M36.1707 63.7786h7.8306l-2.1093 5.7227h-3.6133l-2.108-5.7227Z"/><path fill="#CFEFFC" d="m40.3694 63.8628 4.5919-3.5107 5.42 3.7612L45 70.9654l-4.6306-7.1026ZM40.2947 63.8628l-4.5934-3.5107-5.42 3.7612 5.384 6.8521 4.6294-7.1026Z"/><path fill="#6C3A24" d="M44.6107 40.9388c-.6347.288-1.296.5867-2.008.744-.6987.1827-1.42.268-2.144.3093-.724.0147-1.46-.0186-2.1694-.2-.7146-.1773-1.3933-.4133-2.052-.8146l-.04-.024-.0253-.0347c-.2053-.28-.3387-.5586-.4307-.8826-.0866-.3174-.1013-.6774.0094-1.0094.116-.3293.336-.6053.5906-.7986.2534-.2.536-.332.8174-.4494l.1333.3054a4.6607 4.6607 0 0 0-.148.572c-.0213.172-.052.3266-.024.4733.0307.1467.0467.2427.1307.324l.2693.1133c.1733-.016.3293-.12.4787-.1693l.1853-.056.0867-.0267c.0106-.0266.0733.008.0106-.1133l-.564-.5067.2387-.104.3467-.0173c.24-.016.4613.0147.6973.0173.224.0347.4573.0493.6893.1013.232.0414.4707.0947.7174.1747.2506.052.5106.1667.7906.252.2814.1174.5774.212.908.3667.1707.0853.332.1573.492.224.1614.0586.352.1853.5414.2707.188.0853.4293.1666.652.2773.2186.084.4666.244.7026.372l.1174.3093Z"/><path fill="#431F10" d="M48.3293 32.6066c0 .8493-.688 1.5333-1.5346 1.5333-.8467 0-1.532-.684-1.532-1.5333 0-.8467.6853-1.5334 1.532-1.5334.8466 0 1.5346.6867 1.5346 1.5334Z"/><path fill="#220D05" d="M47.5027 32.6065a.7064.7064 0 0 1-.708.7066.705.705 0 0 1-.7053-.7066.7047.7047 0 0 1 .7053-.7054c.392 0 .708.316.708.7054Z"/><path fill="#fff" d="M48.06 32.1879c0 .3067-.2507.5547-.5573.5547-.3067 0-.556-.248-.556-.5547 0-.308.2493-.5573.556-.5573a.558.558 0 0 1 .5573.5573ZM46.932 31.8066a.3326.3326 0 0 1-.3333.3333.3315.3315 0 0 1-.332-.3333c0-.1827.148-.3347.332-.3347.184 0 .3333.152.3333.3347Z"/><path fill="#351F17" d="M43.4387 27.1332s7.9307-1.308 8.6333 2.5067c0 0-2.108-.9013-5.12-.804l-3.8133.2013s-.4013-1.3026.3-1.904Z"/><path fill="#431F10" d="M32.5133 32.6066c0 .8493.6867 1.5333 1.5334 1.5333.8466 0 1.5346-.684 1.5346-1.5333 0-.8467-.688-1.5334-1.5346-1.5334-.8467 0-1.5334.6867-1.5334 1.5334Z"/><path fill="#220D05" d="M33.3387 32.6065c0 .3906.3173.7066.708.7066a.7061.7061 0 0 0 .7066-.7066c0-.3894-.316-.7054-.7066-.7054-.3907 0-.708.316-.708.7054Z"/><path fill="#fff" d="M32.7827 32.1879c0 .3067.2493.5547.556.5547.308 0 .5586-.248.5586-.5547 0-.308-.2506-.5573-.5586-.5573a.5568.5568 0 0 0-.556.5573ZM33.9107 31.8066c0 .1853.148.3333.3333.3333.184 0 .332-.148.332-.3333 0-.1827-.148-.3347-.332-.3347-.1853 0-.3333.152-.3333.3347Z"/><path fill="#351F17" d="M37.404 27.1332s-7.932-1.308-8.6333 2.5067c0 0 2.108-.9013 5.1187-.804l3.8146.2013s.4027-1.3026-.3-1.904Z"/><path fill="#fff" d="M45.36 45.7893c-4.94.292-6.6227 0-9.8773.068 0 0 4.2426 5.8933 9.8773-.068Z"/><path fill="#6C3A24" d="M45.412 45.8385c-.2507.4267-.54.8374-.872 1.216-.3453.3614-.7.736-1.124 1.0347-.828.624-1.8733 1.0533-2.988 1.116-1.1187.0627-2.2173-.3187-3.108-.8867-.452-.2813-.8626-.6107-1.2226-.9853-.3627-.376-.6561-.7827-.9347-1.2467l-.444-.74.756.1173c.8307.1254 1.6573.2121 2.4827.1721.82-.032 1.6586-.2067 2.4666-.316.8147-.0907 1.6147-.0134 2.4467.016.8253.0466 1.6547.1586 2.4867.3826l.108.0293-.0534.0907Zm-.5093.1533c-.6627.2027-1.3227.3534-1.9894.4427-.8133.128-1.6613.1413-2.4933.0627-.8386-.0974-1.6453-.3454-2.472-.404-.8213-.0654-1.6426.0373-2.4573.1573l.312-.624c.3053.3.6867.588 1.048.8427.3667.256.7386.492 1.1253.684.3867.192.788.3333 1.1934.4173.404.0827.8066.1347 1.2146.124.8147.0133 1.644-.2107 2.468-.5653.412-.1774.8267-.384 1.2307-.624.272-.1653.5427-.3387.82-.5134ZM38.928 49.6492s1.492.4426 2.9867.0066c0 0-1.5614 1.8654-2.9867-.0066Z"/><path fill="#23130C" d="M28.1587 9.9493c0 1.3093-1.0973 2.372-2.4507 2.372-1.3546 0-2.4506-1.0627-2.4506-2.372 0-1.3107 1.096-2.3734 2.4506-2.3734 1.3534 0 2.4507 1.0627 2.4507 2.3734Z"/><path fill="#23130C" d="M27.1494 13.3454c0 1.3106-1.0974 2.372-2.4507 2.372-1.3547 0-2.4507-1.0614-2.4507-2.372 0-1.3107 1.096-2.372 2.4507-2.372 1.3533 0 2.4507 1.0613 2.4507 2.372ZM30.4654 7.344c0 1.3092-1.0974 2.372-2.452 2.372-1.352 0-2.4507-1.0628-2.4507-2.372 0-1.3094 1.0987-2.372 2.4507-2.372 1.3546 0 2.452 1.0626 2.452 2.372Z"/><path fill="#23130C" d="M34.1187 5.7626c0 1.3107-1.0974 2.3734-2.452 2.3734-1.3534 0-2.4507-1.0627-2.4507-2.3734 0-1.3106 1.0973-2.372 2.4507-2.372 1.3546 0 2.452 1.0614 2.452 2.372Z"/><path fill="#23130C" d="M37.5787 4.552c0 1.312-1.0987 2.3734-2.4507 2.3734-1.3547 0-2.4507-1.0614-2.4507-2.3734 0-1.3093 1.096-2.3706 2.4507-2.3706 1.352 0 2.4507 1.0613 2.4507 2.3706Z"/><path fill="#23130C" d="M41.52 4.3654c0 1.312-1.0987 2.3747-2.452 2.3747s-2.4507-1.0627-2.4507-2.3747c0-1.3093 1.0974-2.3693 2.4507-2.3693s2.452 1.06 2.452 2.3693Z"/><path fill="#23130C" d="M45.364 4.3654c0 1.312-1.0973 2.3747-2.4507 2.3747-1.3533 0-2.452-1.0627-2.452-2.3747 0-1.3093 1.0987-2.3693 2.452-2.3693 1.3534 0 2.4507 1.06 2.4507 2.3693Z"/><path fill="#23130C" d="M49.112 4.4599c0 1.3093-1.096 2.3733-2.4507 2.3733-1.3546 0-2.4506-1.064-2.4506-2.3733 0-1.3107 1.096-2.372 2.4506-2.372 1.3547 0 2.4507 1.0613 2.4507 2.372Z"/><path fill="#23130C" d="M52.8614 5.484c0 1.3107-1.0974 2.3734-2.4507 2.3734-1.3547 0-2.4507-1.0627-2.4507-2.3734 0-1.3093 1.096-2.372 2.4507-2.372 1.3533 0 2.4507 1.0627 2.4507 2.372Z"/><path fill="#23130C" d="M55.8413 6.4148c0 1.3094-1.0986 2.3734-2.452 2.3734-1.3533 0-2.4493-1.064-2.4493-2.3734 0-1.3106 1.096-2.3733 2.4493-2.3733 1.3534 0 2.452 1.0627 2.452 2.3733Z"/><path fill="#23130C" d="M57.668 8.3666c0 1.3107-1.0986 2.372-2.4506 2.372-1.3534 0-2.452-1.0613-2.452-2.372 0-1.3093 1.0986-2.372 2.452-2.372 1.352 0 2.4506 1.0627 2.4506 2.372Z"/><path fill="#23130C" d="M59.4934 11.2506c0 1.3107-1.0974 2.3746-2.4507 2.3746-1.3547 0-2.452-1.0639-2.452-2.3746 0-1.3094 1.0973-2.3707 2.452-2.3707 1.3533 0 2.4507 1.0613 2.4507 2.3707Z"/><path fill="#23130C" d="M59.7813 14.88c0 1.312-1.096 2.3721-2.4506 2.3721-1.3534 0-2.4507-1.0601-2.4507-2.3721 0-1.3093 1.0973-2.3719 2.4507-2.3719 1.3546 0 2.4506 1.0626 2.4506 2.3719Z"/></g><defs><clipPath id="a"><path fill="#fff" d="M176 2h75v246h-75z"/></clipPath><clipPath id="b"><path fill="#fff" d="M87 0h77v248H87z"/></clipPath><clipPath id="c"><path fill="#fff" d="M263 3h69v243h-69z"/></clipPath><clipPath id="d"><path fill="#fff" d="M0 1h75v245H0z"/></clipPath></defs></svg>