<svg xmlns="http://www.w3.org/2000/svg" width="332" height="248" fill="none"><g clip-path="url(#a)"><path fill="#23130C" d="M220.959 58.894s14.549 10.42 21.04-11.402c0 0 .197-34.212-14.354-40.11l-6.686 51.512Z"/><path fill="#23130C" d="M243.537 46.273a2.26 2.26 0 0 0 1.506-2.125c0-1.159-.874-2.1-1.996-2.233a2.262 2.262 0 0 0 1.41-2.092c0-.822-.444-1.532-1.1-1.93a2.24 2.24 0 0 0-.458-3.262 2.25 2.25 0 0 0 .772-1.69 2.255 2.255 0 0 0-1.968-2.23c.48-.416.785-1.019.785-1.7a2.25 2.25 0 0 0-1.961-2.232c.358-.4.586-.924.586-1.506a2.256 2.256 0 0 0-1.849-2.217 2.256 2.256 0 0 0 1.061-1.913 2.258 2.258 0 0 0-1.702-2.182c.204-.34.328-.733.328-1.158a2.253 2.253 0 0 0-2.07-2.242 2.23 2.23 0 0 0 .498-1.396 2.262 2.262 0 0 0-2.262-2.261 2.24 2.24 0 0 0-.848.17c.283-.38.454-.843.454-1.35a2.263 2.263 0 0 0-2.262-2.261c-.436 0-.837.129-1.182.342.061-.202.101-.413.101-.637a2.26 2.26 0 1 0-2.26 2.261c.435 0 .839-.128 1.183-.341a2.272 2.272 0 0 0-.104.636 2.262 2.262 0 0 0 2.262 2.261c.303 0 .587-.061.847-.169a2.257 2.257 0 0 0-.455 1.35c0 1.183.915 2.14 2.068 2.24a2.247 2.247 0 0 0-.494 1.397 2.26 2.26 0 0 0 1.706 2.184 2.23 2.23 0 0 0-.326 1.156 2.256 2.256 0 0 0 1.841 2.221 2.256 2.256 0 0 0-1.056 1.91c0 1.146.855 2.083 1.96 2.231-.357.4-.584.924-.584 1.506 0 1.146.859 2.084 1.965 2.229a2.25 2.25 0 0 0-.788 1.701c0 .767.384 1.444.97 1.852a2.235 2.235 0 0 0-.772 1.688c0 .822.442 1.534 1.1 1.931-.318.388-.51.875-.51 1.41 0 1.16.874 2.105 1.996 2.235a2.261 2.261 0 0 0-1.406 2.091c0 .745.362 1.399.917 1.81a2.255 2.255 0 0 0-1.507 2.123c0 .496.164.95.434 1.323a2.26 2.26 0 0 0-1.623 3.11l-.092-.009a2.258 2.258 0 0 0-2.255 2.259c0 .404.111.776.298 1.104l-.2-.02a2.26 2.26 0 0 0-2.263 2.261c0 .223.04.435.101.636a2.28 2.28 0 0 0-1.182-.34 2.264 2.264 0 0 0-2.218 1.811 2.232 2.232 0 0 0-1.322-.435c-.967 0-1.786.61-2.107 1.462a2.262 2.262 0 0 0-2.02-1.267c-.397 0-.763.11-1.084.285a2.26 2.26 0 0 0-4.52.01 2.261 2.261 0 0 0 2.259 2.262c.396 0 .762-.11 1.084-.288a2.256 2.256 0 0 0 4.368.792 2.252 2.252 0 0 0 2.02 1.266 2.265 2.265 0 0 0 2.217-1.812c.371.27.825.436 1.323.436a2.263 2.263 0 0 0 2.262-2.263c0-.223-.042-.432-.106-.636a2.26 2.26 0 0 0 3.449-1.919 2.27 2.27 0 0 0-.299-1.102l.195.02a2.264 2.264 0 0 0 2.267-2.263c0-.316-.068-.616-.188-.892l.085.008a2.262 2.262 0 0 0 2.264-2.26c0-.495-.165-.95-.437-1.324a2.261 2.261 0 0 0 1.814-2.215c0-.741-.366-1.396-.92-1.808Zm-27.252 12.621s-14.548 10.42-21.037-11.402c0 0-.197-34.212 14.353-40.11l6.684 51.512Z"/><path fill="#23130C" d="M193.709 46.273a2.256 2.256 0 0 1-1.506-2.125c0-1.159.873-2.1 1.996-2.233a2.251 2.251 0 0 1-.31-4.021 2.246 2.246 0 0 1-.509-1.413c0-.768.385-1.442.967-1.85a2.256 2.256 0 0 1-.77-1.69c0-1.146.859-2.084 1.964-2.23a2.251 2.251 0 0 1-.784-1.7c0-1.15.856-2.084 1.96-2.232a2.252 2.252 0 0 1-.586-1.506c0-1.106.798-2.024 1.848-2.217a2.252 2.252 0 0 1 .648-4.095 2.217 2.217 0 0 1-.331-1.158c0-1.182.912-2.144 2.067-2.242a2.238 2.238 0 0 1-.494-1.396 2.261 2.261 0 0 1 2.263-2.261c.3 0 .585.063.849.17a2.237 2.237 0 0 1-.458-1.35 2.262 2.262 0 0 1 2.261-2.261c.437 0 .839.129 1.184.342a2.196 2.196 0 0 1-.103-.637 2.26 2.26 0 0 1 4.346-.879 2.264 2.264 0 0 1-2.083 3.14c-.437 0-.84-.128-1.187-.341.063.204.106.413.106.636a2.263 2.263 0 0 1-2.263 2.261c-.3 0-.585-.061-.848-.169.283.379.455.843.455 1.35a2.254 2.254 0 0 1-2.064 2.24c.3.386.492.867.492 1.397a2.255 2.255 0 0 1-1.706 2.184c.204.338.331.734.331 1.156 0 1.109-.8 2.026-1.849 2.221a2.26 2.26 0 0 1 1.061 1.91 2.254 2.254 0 0 1-1.961 2.231c.36.4.584.924.584 1.506a2.253 2.253 0 0 1-1.964 2.229 2.248 2.248 0 0 1-.183 3.553c.469.415.772 1.012.772 1.688 0 .822-.444 1.534-1.1 1.931.313.388.511.875.511 1.41a2.253 2.253 0 0 1-1.996 2.235 2.265 2.265 0 0 1 1.405 2.091c0 .745-.365 1.399-.919 1.81a2.254 2.254 0 0 1 1.51 2.123c0 .496-.17.95-.436 1.323a2.26 2.26 0 0 1 1.625 3.11l.087-.009a2.26 2.26 0 0 1 2.26 2.259c0 .404-.114.776-.296 1.104l.198-.02a2.263 2.263 0 0 1 2.263 2.261c0 .223-.043.435-.103.636.344-.209.746-.34 1.184-.34 1.096 0 2.007.778 2.215 1.811a2.236 2.236 0 0 1 1.324-.435c.965 0 1.781.61 2.108 1.462a2.256 2.256 0 0 1 2.023-1.267c.392 0 .756.11 1.08.285a2.257 2.257 0 0 1 2.261-2.249 2.26 2.26 0 1 1 0 4.521c-.395 0-.757-.11-1.083-.288a2.26 2.26 0 0 1-2.258 2.254 2.253 2.253 0 0 1-2.111-1.462 2.255 2.255 0 0 1-4.239-.546c-.369.27-.825.436-1.32.436a2.261 2.261 0 0 1-2.261-2.263c0-.223.043-.432.101-.636a2.25 2.25 0 0 1-1.184.341 2.258 2.258 0 0 1-2.258-2.26c0-.402.11-.773.296-1.102l-.2.02a2.262 2.262 0 0 1-2.076-3.155l-.087.008a2.26 2.26 0 0 1-1.828-3.584 2.261 2.261 0 0 1-1.808-2.215c0-.741.361-1.396.917-1.808Z"/><path fill="#8A4B2D" d="m201.905 132.561-4.022 104.273h4.448l16.376-104.273h-16.802Z"/><path fill="#8A4B2D" d="M233.555 113.235c-1.462-2.992-2.396-5.435-2.987-7.219h-23.719c-.59 1.784-1.528 4.227-2.989 7.219h.067s-4.566 8.978-1.615 20.942h32.748c2.952-11.964-1.616-20.942-1.616-20.942h.111Z"/><path fill="#8A4B2D" d="m235.132 132.561-9.029 104.315h-4.446l-.75-104.315h14.225Zm-32.696 103.943-4.52-.019c-.043.811-.021 1.62-.301 2.458 0 0-1.392 2.109-7.72 5.082 0 0-1.706.623-.052 1.675 0 0 1.488 1.199 3.944.003l6.558-2.808s3.372-.576 2.107-4.75c-.088-.632-.02-1.116-.016-1.641Z"/><path fill="#24272F" d="m195.283 246.64 4.906-3.121 1.262-.738c2.51-1.349 1.053-4.46 1.053-4.46-.091 2.891-5.959 5.606-5.959 5.606-2.346 1.453-4.985 1.11-4.985 1.11-2.533-.44-.077-1.802-.077-1.802-2.891 1.373-4.568 2.201-4.568 2.201s-2.287 1.731 1.625 2.225c0 0 4.265.518 6.743-1.021Z"/><path fill="#111013" d="M202.908 239.945c-2.116 3.079-8.856 7.906-14.66 7.086-1.087-.296-1.568-.487-1.92-.887-.248.533.104 1.384 2.379 1.539 0 0 4.098.496 6.576-1.043l4.906-3.121.088-.05c.184.482.348 1.3.156 2.608l.668-.334s-.286-1.991 1.062-3.48l-.003-.01c.675-.68.805-1.553.748-2.308Z"/><path fill="#fff" d="M194.424 245.623c-1.137.38-2.2.652-3.408.75-1.047.087-2.083-.072-3.125-.065l-.022.132c1.978.435 4.808.324 6.622-.664l-.067-.153Z"/><path fill="#8A4B2D" d="m221.635 236.504 4.445-.019c.043.811.019 1.62.3 2.458 0 0 1.395 2.109 7.727 5.082 0 0 1.702.623.045 1.675 0 0-1.487 1.199-3.943.003l-6.56-2.808s-3.373-.576-2.106-4.75c.086-.632.124-1.008.092-1.641Z"/><path fill="#24272F" d="m228.712 246.64-4.907-3.121-1.256-.738c-2.517-1.349-1.056-4.46-1.056-4.46.087 2.891 5.955 5.606 5.955 5.606 2.351 1.453 4.985 1.11 4.985 1.11 2.534-.44.078-1.802.078-1.802 2.893 1.373 4.57 2.201 4.57 2.201s2.287 1.731-1.624 2.225c0 0-4.269.518-6.745-1.021Z"/><path fill="#111013" d="M221.087 239.945c2.117 3.079 8.861 7.906 14.66 7.086 1.088-.296 1.568-.487 1.92-.887.249.533-.103 1.384-2.379 1.539 0 0-4.1.496-6.576-1.043l-4.907-3.121-.085-.05c-.184.482-.348 1.3-.155 2.608l-.672-.334s.287-1.991-1.06-3.48l.003-.01c-.673-.68-.805-1.553-.749-2.308Z"/><path fill="#fff" d="M229.568 245.623c1.141.38 2.204.652 3.412.75 1.047.087 2.08-.072 3.124-.065l.019.132c-1.978.435-4.807.324-6.618-.664l.063-.153Z"/><path fill="#8A4B2D" d="M223.291 64.617h-9.315l1.469-10.024h6.494l1.352 10.024Z"/><path fill="#1D0F09" d="m222.217 56.664-.202-1.51c.005 0 .009-.003.014-.005l.236 1.44c-.016.026-.03.05-.048.075Z"/><path fill="#683720" d="m214.72 59.544.641-4.38a9.165 9.165 0 0 0 3.314.638h.13a9.054 9.054 0 0 0 2.73-.474l.006-.003.01-.003c.004 0 .009-.004.013-.005h.003c.149-.05.298-.104.448-.163l.202 1.51c-.905 1.399-3.226 1.657-4.93 1.9-.97.139-1.804.492-2.567.98Z"/><path fill="#8A4B2D" d="m234.892 66.628-11.863-4.948h-8.641l-11.863 4.948s-3.432 2.872-.846 10.341l6.098 25.636s-.656 3.946-3.917 10.63h29.695c-3.262-6.684-3.911-10.63-3.911-10.63l6.092-25.636c2.591-7.47-.844-10.341-.844-10.341Z"/><path fill="#8A4B2D" d="m207.14 72.639-8.587 35.365-.024.104a3.029 3.029 0 0 1-.122.385l-12.29 30.555a1.763 1.763 0 0 1-2.288.976 1.759 1.759 0 0 1-1.057-2.023l.051-.226c.617-2.703 1.368-5.356 2.046-8.039l2.259-7.953c.725-2.66 1.597-5.267 2.4-7.899l2.449-7.879-.149.487 1.592-8.964c.548-2.985 1.019-5.99 1.645-8.955l1.788-8.922c.675-2.956 1.274-5.928 2.015-8.87l.043-.173a4.236 4.236 0 0 1 5.14-3.08 4.241 4.241 0 0 1 3.089 5.11Z"/><path fill="#8A4B2D" d="M185.835 138.243c-2.512-3.011-7.031-.312-7.031-.312-.537.324-1.091.626-1.635.936-.148.084-.288.168-.433.25-.655.359-.469.855-.469.855.233.557.86.345.86.345l3.054-1.189-2.181 5.879s-.392.988.195 1.181c0 0 .337.212.774-.775l2.055-4.465s-1.347 4.252-1.889 5.532c0 0-.079.648.61.531 0 0 .399-.094.678-1.027 0 0 1.409-3.572 1.513-4.107 0 0-.575 3.232-1.072 4.446 0 0-.072.357.343.402 0 0 .302.019.518-.434 0 0 .742-1.724 1.474-4.034l-.35 2.696s.035.32.334.331c0 0 .356.065.473-.345l.859-2.72s1.818-3.042 1.32-3.976Zm52.238-69.098 12.034 31.3.037.094a3.937 3.937 0 0 1-7.332 2.862l-12.357-31.165-.039-.1a4.11 4.11 0 1 1 7.643-3.03l.014.04Zm-5.118-32.85c-.334 2.48.668 4.665 2.228 4.869 1.562.208 3.097-1.636 3.425-4.117.328-2.486-.671-4.667-2.233-4.874-1.559-.21-3.091 1.636-3.42 4.121Z"/><path fill="#683720" d="M236.851 38.295s.03-.136.093-.366c.033-.114.085-.244.113-.408.035-.161.071-.341.123-.536.029-.192.065-.4.104-.622.043-.215.041-.472.069-.72.026-.22-.012-.47-.056-.71a2.743 2.743 0 0 0-.224-.7 1.278 1.278 0 0 0-.41-.53l-.112-.072-.154-.06-.3-.031c-.393.03-.684.416-.853.75a3.624 3.624 0 0 0-.315.898 4.889 4.889 0 0 0-.046.26.114.114 0 0 0-.024.057 2.658 2.658 0 0 1-.026-.326v-.043c.047-.31.09-.615.128-.916a2.034 2.034 0 0 1 .339-.67c.163-.203.415-.405.732-.45.064-.01.129-.015.193-.015.091 0 .183.01.274.024l.216.064.229.127c.268.187.457.447.587.715.128.269.204.553.253.834.048.284.056.558.017.846-.045.253-.07.49-.138.725-.071.232-.132.45-.202.648-.077.19-.158.364-.225.517-.067.155-.144.275-.195.384-.116.21-.19.326-.19.326Z"/><path fill="#683720" d="M235.363 39.039c-.307 0-.634-.167-.755-.431-.028-.11-.045-.193-.045-.193l-.003.004c-.023-.422.428-1.095.639-1.383 0 0 .67-.912-.331-1.484 0 0-.012-.019-.009-.047l.009.047s.004-.037.015-.104c.058-.081.252-.19.84-.239 0 0 1.146.15.56 1.395a3.246 3.246 0 0 0-.286.836c-.076.415.142.972-.108 1.344-.118.177-.317.255-.526.255Z"/><path fill="#502917" d="m234.868 35.552-.009-.047a.114.114 0 0 1 .024-.057 2.068 2.068 0 0 0-.015.104Z"/><path fill="#683720" d="M235.401 40.088a1.18 1.18 0 0 1-.348-.067l-.325-.169-.157-.141-.127-.187-.099-.201-.038-.223.002-.204.046-.179.133-.232.072-.066a.96.96 0 0 0 .005.053.539.539 0 0 0 .043.136l.035.13.05.134.054.136.137.27.073.134.095.13.081.135.092.114c.11.146.179.297.179.297h-.003Z"/><path fill="#502917" d="M234.608 38.608a.538.538 0 0 1-.043-.136.963.963 0 0 1-.005-.054l.003-.003s.017.082.045.193Z"/><path fill="#8A4B2D" d="M203.999 36.294c.332 2.482-.667 4.666-2.231 4.87-1.559.208-3.089-1.636-3.423-4.117-.329-2.486.668-4.667 2.231-4.874 1.561-.21 3.095 1.636 3.423 4.121Z"/><path fill="#683720" d="M200.103 38.295s-.075-.116-.191-.326c-.049-.11-.132-.23-.197-.384a32.254 32.254 0 0 1-.223-.517c-.073-.197-.133-.416-.199-.648-.073-.235-.1-.472-.141-.725a2.662 2.662 0 0 1 .016-.846c.049-.281.125-.565.256-.834.129-.268.317-.528.581-.715l.234-.127.213-.064c.091-.014.181-.024.273-.024.066 0 .132.004.198.015.314.045.57.247.728.45.166.205.257.426.325.631a3.09 3.09 0 0 1 .117 1.324.118.118 0 0 0-.022-.057 9.073 9.073 0 0 0-.047-.26 3.666 3.666 0 0 0-.315-.897c-.174-.335-.457-.72-.849-.751l-.305.03-.152.06-.119.074c-.165.119-.304.312-.405.53-.106.217-.178.46-.227.7-.041.24-.076.49-.055.709.031.248.031.505.068.72.038.222.076.43.108.622.05.195.09.375.123.536.029.164.081.294.109.408.064.23.098.366.098.366Z"/><path fill="#683720" d="M201.591 39.039c-.21 0-.41-.078-.53-.255-.248-.372-.03-.93-.102-1.344a3.5 3.5 0 0 0-.29-.836c-.586-1.244.562-1.395.562-1.395.588.05.781.158.84.239.01.067.013.104.013.104l.009-.047c.003.028-.009.047-.009.047-1.004.572-.332 1.484-.332 1.484.213.288.661.961.64 1.383l-.003-.004s-.017.085-.046.197c-.123.261-.448.427-.752.427Z"/><path fill="#502917" d="M202.084 35.552s-.003-.037-.013-.104c.014.021.021.04.022.057a.64.64 0 0 1-.009.047Z"/><path fill="#683720" d="M201.552 40.088h-.003s.066-.15.176-.297l.095-.114.081-.136.09-.129.074-.135.144-.269.051-.136.047-.135.036-.125a.516.516 0 0 0 .044-.14.96.96 0 0 0 .005-.053l.071.066.134.232.043.179.003.204-.035.223-.099.201-.126.187-.16.141-.324.17a1.156 1.156 0 0 1-.347.066Z"/><path fill="#502917" d="M202.343 38.612a3.974 3.974 0 0 0 .046-.197l.003.004a.963.963 0 0 1-.005.053.516.516 0 0 1-.044.14Z"/><path fill="#8A4B2D" d="M227.241 10.516s-3.678-1.644-8.584-1.667c-4.87.023-8.549 1.667-8.549 1.667s-13.875 6.657-5.316 34.353c1.227 3.965 4.952 7.005 8.459 9.221 3.609 2.284 7.248 2.28 10.849 0 3.505-2.216 7.235-5.256 8.457-9.22 8.562-27.697-5.316-34.354-5.316-34.354Z"/><path fill="#60321D" d="M218.805 55.801Z"/><path fill="#E9E9E9" d="m218.8 8.852-.095-.001c-.01 0-.021 0-.032-.002l.127.003Z"/><path fill="#7F4429" d="M218.68 55.803c1.445 0 2.891-.575 4.329-1.712 2.803-2.216 5.778-5.256 6.759-9.222 6.843-27.696-4.247-34.353-4.247-34.353s-2.914-1.628-6.816-1.665l.095.001c4.787.055 8.368 1.63 8.44 1.663v.001h.001s8.114 3.892 8.106 18.107a43.306 43.306 0 0 1-.386 5.597c-.038.301-.081.607-.128.916a58.956 58.956 0 0 1-1.022 5.193 75.786 75.786 0 0 1-1.254 4.54c-1.222 3.966-4.952 7.006-8.457 9.222-.843.533-1.687.942-2.533 1.226h-.003l-.013.006-.01.002-.006.003c-.91.301-1.819.46-2.73.473l-.125.002Zm-.004 0c-1.812 0-3.623-.571-5.425-1.712-3.507-2.216-7.232-5.256-8.459-9.222a74.047 74.047 0 0 1-1.357-4.974c-.612-2.615-1.006-5.008-1.223-7.203a41.556 41.556 0 0 1-.209-4.07c-.008-14.214 8.105-18.106 8.105-18.106s3.679-1.644 8.549-1.667c-3.889.023-6.828 1.667-6.828 1.667s-11.092 6.657-4.248 34.353c.982 3.966 3.955 7.006 6.756 9.222 1.443 1.141 2.891 1.712 4.339 1.712Z"/><path fill="#5D3220" d="M216.025 40.112s.403.085 1.01.21c.276.06.582.1.884.15.308.017.609.077.913.05.304.022.603-.033.911-.05.301-.056.606-.092.885-.153.285-.04.527-.114.719-.139.188-.03.31-.04.31-.04s-.032.11-.114.29c-.088.17-.206.44-.443.671-.213.263-.535.504-.921.704-.204.072-.411.187-.642.226-.232.03-.468.093-.708.082-.981.002-1.846-.5-2.273-1.014-.455-.503-.531-.987-.531-.987Z"/><path fill="#331E15" d="M209.561 32.956a1.747 1.747 0 0 0 1.802 1.695 1.756 1.756 0 0 0 1.698-1.807 1.756 1.756 0 0 0-1.806-1.696 1.748 1.748 0 0 0-1.694 1.808Z"/><path fill="#1A0D08" d="M210.685 32.961a.633.633 0 1 0 1.264-.041.634.634 0 0 0-.652-.613.63.63 0 0 0-.612.654Z"/><path fill="#1D0F09" d="M214.441 32.7c-.294.021-.578-.119-.856-.219-.261-.129-.501-.296-.758-.445l-.018-.015a3.205 3.205 0 0 0-.825-.408c-.288-.086-.575-.118-.849-.056-.558.094-1.058.507-1.524.994l.012-.019c-.123.16-.24.26-.382.361a1.268 1.268 0 0 1-.457.212 1.29 1.29 0 0 1-.931-.11c.304 0 .587-.047.804-.198l.295-.246.207-.298.012-.017.31-.479c.136-.138.256-.293.411-.42.297-.269.688-.456 1.103-.548a2.21 2.21 0 0 1 1.24.138c.378.164.696.381.97.698l-.016-.014c.402.368.75.817 1.252 1.089Z"/><path fill="#1D0F09" d="M209.543 32.467s-.515.15-1.051.132c-.264-.007-.548-.087-.684-.247-.131-.159-.115-.301-.125-.296.008-.007.026.137.168.252.144.113.393.135.63.097.484-.078.926-.304.926-.304l.136.366Z"/><path fill="#1D0F09" d="M209.785 32.179s-.532.064-1.057-.043c-.257-.053-.524-.179-.631-.357-.101-.18-.064-.318-.074-.315.008-.004.004.14.124.277.122.135.364.198.605.2.489.004.96-.145.96-.145l.073.383Z"/><path fill="#fff" d="M210.013 32.516a.44.44 0 0 0 .452.425.44.44 0 0 0 .424-.452.435.435 0 0 0-.453-.421.432.432 0 0 0-.423.448Z"/><path fill="#fff" d="M210.688 32.948a.222.222 0 0 0 .231.212l.212-.224a.219.219 0 0 0-.226-.215.226.226 0 0 0-.217.227Z"/><path fill="#23130C" d="M206.877 29.407s1.994-2.902 7.252-1.331c0 0 1.39.424 1.978.879 0 0 .725-.094.497-1.95 0 0-8.809-3.489-9.727 2.402Z"/><path fill="#331E15" d="M228.124 32.956a1.749 1.749 0 0 1-1.805 1.695 1.752 1.752 0 0 1 .11-3.503 1.75 1.75 0 0 1 1.695 1.808Z"/><path fill="#1A0D08" d="M227 32.961a.635.635 0 0 1-.652.614.631.631 0 0 1-.612-.655.632.632 0 0 1 .652-.613c.347.01.621.304.612.654Z"/><path fill="#1D0F09" d="M223.244 32.7c.501-.272.848-.722 1.249-1.09l-.016.015c.275-.317.592-.535.972-.699a2.216 2.216 0 0 1 1.242-.137 2.44 2.44 0 0 1 1.102.547c.155.128.276.281.412.421l.311.477.013.02.206.296.294.247c.219.15.5.197.804.197a1.293 1.293 0 0 1-.93.111 1.257 1.257 0 0 1-.458-.212 1.679 1.679 0 0 1-.381-.363l.013.02c-.468-.486-.968-.9-1.526-.993-.275-.063-.564-.03-.852.056a3.233 3.233 0 0 0-.827.408l-.016.015c-.256.15-.496.316-.757.445-.278.1-.562.24-.855.219Z"/><path fill="#1D0F09" d="M228.28 32.101s.441.226.924.304c.237.038.487.015.629-.098.142-.114.162-.258.17-.251-.011-.005.004.137-.127.296-.135.16-.419.239-.681.248-.536.017-1.051-.133-1.051-.133l.136-.366Z"/><path fill="#1D0F09" d="M227.971 31.796s.472.15.961.145c.241-.001.484-.064.605-.198.12-.138.114-.283.123-.28-.012-.002.029.136-.073.316-.107.18-.374.306-.632.357-.526.105-1.059.043-1.059.043l.075-.383Z"/><path fill="#fff" d="M227.671 32.516a.441.441 0 0 1-.45.425.438.438 0 0 1-.425-.452.434.434 0 0 1 .452-.421c.24.004.432.205.423.448Z"/><path fill="#fff" d="M226.991 32.948a.216.216 0 0 1-.226.212.22.22 0 1 1 .226-.212Z"/><path fill="#23130C" d="M230.805 29.407s-1.994-2.902-7.249-1.331c0 0-1.389.424-1.98.879 0 0-.725-.094-.5-1.95 0 0 8.812-3.489 9.729 2.402Z"/><path fill="#85422B" d="M232.456 37.235c-.128-1.42-2.153-2.398-4.525-2.187-2.372.21-4.19 1.535-4.066 2.955.13 1.417 2.151 2.396 4.524 2.185 2.371-.215 4.195-1.533 4.067-2.953Zm-23.039-2.187c-2.37-.21-4.396.767-4.524 2.187-.128 1.42 1.694 2.738 4.066 2.953 2.372.21 4.393-.768 4.522-2.185.127-1.42-1.689-2.744-4.064-2.955Z"/><path fill="#EBB72E" d="M236.527 40.54a1.014 1.014 0 1 1-2.027 0 1.015 1.015 0 1 1 2.027 0Zm-33.342 0c0 .559-.456 1.015-1.014 1.015a1.015 1.015 0 0 1 0-2.031c.558 0 1.014.455 1.014 1.016Z"/><path fill="#fff" d="M213.617 45.459c1.079 2.28 3.012 3.805 5.223 3.805 2.212 0 4.145-1.524 5.229-3.805h-10.452Z"/><path fill="#7D2627" d="M213.617 45.459s.202.132.518.386c.149.132.348.286.554.423.215.144.418.304.679.459a9.517 9.517 0 0 0 1.664.844c.305.073.593.205.901.232.152.02.299.073.454.066l.228.011.113.01.057.003.028.003.015.001.007.002h.002l-.112.005c.42-.028.912-.055 1.072-.115.223-.01.563-.15.854-.224a9.662 9.662 0 0 0 1.664-.842c.258-.15.473-.327.689-.47.213-.15.401-.289.549-.413.308-.241.516-.381.516-.381s.004.233-.042.648a2.891 2.891 0 0 1-.158.732c-.09.273-.174.606-.369.91-.168.326-.365.68-.66 1-.263.344-.629.635-1.016.936-.432.254-.823.535-1.428.684-.641.212-1.008.204-1.437.256l-.128.004h-.014l-.025-.002-.051-.004-.102-.01-.206-.02-.406-.04c-.276-.012-.527-.128-.784-.196-.522-.132-.964-.42-1.382-.672-.385-.302-.752-.593-1.014-.94-.294-.318-.491-.672-.66-.997-.191-.3-.287-.65-.379-.927-.108-.277-.129-.518-.149-.718a7.892 7.892 0 0 1-.042-.644Z"/><path fill="#7D2627" d="M224.069 45.459s-.652.456-1.633.781c-.98.361-2.287.579-3.592.584-1.307-.001-2.613-.217-3.593-.581-.98-.324-1.634-.784-1.634-.784s.654-.46 1.634-.784c.98-.366 2.286-.582 3.593-.583 1.305.005 2.612.223 3.592.585a6.865 6.865 0 0 1 1.633.782Z"/><path fill="#8A4B2D" d="M218.648 8.675s.221.36.38.905c.168.543.279 1.267.284 1.99-.004.725-.113 1.449-.283 1.991-.157.543-.381.906-.381.906s-.224-.363-.381-.906c-.17-.542-.279-1.266-.283-1.99a7.182 7.182 0 0 1 .284-1.991c.157-.544.38-.905.38-.905Z"/><path fill="#BFE7F1" d="M235.639 77.412c-3.476-2.363-3.78-7.927-.916-10.852l-11.694-4.88h-8.641l-11.863 4.948-.105.103c2.851 2.848 2.647 8.28-.627 10.742l5.674 25.44s-2.011 5.406-4.658 12.354h31.83c-2.975-6.778-4.603-12.662-4.603-12.662l5.603-25.193Z"/><path fill="#4D0815" d="m204.088 239.399 14.799-104.886.669 104.719h7.299l11.014-104.316v-.083c.674-9.458-.666-13.838-3.712-19.886h-30.942c-1.851 3.158-2.198 9.124-2.198 17.746h-.052l-3.576 106.762 6.699-.056Z"/><path fill="#5A3114" d="m236.796 121.199-1.113-2.79-.894-1.92h-32.31l-.751 1.92c.035.998-.451 1.924-.42 2.79h35.488Z"/><path fill="#F9A72B" d="M221.343 121.339v-.836H216.9v-3.323h3.608v4.159h1.671v-5.83h-6.95v6.664h6.95v-.834h-.836Z"/><path fill="#F9A72B" d="M221.573 119.376h-2.285v-1.071h2.285v1.071Z"/><path fill="#4D0815" d="M231.208 122.055h-2.141v-7.138h2.141v7.138Zm-22.268 0h-2.143v-7.138h2.143v7.138Z"/><path fill="#BFE7F1" d="m203.593 85.857 3.204-13.295c.511-2.08-.765-5.584-2.845-6.093-2.081-.51-4.423 1.9-4.931 3.979v-.058a160.278 160.278 0 0 0-.953 4.142l-1.007 4.758-.336 1.455c2.031 1.837 4.616 3.536 6.868 5.112Zm38.211-6.418-3.705-10.264v-.084c-.794-1.99-3.528-3.357-5.283-2.07-1.728 1.267-2.967 3.046-2.173 5.035l.033.088 5.056 12.728c1.832-2.025 3.927-3.757 6.072-5.433Z"/><path fill="#141D20" d="M214.021 127.852V61.833l-11.496 4.795-.105.103c2.851 2.848 4.939 17.03 1.668 19.492l3.379 16.69s-6.168 11.324-7.954 20.251l14.508 4.688Zm19.362-41.127c-3.476-2.361-1.524-17.24 1.34-20.165l-11.694-4.88h-.304v66.619l16.074-5.135c-2.683-8.704-8.763-20.559-8.763-20.559l3.347-15.88Z"/><path fill="#89C1D2" d="m218.716 61.973-4.445-3.401-5.248 3.644 5.209 6.633 4.484-6.876Z"/><path fill="#89C1D2" d="m218.701 61.973 4.447-3.401 5.251 3.644-5.214 6.633-4.484-6.876Z"/><path fill="#DEDDDE" d="M234.472 116.607h-26.116V78.44h26.116v38.167Z"/><path fill="#fff" d="M236.563 118.364h-26.115V80.197h26.115v38.167Z"/><path fill="#8A4B2D" d="m244.564 105.62-13.676-4.48c-6.859-2.173-13.716-4.348-13.716-4.348a1.718 1.718 0 0 1 .387-3.353l.57-.043c.003 0 .479-.036 1.295-.036.815.017 1.993-.032 3.372.048 1.385.056 2.991.157 4.695.332.853.077 1.73.168 2.614.288.89.12 1.795.212 2.69.361 1.792.263 3.574.562 5.236.883 1.658.321 3.2.65 4.512.975 1.312.313 2.382.645 3.146.842.755.22 1.179.371 1.179.371l.416.148a4.225 4.225 0 0 1 2.589 5.395 4.236 4.236 0 0 1-5.309 2.617Z"/><path fill="#8A4B2D" d="M220.647 97.37c2.402-3.918-2.292-7.923-2.292-7.923-.562-.478-1.106-.986-1.658-1.472l-.437-.387c-.644-.593-1.124-.203-1.124-.203-.533.472-.059 1.087-.059 1.087l2.46 2.944-7.346-.216s-1.244-.064-1.238.664c0 0-.109.45 1.151.568l5.731.607s-5.227.1-6.855-.024c0 0-.747.154-.357.878 0 0 .25.407 1.393.367 0 0 4.497.223 5.128.141 0 0-3.804.572-5.341.476 0 0-.422.054-.316.536 0 0 .092.342.68.41 0 0 2.192.177 5.032.122l-3.124.626s-.347.157-.243.494c0 0 .059.416.559.396l3.342-.07s4.062.882 4.914-.022Z"/><path fill="#23130C" d="M218.568 17.585s-7.083-3.01-11.575 1.511c0 0-5.012 4.016-3.63 16.068 0 0-.504-3.3-2.762-2.99 0 0-6.742-26.305 17.967-27.31v12.721Z"/><path fill="#23130C" d="M218.427 17.585s7.082-3.01 11.577 1.511c0 0 5.012 4.016 3.631 16.068 0 0 .506-3.3 2.758-2.99 0 0 6.746-26.305-17.966-27.31v12.721Z"/><path fill="#23130C" d="M209.945 17.085s-7.532-11.05.838-13.894c0 0 3.85-1.34 8.205-1.003v15.397s-4.188-2.173-9.043-.5Z"/><path fill="#23130C" d="M227.927 17.085s7.533-11.05-.84-13.894c0 0-3.848-1.34-8.2-1.003v15.397s4.184-2.173 9.04-.5Z"/></g><g clip-path="url(#b)"><path fill="#5F1F2A" d="M106.388 79.773h39.796V23.255h-39.796v56.518Z"/><path fill="#2F0D11" d="M110.067 79.773h32.438V23.255h-32.438v56.518Z"/><path fill="#5F1F2A" d="M107.172 36.745s2.848 13.473 15.02 16.719h6.967s11.394-2.823 14.386-16.426l-36.373-.293Z"/><path fill="#FABA75" d="m108.612 132.485 11.799 104.755h4.521l.777-104.755h-17.097Z"/><path fill="#FABA75" d="m125.647 132.827 4.849 104.756h4.521l7.732-104.756h-17.102Z"/><path fill="#FABA75" d="M140.821 112.817c-1.488-3.049-2.437-5.529-3.038-7.35h-24.146c-.601 1.821-1.55 4.301-3.038 7.35h.068s-4.652 9.139-1.644 21.312h33.328c3.008-12.173-1.643-21.312-1.643-21.312h.113Z"/><path fill="#FABA75" d="m145.075 67.43 16.677 29.02 1.265 2.203-1.666 1.762-17.023 18.002a1.7 1.7 0 0 1-2.617-2.166l.097-.136 14.627-20.199-.4 3.961-17.996-28.236a4.096 4.096 0 0 1 1.257-5.66 4.097 4.097 0 0 1 5.661 1.254l.09.146.028.048Zm-31.295 4.42L94.055 98.535l.093-3.727 14.816 23.968a1.705 1.705 0 0 1-2.788 1.952l-.091-.117-17.556-22.215a2.879 2.879 0 0 1-.133-3.384l.228-.341 18.475-27.576a4.101 4.101 0 0 1 6.816 4.565l-.102.144-.033.044Zm16.593-8.517h-9.477l1.492-10.205h6.613l1.372 10.205Z"/><path fill="#260A0C" d="m121.649 58.17.654-4.46-.651 4.458-.003.001Zm7.636-2.934-.206-1.536.016-.005.237 1.465-.047.076Z"/><path fill="#B98955" d="m121.652 58.168.651-4.457a9.33 9.33 0 0 0 3.376.649 9.23 9.23 0 0 0 3.174-.575l.226-.085.206 1.536c-.922 1.424-3.286 1.688-5.022 1.935-.987.141-1.834.5-2.611.997Z"/><path fill="#FABA75" d="m142.181 65.38-12.072-5.034h-8.801l-12.067 5.034s-3.498 2.92-.864 10.526l6.208 26.089s-.666 4.017-3.986 10.822h30.222c-3.32-6.805-3.984-10.822-3.984-10.822l6.206-26.09c2.634-7.605-.862-10.525-.862-10.525Z"/><path fill="#fff" d="M143.003 76.025c-3.238-2.429-3.535-7.713-.9-10.676l-10.774-4.578-5.665.638-5.749-.51-10.506 4.406c2.718 2.991 2.39 8.414-.994 10.81l6.156 25.88s-.662 4.017-3.984 10.822h30.225c-3.324-6.805-3.987-10.822-3.987-10.822l6.178-25.97Z"/><path fill="#FABA75" d="M140.783 34.505c-.339 2.527.681 4.747 2.272 4.959 1.588.21 3.148-1.665 3.486-4.195.335-2.528-.682-4.748-2.276-4.96-1.586-.212-3.146 1.667-3.482 4.196Z"/><path fill="#B98955" d="M144.748 36.54s.036-.138.099-.37c.028-.115.082-.251.116-.418a8.64 8.64 0 0 1 .121-.545c.033-.195.072-.405.112-.632.039-.22.036-.477.068-.732.021-.221-.013-.479-.059-.723s-.121-.49-.226-.71a1.353 1.353 0 0 0-.42-.542l-.114-.074-.156-.062-.308-.028c-.397.028-.692.422-.866.76a4.08 4.08 0 0 0-.323.914c-.02.11-.036.2-.045.265a.11.11 0 0 0-.024.057 3.19 3.19 0 0 1 .118-1.348c.071-.206.164-.43.332-.64.166-.21.42-.41.742-.458a1.297 1.297 0 0 1 .201-.015c.093 0 .185.01.276.024l.223.067.232.126c.27.192.464.456.596.727.126.279.212.565.257.848.049.29.061.572.017.865-.044.258-.068.498-.142.735-.07.239-.132.461-.203.661-.081.195-.159.372-.228.525-.064.158-.149.284-.2.391-.12.213-.196.332-.196.332Z"/><path fill="#B98955" d="M143.236 37.297c-.316 0-.652-.173-.772-.448a2.934 2.934 0 0 1-.041-.185l-.003.003c-.023-.427.432-1.115.649-1.407 0 0 .687-.928-.338-1.51 0 0-.012-.02-.008-.05.004.033.008.05.008.05l.016-.107c.06-.084.258-.194.857-.242 0 0 1.168.152.569 1.418-.13.272-.238.556-.29.85-.08.423.142.991-.108 1.37-.123.18-.327.258-.539.258Z"/><path fill="#8C6640" d="M142.731 33.75s-.004-.017-.008-.05a.11.11 0 0 1 .024-.057l-.016.106Z"/><path fill="#B98955" d="M143.271 38.364c-.034 0-.168-.004-.351-.064l-.328-.173-.164-.146-.127-.188-.101-.208-.039-.224.004-.208.043-.181.137-.235.075-.07a.859.859 0 0 0 .005.053.626.626 0 0 0 .039.13c.011.043.024.093.039.142l.049.139.052.134.145.274.075.138.093.132.083.136.096.118c.113.152.181.301.181.301h-.006Z"/><path fill="#8C6640" d="M142.464 36.85a.627.627 0 0 1-.039-.13.855.855 0 0 1-.005-.053l.003-.003s.014.079.041.186Z"/><path fill="#FABA75" d="M110.911 34.505c.337 2.527-.683 4.747-2.271 4.959-1.591.21-3.148-1.665-3.487-4.195-.334-2.528.68-4.748 2.275-4.96 1.585-.212 3.145 1.667 3.483 4.196Z"/><path fill="#B98955" d="M106.943 36.54s-.075-.118-.194-.332c-.052-.106-.132-.233-.2-.39a24.831 24.831 0 0 1-.226-.526c-.072-.2-.136-.422-.206-.661-.072-.237-.097-.477-.142-.735a2.79 2.79 0 0 1 .02-.865c.048-.283.125-.57.256-.848.13-.27.325-.535.594-.727l.235-.126.219-.067c.092-.015.185-.024.278-.024.067 0 .135.004.202.015.32.049.577.249.742.458.168.21.262.434.334.64a3.296 3.296 0 0 1 .117 1.348.12.12 0 0 0-.025-.06 3.712 3.712 0 0 0-.37-1.176c-.174-.338-.468-.732-.861-.76l-.307.028-.16.062-.117.074a1.354 1.354 0 0 0-.416.542c-.107.22-.183.466-.232.71-.041.244-.075.502-.056.723.033.255.031.512.075.732.037.227.073.437.106.632.054.199.088.381.122.545.032.167.086.303.112.419.068.23.1.37.1.37Z"/><path fill="#B98955" d="M108.457 37.297c-.213 0-.417-.078-.537-.258-.253-.379-.032-.947-.107-1.37a3.422 3.422 0 0 0-.294-.85c-.596-1.266.569-1.418.569-1.418.595.048.795.156.859.239.012.07.017.11.017.11s.004-.017.008-.05c.004.03-.008.05-.008.05-1.023.582-.339 1.51-.339 1.51.218.292.675.98.647 1.407l-.003-.003s-.013.075-.037.179c-.116.278-.456.454-.775.454Z"/><path fill="#8C6640" d="M108.964 33.75s-.005-.04-.017-.11a.12.12 0 0 1 .025.06.448.448 0 0 1-.008.05Z"/><path fill="#B98955" d="M108.42 38.364h-.007s.072-.15.184-.301l.095-.118.085-.136.091-.132.075-.138.142-.274.058-.134.049-.139c.015-.052.028-.104.04-.15a.558.558 0 0 0 .035-.122.859.859 0 0 0 .005-.053l.077.07.136.235.043.181.003.208-.039.224-.099.208-.129.188-.164.146-.328.173c-.18.06-.319.064-.352.064Z"/><path fill="#8C6640" d="M109.232 36.842c.024-.104.037-.178.037-.178l.003.002a.848.848 0 0 1-.005.054.557.557 0 0 1-.035.122Z"/><path fill="#FABA75" d="M134.392 8.268s-3.739-1.672-8.736-1.695c-4.952.023-8.696 1.695-8.696 1.695s-14.125 6.775-5.413 34.965c1.246 4.035 5.04 7.131 8.608 9.385 3.678 2.326 7.381 2.32 11.042 0 3.568-2.254 7.362-5.35 8.608-9.385 8.714-28.19-5.413-34.965-5.413-34.965Z"/><path fill="#2C0C0F" d="M129.095 53.694c.51-.2 1.022-.445 1.533-.734l.001-.001c-.51.29-1.022.535-1.534.735Z"/><path fill="#581D26" d="M130.628 52.96a14.308 14.308 0 0 0 .001-.002l-.001.002Z"/><path fill="#E9E9E9" d="M126.12 6.58a19.762 19.762 0 0 0-.4-.007h-.045c.149 0 .297.003.445.007Z"/><path fill="#E5AA6A" d="M125.68 54.36c1.472 0 2.949-.583 4.409-1.743 2.851-2.253 5.882-5.35 6.878-9.384a88.33 88.33 0 0 0 1.324-6.292c.93-.565 1.485-1.348 1.41-2.161-.048-.547-.373-1.028-.888-1.405 2.399-19.966-6.17-25.107-6.17-25.107s-2.962-1.653-6.923-1.695c.133.002.267.003.4.007h.021c4.748.125 8.251 1.688 8.251 1.688s8.26 3.961 8.252 18.43a42.652 42.652 0 0 1-.229 4.3 56.817 56.817 0 0 1-1.176 6.947 75.188 75.188 0 0 1-1.434 5.288c-1.246 4.035-5.04 7.13-8.608 9.384a12.037 12.037 0 0 1-2.102 1.077l-.016.006c-.075.03-.151.057-.226.085a9.26 9.26 0 0 1-3.173.575Zm-.003 0c-1.842 0-3.682-.58-5.522-1.743-3.568-2.253-7.362-5.35-8.608-9.384a74.911 74.911 0 0 1-1.334-4.864c-.662-2.79-1.082-5.34-1.305-7.664a42.363 42.363 0 0 1-.2-4.008c-.008-14.468 8.252-18.43 8.252-18.43s3.744-1.671 8.696-1.694h.001c-3.958.024-6.948 1.695-6.948 1.695s-8.568 5.144-6.173 25.11c-.513.377-.837.858-.885 1.402-.074.813.48 1.593 1.406 2.159a88.54 88.54 0 0 0 1.324 6.294c1.002 4.035 4.031 7.13 6.882 9.384 1.468 1.163 2.941 1.743 4.414 1.743Z"/><path fill="#D19B61" d="m122.977 38.39 1.192-.053c.623-.035 1.191-.07 1.668-.08.124.026.247-.016.375.012a2.43 2.43 0 0 1 .4.02c.277 0 .583.028.891.04.306.025.597.02.826.043.228.021.384.047.384.047s-.001.145-.049.378c-.055.224-.131.567-.356.87-.192.342-.525.653-.948.914a3.22 3.22 0 0 1-1.528.392c-1.128.003-2.095-.638-2.476-1.312-.432-.645-.379-1.27-.379-1.27Z"/><path fill="#331E15" d="M116.399 31.104a1.782 1.782 0 1 0 3.563-.11 1.782 1.782 0 0 0-3.563.11Z"/><path fill="#1A0D08" d="M117.543 31.112a.647.647 0 0 0 .665.625.646.646 0 0 0 .624-.666.644.644 0 0 0-.668-.623.644.644 0 0 0-.621.664Z"/><path fill="#1D0F09" d="M121.365 30.848c-.3.019-.588-.124-.87-.223-.267-.133-.511-.302-.772-.454l-.016-.016a3.392 3.392 0 0 0-.842-.414c-.292-.088-.585-.12-.864-.056-.566.096-1.076.515-1.552 1.012l.014-.018c-.126.16-.246.262-.39.365-.141.099-.297.18-.465.215a1.307 1.307 0 0 1-.948-.114c.309 0 .596-.046.819-.201l.3-.25.209-.3.012-.02.317-.487c.138-.142.262-.3.418-.428a2.49 2.49 0 0 1 1.124-.559c.429-.079.88-.023 1.261.139.387.168.711.389.991.713l-.018-.016c.408.375.762.833 1.272 1.112Z"/><path fill="#1D0F09" d="M116.377 30.61s-.524.151-1.068.135c-.268-.008-.557-.09-.693-.253-.132-.163-.116-.307-.127-.301.008-.008.027.14.17.256.145.116.398.136.641.098a3.65 3.65 0 0 0 .936-.31l.141.374Z"/><path fill="#1D0F09" d="M116.629 30.317s-.542.063-1.076-.044c-.264-.053-.533-.181-.642-.364-.106-.181-.066-.323-.078-.319.01-.005.004.144.127.282.124.137.372.201.617.203.498 0 .976-.151.976-.151l.076.393Z"/><path fill="#fff" d="M116.861 30.659a.446.446 0 1 0 .891-.025.446.446 0 0 0-.891.025Z"/><path fill="#fff" d="M117.551 31.1a.224.224 0 0 0 .448-.015.223.223 0 0 0-.23-.216.218.218 0 0 0-.218.23Z"/><path fill="#5F1F2A" d="M113.669 27.493s2.028-2.952 7.38-1.355c0 0 1.414.435 2.012.894 0 0 .739-.09.51-1.983 0 0-8.972-3.55-9.902 2.444Z"/><path fill="#331E15" d="M135.295 31.104a1.784 1.784 0 0 1-1.835 1.727 1.782 1.782 0 1 1 1.835-1.727Z"/><path fill="#1A0D08" d="M134.149 31.112a.648.648 0 0 1-.664.625.648.648 0 0 1-.624-.666.643.643 0 0 1 .662-.623.64.64 0 0 1 .626.664Z"/><path fill="#1D0F09" d="M130.328 30.848c.509-.277.861-.736 1.268-1.11l-.016.014c.28-.324.604-.545.991-.713a2.25 2.25 0 0 1 1.262-.14c.423.095.822.286 1.124.56.158.129.28.286.419.428l.316.486.012.02.211.301.3.25c.221.155.509.201.817.201a1.31 1.31 0 0 1-.947.115 1.321 1.321 0 0 1-.466-.215 1.729 1.729 0 0 1-.388-.368l.012.02c-.476-.497-.986-.916-1.552-1.012-.279-.064-.574-.032-.866.056a3.35 3.35 0 0 0-.841.414l-.016.014c-.261.154-.504.323-.771.456-.281.1-.57.244-.869.223Z"/><path fill="#1D0F09" d="M135.453 30.235s.447.232.939.31c.243.038.497.018.643-.098.144-.116.162-.264.17-.256-.01-.006.006.138-.128.301-.137.163-.425.245-.694.253a3.965 3.965 0 0 1-1.071-.136l.141-.374Z"/><path fill="#1D0F09" d="M135.137 29.924s.479.152.978.15c.245 0 .492-.065.617-.202.123-.137.117-.287.127-.281-.012-.005.028.137-.078.318-.109.183-.38.312-.642.364-.535.107-1.078.044-1.078.044l.076-.393Z"/><path fill="#fff" d="M134.832 30.659a.445.445 0 0 1-.459.433.444.444 0 0 1-.43-.459.445.445 0 1 1 .889.026Z"/><path fill="#fff" d="M134.141 31.1a.221.221 0 0 1-.229.215.222.222 0 0 1-.217-.23.22.22 0 0 1 .23-.216.222.222 0 0 1 .216.23Z"/><path fill="#5F1F2A" d="M138.023 27.493s-2.028-2.952-7.379-1.355c0 0-1.415.435-2.013.894 0 0-.736-.09-.51-1.983 0 0 8.972-3.55 9.902 2.444Z"/><path fill="#F9AE77" d="M134.916 37.815c-2.123 0-3.84-.942-3.957-2.256-.102-1.147 1.045-2.231 2.73-2.735.184-.019.36-.064.524-.135a7.14 7.14 0 0 1 1.542-.162c1.238 0 2.336.32 3.058.848a72.263 72.263 0 0 1-.522 3.566c-.723.44-1.671.75-2.727.846-.22.018-.436.028-.648.028Z"/><path fill="#E8A26E" d="M138.291 36.941c.212-1.238.385-2.426.522-3.566.515.377.84.859.888 1.405.075.813-.48 1.596-1.41 2.161Z"/><path fill="#4F2D23" d="M133.689 32.824a6.35 6.35 0 0 1 .524-.135c-.164.07-.34.116-.524.135Z"/><path fill="#F9AE77" d="M116.433 37.815c-.213 0-.429-.01-.649-.028-1.056-.095-2.005-.406-2.727-.848a71.81 71.81 0 0 1-.521-3.562c.724-.53 1.823-.85 3.061-.85.216 0 .436.009.658.029 2.414.215 4.266 1.559 4.134 3.003-.116 1.314-1.83 2.256-3.956 2.256Z"/><path fill="#E8A26E" d="M113.057 36.939c-.926-.566-1.48-1.346-1.406-2.16.048-.543.372-1.024.885-1.402a71.797 71.797 0 0 0 .521 3.562Z"/><path fill="#fff" d="M143.845 38.825a1.032 1.032 0 1 1-2.062 0 1.031 1.031 0 1 1 2.062 0Zm-33.936 0c0 .57-.465 1.035-1.032 1.035-.57 0-1.03-.464-1.03-1.035a1.032 1.032 0 1 1 2.062 0Zm10.619 5.007c1.1 2.32 3.065 3.87 5.316 3.87 2.255 0 4.22-1.55 5.321-3.87h-10.637Z"/><path fill="#D7504F" d="M120.528 43.832s.205.135.528.392c.152.136.355.292.565.43.219.146.426.309.691.466.508.33 1.103.62 1.695.855.31.076.602.208.916.236.154.021.302.073.46.065l.232.013.114.008.059.006.028.002h.015l.006.002h.004l-.114.005c.426-.027.928-.055 1.09-.117.227-.007.572-.15.867-.223.288-.136.605-.225.876-.396.292-.133.561-.297.817-.459.263-.153.482-.333.703-.478.216-.152.408-.292.559-.419.314-.245.526-.388.526-.388s.004.239-.042.66a3.01 3.01 0 0 1-.159.745c-.092.279-.177.618-.375.93-.17.33-.373.69-.672 1.016-.266.353-.641.648-1.034.956-.44.257-.839.544-1.456.696-.652.214-1.024.206-1.462.258l-.125.006-.007-.002-.012-.001-.026-.001-.052-.004-.104-.01-.21-.018-.414-.044c-.28-.011-.536-.128-.798-.198-.53-.136-.981-.428-1.406-.685-.394-.308-.767-.604-1.034-.956-.298-.325-.5-.687-.67-1.016-.195-.305-.292-.663-.386-.944-.11-.283-.132-.528-.152-.732-.041-.41-.041-.656-.041-.656Z"/><path fill="#D7504F" d="M131.165 43.832s-.665.301-1.662.516c-.998.224-2.327.387-3.656.387a17.2 17.2 0 0 1-3.656-.386c-.998-.213-1.663-.517-1.663-.517s.665-.304 1.663-.517a17.29 17.29 0 0 1 3.656-.386c1.329 0 2.658.163 3.656.387a9.035 9.035 0 0 1 1.662.516Z"/><path fill="#5F1F2A" d="M109.409 34.648s0-4.602-2.554-4.259C104.553 11.31 113.32 9.11 113.32 9.11c-.455-3.406 4.205-6.358 4.205-6.358 12.106-5.75 19.963.102 19.963.102 13.045 8.696 7.692 27.535 7.692 27.535-3.511-.612-3.763 4.259-3.763 4.259-.34-15.336-5.112-18.403-5.112-18.403-11.186-6.195-21.784 0-21.784 0s-2.925 3.241-2.354 8.012c0 0-2.502 1.365-2.758 10.39Z"/><path fill="#FABA75" d="m115.965 16.338-1.188-4.69 2.446 4.175-1.258.515Z"/><path fill="#131A1E" d="m112.659 169.367-4.047-36.882h.052c-2.229-11.341 2.003-19.668 2.003-19.668h-.068c1.488-3.049 2.437-5.529 3.038-7.35h24.146c.601 1.821 1.55 4.301 3.038 7.35h-.113s4.317 8.492 1.936 20.01h.105l-2.582 36.54h-27.508Z"/><path fill="#5A3114" d="M138.079 106.629h-24.782l-1.462 3.556h27.702l-1.458-3.556Z"/><path fill="#F9A72B" d="M127.709 110.291v-.634h-3.356v-2.504h2.723v3.138h1.267v-4.403h-5.255v5.035h5.255v-.632h-.634Z"/><path fill="#F9A72B" d="M127.88 108.809h-1.724v-.806h1.724v.806Z"/><path fill="#141D20" d="M134.897 110.831h-1.612v-5.388h1.612v5.388Zm-16.808 0h-1.613v-5.388h1.613v5.388Z"/><path fill="#D82930" d="m98.587 93.037 16.078-21.877c.402-2.141-1.27-5.656-3.416-6.059-2.142-.401-4.08 1.072-5.084 3.078l-13.6 19.733 6.022 5.125Zm52.55-1.313 7.198-4.595-12.816-18.504c-.407-2.142-3.211-4.097-5.351-3.693-2.143.403-3.467 2.948-3.06 5.09l14.029 21.702Z"/><path fill="#FABA75" d="m124.932 236.25-4.604-.002c-.043.807.129 1.76-.152 2.593 0 0-1.387 2.104-7.691 5.061 0 0-1.698.623-.046 1.668 0 0 1.477 1.194 3.924.004l6.537-2.796s3.355-.575 2.095-4.73c-.09-.632-.066-1.271-.063-1.798Z"/><path fill="#D82930" d="m117.851 246.511 4.889-3.11 1.253-.737c2.506-1.341 1.054-4.44 1.054-4.44-.09 2.877-5.935 5.58-5.935 5.58-2.337 1.448-4.964 1.107-4.964 1.107-2.521-.439-.077-1.794-.077-1.794-2.879 1.362-4.548 2.194-4.548 2.194s-2.283 1.718 1.613 2.213c0 0 4.252.516 6.715-1.013Z"/><path fill="#711316" d="M125.447 239.841c-2.11 3.062-8.818 7.87-14.599 7.058-1.081-.298-1.563-.488-1.912-.886-.247.532.103 1.382 2.368 1.532 0 0 4.084.495 6.547-1.034l4.889-3.11.087-.052c.182.478.348 1.296.152 2.594l.672-.331s-.287-1.98 1.054-3.463l-.002-.01c.674-.68.801-1.548.744-2.298Z"/><path fill="#fff" d="M116.997 245.493c-1.134.377-2.192.651-3.394.749-1.04.086-2.075-.073-3.111-.065l-.021.131c1.97.433 4.788.322 6.592-.664l-.066-.151Z"/><path fill="#FABA75" d="m130.376 236.25 4.603-.002c.041.807-.128 1.76.15 2.593 0 0 1.39 2.104 7.694 5.061 0 0 1.7.623.05 1.668 0 0-1.482 1.194-3.925.004l-6.537-2.796s-3.358-.575-2.095-4.73c.087-.632.063-1.271.06-1.798Z"/><path fill="#D82930" d="m137.457 246.511-4.889-3.11-1.256-.737c-2.505-1.341-1.051-4.44-1.051-4.44.092 2.877 5.934 5.58 5.934 5.58 2.341 1.448 4.964 1.107 4.964 1.107 2.525-.439.077-1.794.077-1.794 2.881 1.362 4.552 2.194 4.552 2.194s2.277 1.718-1.617 2.213c0 0-4.248.516-6.714-1.013Z"/><path fill="#711316" d="M129.865 239.841c2.104 3.062 8.819 7.87 14.598 7.058 1.081-.298 1.56-.488 1.909-.886.247.532-.101 1.382-2.365 1.532 0 0-4.084.495-6.55-1.034l-4.889-3.11-.088-.052c-.177.478-.344 1.296-.155 2.594l-.665-.331s.281-1.98-1.056-3.463l.003-.01c-.674-.68-.803-1.548-.742-2.298Z"/><path fill="#fff" d="M138.305 245.493c1.139.377 2.195.651 3.4.749 1.042.086 2.074-.073 3.114-.065l.016.131c-1.968.433-4.788.322-6.59-.664l.06-.151Z"/><path fill="#D82930" d="M119.645 112.579V60.771l-10.236 4.291c2.718 2.993 2.39 8.415-.994 10.813l6.156 25.88s-.662 4.016-3.984 10.824h9.058Zm23.358-36.795c-3.238-2.43-3.535-7.712-.9-10.675l-9.963-4.236v51.706h8.672c-3.324-6.808-3.987-10.824-3.987-10.824l6.178-25.971Z"/><path fill="#E0E0E0" d="m125.641 61.343-4.313-3.299-5.089 3.536 5.053 6.43 4.349-6.667Z"/><path fill="#E0E0E0" d="m125.625 61.343 4.315-3.299 5.088 3.536-5.056 6.43-4.347-6.667Z"/><path fill="#FABA75" d="M106.505 120.908c.031.793 2.139 2.131 2.139 2.131l1.439 1.676c.234.222.438.042.438.042.191-.12.091-.34.091-.34l-1.048-1.838a18.206 18.206 0 0 0 2.665 1.976c.312.213.5.086.5.086.251-.188.074-.393.074-.393-.787-.599-2.391-2.469-2.391-2.469.272.305 2.545 2.082 2.545 2.082.538.499.83.406.83.406.49-.186.193-.574.193-.574-.839-.625-3.332-2.865-3.332-2.865l3.033 2.111c.66.472.796.206.796.206.304-.348-.321-.84-.321-.84l-4.645-3.74s-.892-.337-.223-1.894c0 0-3.233 1.002-2.783 4.237Zm37.554-2.452c-.035.795-2.147 2.129-2.147 2.129l-1.436 1.678c-.235.22-.439.044-.439.044-.186-.122-.089-.34-.089-.34l1.044-1.842c-1.352 1.216-2.66 1.978-2.66 1.978-.316.212-.503.086-.503.086-.253-.189-.068-.393-.068-.393.784-.599 2.387-2.469 2.387-2.469-.275.302-2.545 2.081-2.545 2.081-.535.499-.828.407-.828.407-.491-.186-.198-.576-.198-.576.842-.622 3.334-2.862 3.334-2.862l-3.034 2.108c-.656.474-.794.208-.794.208-.306-.349.322-.84.322-.84l4.646-3.741s.889-.332.221-1.895c0 0 3.232 1.003 2.787 4.239Z"/></g><g clip-path="url(#c)"><path fill="#080707" d="m316.658 234.88 2.045 4.716c3.026 6.042-3.367 6.095-3.367 6.095-8.352.495-6.795-5.115-6.795-5.115l.902-5.696s3.608 1.38 7.215 0Z"/><path fill="#080707" d="M314.332 245.722c-4.874-.001-5.806-2.348-5.897-3.873.311 1.47 1.56 3.256 5.816 3.256.316 0 .65-.01 1.001-.031 0 0 4.41-.041 4.165-3.52.829 4.029-3.924 4.135-4.078 4.136h-.004c-.352.022-.686.032-1.003.032Z"/><path fill="#322420" d="m316.285 233.532 1.912 4.608c2.92 6.515-3.13 6.18-3.13 6.18-8.173.365-6.363-5.225-6.363-5.225l.842-5.563s3.371 1.348 6.739 0Z"/><path fill="#080707" d="M314.613 244.355c-.45 0-.868-.018-1.256-.051.303.022.624.033.965.033.238 0 .487-.006.745-.018a5.685 5.685 0 0 0 .74-.029c-.392.057-.68.06-.751.06h-.016c-.146.003-.287.005-.427.005Z"/><path fill="#9E9D9D" d="M308.519 240.665c-.058-.88.185-1.57.185-1.57s-.21.648-.164 1.486l-.021.084Z"/><path fill="#080707" d="M309.539 242.907c-.728-.697-.972-1.531-1.02-2.242l.021-.084c.039.729.27 1.604.999 2.326Z"/><path fill="#271B18" d="M314.322 244.337c-.341 0-.662-.011-.965-.033-1.921-.166-3.103-.715-3.818-1.397-.729-.722-.96-1.597-.999-2.326-.046-.838.164-1.486.164-1.486l.842-5.563s.647.261 1.658.437c-.907 3.552-1.306 7.96 3.189 8.853.366.074.74.11 1.113.11 1.234 0 2.464-.389 3.425-1.087-.342 1.78-2.091 2.296-3.124 2.446a5.914 5.914 0 0 1-.74.029c-.258.012-.507.017-.745.017Z"/><path fill="#080707" d="m282.883 234.88-2.044 4.716c-3.026 6.042 3.367 6.095 3.367 6.095 8.351.495 6.794-5.115 6.794-5.115l-.902-5.696s-3.608 1.38-7.215 0Z"/><path fill="#080707" d="M285.209 245.722c-.317 0-.651-.01-1.003-.032h-.004c-.154-.001-4.907-.107-4.077-4.136-.246 3.479 4.165 3.52 4.165 3.52.351.021.685.031 1.001.031 4.254 0 5.505-1.786 5.816-3.256l-.005.073c-.117 1.527-1.096 3.8-5.893 3.8Z"/><path fill="#322420" d="m283.256 233.532-1.91 4.608c-2.922 6.515 3.129 6.18 3.129 6.18 8.172.365 6.363-5.225 6.363-5.225l-.843-5.563s-3.37 1.348-6.739 0Z"/><path fill="#080707" d="M284.929 244.355c-.14 0-.282-.002-.427-.005h-.016c-.071 0-.36-.003-.753-.061a5.533 5.533 0 0 0 .742.03c.258.012.507.018.745.018.34 0 .661-.011.963-.033-.387.033-.804.051-1.254.051Z"/><path fill="#9E9D9D" d="M291.022 240.672a2.42 2.42 0 0 0-.02-.086c.047-.842-.163-1.491-.163-1.491s.244.693.183 1.577Z"/><path fill="#080707" d="M289.992 242.917c.735-.722.97-1.6 1.01-2.331l.02.086c-.049.713-.296 1.549-1.03 2.245Z"/><path fill="#271B18" d="M285.22 244.337c-.238 0-.487-.005-.745-.017 0 0-.052.002-.145.002-.13 0-.341-.005-.597-.032-1.033-.149-2.78-.665-3.121-2.445.96.698 2.19 1.087 3.424 1.087.372 0 .745-.036 1.112-.11 4.495-.893 4.097-5.301 3.19-8.853 1.01-.176 1.657-.437 1.657-.437l.844 5.563s.21.649.163 1.491c-.04.731-.275 1.609-1.01 2.331-.716.679-1.897 1.223-3.809 1.387-.302.022-.623.033-.963.033Z"/><path fill="#141D20" d="M318.049 235.171h-9.413l-7.257-63.521-4.308-27.058-4.757 65.723s-.072 18.141-.61 24.271h-10.445l-2.151-94.141-.371-10.54v-15.532h35.86v15.532l3.452 105.266Z"/><path fill="#5A3114" d="m314.841 133.393.109-2.947v-2.029h-35.861v2.029l.102 2.947h35.65Z"/><path fill="#F9A72B" d="M299.808 133.544v-.953h-4.625v-3.372h3.671v4.325h1.908v-6.232h-7.486v7.187h7.486v-.955h-.954Z"/><path fill="#F9A72B" d="M300.048 131.469h-2.412v-1.13h2.412v1.13Z"/><path fill="#141D20" d="M310.226 134.296h-2.262v-7.539h2.262v7.539Zm-23.521 0h-2.262v-7.539h2.262v7.539Z"/><path fill="#FABA75" d="M281.044 75.683s-.269 2.082-.95 5.13c-.646 3.055-1.726 7.071-2.964 11.044a186.03 186.03 0 0 1-1.93 5.802c-.661 1.84-1.224 3.572-2.021 4.97-.781 1.402-1.643 2.511-2.378 3.254a9.524 9.524 0 0 1-.899.846c-.237.188-.362.29-.362.29a2.342 2.342 0 0 1-3.649-1.006l-.163-.432a9.336 9.336 0 0 1-.339-1.188c-.253-1.013-.425-2.409-.377-4.013.03-1.61.433-3.385.806-5.303.388-1.916.833-3.949 1.313-5.973.969-4.047 2.096-8.05 3.106-11.005.974-2.967 1.809-4.894 1.809-4.894a4.713 4.713 0 0 1 8.998 2.478Zm41.512-6.842.579 1.696c.344 1.087.853 2.633 1.372 4.512.553 1.87 1.118 4.07 1.724 6.428.313 1.176.572 2.408.87 3.65.283 1.247.6 2.506.865 3.778a313.6 313.6 0 0 1 2.69 14.037 11.009 11.009 0 0 1-.302 4.911 11.12 11.12 0 0 1-.582 1.494l-.304.552a2.558 2.558 0 0 1-3.475 1.002l-.207-.128-.52-.356a10.894 10.894 0 0 1-1.191-1.07 11.015 11.015 0 0 1-2.481-4.248 314.983 314.983 0 0 1-3.917-13.747c-.336-1.255-.62-2.522-.929-3.763-.292-1.243-.615-2.459-.866-3.65-.52-2.38-1.006-4.598-1.354-6.518-.383-1.91-.624-3.52-.805-4.645L313.475 71a4.69 4.69 0 0 1 9.081-2.159Zm-30.31-9.51h9.218V50.3h-9.218v9.03Z"/><path fill="#B98955" d="M292.246 57.82v-6.425c.81.475 1.632.911 2.424 1.263 0 0 .91.263 2.137.709v.042l.053-.021.054.021v-.042c1.226-.446 2.136-.711 2.136-.711.789-.35 1.607-.785 2.414-1.259v.972c-2.112 2.839-5.878 2.248-8.402 4.453a4.04 4.04 0 0 0-.816.998Z"/><path fill="#FABA75" d="M310.47 32.19c-.329 2.449.658 4.6 2.198 4.805 1.54.206 3.053-1.614 3.377-4.064.325-2.448-.659-4.598-2.2-4.803-1.538-.207-3.049 1.612-3.375 4.063Z"/><path fill="#B98955" d="M314.314 34.164s.032-.133.095-.357c.027-.112.078-.246.11-.406a8.17 8.17 0 0 1 .117-.528c.033-.188.068-.396.104-.614.042-.212.04-.463.07-.711.022-.21-.014-.463-.055-.7a2.764 2.764 0 0 0-.223-.687 1.295 1.295 0 0 0-.402-.524l-.114-.072-.152-.061-.296-.027a.772.772 0 0 0-.464.22l.06-.538c.103-.058.217-.099.341-.118.063-.01.126-.014.189-.014.091 0 .181.009.274.024l.211.065.227.121c.263.184.451.443.578.707.124.268.201.545.25.821.047.282.058.552.016.836-.044.25-.068.483-.138.714-.067.229-.126.448-.198.64-.077.186-.153.36-.218.509-.066.153-.144.276-.196.379a8.871 8.871 0 0 1-.186.321Z"/><path fill="#B98955" d="M312.846 34.897a.912.912 0 0 1-.49-.145l.274-1.753.055-.078s.395-.536.119-1.04l.024-.146.086-.58c.083-.012.179-.024.288-.032 0 0 1.131.145.55 1.373a3.467 3.467 0 0 0-.283.825c-.072.408.142.957-.103 1.324-.118.175-.314.252-.52.252Zm.038 1.035a1.14 1.14 0 0 1-.343-.064l-.32-.17-.011-.01.105-.672.06.116.073.135.092.126.079.134.092.112c.109.148.175.293.175.293h-.002Z"/><path fill="#FABA75" d="M283.239 32.19c.327 2.449-.658 4.6-2.198 4.805-1.54.206-3.052-1.614-3.377-4.064-.326-2.448.658-4.598 2.199-4.803 1.541-.207 3.051 1.612 3.376 4.063Z"/><path fill="#B98955" d="M279.395 34.164s-.072-.115-.186-.321c-.05-.103-.13-.226-.194-.379a13.752 13.752 0 0 1-.22-.51c-.073-.191-.131-.41-.199-.64-.069-.23-.093-.463-.137-.713a2.634 2.634 0 0 1 .017-.836c.047-.276.123-.553.249-.821.127-.264.314-.523.578-.707l.226-.121.213-.065c.09-.015.18-.024.272-.024.063 0 .127.004.19.014.124.019.238.06.34.118l.06.538a.767.767 0 0 0-.463-.22l-.295.027-.155.061-.112.072c-.165.12-.304.307-.402.524-.105.214-.179.451-.223.687-.043.237-.076.49-.056.7.031.248.028.499.069.71l.105.615c.05.191.087.368.118.528.031.16.083.294.111.406.062.224.094.357.094.357Z"/><path fill="#B98955" d="M280.863 34.897c-.206 0-.404-.077-.521-.252-.245-.367-.029-.916-.104-1.324a3.296 3.296 0 0 0-.282-.825c-.58-1.228.552-1.373.552-1.373.109.008.204.02.287.032.028.193.057.389.088.586l.014.153c-.21.4-.004.817.088.969l.18 1.98a.908.908 0 0 1-.302.054Zm-.039 1.035h-.003s.067-.145.176-.293l.092-.113.08-.133.041-.057.044.487-.085.045a1.147 1.147 0 0 1-.345.064Z"/><path fill="#FABA75" d="M296.904 4.468V4.46l-.055.003-.053-.003v.008c-3.684.204-19.757 2.507-15.913 27.273l.943 10.366s.822 2.326 3.708 4.52c0 0 4.968 4.178 9.136 6.032 0 0 .91.262 2.137.708v.042l.053-.021.054.021v-.042c1.226-.446 2.136-.711 2.136-.711 4.167-1.853 9.134-6.033 9.134-6.033 2.885-2.196 3.024-4.522 3.024-4.522l1.62-10.366c3.832-24.768-12.242-27.066-15.924-27.267Z"/><path fill="#E5AA6A" d="M296.807 53.41v-.043a37.222 37.222 0 0 0-2.137-.708c-4.168-1.854-9.136-6.031-9.136-6.031-2.886-2.195-3.708-4.521-3.708-4.521l-.572-6.284-.044-.487-.045-.492-.18-1.981-.088-.968-.014-.154c-.031-.197-.06-.393-.088-.586-.344-2.382-.501-4.55-.502-6.524-.001-18.118 13.208-19.98 16.503-20.163V4.46h.01v.008c-3.022.204-16.199 2.507-13.046 27.273l.774 10.364s.675 2.328 3.04 4.523c0 0 4.073 4.177 7.491 6.03 0 0 .745.263 1.752.709v.037l-.01.005Zm.107 0-.01-.006v-.037a27.514 27.514 0 0 1 1.753-.711c3.414-1.853 7.487-6.033 7.487-6.033 2.364-2.194 2.478-4.522 2.478-4.522l1.328-10.366c3.142-24.766-10.036-27.066-13.057-27.267V4.46h.011v.008c3.294.18 16.503 2.037 16.51 20.156 0 1.976-.156 4.148-.5 6.53-.028.193-.056.385-.086.58l-.024.147L312.63 33l-.274 1.753-.042.264-.104.672-.173 1.101-.829 5.312s-.139 2.326-3.024 4.522c0 0-4.967 4.18-9.134 6.033 0 0-.91.265-2.136.71v.043Z"/><path fill="#FABA75" d="M317.245 70.065c1.206-5.041-2.715-7.485-2.715-7.485l-13.459-5.35h-8.433l-13.459 5.35s-3.921 2.444-2.715 7.485l5.378 37.891s.252 1.896.05 6.417h29.955c-.402-3.115.021-6.417.021-6.417l5.377-37.89Z"/><path fill="#A6E2F9" d="m301.455 57.377 13.075 5.203s3.921 2.444 2.715 7.486l-1.011 61.281h-39.706l-.064-61.282a6.906 6.906 0 0 1 2.715-7.485l13.087-5.217 4.524 1.921 4.665-1.907Z"/><path fill="#A6E2F9" d="M279.188 62.61c2.313 6.029-1.502 26.669-1.502 26.669l-11.554.07 2.508-17.105s-.303-4.525 2.412-6.184l8.136-3.45Zm49.866 26.63-4.522-18.395s-.301-4.022-3.417-5.529l-6.856-2.808c-2.252 5.872 1.328 25.692 1.519 26.732h13.276Z"/><path fill="#351F17" d="M311.469 7.417c-2.393-3.174-11.255-3.42-13.93-3.428-3.727-.148-10.698.492-15.029 3.779-4.595 6.756-3.031 20.748-3.031 20.748l1.15 2.93.417 2.894h.801s-1.566-9.53 1.484-12.327c0 0 .588-7.245 3.959-8.206 3.854-1.2 7.189-1.1 9.485-1.067 3.425-.396 9.816.6 9.816.6 3.578.584 3.821 8.673 3.821 8.673 3.05 2.796 1.484 12.327 1.484 12.327h.8l.418-2.895 1.144-3.232s2.298-13.69-2.789-20.796Z"/><path fill="#1A333D" d="m291.06 57.857-11.881 4.723s-3.921 2.444-2.715 7.485l.064 61.281 14.532 5.235V57.857Zm23.47 4.723-12.312-4.895v78.787l14.947-5.166.08-61.24c1.206-5.042-2.715-7.486-2.715-7.486Z"/><path fill="#1A333D" d="M279.188 62.61c2.313 6.029-1.502 26.669-1.502 26.669l-11.554.07 2.508-17.105s-.303-4.525 2.412-6.184l8.136-3.45Z"/><path fill="#FABA75" d="m329.552 108.904-16.036 31.714a1.897 1.897 0 0 1-3.5-1.437l10.903-33.824a4.681 4.681 0 1 1 8.633 3.547Z"/><path fill="#FABA75" d="M314.346 137.264c-3.358-2.42-7.273 1.523-7.273 1.523-.464.476-.956.926-1.431 1.389a43.01 43.01 0 0 1-.378.364c-.576.541-.258 1.001-.258 1.001.387.508.971.126.971.126l2.814-2.016-.694 6.587s-.141 1.115.513 1.158c0 0 .397.128.587-.994l.934-5.109s-.264 4.704-.486 6.158c0 0 .087.68.764.377 0 0 .385-.197.423-1.224 0 0 .506-4.025.474-4.597 0 0 .258 3.455.068 4.829 0 0 .019.378.459.321 0 0 .311-.059.414-.583 0 0 .307-1.957.451-4.513l.349 2.851s.119.319.428.252c0 0 .377-.026.393-.478l.166-3.006s1.065-3.591.312-4.416Zm-33.807 1.581c2.914-2.941 7.424.307 7.424.307.535.391 1.095.757 1.641 1.133.143.102.287.2.43.299.656.44.42.944.42.944-.298.567-.938.285-.938.285l-3.106-1.525 1.764 6.381s.323 1.078-.316 1.226c0 0-.368.191-.741-.884l-1.76-4.886s1.034 4.596 1.49 5.994c0 0 .025.685-.691.501 0 0-.412-.136-.619-1.144 0 0-1.158-3.887-1.222-4.452 0 0 .313 3.448.727 4.773 0 0 .042.378-.4.392 0 0-.318-.006-.506-.509 0 0-.623-1.878-1.185-4.373l.124 2.868s-.065.333-.382.317c0 0-.377.036-.465-.406l-.657-2.939s-1.639-3.366-1.032-4.302Z"/><path fill="#FABA75" d="m275.147 103.589 9.111 34.98a1.897 1.897 0 0 1-3.578 1.232l-14.357-33.172a4.681 4.681 0 1 1 8.591-3.719c.093.215.174.459.233.679Z"/><path fill="#141D20" d="M288.648 137.185s-3.138 5.266-8.716 5.718v11.458s9.951-.753 14.776-9.949l-6.06-7.227Zm17.188-.501s3.296 3.856 8.874 4.309v11.459s-9.952-.754-14.776-9.952l5.902-5.816Z"/><path fill="#1A333D" d="M266.232 88.737h10.756v6.934l-2.011 5.63 10.253 34.779-7.036 3.216-14.274-32.165 2.312-18.394Zm62.823.2-12.161.051v3.267l2.663 9.3-10.253 34.776 7.036 3.217 15.53-34.228-2.815-16.383Z"/><path fill="#1A333D" d="m329.054 89.24-4.522-18.395s-.301-4.022-3.417-5.529l-6.856-2.808c-2.252 5.872 1.328 25.692 1.519 26.732h13.276Z"/><path fill="#0F1D22" d="M285.23 136.08c-.522-1.421-1.007-2.853-1.498-4.284-.5-1.428-.977-2.863-1.435-4.303-.928-2.876-1.886-5.742-2.744-8.64l-1.32-4.336c-.434-1.448-.894-2.886-1.306-4.34l-2.485-8.718-.051-.175.057-.161c.893-2.574 1.868-5.118 2.799-7.678.461-1.281.963-2.549 1.455-3.82.49-1.27.982-2.541 1.502-3.804-.35 1.319-.73 2.628-1.11 3.936-.38 1.31-.749 2.622-1.159 3.92-.813 2.6-1.579 5.215-2.428 7.802l.006-.336 2.641 8.672c.442 1.444.836 2.904 1.257 4.354l1.243 4.359c.851 2.899 1.602 5.828 2.382 8.748.396 1.459.774 2.921 1.129 4.392.363 1.469.732 2.935 1.065 4.412Zm24.024.1c.337-1.47.71-2.928 1.078-4.387.36-1.463.74-2.919 1.141-4.369.789-2.903 1.548-5.816 2.408-8.698l1.255-4.334c.424-1.443.823-2.894 1.27-4.33l2.665-8.621v.317c-.766-2.685-1.446-5.397-2.175-8.094-.367-1.35-.693-2.708-1.031-4.066a188.901 188.901 0 0 1-.982-4.077c.479 1.315.93 2.637 1.38 3.961.45 1.323.911 2.644 1.33 3.976.847 2.663 1.74 5.312 2.55 7.986l.047.153-.048.164-2.511 8.668c-.417 1.445-.881 2.876-1.319 4.316l-1.332 4.309c-.866 2.882-1.832 5.732-2.769 8.591a157.964 157.964 0 0 1-1.447 4.276c-.495 1.423-.984 2.845-1.51 4.259Z"/><path fill="#D19B61" d="M294.447 37.81s.318.055.774.08c.229.016.488.074.776.07l.902-.01c.307.031.614.038.9-.005.287-.027.556-.05.786-.07.462-.029.779-.027.779-.027l.053.252s-.156.761-.607 1.345c-.11.15-.235.316-.378.428-.141.127-.292.277-.459.368-.328.219-.702.31-1.08.297a2.546 2.546 0 0 1-1.087-.28c-.161-.068-.338-.229-.489-.36a2.052 2.052 0 0 1-.401-.446 2.362 2.362 0 0 1-.433-.918 5.389 5.389 0 0 1-.101-.474l.065-.25Z"/><path fill="#431F10" d="M304.773 29.79a1.536 1.536 0 1 1-3.073-.002 1.536 1.536 0 0 1 3.073.001Z"/><path fill="#220D05" d="M303.945 29.79a.708.708 0 0 1-.709.707.708.708 0 0 1-.708-.708.71.71 0 0 1 1.417 0Z"/><path fill="#fff" d="M304.503 29.366a.557.557 0 0 1-.558.558.557.557 0 0 1-.557-.557.56.56 0 0 1 .557-.558.56.56 0 0 1 .558.557Zm-1.129-.38a.333.333 0 0 1-.334.334.333.333 0 0 1-.334-.333.334.334 0 0 1 .668 0Z"/><path fill="#351F17" d="M299.875 24.305s7.943-1.307 8.645 2.513c0 0-2.11-.905-5.126-.805l-3.821.201s-.401-1.306.302-1.909Z"/><path fill="#431F10" d="M288.934 29.79a1.535 1.535 0 1 0 3.071 0 1.536 1.536 0 1 0-3.071 0Z"/><path fill="#220D05" d="M289.762 29.79a.708.708 0 1 0 1.416 0 .708.708 0 0 0-1.416 0Z"/><path fill="#fff" d="M289.204 29.366a.557.557 0 1 0 1.114.002.557.557 0 0 0-1.114-.002Zm1.129-.38c0 .186.149.334.334.334a.332.332 0 0 0 .333-.333.333.333 0 0 0-.333-.334.333.333 0 0 0-.334.334Z"/><path fill="#351F17" d="M293.831 24.305s-7.94-1.307-8.645 2.513c0 0 2.111-.905 5.127-.805l3.82.201s.401-1.306-.302-1.909Z"/><path fill="#fff" d="M301.797 42.988c-4.944.29-6.63 0-9.888.068 0 0 4.247 5.901 9.888-.068Z"/><path fill="#D19B61" d="M301.849 43.036a7.933 7.933 0 0 1-.872 1.219c-.347.36-.702.735-1.126 1.037a5.537 5.537 0 0 1-2.991 1.116c-1.119.063-2.219-.32-3.112-.887a6.319 6.319 0 0 1-1.222-.988 6.735 6.735 0 0 1-.937-1.247l-.443-.74.755.115c.832.128 1.659.213 2.485.173.822-.032 1.661-.205 2.471-.316.815-.092 1.617-.013 2.449.015.827.048 1.656.161 2.489.384l.108.03-.054.089Zm-.507.156c-.664.201-1.326.352-1.995.443-.814.125-1.662.14-2.495.06-.839-.096-1.648-.343-2.474-.403-.823-.064-1.645.036-2.461.159l.312-.626c.307.303.688.59 1.048.844a9.25 9.25 0 0 0 1.128.687c.387.19.789.335 1.195.416.405.084.808.137 1.216.125.816.015 1.647-.21 2.471-.567.412-.178.827-.385 1.232-.626.272-.165.545-.337.823-.512Zm-5.984 3.663s1.494.442 2.99.005c0 0-1.562 1.868-2.99-.005Z"/><path fill="#254956" d="m291.06 57.857-12.672 4.507 9.499 14.175-3.769 3.466 4.974 14.775v41.012l1.968.789V57.857Zm11.158-.172 12.672 4.508-9.499 14.171 3.769 3.47-4.975 14.775v41.012l-1.967.788V57.685Z"/><path fill="#CFEFFC" d="m296.865 59.284 4.599-3.517 5.427 3.769-5.389 6.86-4.637-7.112Zm-.075 0-4.598-3.517-5.428 3.769 5.39 6.86 4.636-7.112Z"/></g><g clip-path="url(#d)"><path fill="#080707" d="m27.408 235.005-2.041 4.709c-3.023 6.034 3.361 6.089 3.361 6.089 8.34.49 6.785-5.112 6.785-5.112l-.901-5.686s-3.601 1.378-7.204 0Z"/><path fill="#080707" d="M29.725 245.832c-.316 0-.648-.01-.997-.03l-.003-.001c-.153-.001-4.901-.109-4.072-4.133-.245 3.474 4.159 3.516 4.159 3.516.352.02.688.03 1.005.03 4.246 0 5.492-1.782 5.803-3.25-.092 1.522-1.021 3.868-5.895 3.868Z"/><path fill="#322420" d="m27.779 233.657-1.908 4.6c-2.918 6.508 3.126 6.175 3.126 6.175 8.162.365 6.354-5.22 6.354-5.22l-.84-5.555s-3.367 1.348-6.732 0Z"/><path fill="#080707" d="M29.45 244.467c-.14 0-.28-.003-.425-.005h-.017c-.068 0-.343-.005-.717-.057.24.024.437.03.561.03.092 0 .145-.003.145-.003a13.918 13.918 0 0 0 1.61-.009c-.36.028-.746.044-1.158.044Z"/><path fill="#9E9D9D" d="M35.536 240.783c-.01-.046-.017-.075-.021-.087.045-.839-.164-1.484-.164-1.484s.244.691.185 1.571Z"/><path fill="#080707" d="M34.535 243.002c.714-.717.941-1.583.98-2.306.004.012.01.041.021.087-.048.702-.288 1.527-1.001 2.219Z"/><path fill="#271B18" d="M29.741 244.449c-.238 0-.486-.006-.744-.018 0 0-.053.003-.145.003-.124 0-.321-.005-.561-.029-1.027-.143-2.807-.65-3.152-2.446.958.696 2.186 1.084 3.42 1.084.372 0 .745-.034 1.11-.107 4.488-.893 4.092-5.296 3.186-8.843.985-.172 1.624-.424 1.654-.436h.002l.84 5.555s.209.645.164 1.484c-.039.723-.266 1.589-.98 2.306-.724.702-1.936 1.264-3.928 1.42-.274.018-.562.027-.866.027Z"/><path fill="#080707" d="m60.233 235.005 2.042 4.709c3.021 6.034-3.363 6.089-3.363 6.089-8.34.49-6.785-5.112-6.785-5.112l.9-5.686s3.604 1.378 7.206 0Z"/><path fill="#080707" d="M57.916 245.832c-4.873 0-5.805-2.346-5.896-3.868.31 1.468 1.559 3.25 5.803 3.25.317 0 .653-.01 1.005-.03 0 0 4.405-.042 4.16-3.516.828 4.024-3.92 4.132-4.072 4.133l-.004.001c-.35.02-.681.03-.996.03Z"/><path fill="#322420" d="m59.861 233.657 1.907 4.6c2.917 6.508-3.124 6.175-3.124 6.175-8.161.365-6.355-5.22-6.355-5.22l.842-5.555s3.366 1.348 6.73 0Z"/><path fill="#9E9D9D" d="M52.105 240.784c-.06-.882.184-1.572.184-1.572s-.209.647-.164 1.485a1.25 1.25 0 0 0-.02.087Z"/><path fill="#080707" d="M58.192 244.467c-.413 0-.799-.016-1.159-.044a13.961 13.961 0 0 0 1.611.009s.052.003.144.003c.125 0 .323-.006.564-.03-.376.052-.65.057-.72.057h-.016c-.144.002-.285.005-.424.005Zm-5.079-1.458c-.718-.692-.961-1.52-1.008-2.225.01-.044.016-.075.02-.087.039.726.268 1.594.988 2.312Z"/><path fill="#271B18" d="M57.9 244.449c-.304 0-.593-.009-.867-.027-1.985-.155-3.196-.714-3.92-1.413-.72-.719-.949-1.587-.988-2.312-.045-.838.164-1.485.164-1.485l.842-5.555c.014.007.657.262 1.654.436-.905 3.547-1.302 7.95 3.187 8.843.365.073.737.107 1.11.107 1.231 0 2.46-.388 3.42-1.084-.343 1.795-2.123 2.303-3.15 2.446a5.763 5.763 0 0 1-.564.029c-.092 0-.144-.003-.144-.003-.257.012-.507.018-.744.018Z"/><path fill="#8A4B2D" d="m22.46 85.232-.812 31.109-.02.771-.173.44-12.052 30.716a1.897 1.897 0 0 1-3.626-1.08l6.734-32.303-.194 1.211.812-31.107a4.668 4.668 0 0 1 9.331.243Z"/><path fill="#8A4B2D" d="M10.056 147.535c-3.205-2.61-7.339 1.094-7.339 1.094-.492.446-1.008.867-1.509 1.3-.132.115-.263.23-.396.344-.607.503-.317.979-.317.979.357.532.964.184.964.184l2.92-1.843-1.074 6.524s-.205 1.1.446 1.181c0 0 .386.154.642-.957l1.226-5.036s-.536 4.675-.842 6.11c0 0 .048.683.74.424 0 0 .395-.178.492-1.199 0 0 .74-3.984.742-4.556 0 0 .056 3.46-.216 4.819 0 0-.002.381.44.346 0 0 .314-.041.445-.556 0 0 .423-1.932.715-4.472l.182 2.86s.099.326.412.276c0 0 .378-.002.42-.452l.338-2.988s1.272-3.515.569-4.382Zm54.425-75.106 8.466 41.155a3.918 3.918 0 0 1-7.642 1.721l-.034-.141-9.931-40.855a4.666 4.666 0 0 1 3.433-5.637 4.667 4.667 0 0 1 5.639 3.432l.032.144.037.181ZM35.82 64.196h9.206V55.18H35.82v9.015Z"/><path fill="#683720" d="M35.82 62.693v-6.417c.81.475 1.63.91 2.421 1.261 0 0 .908.262 2.134.708v.039l.009-.003v-.001l.044-.015.044.016.01.003v-.039c1.225-.446 2.134-.71 2.134-.71.787-.35 1.603-.783 2.41-1.256v.968c-2.111 2.837-5.87 2.248-8.391 4.449a4.04 4.04 0 0 0-.815.997Z"/><path fill="#8A4B2D" d="M54.02 37.096c-.327 2.447.656 4.596 2.193 4.799 1.538.204 3.05-1.61 3.372-4.056.326-2.448-.656-4.595-2.196-4.8-1.536-.204-3.045 1.613-3.369 4.057Z"/><path fill="#683720" d="M57.857 39.068s.032-.134.095-.358c.027-.114.079-.245.11-.404.031-.158.069-.336.117-.528.033-.19.07-.396.105-.614.041-.212.04-.464.07-.708.02-.21-.015-.462-.055-.699a2.856 2.856 0 0 0-.223-.687 1.323 1.323 0 0 0-.401-.524l-.116-.074-.151-.058-.295-.029a.775.775 0 0 0-.462.221c.02-.18.04-.36.058-.537a1.033 1.033 0 0 1 .342-.117c.065-.01.132-.016.197-.016.088 0 .176.01.264.025l.212.064.225.123c.263.185.451.441.578.706.125.266.201.543.25.818.046.282.056.552.015.836-.043.248-.068.481-.136.712-.07.23-.127.446-.2.64-.076.188-.152.358-.217.506-.066.155-.144.274-.196.38a8.017 8.017 0 0 1-.186.322Z"/><path fill="#683720" d="M56.392 39.8a.913.913 0 0 1-.49-.145l.274-1.75.056-.077s.395-.538.119-1.039l.022-.148c.031-.196.059-.387.087-.579a4.01 4.01 0 0 1 .287-.033s1.13.148.55 1.375a3.343 3.343 0 0 0-.282.821c-.072.408.141.957-.103 1.324-.117.175-.315.25-.52.25Zm.039 1.033c-.02 0-.159-.002-.344-.064l-.32-.17-.011-.01.105-.67.059.114.076.135.09.127.08.133.091.112c.108.148.176.293.176.293h-.002Z"/><path fill="#8A4B2D" d="M26.825 37.096c.326 2.447-.657 4.596-2.194 4.799-1.539.204-3.048-1.61-3.374-4.056-.325-2.448.658-4.595 2.198-4.8 1.537-.204 3.046 1.613 3.37 4.057Z"/><path fill="#683720" d="M22.987 39.068s-.071-.116-.184-.322c-.052-.106-.132-.225-.196-.38-.067-.148-.144-.318-.219-.506-.072-.194-.132-.41-.2-.64-.07-.23-.092-.464-.136-.712a2.626 2.626 0 0 1 .017-.836c.046-.275.123-.552.25-.818.124-.265.313-.52.576-.706l.226-.123.211-.064a1.478 1.478 0 0 1 .265-.025 1.24 1.24 0 0 1 .198.016c.124.018.237.061.338.117l.06.537a.775.775 0 0 0-.462-.22l-.294.028-.153.058-.115.074c-.165.12-.304.308-.4.524-.105.211-.178.451-.224.687-.041.237-.076.488-.054.699.03.244.026.496.069.708l.104.614c.05.192.087.37.117.528.032.16.083.29.111.404.064.224.095.358.095.358Z"/><path fill="#683720" d="M24.452 39.8c-.207 0-.403-.076-.52-.25-.245-.368-.03-.917-.103-1.325a3.343 3.343 0 0 0-.282-.821c-.579-1.227.55-1.375.55-1.375.11.01.204.02.287.033.028.195.057.39.088.587l.013.153c-.205.395-.004.807.088.962l.18 1.982a.904.904 0 0 1-.301.054Zm-.04 1.033h-.001s.068-.145.176-.293l.09-.112.082-.133.04-.057.044.486-.084.045a1.203 1.203 0 0 1-.347.064Z"/><path fill="#8A4B2D" d="M40.472 9.412v-.007l-.055.004-.053-.004v.007c-3.679.203-19.73 2.504-15.892 27.237L25.413 47s.823 2.324 3.703 4.518c0 0 4.963 4.17 9.125 6.02 0 0 .908.262 2.134.708v.039l.053-.019.053.019v-.039a36.498 36.498 0 0 1 2.135-.71c4.16-1.852 9.12-6.023 9.12-6.023 2.88-2.195 3.019-4.519 3.019-4.519l1.618-10.352C60.2 11.908 44.15 9.615 40.472 9.411Z"/><path fill="#60321D" d="m40.375 58.284.009-.004v.001l-.01.003Z"/><path fill="#7F4429" d="M40.375 58.284v-.039c-1.226-.446-2.134-.708-2.134-.708-4.162-1.85-9.125-6.02-9.125-6.02C26.236 49.323 25.413 47 25.413 47l-.57-6.276-.044-.485-.046-.492-.18-1.983-.088-.961-.013-.154a51.691 51.691 0 0 1-.088-.586c-.344-2.376-.5-4.543-.5-6.514-.001-18.094 13.19-19.956 16.48-20.137v-.007h.01v.007c-3.018.203-16.178 2.503-13.029 27.236L28.12 47s.672 2.323 3.035 4.516c0 0 4.068 4.172 7.481 6.021 0 0 .744.262 1.748.708v.035l-.01.004Zm.106 0-.009-.003v-.036c1.004-.446 1.75-.71 1.75-.71 3.41-1.85 7.477-6.023 7.477-6.023 2.361-2.195 2.476-4.519 2.476-4.519L53.5 36.641C56.637 11.91 43.476 9.615 40.46 9.411v-.006h.012v.007c3.29.181 16.48 2.035 16.487 20.128.001 1.973-.156 4.143-.499 6.523-.028.192-.056.382-.087.578l-.022.148-.175 1.116-.273 1.75-.042.265-.105.67-.172 1.1-.83 5.303s-.138 2.324-3.018 4.519c0 0-3.26 2.741-6.71 4.767-.807.473-1.623.906-2.41 1.257 0 0-.91.263-2.135.71v.038Z"/><path fill="#8A4B2D" d="M60.784 74.919c1.205-5.034-2.71-7.475-2.71-7.475l-13.44-5.343h-8.42L22.77 67.444s-3.915 2.441-2.711 7.475l5.37 37.842s.251 1.891.05 6.408h29.913c-.401-3.112.023-6.408.023-6.408l5.368-37.842Z"/><path fill="#141D20" d="m38.157 178.479 1.71-28.721 5.073 26.609 7.248 58.414h8.127L58.14 134.679V119.17H22.33v15.509l2.174 44.802 1.796 55.633h10.039l1.818-56.635Z"/><path fill="#23130C" d="M40.439 5.007C52.283 3.803 56.9 11.229 56.9 11.229s4.817 7.83 1.363 22.17c-2.207-.404-2.031 4.43-2.031 4.43l-1.081.035.604-6.17c.249-3.414-1.808-3.917-1.808-3.917 2.752-9.32-6.583-10.424-6.583-10.424l-14.095-.016c-8.632.803-6.124 8.733-6.124 8.733-2.509.1-2.308 5.572-2.308 5.572l.652 6.222-.874-.036c-.726-5.91-1.887-4.43-1.887-4.43-.961-4.098-.561-9.72-.561-9.72-.199-11.643 5.622-15.46 5.622-15.46s3.615-3.612 12.65-3.211Z"/><path fill="#BFE7F1" d="m45.76 62.552 12.313 4.892s3.916 2.441 2.711 7.474l-1.007 61.198H20.124l-.064-61.198c-1.204-5.033 2.71-7.474 2.71-7.474l12.02-4.778 5.597 1.113 5.373-1.227Z"/><path fill="#BFE7F1" d="M22.78 67.472c2.31 6.023-1.501 26.635-1.501 26.635l-10.192.068 1.16-17.083s-.303-4.516 2.408-6.172l8.125-3.448Zm35.024-.3c-2.31 6.067 1.5 26.836 1.5 26.836l10.193.068-1.158-17.213s.3-4.55-2.41-6.218l-8.125-3.473Z"/><path fill="#1A333D" d="m34.636 62.74-11.865 4.715s-3.915 2.441-2.711 7.476l.064 64.022 14.512 5.23V62.74Zm23.437 4.715L45.777 62.57v81.5l14.927-5.156.08-63.984c1.205-5.035-2.71-7.476-2.71-7.476Z"/><path fill="#254956" d="m34.636 62.74-12.655 4.501 9.486 14.155-3.764 3.463 4.969 14.754v43.78l1.964.79V62.74Zm11.141-.17 12.656 4.5-9.485 14.152 3.763 3.464-4.968 14.755v43.78l-1.966.79v-81.44Z"/><path fill="#8A4B2D" d="m73.088 116.921-16.59 26.685a2.702 2.702 0 0 1-4.75-2.554l13.12-28.552a4.675 4.675 0 0 1 6.201-2.296 4.675 4.675 0 0 1 2.019 6.717Z"/><path fill="#8A4B2D" d="M55.685 142.775c-2.912-2.936-7.413.309-7.413.309-.536.388-1.095.753-1.639 1.131-.144.1-.288.201-.43.298-.658.438-.419.942-.419.942.297.566.936.285.936.285l3.1-1.521-1.76 6.367s-.324 1.077.315 1.228c0 0 .37.191.741-.885l1.755-4.877s-1.031 4.588-1.484 5.987c0 0-.028.682.688.497 0 0 .412-.132.617-1.139 0 0 1.159-3.881 1.221-4.45 0 0-.312 3.445-.725 4.767 0 0-.043.381.4.393 0 0 .316-.007.503-.507 0 0 .624-1.878 1.184-4.368l-.122 2.863s.064.333.379.317c0 0 .376.036.465-.404l.656-2.935s1.638-3.362 1.032-4.298Z"/><path fill="#141D20" d="M44.37 141.841s5.537 4.504 13.767 4.504v13.05s-13.652.802-16.261-12.047l2.495-5.507Z"/><path fill="#1A333D" d="M22.78 67.472c2.31 6.023-1.501 26.635-1.501 26.635l-10.192.068.441-17.083s-.601-4.832 3.127-6.172l8.125-3.448Zm35.024-.3c-2.31 6.067 1.5 26.836 1.5 26.836l10.845.068-1.81-17.213s.3-4.55-2.41-6.218l-8.125-3.473Z"/><path fill="#1A333D" d="M59.108 92.335h10.84l3.815 19.875s1.004 2.008-.803 5.423l-15.459 25.696-6.424-4.617 12.648-25.295-4.617-21.082Zm-47.981.602h10.64l-.2 29.312-10.842 24.292-6.825-2.008 7.828-29.112-.601-22.484Z"/><path fill="#0F1D22" d="m19.359 90.932.157 1.94c.073 1.235.23 2.997.324 5.116.093 2.117.244 4.588.328 7.235.1 2.646.159 5.472.22 8.296.033 2.825.073 5.65.063 8.298.006 2.65-.062 5.123-.083 7.243-.021 2.12-.12 3.887-.15 5.124l-.094 1.944s-.059-.707-.159-1.94c-.073-1.235-.232-2.997-.325-5.116-.092-2.117-.245-4.588-.328-7.235-.1-2.646-.156-5.473-.217-8.296-.035-2.825-.072-5.65-.063-8.298-.004-2.65.061-5.123.083-7.243.024-2.12.12-3.887.15-5.124l.094-1.944Zm39.348-1.205c.549 1.946 1.028 3.908 1.541 5.86l1.425 5.886c.974 3.92 1.772 7.878 2.667 11.814l.047.204-.1.206c-1.018 2.127-2.119 4.211-3.184 6.314-1.079 2.094-2.134 4.202-3.232 6.289l-3.334 6.237c-1.146 2.062-2.268 4.136-3.46 6.175.918-2.176 1.903-4.319 2.864-6.472l2.991-6.411c1.01-2.129 2.063-4.238 3.092-6.357 1.043-2.115 2.05-4.247 3.14-6.336l-.053.411c-.779-3.962-1.654-7.902-2.354-11.878l-1.082-5.96c-.324-1.993-.682-3.98-.968-5.982Z"/><path fill="#D82930" d="m39.948 122.344 4.341-6.117-2.433-46.726h-3.577l-2.396 46.726 3.99 6.108v.116l.039-.055.036.055v-.107Z"/><path fill="#911A1E" d="M36.17 63.779h7.831L41.892 69.5h-3.613L36.17 63.78Z"/><path fill="#CFEFFC" d="m40.37 63.863 4.591-3.51 5.42 3.76L45 70.965l-4.63-7.102Zm-.075 0-4.594-3.51-5.42 3.76 5.384 6.852 4.63-7.102Z"/><path fill="#6C3A24" d="M44.61 40.939c-.634.288-1.295.587-2.007.744-.699.183-1.42.268-2.144.31-.724.014-1.46-.02-2.17-.2-.714-.178-1.393-.414-2.052-.816l-.04-.023-.025-.035a2.677 2.677 0 0 1-.43-.883 1.76 1.76 0 0 1 .009-1.01c.116-.329.336-.605.59-.798.254-.2.536-.332.818-.45l.133.306a4.66 4.66 0 0 0-.148.572c-.021.172-.052.327-.024.473.03.147.047.243.13.325l.27.113c.173-.016.33-.12.479-.17l.185-.055.087-.027c.01-.027.073.008.01-.113l-.564-.507.239-.104.347-.017c.24-.016.461.014.697.017.224.035.457.05.69.101.231.042.47.095.717.175.25.052.51.167.79.252.282.117.578.212.908.367.171.085.332.157.492.224.162.058.352.185.542.27.188.086.429.167.652.278.218.083.466.243.702.371l.118.31Z"/><path fill="#431F10" d="M48.33 32.607a1.533 1.533 0 1 1-3.067 0 1.533 1.533 0 0 1 3.066 0Z"/><path fill="#220D05" d="M47.503 32.606a.706.706 0 0 1-.708.707.705.705 0 0 1-.706-.707.705.705 0 0 1 .706-.705c.392 0 .708.316.708.705Z"/><path fill="#fff" d="M48.06 32.188a.557.557 0 1 1-.557-.557.558.558 0 0 1 .557.557Zm-1.128-.381a.333.333 0 0 1-.333.333.332.332 0 0 1-.332-.333c0-.183.148-.335.332-.335.184 0 .333.152.333.335Z"/><path fill="#351F17" d="M43.439 27.133s7.93-1.308 8.633 2.507c0 0-2.108-.901-5.12-.804l-3.813.201s-.402-1.302.3-1.904Z"/><path fill="#431F10" d="M32.513 32.607c0 .849.687 1.533 1.534 1.533a1.533 1.533 0 1 0-1.534-1.533Z"/><path fill="#220D05" d="M33.339 32.606c0 .391.317.707.708.707a.706.706 0 0 0 .706-.707.707.707 0 0 0-1.415 0Z"/><path fill="#fff" d="M32.783 32.188a.557.557 0 1 0 .556-.557.557.557 0 0 0-.556.557Zm1.128-.381c0 .185.148.333.333.333a.334.334 0 0 0 0-.668.335.335 0 0 0-.333.335Z"/><path fill="#351F17" d="M37.404 27.133s-7.932-1.308-8.633 2.507c0 0 2.108-.901 5.118-.804l3.815.201s.403-1.302-.3-1.904Z"/><path fill="#fff" d="M45.36 45.79c-4.94.291-6.623 0-9.877.067 0 0 4.242 5.894 9.877-.068Z"/><path fill="#6C3A24" d="M45.412 45.839c-.25.426-.54.837-.872 1.216-.345.36-.7.736-1.124 1.034-.828.624-1.873 1.054-2.988 1.116-1.119.063-2.217-.318-3.108-.886a6.328 6.328 0 0 1-1.223-.986 6.762 6.762 0 0 1-.934-1.246l-.444-.74.756.117c.83.125 1.657.212 2.482.172.82-.032 1.659-.207 2.467-.316.815-.09 1.615-.013 2.447.016.825.047 1.654.159 2.486.383l.108.029-.053.09Zm-.51.153c-.662.203-1.322.353-1.989.443-.813.128-1.661.14-2.493.062-.839-.097-1.645-.345-2.472-.404-.821-.065-1.643.037-2.457.157l.312-.623c.305.3.686.587 1.048.842.366.256.738.492 1.125.684a5.342 5.342 0 0 0 2.408.541c.815.014 1.644-.21 2.468-.565.412-.177.827-.384 1.23-.624.273-.165.543-.339.82-.513Zm-5.974 3.657s1.492.443 2.987.007c0 0-1.562 1.865-2.987-.007Z"/><path fill="#23130C" d="M28.159 9.95c0 1.309-1.098 2.371-2.451 2.371-1.355 0-2.45-1.062-2.45-2.372 0-1.31 1.095-2.373 2.45-2.373 1.353 0 2.45 1.063 2.45 2.373Z"/><path fill="#23130C" d="M27.15 13.345c0 1.311-1.098 2.372-2.451 2.372-1.355 0-2.451-1.061-2.451-2.372 0-1.31 1.096-2.372 2.45-2.372s2.451 1.062 2.451 2.372Zm3.315-6.001c0 1.31-1.097 2.372-2.452 2.372-1.352 0-2.45-1.063-2.45-2.372 0-1.31 1.098-2.372 2.45-2.372 1.355 0 2.452 1.063 2.452 2.372Z"/><path fill="#23130C" d="M34.119 5.763c0 1.31-1.098 2.373-2.452 2.373-1.354 0-2.451-1.063-2.451-2.373 0-1.311 1.097-2.372 2.45-2.372 1.355 0 2.453 1.061 2.453 2.372Z"/><path fill="#23130C" d="M37.579 4.552c0 1.312-1.099 2.373-2.451 2.373-1.355 0-2.45-1.061-2.45-2.373 0-1.31 1.095-2.37 2.45-2.37 1.352 0 2.45 1.06 2.45 2.37Z"/><path fill="#23130C" d="M41.52 4.365c0 1.312-1.099 2.375-2.452 2.375s-2.45-1.063-2.45-2.375c0-1.309 1.097-2.369 2.45-2.369s2.452 1.06 2.452 2.37Z"/><path fill="#23130C" d="M45.364 4.365c0 1.312-1.097 2.375-2.45 2.375-1.354 0-2.453-1.063-2.453-2.375 0-1.309 1.099-2.369 2.452-2.369 1.354 0 2.451 1.06 2.451 2.37Z"/><path fill="#23130C" d="M49.112 4.46c0 1.31-1.096 2.373-2.45 2.373-1.355 0-2.451-1.064-2.451-2.373 0-1.31 1.096-2.372 2.45-2.372 1.355 0 2.451 1.061 2.451 2.372Z"/><path fill="#23130C" d="M52.861 5.484c0 1.31-1.097 2.373-2.45 2.373-1.355 0-2.451-1.062-2.451-2.373 0-1.31 1.096-2.372 2.45-2.372s2.451 1.063 2.451 2.372Z"/><path fill="#23130C" d="M55.841 6.415c0 1.31-1.098 2.373-2.452 2.373-1.353 0-2.449-1.064-2.449-2.373 0-1.31 1.096-2.374 2.45-2.374 1.353 0 2.451 1.063 2.451 2.374Z"/><path fill="#23130C" d="M57.668 8.367c0 1.31-1.099 2.372-2.45 2.372-1.354 0-2.453-1.062-2.453-2.372 0-1.31 1.099-2.372 2.452-2.372 1.352 0 2.451 1.062 2.451 2.372Z"/><path fill="#23130C" d="M59.493 11.25c0 1.311-1.097 2.375-2.45 2.375-1.355 0-2.452-1.064-2.452-2.374s1.097-2.371 2.452-2.371c1.353 0 2.45 1.061 2.45 2.37Z"/><path fill="#23130C" d="M59.781 14.88c0 1.312-1.096 2.372-2.45 2.372s-2.451-1.06-2.451-2.372c0-1.31 1.097-2.372 2.45-2.372 1.355 0 2.451 1.063 2.451 2.372Z"/></g><defs><clipPath id="a"><path fill="#fff" d="M176 2h75v246h-75z"/></clipPath><clipPath id="b"><path fill="#fff" d="M87 0h77v248H87z"/></clipPath><clipPath id="c"><path fill="#fff" d="M263 3h69v243h-69z"/></clipPath><clipPath id="d"><path fill="#fff" d="M0 1h75v245H0z"/></clipPath></defs></svg>