<svg width="950" height="115" viewBox="0 0 950 115" fill="none" xmlns="http://www.w3.org/2000/svg">
<g id="header-image">
<rect id="black-rectangle" x="475" width="475" height="98" fill="black"/>
<rect id="red-rectangle" width="475" height="98" fill="#FF0000"/>
<g id="UNQ" filter="url(#filter0_d_0_1)">
<path d="M93.3903 68.1289C93.3903 72.6801 94.4597 76.7669 96.5985 80.3893C98.8302 83.9188 101.759 86.7053 105.386 88.7487C109.012 90.7921 113.104 91.8138 117.66 91.8138C122.403 91.8138 126.634 90.7921 130.353 88.7487C134.073 86.7053 137.002 83.9188 139.141 80.3893C141.279 76.7669 142.349 72.6801 142.349 68.1289V3.06511H155.6V68.5469C155.6 75.8846 153.879 82.2934 150.439 87.7734C147.091 93.2535 142.535 97.4796 136.769 100.452C131.097 103.424 124.727 104.91 117.66 104.91C110.593 104.91 104.224 103.424 98.5512 100.452C92.8789 97.4796 88.369 93.2535 85.0214 87.7734C81.6738 82.2934 80 75.8846 80 68.5469V3.06511H93.3903V68.1289Z" fill="white"/>
<path d="M270.596 107L192.625 28.0039L196.53 28.9792L196.809 103.796H183.279V0H183.977L261.111 79.2747L257.903 78.5781L257.624 3.06511H271.014V107H270.596Z" fill="white"/>
<path d="M366.408 90.6992H401V103.796H348.415L366.408 90.6992ZM293.738 53.5C293.738 46.5339 295.04 39.9857 297.643 33.8555C300.34 27.6324 304.059 22.1524 308.802 17.4154C313.544 12.5855 318.984 8.82379 325.121 6.13021C331.352 3.34376 338.047 1.95053 345.207 1.95053C352.274 1.95053 358.876 3.34376 365.013 6.13021C371.244 8.82379 376.73 12.5855 381.472 17.4154C386.308 22.1524 390.074 27.6324 392.771 33.8555C395.467 39.9857 396.816 46.5339 396.816 53.5C396.816 60.6519 395.467 67.3394 392.771 73.5625C390.074 79.7856 386.308 85.2656 381.472 90.0026C376.73 94.6467 371.244 98.3155 365.013 101.009C358.876 103.61 352.274 104.91 345.207 104.91C338.047 104.91 331.352 103.61 325.121 101.009C318.984 98.4084 313.544 94.786 308.802 90.1419C304.059 85.4978 300.34 80.0642 297.643 73.8412C295.04 67.6181 293.738 60.8377 293.738 53.5ZM307.686 53.6393C307.686 58.9336 308.662 63.9028 310.615 68.5469C312.568 73.0981 315.265 77.1385 318.705 80.668C322.146 84.1975 326.144 86.9375 330.701 88.888C335.257 90.8385 340.186 91.8138 345.486 91.8138C350.693 91.8138 355.575 90.8385 360.132 88.888C364.688 86.9375 368.64 84.1975 371.988 80.668C375.335 77.1385 377.985 73.0981 379.938 68.5469C381.891 63.9028 382.867 58.8872 382.867 53.5C382.867 48.2986 381.891 43.3759 379.938 38.7318C377.985 34.0877 375.289 30.0473 371.848 26.6107C368.408 23.0812 364.409 20.3412 359.853 18.3906C355.296 16.3472 350.414 15.3255 345.207 15.3255C339.907 15.3255 334.978 16.3472 330.422 18.3906C325.865 20.3412 321.867 23.0812 318.426 26.6107C314.986 30.1402 312.335 34.227 310.476 38.8711C308.616 43.5152 307.686 48.4379 307.686 53.6393Z" fill="white"/>
</g>
<g id="YOU" filter="url(#filter1_d_0_1)">
<path d="M571.961 3L601.679 51.5914L631.467 3H648.428L609.019 65.7336V107H594.409V65.7336L555 3H571.961Z" fill="white"/>
<path d="M752.119 92.1325C752.119 94.1632 751.739 96.0972 750.978 97.9344C750.218 99.7234 749.173 101.295 747.843 102.649C746.513 104.002 744.945 105.066 743.139 105.84C741.381 106.613 739.505 107 737.509 107H679.143C677.148 107 675.248 106.613 673.442 105.84C671.684 105.066 670.14 104.002 668.81 102.649C667.48 101.295 666.435 99.7234 665.674 97.9344C664.914 96.0972 664.534 94.1632 664.534 92.1325V17.8675C664.534 15.8368 664.914 13.927 665.674 12.1381C666.435 10.3008 667.48 8.72943 668.81 7.42399C670.14 6.0702 671.684 5.00651 673.442 4.23291C675.248 3.41097 677.148 3 679.143 3H737.509C739.505 3 741.381 3.41097 743.139 4.23291C744.945 5.00651 746.513 6.0702 747.843 7.42399C749.173 8.72943 750.218 10.3008 750.978 12.1381C751.739 13.927 752.119 15.8368 752.119 17.8675V92.1325ZM679.143 17.8675V92.1325H737.509V17.8675H679.143Z" fill="white"/>
<path d="M778.415 3H793.025V92.1325H851.391V3H866V92.1325C866 94.1632 865.62 96.0972 864.86 97.9344C864.1 99.7234 863.054 101.295 861.724 102.649C860.394 104.002 858.826 105.066 857.021 105.84C855.263 106.613 853.386 107 851.391 107H793.025C791.029 107 789.129 106.613 787.324 105.84C785.566 105.066 784.022 104.002 782.691 102.649C781.361 101.295 780.316 99.7234 779.556 97.9344C778.796 96.0972 778.415 94.1632 778.415 92.1325V3Z" fill="white"/>
</g>
</g>
<defs>
<filter id="filter0_d_0_1" x="76" y="0" width="329" height="115" filterUnits="userSpaceOnUse" color-interpolation-filters="sRGB">
<feFlood flood-opacity="0" result="BackgroundImageFix"/>
<feColorMatrix in="SourceAlpha" type="matrix" values="0 0 0 0 0 0 0 0 0 0 0 0 0 0 0 0 0 0 127 0" result="hardAlpha"/>
<feOffset dy="4"/>
<feGaussianBlur stdDeviation="2"/>
<feComposite in2="hardAlpha" operator="out"/>
<feColorMatrix type="matrix" values="0 0 0 0 0 0 0 0 0 0 0 0 0 0 0 0 0 0 0.25 0"/>
<feBlend mode="normal" in2="BackgroundImageFix" result="effect1_dropShadow_0_1"/>
<feBlend mode="normal" in="SourceGraphic" in2="effect1_dropShadow_0_1" result="shape"/>
</filter>
<filter id="filter1_d_0_1" x="551" y="3" width="319" height="112" filterUnits="userSpaceOnUse" color-interpolation-filters="sRGB">
<feFlood flood-opacity="0" result="BackgroundImageFix"/>
<feColorMatrix in="SourceAlpha" type="matrix" values="0 0 0 0 0 0 0 0 0 0 0 0 0 0 0 0 0 0 127 0" result="hardAlpha"/>
<feOffset dy="4"/>
<feGaussianBlur stdDeviation="2"/>
<feComposite in2="hardAlpha" operator="out"/>
<feColorMatrix type="matrix" values="0 0 0 0 0 0 0 0 0 0 0 0 0 0 0 0 0 0 0.25 0"/>
<feBlend mode="normal" in2="BackgroundImageFix" result="effect1_dropShadow_0_1"/>
<feBlend mode="normal" in="SourceGraphic" in2="effect1_dropShadow_0_1" result="shape"/>
</filter>
</defs>
</svg>
