<?xml version="1.0" encoding="UTF-8" standalone="no"?>
<!-- Created with Inkscape (http://www.inkscape.org/) -->

<svg
   xmlns:dc="http://purl.org/dc/elements/1.1/"
   xmlns:cc="http://creativecommons.org/ns#"
   xmlns:rdf="http://www.w3.org/1999/02/22-rdf-syntax-ns#"
   xmlns:svg="http://www.w3.org/2000/svg"
   xmlns="http://www.w3.org/2000/svg"
   xmlns:xlink="http://www.w3.org/1999/xlink"
   xmlns:sodipodi="http://sodipodi.sourceforge.net/DTD/sodipodi-0.dtd"
   xmlns:inkscape="http://www.inkscape.org/namespaces/inkscape"
   id="svg6018"
   sodipodi:docname="lil shop.svg"
   viewBox="0 0 384.36 300.09"
   version="1.1"
   inkscape:version="0.91 r13725">
  <title
     id="title6172">lil shop</title>
  <defs
     id="defs6020">
    <linearGradient
       id="linearGradient5437"
       y2="463.95"
       gradientUnits="userSpaceOnUse"
       x2="209.1"
       gradientTransform="matrix(0.46567408,0,0,0.46770571,221.59518,351.94402)"
       y1="386.17"
       x1="207.08"
       inkscape:collect="always">
      <stop
         id="stop4045"
         style="stop-color:#000000;stop-opacity:.38583"
         offset="0" />
      <stop
         id="stop4047"
         style="stop-color:#000000;stop-opacity:0"
         offset="1" />
    </linearGradient>
    <linearGradient
       id="linearGradient5433"
       y2="506.09"
       xlink:href="#linearGradient4051"
       gradientUnits="userSpaceOnUse"
       x2="214.93"
       gradientTransform="matrix(0.46770571,0,0,0.46770571,221.45135,351.94402)"
       y1="506.09"
       x1="116.14"
       inkscape:collect="always" />
    <linearGradient
       id="linearGradient4051">
      <stop
         id="stop4053"
         style="stop-color:#606060"
         offset="0" />
      <stop
         id="stop4055"
         style="stop-color:#121212"
         offset="1" />
    </linearGradient>
    <linearGradient
       id="linearGradient5430"
       y2="543.62"
       xlink:href="#linearGradient4051"
       gradientUnits="userSpaceOnUse"
       x2="354.93"
       gradientTransform="matrix(0.46770571,0,0,0.46770571,221.45135,351.94402)"
       y1="543.62"
       x1="266.14"
       inkscape:collect="always" />
    <linearGradient
       id="linearGradient5427"
       y2="623.61"
       xlink:href="#linearGradient4051"
       gradientUnits="userSpaceOnUse"
       x2="355.29"
       gradientTransform="matrix(0.46770571,0,0,0.46770571,221.45135,351.94402)"
       y1="623.61"
       x1="266.86"
       inkscape:collect="always" />
    <linearGradient
       id="linearGradient5416"
       y2="213.78"
       gradientUnits="userSpaceOnUse"
       x2="354.52"
       gradientTransform="matrix(0.46770571,0,0,0.46770571,221.45135,351.94402)"
       y1="285.2"
       x1="383.53"
       inkscape:collect="always">
      <stop
         id="stop4288"
         style="stop-color:#d1d1d1"
         offset="0" />
      <stop
         id="stop4290"
         style="stop-color:#ffffff"
         offset="1" />
    </linearGradient>
    <linearGradient
       id="linearGradient5410"
       y2="389.7"
       gradientUnits="userSpaceOnUse"
       x2="168.7"
       gradientTransform="matrix(0.46770571,0,0,0.46770571,221.45135,351.94402)"
       y1="360.41"
       x1="165.67"
       inkscape:collect="always">
      <stop
         id="stop4035"
         style="stop-color:#000000;stop-opacity:.41732"
         offset="0" />
      <stop
         id="stop4037"
         style="stop-color:#000000;stop-opacity:0"
         offset="1" />
    </linearGradient>
  </defs>
  <sodipodi:namedview
     id="base"
     bordercolor="#666666"
     inkscape:pageshadow="2"
     inkscape:window-y="-9"
     fit-margin-left="0"
     pagecolor="#ffffff"
     fit-margin-top="0"
     inkscape:window-maximized="1"
     inkscape:zoom="0.94161211"
     inkscape:window-x="-9"
     inkscape:window-height="1005"
     showgrid="false"
     borderopacity="1.0"
     inkscape:current-layer="layer1"
     inkscape:cx="244.91527"
     inkscape:cy="77.428962"
     fit-margin-right="0"
     fit-margin-bottom="0"
     inkscape:window-width="1920"
     inkscape:pageopacity="0.0"
     inkscape:document-units="px" />
  <g
     id="layer1"
     inkscape:label="Layer 1"
     inkscape:groupmode="layer"
     transform="translate(-181.1 -399.59)">
    <g
       id="g4791">
      <path
         id="path3936-4-1-2"
         style="fill:#dcdcdc;stroke:#000000;stroke-width:1.79789996"
         d="m 405.28663,642.55658 -223.26322,9.31312 -0.0507,8.77016 225.15101,38.09031 157.35401,-42.84755 0.0194,-7.06269 z"
         inkscape:export-ydpi="72"
         sodipodi:nodetypes="ccccccc"
         inkscape:export-filename="/home/techminati/Desktop/local.png"
         inkscape:connector-curvature="0"
         inkscape:export-xdpi="72" />
      <path
         id="path4185-4"
         style="fill:#000000;fill-opacity:0.6"
         d="m 406.83282,688.56484 0.18547,9.65598 157.2749,-42.38908 0,-6.75903 -124.10005,29.89009 z"
         inkscape:export-ydpi="72"
         sodipodi:nodetypes="cccccc"
         inkscape:export-filename="/home/techminati/Desktop/local.png"
         inkscape:connector-curvature="0"
         inkscape:export-xdpi="72" />
      <path
         id="path3936-4-1"
         style="fill:#ffffff;stroke:#000000;stroke-width:1.79789996"
         d="m 404.56747,633.74687 -223.31716,18.08328 225.87018,37.61926 158.13429,-40.56782 z"
         inkscape:export-ydpi="72"
         sodipodi:nodetypes="ccccc"
         inkscape:export-filename="/home/techminati/Desktop/local.png"
         inkscape:connector-curvature="0"
         inkscape:export-xdpi="72" />
      <path
         id="rect2985"
         style="fill:#ffffff;stroke:#000000;stroke-width:1.79789996;stroke-linecap:round;stroke-linejoin:round"
         d="m 256.18678,505.97012 149.66798,-18.20734 0,184.2488 -149.66798,-20.5464 z"
         inkscape:export-ydpi="72"
         sodipodi:nodetypes="ccccc"
         inkscape:export-filename="/home/techminati/Desktop/local.png"
         inkscape:connector-curvature="0"
         inkscape:export-xdpi="72" />
      <path
         id="path3936"
         style="fill:#cd0003;stroke:#000000;stroke-width:1.79789996"
         d="m 339.5554,539.39308 0.47246,31.18278 53.38864,-0.47246 -0.1957,-33.903 z"
         inkscape:export-ydpi="72"
         sodipodi:nodetypes="ccccc"
         inkscape:export-filename="/home/techminati/Desktop/local.png"
         inkscape:connector-curvature="0"
         inkscape:export-xdpi="72" />
      <path
         id="rect2985-0-6-8-06"
         style="fill:#ffffff;stroke:#000000;stroke-width:1.79789996;stroke-linecap:round;stroke-linejoin:round"
         d="m 264.96053,541.87418 62.13902,-3.84193 -0.55003,103.23901 -61.58886,-5.80937 z"
         inkscape:export-ydpi="72"
         sodipodi:nodetypes="ccccc"
         inkscape:export-filename="/home/techminati/Desktop/local.png"
         inkscape:connector-curvature="0"
         inkscape:export-xdpi="72" />
      <path
         id="path3397-4-0"
         style="fill:#000000;fill-opacity:0.25"
         d="m 405.70014,672.50959 62.14082,0 97.61519,-23.12458 -49.39731,-4.82395 -109.7564,3.27074 z"
         inkscape:export-ydpi="72"
         sodipodi:nodetypes="cccccc"
         inkscape:export-filename="/home/techminati/Desktop/local.png"
         inkscape:connector-curvature="0"
         inkscape:export-xdpi="72" />
      <path
         id="rect2985-0"
         style="fill:#e0e0e0;stroke:#000000;stroke-width:1.79789996;stroke-linecap:round;stroke-linejoin:round"
         d="m 516.93802,505.88022 -110.91425,-17.66436 0,184.12293 110.91425,-23.30258 z"
         inkscape:export-ydpi="72"
         sodipodi:nodetypes="ccccc"
         inkscape:export-filename="/home/techminati/Desktop/local.png"
         inkscape:connector-curvature="0"
         inkscape:export-xdpi="72" />
      <path
         id="rect2985-0-6"
         style="fill:#ffffff;stroke:#000000;stroke-width:1.79789996;stroke-linecap:round;stroke-linejoin:round"
         d="m 340.20265,576.7894 53.11895,0.4176 -0.16702,92.95682 -52.78455,-7.76729 z"
         inkscape:export-ydpi="72"
         sodipodi:nodetypes="ccccc"
         inkscape:export-filename="/home/techminati/Desktop/local.png"
         inkscape:connector-curvature="0"
         inkscape:export-xdpi="72" />
      <g
         id="text4115"
         style="font-size:29.58426476px;line-height:125%;font-family:Sans;letter-spacing:0px;word-spacing:0px;fill:#ffffff"
         transform="matrix(1.0426536,-0.05593219,0,0.95909133,0,0)">
        <path
           id="path4783"
           style="font-style:normal;font-variant:normal;font-weight:normal;font-stretch:normal;font-family:'Bebas Neue';-inkscape-font-specification:'Bebas Neue';fill:#ffffff"
           d="m 329.97851,594.48602 c 0,2.36675 0.85794,4.08263 3.5797,6.47896 2.13006,1.86381 2.78092,2.98801 2.78092,4.49681 0,1.47921 -0.65086,2.01173 -1.68631,2.01173 -1.03544,0 -1.6863,-0.53252 -1.6863,-2.01173 l 0,-1.47922 -3.07676,0 0,1.27213 c 0,3.31343 1.65672,5.20683 4.85182,5.20683 3.1951,0 4.85182,-1.8934 4.85182,-5.20683 0,-2.36674 -0.85795,-4.08263 -3.5797,-6.47896 -2.13007,-1.86381 -2.78092,-2.98801 -2.78092,-4.49681 0,-1.47921 0.59169,-2.04131 1.62713,-2.04131 1.03545,0 1.62714,0.5621 1.62714,2.04131 l 0,0.85795 3.07676,0 0,-0.65086 c 0,-3.31343 -1.62713,-5.20683 -4.79265,-5.20683 -3.16551,0 -4.79265,1.8934 -4.79265,5.20683 z" />
        <path
           id="path4785"
           style="font-style:normal;font-variant:normal;font-weight:normal;font-stretch:normal;font-family:'Bebas Neue';-inkscape-font-specification:'Bebas Neue';fill:#ffffff"
           d="m 348.64757,589.51587 -4.76307,0 -3.31344,20.70898 2.98802,0 0.5621,-3.7572 3.99387,0 0.5621,3.7572 3.28386,0 -3.31344,-20.70898 z m -2.57383,3.66845 0.0592,0 1.53838,10.47283 -3.13593,0 1.53838,-10.47283 z" />
        <path
           id="path4787"
           style="font-style:normal;font-variant:normal;font-weight:normal;font-stretch:normal;font-family:'Bebas Neue';-inkscape-font-specification:'Bebas Neue';fill:#ffffff"
           d="m 353.44761,610.22485 8.60903,0 0,-2.95842 -5.35476,0 0,-17.75056 -3.25427,0 0,20.70898 z" />
        <path
           id="path4789"
           style="font-style:normal;font-variant:normal;font-weight:normal;font-stretch:normal;font-family:'Bebas Neue';-inkscape-font-specification:'Bebas Neue';fill:#ffffff"
           d="m 366.75591,592.47429 5.62101,0 0,-2.95842 -8.87528,0 0,20.70898 8.87528,0 0,-2.95842 -5.62101,0 0,-6.06478 4.46723,0 0,-2.95842 -4.46723,0 0,-5.76894 z" />
      </g>
      <path
         id="path4041"
         style="fill:url(#linearGradient5437)"
         d="m 255.46762,534.68258 0.47039,47.71806 149.11602,1.41738 0.47041,-60.94701 z"
         inkscape:export-ydpi="72"
         inkscape:export-filename="/home/techminati/Desktop/local.png"
         inkscape:connector-curvature="0"
         inkscape:export-xdpi="72" />
      <path
         id="rect2985-0-6-0"
         style="fill:#ffffff;stroke:#000000;stroke-width:1.79789996;stroke-linecap:round;stroke-linejoin:round"
         d="m 270.552,544.80476 51.0298,-2.50556 -0.0834,93.20853 -51.53141,-4.67705 z"
         inkscape:export-ydpi="72"
         sodipodi:nodetypes="ccccc"
         inkscape:export-filename="/home/techminati/Desktop/local.png"
         inkscape:connector-curvature="0"
         inkscape:export-xdpi="72" />
      <path
         id="path3810"
         style="fill:url(#linearGradient5433);stroke:#000000;stroke-width:1.79789996"
         d="m 276.23337,545.97339 0,83.85406 45.26752,3.67491 -0.0417,-89.72061 z"
         inkscape:export-ydpi="72"
         sodipodi:nodetypes="ccccc"
         inkscape:export-filename="/home/techminati/Desktop/local.png"
         inkscape:connector-curvature="0"
         inkscape:export-xdpi="72" />
      <path
         id="rect2985-0-6-8"
         style="fill:url(#linearGradient5430);stroke:#000000;stroke-width:1.79789996;stroke-linecap:round;stroke-linejoin:round"
         d="m 346.38742,584.89793 40.59119,0.83521 -0.0489,41.76882 -40.20824,-2.9696 z"
         inkscape:export-ydpi="72"
         sodipodi:nodetypes="ccccc"
         inkscape:export-filename="/home/techminati/Desktop/local.png"
         inkscape:connector-curvature="0"
         inkscape:export-xdpi="72" />
      <path
         id="rect2985-0-6-8-0"
         style="fill:url(#linearGradient5427);stroke:#000000;stroke-width:1.79789996;stroke-linecap:round;stroke-linejoin:round"
         d="m 347.05265,628.47902 40.08957,3.14507 0,27.09256 -40.42398,-4.42661 z"
         inkscape:export-ydpi="72"
         sodipodi:nodetypes="ccccc"
         inkscape:export-filename="/home/techminati/Desktop/local.png"
         inkscape:connector-curvature="0"
         inkscape:export-xdpi="72" />
      <path
         id="rect2985-0-6-8-0-8"
         style="fill:#ffffff;stroke:#000000;stroke-width:1.79789996;stroke-linecap:round;stroke-linejoin:round"
         d="m 338.99805,620.92784 4.9836,0.23625 0.11813,10.23832 -5.05174,-0.43193 z"
         inkscape:export-ydpi="72"
         sodipodi:nodetypes="ccccc"
         inkscape:export-filename="/home/techminati/Desktop/local.png"
         inkscape:connector-curvature="0"
         inkscape:export-xdpi="72" />
      <path
         id="path3866"
         style="fill:#ffffff;stroke:#000000;stroke-width:1.79789996"
         d="m 255.8272,505.73639 -42.82957,22.15013 0.27918,16.76038 164.65527,-9.53031 30.99041,1.53203 -0.10968,-48.02191 -2.9633,-0.99977 z"
         inkscape:export-ydpi="72"
         sodipodi:nodetypes="cccccccc"
         inkscape:export-filename="/home/techminati/Desktop/local.png"
         inkscape:connector-curvature="0"
         inkscape:export-xdpi="72" />
      <path
         id="path3868"
         style="fill:#ff0104;stroke:#000000;stroke-width:1.79789996"
         d="m 265.5898,504.60371 -38.85801,21.79055 0.0415,17.38677 12.83988,-0.68126 -0.20877,-17.81755 39.30748,-22.23642 z"
         inkscape:export-ydpi="72"
         sodipodi:nodetypes="ccccccc"
         inkscape:export-filename="/home/techminati/Desktop/local.png"
         inkscape:connector-curvature="0"
         inkscape:export-xdpi="72" />
      <path
         id="path3870"
         style="fill:#ff0104;stroke:#000000;stroke-width:1.79789996"
         d="m 291.92903,501.51133 -33.80052,22.12136 0.0834,18.44465 15.11872,-0.93181 -0.19326,-18.79165 34.54845,-22.87109 z"
         inkscape:export-ydpi="72"
         sodipodi:nodetypes="ccccccc"
         inkscape:export-filename="/home/techminati/Desktop/local.png"
         inkscape:connector-curvature="0"
         inkscape:export-xdpi="72" />
      <path
         id="path3872"
         style="fill:#ff0104;stroke:#000000;stroke-width:1.79789996"
         d="m 319.11328,498.14925 -32.29747,23.09403 -0.16703,19.09909 15.11872,-0.80656 0.002,-19.73554 30.98681,-23.36911 z"
         inkscape:export-ydpi="72"
         sodipodi:nodetypes="ccccccc"
         inkscape:export-filename="/home/techminati/Desktop/local.png"
         inkscape:connector-curvature="0"
         inkscape:export-xdpi="72" />
      <path
         id="path3874"
         style="fill:#ff0104;stroke:#000000;stroke-width:1.79789996"
         d="m 344.15803,494.89505 -28.60639,23.76105 0.0417,20.11131 16.84147,-1.12505 0.1826,-20.4619 28.7628,-24.25547 z"
         inkscape:export-ydpi="72"
         sodipodi:nodetypes="ccccccc"
         inkscape:export-filename="/home/techminati/Desktop/local.png"
         inkscape:connector-curvature="0"
         inkscape:export-xdpi="72" />
      <path
         id="path3876"
         style="fill:#ff0104;stroke:#000000;stroke-width:1.79789996"
         d="m 374.93808,491.22734 -26.01382,24.56471 0.0548,21.04442 16.56477,-1.22414 0,-21.32309 26.69522,-25.14004 z"
         inkscape:export-ydpi="72"
         sodipodi:nodetypes="ccccccc"
         inkscape:export-filename="/home/techminati/Desktop/local.png"
         inkscape:connector-curvature="0"
         inkscape:export-xdpi="72" />
      <path
         id="path3896"
         style="fill:#ff0104;stroke:#000000;stroke-width:1.79789996"
         d="m 405.35854,488.51251 -25.22274,25.22274 -0.037,20.68484 27.9124,1.35659 -0.23623,-46.19165 z"
         inkscape:export-ydpi="72"
         sodipodi:nodetypes="cccccc"
         inkscape:export-filename="/home/techminati/Desktop/local.png"
         inkscape:connector-curvature="0"
         inkscape:export-xdpi="72" />
      <path
         id="rect2985-8"
         style="fill:url(#linearGradient5416);stroke:#000000;stroke-width:1.79789996;stroke-linecap:round;stroke-linejoin:round"
         d="m 257.64308,440.68837 149.19514,-40.17587 0,85.97378 -149.19514,18.19654 z"
         inkscape:export-ydpi="72"
         sodipodi:nodetypes="ccccc"
         inkscape:export-filename="/home/techminati/Desktop/local.png"
         inkscape:connector-curvature="0"
         inkscape:export-xdpi="72" />
      <path
         id="rect2985-8-5"
         style="fill:#dadada;stroke:#000000;stroke-width:1.79789996;stroke-linecap:round;stroke-linejoin:round"
         d="m 412.29844,403.59769 -4.87285,-2.09167 0,85.97378 5.2069,1.15775 z"
         inkscape:export-ydpi="72"
         sodipodi:nodetypes="ccccc"
         inkscape:export-filename="/home/techminati/Desktop/local.png"
         inkscape:connector-curvature="0"
         inkscape:export-xdpi="72" />
      <path
         id="path3934"
         style="fill:#dadada;stroke:#000000;stroke-width:1.79789996"
         d="m 413.19739,448.58115 18.37454,43.76448 5.0111,0 -23.71969,-55.45802 z"
         inkscape:export-ydpi="72"
         sodipodi:nodetypes="ccccc"
         inkscape:export-filename="/home/techminati/Desktop/local.png"
         inkscape:connector-curvature="0"
         inkscape:export-xdpi="72" />
      <path
         id="path3936-4"
         style="fill:#cd0003;stroke:#000000;stroke-width:1.79789996"
         d="m 338.17102,664.43702 -33.93716,5.7923 62.74132,9.88395 26.52981,-7.84423 z"
         inkscape:export-ydpi="72"
         sodipodi:nodetypes="ccccc"
         inkscape:export-filename="/home/techminati/Desktop/local.png"
         inkscape:connector-curvature="0"
         inkscape:export-xdpi="72" />
      <path
         id="path4031"
         style="fill:url(#linearGradient5410)"
         d="m 212.94729,527.58088 165.8329,-13.70126 1.41737,18.89773 -166.77859,10.39402 z"
         inkscape:export-ydpi="72"
         inkscape:export-filename="/home/techminati/Desktop/local.png"
         inkscape:connector-curvature="0"
         inkscape:export-xdpi="72" />
      <path
         id="path4069"
         style="fill:#ffffff;fill-opacity:0.17593001"
         d="m 371.45015,586.30029 -13.46519,38.74115 4.60658,0.59057 13.46501,-39.21399 z"
         inkscape:export-ydpi="72"
         inkscape:export-filename="/home/techminati/Desktop/local.png"
         inkscape:connector-curvature="0"
         inkscape:export-xdpi="72" />
      <path
         id="path4071"
         style="fill:#ffffff;fill-opacity:0.17593001"
         d="m 377.94057,586.76774 -13.11083,38.62429 3.54348,0.47245 12.63834,-39.33266 z"
         inkscape:export-ydpi="72"
         inkscape:export-filename="/home/techminati/Desktop/local.png"
         inkscape:connector-curvature="0"
         inkscape:export-xdpi="72" />
      <path
         id="path4069-3"
         style="fill:#ffffff;fill-opacity:0.17593001"
         d="m 303.2558,543.00686 -27.01704,87.59369 3.61432,0.33759 27.66608,-88.19419 z"
         inkscape:export-ydpi="72"
         sodipodi:nodetypes="ccccc"
         inkscape:export-filename="/home/techminati/Desktop/local.png"
         inkscape:connector-curvature="0"
         inkscape:export-xdpi="72" />
      <path
         id="path4071-4"
         style="fill:#ffffff;fill-opacity:0.17593001"
         d="m 309.56643,542.89898 -27.17166,88.21217 1.8308,0.18741 27.33707,-88.58073 z"
         inkscape:export-ydpi="72"
         sodipodi:nodetypes="ccccc"
         inkscape:export-filename="/home/techminati/Desktop/local.png"
         inkscape:connector-curvature="0"
         inkscape:export-xdpi="72" />
      <path
         id="path4069-5"
         style="fill:#ffffff;fill-opacity:0.17593001"
         d="m 369.14884,630.52863 -10.39402,24.87215 3.30724,0.72808 10.74838,-25.52479 z"
         inkscape:export-ydpi="72"
         sodipodi:nodetypes="ccccc"
         inkscape:export-filename="/home/techminati/Desktop/local.png"
         inkscape:connector-curvature="0"
         inkscape:export-xdpi="72" />
      <path
         id="path4071-6"
         style="fill:#ffffff;fill-opacity:0.17593001"
         d="m 374.70435,630.81629 -10.39402,25.15083 1.88977,0.53521 10.51232,-25.60029 z"
         inkscape:export-ydpi="72"
         sodipodi:nodetypes="ccccc"
         inkscape:export-filename="/home/techminati/Desktop/local.png"
         inkscape:connector-curvature="0"
         inkscape:export-xdpi="72" />
      <path
         id="path4147"
         style="fill:#982828"
         d="m 334.52128,429.37958 c -3.00698,0.9035 -5.29967,3.00932 -6.86995,6.32986 -1.467,3.02731 -2.19919,6.77989 -2.19614,11.23832 0.001,2.08125 0.004,4.1625 0.005,6.24374 0.002,2.49873 0.91157,5.0708 2.7186,7.76262 0.30674,0.48309 1.97446,2.61504 5.00446,6.43828 1.80293,2.28711 2.68876,4.06918 2.65424,5.33095 -0.0367,1.41313 -0.0734,2.82594 -0.11004,4.23873 -0.069,2.47139 -0.62626,3.79141 -1.67981,3.94387 -1.32548,0.19206 -1.98956,-1.50034 -1.98956,-5.08518 2e-5,-1.22273 6e-5,-2.4455 8e-5,-3.66825 10e-6,-1.29449 -0.17458,-1.91315 -0.51489,-1.8549 -0.34025,0.0583 -1.3006,0.28161 -2.89965,0.65406 -1.56511,0.36593 -2.51886,0.56735 -2.85902,0.62537 -0.34025,0.0581 -0.53471,0.60355 -0.56801,1.63754 -0.0327,1.76825 -0.052,3.04708 -0.0514,3.83043 -0.0647,4.61197 0.81666,8.23078 2.61864,10.89096 1.69889,2.50052 3.74305,3.63247 6.15349,3.34301 2.78387,-0.33416 4.94944,-1.9029 6.47964,-4.68173 1.53101,-2.79771 2.29268,-6.43864 2.29771,-10.93321 0.002,-1.76277 0.004,-3.5255 0.005,-5.28834 0.004,-2.6048 -0.8873,-5.43829 -2.6884,-8.46344 -1.70073,-2.35938 -3.40703,-4.69108 -5.10964,-7.00695 -1.80581,-2.47212 -2.71411,-4.46059 -2.71411,-6.00463 6e-5,-1.29591 9e-5,-2.59185 1.5e-4,-3.88778 1.2e-4,-3.28728 0.6672,-5.10118 1.99836,-5.42534 0.47787,-0.11633 0.85501,0.31656 1.12768,1.30421 0.30676,0.93083 0.44101,1.94012 0.40649,3.00304 -0.10356,2.88634 -0.13107,4.8946 -0.0974,6.04202 -3e-4,0.75334 0.22161,1.0922 0.66481,0.99674 2.72724,-0.43531 4.57764,-0.83308 5.56648,-1.19854 0.37504,-0.13178 0.57073,-0.59703 0.57157,-1.36263 0.004,-2.52712 0.005,-5.05425 0.009,-7.58138 0.005,-4.03197 -0.6797,-7.09182 -2.04349,-9.18457 -1.46684,-2.20171 -3.4286,-2.93543 -5.88884,-2.22724 m -68.88115,18.65141 c -0.4706,0.15768 -0.70291,0.74523 -0.69435,1.76768 0.021,10.70002 0.20191,26.63769 0.54931,47.81515 0.007,0.91857 0.2732,1.38127 0.78319,1.40315 1.12171,0.0322 3.09886,-0.17295 5.94997,-0.60199 4.68461,-0.6522 6.92263,-0.95734 6.71893,-0.93266 0.84875,-0.10284 1.28859,-0.55168 1.31768,-1.33949 0.0144,-3.26966 0,-5.65889 -0.0444,-7.17793 -0.005,-0.78364 -0.40986,-1.11961 -1.22559,-0.99938 -3.53503,0.52112 -5.30632,0.78223 -5.30632,0.78221 -0.74811,0.0676 -1.13415,-0.38062 -1.17531,-1.35555 -0.13196,-4.07368 -0.20566,-11.37657 -0.21454,-21.911 -0.005,-9.68691 -0.0651,-15.45997 -0.18119,-17.30803 -0.005,-0.42588 0.0144,-0.84328 0.0453,-1.23577 -0.0717,-0.45037 -0.33631,-0.58187 -0.78023,-0.4209 -2.97157,0.91923 -4.80615,1.40777 -5.52459,1.47327 -0.077,0.005 -0.15066,0.0189 -0.21787,0.0413 m 25.62367,-6.83418 c -0.4707,0.16002 -0.7047,0.78623 -0.69942,1.88402 -0.0126,11.48697 0.11651,28.5992 0.39592,51.33904 0.005,0.98618 0.2687,1.48531 0.77842,1.51333 1.12119,0.0446 3.11162,-0.16002 5.96309,-0.59506 4.68479,-0.65837 6.923,-0.96592 6.7193,-0.94123 0.84877,-0.10284 1.28983,-0.57963 1.32133,-1.42279 0.0236,-3.50033 0.0162,-6.05838 -0.0227,-7.68494 -0.004,-0.83899 -0.41977,-1.20093 -1.23551,-1.08068 -3.53503,0.52112 -5.29266,0.78023 -5.29266,0.78021 -0.74796,0.0645 -1.14598,-0.4181 -1.18404,-1.46374 -0.11903,-4.3689 -0.16991,-12.19911 -0.14563,-23.49316 0.0279,-10.38485 -0.0162,-16.57466 -0.12676,-18.55792 -0.002,-0.45665 0.0162,-0.90377 0.0493,-1.32392 -0.0703,-0.48419 -0.32064,-0.63389 -0.76465,-0.46985 -2.97211,0.92847 -4.81999,1.42061 -5.53825,1.47689 -0.077,0.004 -0.15049,0.018 -0.21778,0.0403 m 80.81381,-21.29433 c -2.49423,0.66391 -4.36603,2.18571 -5.6028,4.55912 -1.51088,2.8619 -2.27902,7.21533 -2.29736,13.063 -0.0392,12.42025 -0.0782,24.83979 -0.1174,37.26148 -0.0144,4.66735 0.56477,7.9575 1.71266,9.90679 1.21473,2.11397 3.22777,3.02622 6.04526,2.69199 5.43146,-0.64417 8.15977,-5.63821 8.20238,-14.97453 l 0.18015,-39.59335 c 0.0268,-5.89064 -0.73638,-9.81564 -2.29718,-11.73687 -1.22199,-1.49958 -3.16053,-1.886 -5.82555,-1.17671 m 12.85858,-3.40001 c -0.45919,0.13269 -0.86102,0.268 -1.21136,0.38914 -0.58111,0.21048 -0.8727,0.61846 -0.87563,1.23307 -0.0735,22.07102 -0.14724,44.14384 -0.22101,66.22025 -0.004,0.67075 0.2162,1.00825 0.65727,1.01121 2.40919,-0.0644 4.2186,-0.28059 5.40809,-0.64915 0.37373,-0.10158 0.55717,-0.60443 0.56202,-1.51156 0.1228,-10.32822 0.20451,-18.09047 0.23202,-23.25224 0.005,-0.79388 0.22792,-1.21305 0.67033,-1.29034 1.83763,-0.32098 3.55535,-1.46737 5.16447,-3.41457 2.19218,-2.69865 3.30058,-6.15133 3.32611,-10.37083 0.0421,-6.93647 0.084,-13.87295 0.12585,-20.80889 0.0196,-3.23694 -0.8808,-5.70707 -2.71249,-7.36294 -1.6623,-1.56987 -3.50464,-2.06201 -5.52045,-1.52638 -2.35687,0.49947 -4.22776,0.93528 -5.60531,1.33348 m -23.56688,6.33508 c -2.2551,0.59982 -4.08285,1.12754 -5.48395,1.6052 -0.23905,0.0108 -0.35447,0.38411 -0.35618,1.12051 -0.0205,8.7324 -0.0376,16.00113 -0.0512,21.78695 -0.002,0.84172 -0.19829,1.36062 -0.57346,1.54479 -1.15968,0.61118 -2.11505,0.82199 -2.86423,0.66627 -0.17027,-0.0162 -0.26412,-0.17134 -0.29754,-0.47713 -0.0338,-0.14922 -0.0534,-0.45366 -0.0525,-0.92306 -0.0627,-2.74881 -0.055,-6.61879 0.023,-11.58872 0.0813,-6.53609 0.1147,-9.7759 0.11452,-9.72376 0.002,-0.83452 -0.24692,-1.21098 -0.75932,-1.12707 0,7e-5 -1.8682,0.49633 -5.59237,1.48553 -0.34167,0.0908 -0.50404,0.56954 -0.50521,1.44222 -0.30818,26.75096 -0.30724,46.52426 0.0162,59.36127 0.0325,1.12554 0.29964,1.69135 0.80882,1.68143 1.42557,0.0347 2.85974,-0.19865 4.28619,-0.68166 0.88301,-0.26285 1.333,-0.86254 1.36884,-1.80509 0.15533,-9.82031 0.23189,-17.93099 0.21069,-24.33997 0.0356,-0.78841 0.19096,-1.21831 0.4633,-1.26822 1.49812,-0.37907 2.41207,-0.54667 2.75223,-0.50406 0.40828,0.0304 0.62906,0.39493 0.66152,1.07272 -0.0372,8.13316 -0.0744,16.2656 -0.11165,24.3975 -0.004,1.36786 0.21637,1.99549 0.65787,1.8896 0.27171,-0.0854 0.95529,-0.16793 2.04151,-0.24583 0.98441,-0.0655 1.78206,-0.23483 2.39373,-0.52136 0.6455,-0.23791 0.96182,-0.76049 0.96416,-1.56061 0.005,-1.49355 0.0928,-11.06302 0.24638,-28.68729 0.15084,-16.56477 0.20368,-27.64271 0.15192,-33.22879 0.004,-0.96055 -0.17116,-1.40889 -0.51261,-1.37146 m -79.60023,21.24039 c -0.27333,0.0726 -0.45382,0.37985 -0.55312,0.93121 -0.0662,0.36749 -0.10428,0.77473 -0.10176,1.21142 0.14383,18.07429 0.22319,34.49272 0.24483,49.26426 0.007,1.31004 0.36081,1.97499 1.04034,1.98093 2.75151,-0.0212 4.52729,-0.23287 5.34048,-0.64104 0.54232,-0.24321 0.80708,-0.90854 0.80161,-1.97733 -0.10589,-20.70822 -0.1918,-37.53476 -0.25803,-50.49403 -0.0403,-1.14885 -0.33998,-1.70313 -0.9213,-1.63799 -2.25546,0.51033 -4.12384,0.97205 -5.59308,1.36247 m 30.43844,-8.0332 c -1.12741,0.34683 -2.22652,0.69458 -3.31964,1.03169 -0.1708,0.0453 -0.32571,0.17925 -0.4619,0.4032 -0.10194,0.21492 -0.16217,0.44406 -0.16163,0.67867 0.009,3.63841 0.0191,7.277 0.0286,10.91541 0.005,1.73655 0.25354,4.1927 0.73938,7.37678 0.0692,0.40854 0.27163,0.57874 0.61255,0.50555 2.07981,-0.35154 3.25725,-0.59474 3.52999,-0.70075 0.34081,-0.12064 0.54209,-0.44568 0.60924,-0.9839 0.60445,-4.9471 0.90958,-7.47531 0.9094,-7.57077 -0.0356,-0.75512 -0.0626,-4.32791 -0.0746,-10.71908 -0.002,-1.00154 -0.80546,-1.31569 -2.41134,-0.9368 m 77.35285,-9.928 c 0.032,-0.0144 0.0746,-0.0324 0.10877,-0.0264 0.37485,0.0221 0.62371,0.0289 0.76024,-0.004 0.34103,-0.0261 0.69786,-0.068 1.07301,-0.1023 0.37387,0.19381 0.65909,0.93401 0.85661,2.19649 0.22932,1.65513 0.32173,4.38994 0.26634,8.22144 -0.0586,4.40162 -0.29649,7.30847 -0.71263,8.70292 -0.24259,0.78883 -0.77618,1.31101 -1.5944,1.58812 -0.27348,0.22479 -0.49557,0.30269 -0.66529,0.22317 -0.33948,-0.15875 -0.49885,-0.49546 -0.49613,-1.00544 0.009,-8.03805 0.0207,-14.17284 0.0433,-18.42128 -0.0324,-0.33162 -0.004,-0.66251 0.10015,-0.97067 0.0779,-0.23108 0.16397,-0.3567 0.26006,-0.40135 m -17.26972,5.76767 c 0.95558,-0.22927 1.42064,1.26906 1.40773,4.50176 -0.0444,11.09232 -0.0886,22.18429 -0.13286,33.27733 -0.0108,2.79448 -0.48635,4.25905 -1.43809,4.39964 -0.57784,0.0854 -0.99307,-0.0681 -1.22937,-0.46875 -0.23611,-0.45445 -0.34589,-1.57614 -0.33919,-3.37232 0.0412,-11.01897 0.0822,-22.03866 0.12334,-33.05619 0.0126,-3.2657 0.55048,-5.02657 1.60847,-5.28043"
         inkscape:export-ydpi="72"
         inkscape:export-filename="/home/techminati/Desktop/local.png"
         inkscape:connector-curvature="0"
         inkscape:export-xdpi="72" />
    </g>
  </g>
  <metadata
     id="metadata4204">
    <rdf:RDF>
      <cc:Work>
        <dc:format>image/svg+xml</dc:format>
        <dc:type
           rdf:resource="http://purl.org/dc/dcmitype/StillImage" />
        <cc:license
           rdf:resource="http://creativecommons.org/licenses/publicdomain/" />
        <dc:publisher>
          <cc:Agent
             rdf:about="http://openclipart.org/">
            <dc:title>Openclipart</dc:title>
          </cc:Agent>
        </dc:publisher>
        <dc:title>Little Store Front</dc:title>
        <dc:date>2012-03-04T04:15:15</dc:date>
        <dc:description>A little store front with a red stiped canopy</dc:description>
        <dc:source>https://openclipart.org/detail/168697/little-store-front-by-finchweb</dc:source>
        <dc:creator>
          <cc:Agent>
            <dc:title>finchweb</dc:title>
          </cc:Agent>
        </dc:creator>
        <dc:subject>
          <rdf:Bag>
            <rdf:li>local business</rdf:li>
            <rdf:li>red</rdf:li>
            <rdf:li>shop</rdf:li>
            <rdf:li>small business</rdf:li>
            <rdf:li>store front</rdf:li>
            <rdf:li>striped canopy</rdf:li>
          </rdf:Bag>
        </dc:subject>
      </cc:Work>
      <cc:License
         rdf:about="http://creativecommons.org/licenses/publicdomain/">
        <cc:permits
           rdf:resource="http://creativecommons.org/ns#Reproduction" />
        <cc:permits
           rdf:resource="http://creativecommons.org/ns#Distribution" />
        <cc:permits
           rdf:resource="http://creativecommons.org/ns#DerivativeWorks" />
      </cc:License>
    </rdf:RDF>
  </metadata>
</svg>
