<svg width="230" height="153" viewBox="0 0 230 153" fill="none" xmlns="http://www.w3.org/2000/svg">
<g clip-path="url(#clip0_116_163)">
<rect width="230" height="153" fill="white"/>
<g clip-path="url(#clip1_116_163)">
<path d="M252.4 153H-23V1.77622e-05H252.4V153Z" fill="#EBEFF9"/>
<path d="M232.71 54.9077H193.31C191.62 54.9077 190.25 53.5378 190.25 51.8477V27.8995C190.25 26.2098 191.62 24.8395 193.31 24.8395H232.71C234.4 24.8395 235.77 26.2098 235.77 27.8995V51.8477C235.77 53.5378 234.4 54.9077 232.71 54.9077Z" fill="#A5B0E0"/>
<path d="M235.77 51.8477H196.37C194.68 51.8477 193.31 50.4778 193.31 48.7877V24.8395C193.31 23.1498 194.68 21.7795 196.37 21.7795H235.77C237.46 21.7795 238.83 23.1498 238.83 24.8395V48.7877C238.83 50.4778 237.46 51.8477 235.77 51.8477Z" fill="white"/>
<path d="M199.124 30.3475H210.854" stroke="#A5B0E0" stroke-width="2.66667" stroke-miterlimit="10" stroke-linecap="round" stroke-linejoin="round"/>
<path d="M199.124 34.8798H229.808" stroke="#A5B0E0" stroke-width="2.66667" stroke-miterlimit="10" stroke-linecap="round" stroke-linejoin="round"/>
<path d="M199.124 38.6353H229.808" stroke="#A5B0E0" stroke-width="2.66667" stroke-miterlimit="10" stroke-linecap="round" stroke-linejoin="round"/>
<path d="M199.124 42.3908H215.138" stroke="#A5B0E0" stroke-width="2.66667" stroke-miterlimit="10" stroke-linecap="round" stroke-linejoin="round"/>
<path d="M181.912 85.519H143.356C141.666 85.519 140.296 84.1491 140.296 82.459V75.351C140.296 73.6609 141.666 72.291 143.356 72.291H181.912C183.602 72.291 184.972 73.6609 184.972 75.351V82.459C184.972 84.1491 183.602 85.519 181.912 85.519Z" fill="#A5B0E0"/>
<path d="M184.971 82.459H146.415C144.725 82.459 143.355 81.0891 143.355 79.399V72.291C143.355 70.6009 144.725 69.231 146.415 69.231H184.971C186.662 69.231 188.031 70.6009 188.031 72.291V79.399C188.031 81.0891 186.662 82.459 184.971 82.459Z" fill="#C6CEED"/>
<path d="M161.92 76.291H154.576V57.4769H161.92V76.291Z" fill="#A5B0E0"/>
<path d="M171.201 76.291H163.857V53.5552H171.201V76.291Z" fill="#6A75C2"/>
<path d="M181.402 76.291H174.058V49.3505H181.402V76.291Z" stroke="white" stroke-width="2.66667" stroke-miterlimit="10" stroke-linecap="round" stroke-linejoin="round"/>
<path d="M148.864 76.291H181.402" stroke="white" stroke-width="2.66667" stroke-miterlimit="10" stroke-linecap="round" stroke-linejoin="round"/>
<path d="M181.486 40.3259L172.326 38.5212L173.49 41.6408L144.1 52.6011L145.192 55.5283L174.581 44.568L175.745 47.688L181.486 40.3259Z" fill="#7DC2CC"/>
<path d="M134.216 49.9202H105.222C103.532 49.9202 102.162 48.5503 102.162 46.8602V17.8667C102.162 16.177 103.532 14.8067 105.222 14.8067H134.216C135.905 14.8067 137.276 16.177 137.276 17.8667V46.8602C137.276 48.5503 135.905 49.9202 134.216 49.9202Z" stroke="white" stroke-width="2.66667" stroke-miterlimit="10" stroke-linecap="round" stroke-linejoin="round"/>
<path d="M17.2992 62.4916H-12.7916C-14.4816 62.4916 -15.8516 61.1217 -15.8516 59.4316V41.6328C-15.8516 39.9428 -14.4816 38.5728 -12.7916 38.5728H17.2992C18.9889 38.5728 20.3592 39.9428 20.3592 41.6328V59.4316C20.3592 61.1217 18.9889 62.4916 17.2992 62.4916Z" fill="#A5B0E0"/>
<path d="M19.7469 60.0436H-10.3438C-12.0339 60.0436 -13.4038 58.6737 -13.4038 56.9836V39.1848C-13.4038 37.4948 -12.0339 36.1248 -10.3438 36.1248H19.7469C21.4367 36.1248 22.8069 37.4948 22.8069 39.1848V56.9836C22.8069 58.6737 21.4367 60.0436 19.7469 60.0436Z" fill="white"/>
<path d="M-7.58984 41.9388H1.08012" stroke="#A5B0E0" stroke-width="2.66667" stroke-miterlimit="10" stroke-linecap="round" stroke-linejoin="round"/>
<path d="M-7.58984 46.165H10.8536" stroke="#A5B0E0" stroke-width="2.66667" stroke-miterlimit="10" stroke-linecap="round" stroke-linejoin="round"/>
<path d="M-7.58984 49.9202H10.8536" stroke="#A5B0E0" stroke-width="2.66667" stroke-miterlimit="10" stroke-linecap="round" stroke-linejoin="round"/>
<path d="M-7.58984 53.6758H-0.755884" stroke="#A5B0E0" stroke-width="2.66667" stroke-miterlimit="10" stroke-linecap="round" stroke-linejoin="round"/>
<path d="M40.2832 37.9608C40.2832 28.2346 48.1679 20.3499 57.8941 20.3499C67.6203 20.3499 75.505 28.2346 75.505 37.9608C75.505 47.687 67.6203 55.5717 57.8941 55.5717C48.1679 55.5717 40.2832 47.687 40.2832 37.9608Z" fill="#C6CEED"/>
<path d="M69.2743 51.3963L57.8941 37.9608L40.3444 36.5504C40.3074 37.0162 40.2832 37.4856 40.2832 37.9608C40.2832 47.687 48.1679 55.5717 57.8941 55.5717C62.2341 55.5717 66.2045 53.9989 69.2743 51.3963Z" fill="#6A75C2"/>
<path d="M57.8942 55.5717C62.2342 55.5717 66.2046 53.9989 69.2743 51.3963L57.8942 37.9608L46.6196 51.4878C49.6744 54.0365 53.6044 55.5717 57.8942 55.5717Z" fill="#A5B0E0"/>
<path d="M37.8965 36.3522L57.8942 37.9596L55.9918 17.9842C46.3301 18.893 38.6661 26.6508 37.8965 36.3522Z" fill="#7DC2CC"/>
<path d="M28.3706 17.9843H37.8964" stroke="#A5B0E0" stroke-width="2.66667" stroke-miterlimit="10" stroke-linecap="round" stroke-linejoin="round"/>
<path d="M28.3706 20.9014H37.8964" stroke="#A5B0E0" stroke-width="2.66667" stroke-miterlimit="10" stroke-linecap="round" stroke-linejoin="round"/>
<path d="M28.3706 23.8184H34.8364" stroke="#A5B0E0" stroke-width="2.66667" stroke-miterlimit="10" stroke-linecap="round" stroke-linejoin="round"/>
<path d="M82.9971 30.1462H92.5229" stroke="#A5B0E0" stroke-width="2.66667" stroke-miterlimit="10" stroke-linecap="round" stroke-linejoin="round"/>
<path d="M82.9971 33.0636H92.5229" stroke="#A5B0E0" stroke-width="2.66667" stroke-miterlimit="10" stroke-linecap="round" stroke-linejoin="round"/>
<path d="M82.9971 35.9807H89.4629" stroke="#A5B0E0" stroke-width="2.66667" stroke-miterlimit="10" stroke-linecap="round" stroke-linejoin="round"/>
<path d="M40.8599 20.9014H44.5319L47.8951 25.4149" stroke="#6A75C2" stroke-width="2.66667" stroke-miterlimit="10" stroke-linecap="round" stroke-linejoin="round"/>
<path d="M80.4012 32.7855H76.7292L73.3662 37.299" stroke="#6A75C2" stroke-width="2.66667" stroke-miterlimit="10" stroke-linecap="round" stroke-linejoin="round"/>
<path d="M119.719 23.8337C115.016 23.8337 111.189 27.6602 111.189 32.3635C111.189 37.067 115.016 40.8932 119.719 40.8932C124.422 40.8932 128.249 37.067 128.249 32.3635C128.249 27.6602 124.422 23.8337 119.719 23.8337ZM119.719 45.4832C112.484 45.4832 106.599 39.5979 106.599 32.3635C106.599 25.1293 112.484 19.2437 119.719 19.2437C126.953 19.2437 132.839 25.1293 132.839 32.3635C132.839 39.5979 126.953 45.4832 119.719 45.4832Z" fill="#C6CEED"/>
<path d="M133.17 33.3072H128.134C128.134 28.1468 123.935 23.9485 118.775 23.9485V18.9123C126.712 18.9123 133.17 25.3696 133.17 33.3072Z" fill="#7DC2CC"/>
<path d="M128.316 50.0861V53.0158H115.347V50.5158L121.48 43.9403C122.096 43.2545 122.582 42.6512 122.938 42.1304C123.294 41.6009 123.55 41.1278 123.706 40.7111C123.871 40.2858 123.954 39.8821 123.954 39.5002C123.954 38.9273 123.858 38.4368 123.667 38.0288C123.476 37.6122 123.194 37.291 122.821 37.0653C122.456 36.8396 122.005 36.7267 121.467 36.7267C120.894 36.7267 120.399 36.8656 119.982 37.1434C119.574 37.4212 119.262 37.8075 119.045 38.3023C118.837 38.7971 118.732 39.357 118.732 39.982H114.969C114.969 38.8535 115.238 37.8205 115.777 36.883C116.315 35.9368 117.074 35.1859 118.055 34.6304C119.036 34.0662 120.199 33.784 121.545 33.784C122.873 33.784 123.993 34.0011 124.904 34.4351C125.824 34.8604 126.519 35.4767 126.988 36.284C127.465 37.0826 127.704 38.0375 127.704 39.1486C127.704 39.7736 127.604 40.3856 127.404 40.9846C127.205 41.5748 126.918 42.1651 126.545 42.7554C126.18 43.337 125.738 43.9273 125.217 44.5262C124.696 45.1252 124.119 45.7458 123.485 46.3882L120.191 50.0861H128.316ZM128.107 72.87V76.1512C128.107 77.5748 127.956 78.8031 127.652 79.8361C127.348 80.8604 126.91 81.7024 126.337 82.3622C125.772 83.0132 125.1 83.495 124.318 83.8075C123.537 84.12 122.669 84.2762 121.714 84.2762C120.95 84.2762 120.238 84.1807 119.579 83.9898C118.919 83.7901 118.324 83.482 117.795 83.0653C117.274 82.6486 116.823 82.1234 116.441 81.4898C116.067 80.8474 115.781 80.0835 115.581 79.1981C115.382 78.3127 115.282 77.2971 115.282 76.1512V72.87C115.282 71.4464 115.434 70.2267 115.738 69.2111C116.05 68.1868 116.488 67.3491 117.053 66.6981C117.626 66.0471 118.303 65.5696 119.084 65.2658C119.865 64.9533 120.733 64.7971 121.688 64.7971C122.452 64.7971 123.16 64.8969 123.811 65.0965C124.47 65.2875 125.065 65.587 125.594 65.995C126.124 66.403 126.575 66.9281 126.949 67.5705C127.322 68.2042 127.608 68.9637 127.808 69.8491C128.008 70.7259 128.107 71.7328 128.107 72.87ZM124.344 76.646V72.3622C124.344 71.6764 124.305 71.0774 124.227 70.5653C124.158 70.0531 124.049 69.6191 123.902 69.2632C123.754 68.8986 123.572 68.6035 123.355 68.3778C123.138 68.1521 122.89 67.9872 122.613 67.883C122.335 67.7788 122.027 67.7267 121.688 67.7267C121.263 67.7267 120.885 67.8092 120.555 67.9741C120.234 68.1391 119.961 68.4038 119.735 68.7684C119.509 69.1243 119.336 69.6017 119.214 70.2007C119.101 70.791 119.045 71.5115 119.045 72.3622V76.646C119.045 77.3318 119.08 77.9351 119.149 78.4559C119.227 78.9767 119.34 79.4238 119.488 79.7971C119.644 80.1616 119.826 80.4611 120.035 80.6955C120.252 80.9212 120.499 81.0861 120.777 81.1903C121.063 81.2945 121.376 81.3465 121.714 81.3465C122.131 81.3465 122.5 81.2641 122.821 81.0991C123.151 80.9255 123.429 80.6564 123.654 80.2919C123.889 79.9186 124.062 79.4325 124.175 78.8335C124.288 78.2346 124.344 77.5054 124.344 76.646ZM115.295 100.706V99.7033C115.295 98.9828 115.451 98.3274 115.764 97.7372C116.076 97.1469 116.536 96.6738 117.144 96.3179C117.752 95.962 118.498 95.784 119.383 95.784C120.295 95.784 121.054 95.962 121.662 96.3179C122.278 96.6738 122.738 97.1469 123.042 97.7372C123.355 98.3274 123.511 98.9828 123.511 99.7033V100.706C123.511 101.409 123.355 102.056 123.042 102.646C122.738 103.236 122.283 103.709 121.675 104.065C121.067 104.421 120.317 104.599 119.423 104.599C118.52 104.599 117.76 104.421 117.144 104.065C116.536 103.709 116.076 103.236 115.764 102.646C115.451 102.056 115.295 101.409 115.295 100.706ZM117.782 99.7033V100.706C117.782 101.01 117.838 101.301 117.951 101.578C118.073 101.847 118.255 102.069 118.498 102.242C118.75 102.407 119.054 102.49 119.41 102.49C119.783 102.49 120.087 102.407 120.321 102.242C120.555 102.069 120.729 101.847 120.842 101.578C120.955 101.301 121.011 101.01 121.011 100.706V99.7033C121.011 99.3821 120.95 99.087 120.829 98.8179C120.716 98.5401 120.538 98.3188 120.295 98.1538C120.061 97.9802 119.757 97.8934 119.383 97.8934C119.036 97.8934 118.741 97.9802 118.498 98.1538C118.255 98.3188 118.073 98.5401 117.951 98.8179C117.838 99.087 117.782 99.3821 117.782 99.7033ZM124.357 111.37V110.367C124.357 109.656 124.514 109.005 124.826 108.414C125.147 107.824 125.612 107.351 126.219 106.995C126.836 106.639 127.591 106.461 128.485 106.461C129.388 106.461 130.143 106.639 130.751 106.995C131.358 107.351 131.818 107.824 132.131 108.414C132.443 109.005 132.6 109.656 132.6 110.367V111.37C132.6 112.082 132.443 112.733 132.131 113.323C131.827 113.913 131.371 114.386 130.764 114.742C130.156 115.098 129.405 115.276 128.511 115.276C127.608 115.276 126.849 115.098 126.232 114.742C125.616 114.386 125.147 113.913 124.826 113.323C124.514 112.733 124.357 112.082 124.357 111.37ZM126.857 110.367V111.37C126.857 111.682 126.927 111.978 127.066 112.255C127.205 112.533 127.396 112.755 127.639 112.919C127.89 113.084 128.181 113.167 128.511 113.167C128.928 113.167 129.253 113.084 129.488 112.919C129.722 112.755 129.883 112.533 129.969 112.255C130.065 111.978 130.113 111.682 130.113 111.37V110.367C130.113 110.055 130.052 109.764 129.93 109.495C129.809 109.217 129.627 108.996 129.383 108.831C129.149 108.657 128.85 108.57 128.485 108.57C128.12 108.57 127.817 108.657 127.574 108.831C127.339 108.996 127.161 109.217 127.04 109.495C126.918 109.764 126.857 110.055 126.857 110.367ZM129.41 98.7658L120.152 113.584L118.329 112.62L127.587 97.8023L129.41 98.7658Z" fill="#6A75C2"/>
<path d="M154.768 24.9433C152.651 24.9433 150.928 23.2208 150.928 21.1036C150.928 18.9861 152.651 17.2636 154.768 17.2636C156.886 17.2636 158.608 18.9861 158.608 21.1036C158.608 23.2208 156.886 24.9433 154.768 24.9433ZM162.295 21.1036C162.295 20.3925 162.189 19.707 162.004 19.0547L163.857 17.9843L162.014 14.7921L160.159 15.8628C159.203 14.8796 157.981 14.1617 156.611 13.815V11.6724H152.925V13.815C151.555 14.1617 150.333 14.8796 149.377 15.8628L147.522 14.7921L145.679 17.9843L147.533 19.0547C147.348 19.707 147.242 20.3925 147.242 21.1036C147.242 21.8145 147.348 22.5002 147.533 23.1526L145.679 24.2227L147.522 27.4152L149.377 26.3445C150.333 27.3274 151.555 28.0452 152.925 28.3919V30.5345H156.611V28.3919C157.981 28.0452 159.203 27.3274 160.159 26.3445L162.014 27.4152L163.857 24.2227L162.004 23.1526C162.189 22.5002 162.295 21.8145 162.295 21.1036Z" fill="#A5B0E0"/>
<path d="M171.43 30.7151C170.016 30.1554 169.322 28.5495 169.881 27.1358C170.441 25.7218 172.047 25.0268 173.461 25.5865C174.875 26.1462 175.57 27.7521 175.01 29.1658C174.45 30.5798 172.844 31.2747 171.43 30.7151ZM177.472 30.1404C177.66 29.6655 177.77 29.1799 177.819 28.6952L179.34 28.4706L178.953 25.8515L177.431 26.0761C177.053 25.167 176.426 24.3646 175.603 23.7707L176.169 22.3399L173.708 21.3652L173.142 22.7961C172.135 22.6657 171.129 22.8221 170.231 23.2257L169.275 22.0204L167.201 23.6648L168.155 24.8696C167.859 25.2563 167.608 25.6863 167.42 26.1612C167.232 26.6358 167.121 27.1217 167.072 27.6064L165.551 27.831L165.938 30.4504L167.46 30.2255C167.839 31.1346 168.465 31.9369 169.288 32.5309L168.721 33.9614L171.183 34.936L171.75 33.5052C172.756 33.6358 173.762 33.4795 174.66 33.0759L175.616 34.2815L177.691 32.6368L176.736 31.432C177.032 31.0452 177.284 30.6153 177.472 30.1404Z" fill="#6A75C2"/>
<path d="M50.4049 76.276C48.5135 76.276 46.9746 74.7372 46.9746 72.8455C46.9746 70.9541 48.5135 69.4149 50.4049 69.4149C52.2969 69.4149 53.8357 70.9541 53.8357 72.8455C53.8357 74.7372 52.2969 76.276 50.4049 76.276ZM57.1289 72.8455C57.1289 72.2102 57.0344 71.5979 56.8691 71.015L58.5252 70.059L56.8786 67.2068L55.2213 68.1637C54.3673 67.2855 53.2755 66.6438 52.0518 66.3341V64.4201H48.7583V66.3341C47.5343 66.6438 46.4428 67.2851 45.589 68.1634L43.9317 67.2068L42.2852 70.059L43.9409 71.015C43.7757 71.5979 43.6811 72.2102 43.6811 72.8455C43.6811 73.4807 43.7757 74.0933 43.9409 74.6763L42.2852 75.6322L43.9317 78.4844L45.589 77.5279C46.4428 78.4058 47.5343 79.0472 48.7583 79.3568V81.2712H52.0518V79.3568C53.2755 79.0472 54.3673 78.4058 55.2213 77.5276L56.8786 78.4844L58.5252 75.6322L56.8691 74.6763C57.0344 74.0933 57.1289 73.4807 57.1289 72.8455Z" fill="#A5B0E0"/>
<path d="M107.058 85.9009L80.8697 94.181L64.626 59.7902L90.8141 51.5099L107.058 85.9009Z" fill="#A5B0E0"/>
<path d="M107.568 83.4529L80.8697 94.181L64.626 59.7902L91.3242 49.0619L107.568 83.4529Z" fill="white"/>
<path d="M64.626 88.5527L66.9718 84.5747C66.9718 84.5747 66.7316 79.1689 67.7187 77.5367C68.7059 75.9048 71.2558 72.1306 71.5618 69.8867C71.5618 69.8867 73.0257 69.0706 73.3139 71.2126C73.6019 73.3546 72.6839 76.806 72.6839 76.806C72.6839 76.806 75.1319 78.2509 74.8259 80.8008L76.3559 84.4728L72.888 93.3214L64.626 88.5527Z" fill="#D26353"/>
<path d="M10.8539 76.0642L-2.34282 80.9192C-3.27933 81.2638 -4.15933 81.7476 -4.93844 82.3706C-6.7797 83.8434 -9.79343 86.9306 -11.1597 92.1228C-13.1997 99.8747 -20.7476 138.431 -0.959701 145.061C-0.959701 145.061 3.3243 145.775 7.50634 143.021H52.0803L48.3064 130.373C48.3064 130.373 51.2642 135.371 58.4041 134.657C65.5443 133.943 69.4235 114.389 70.5422 108.341C71.5652 102.812 74.8262 92.0209 74.8262 92.0209L65.0342 86.695L54.1204 103.343L46.4704 90.0827C46.4704 90.0827 42.5943 82.3308 37.3923 80.9027C32.1903 79.4749 27.5682 78.1487 27.5682 78.1487L10.8539 76.0642Z" fill="#33427F"/>
<path d="M29.8188 80.3437L37.8795 90.6173C38.2525 91.098 38.3051 91.7541 38.0138 92.2884L35.3519 97.1654L39.5818 99.8897C40.0552 100.195 40.3229 100.735 40.2785 101.296L38.5585 123.142" stroke="#6A75C2" stroke-width="1.33333" stroke-miterlimit="10" stroke-linecap="round" stroke-linejoin="round"/>
<path d="M9.11079 79.5003L6.07848 89.8404C5.82916 90.6305 6.05722 91.4931 6.66478 92.0564L12.2427 97.2278L8.56213 101.085C7.93024 101.747 7.78918 102.738 8.21054 103.55L11.3198 109.543" stroke="#6A75C2" stroke-width="1.33333" stroke-miterlimit="10" stroke-linecap="round" stroke-linejoin="round"/>
<path d="M27.5669 78.1487L10.8535 76.0643C10.8535 76.0643 14.4594 87.1922 17.6758 102.598L20.5981 98.9567C23.775 104.826 30.1208 107.219 30.1208 107.219L21.2863 124.264L21.2847 124.259C22.0302 130.447 22.5228 136.796 22.5932 143.021H38.9189C37.7362 134.344 31.7365 91.221 27.5669 78.1487Z" fill="#DCDBF1"/>
<path d="M22.5933 143.021H38.919C38.6314 140.91 38.058 136.757 37.296 131.498H22.0254C22.347 135.342 22.5502 139.205 22.5933 143.021Z" fill="#202F57"/>
<path d="M30.1209 107.219C30.1209 107.219 29.8439 99.3803 22.0051 97.1654L20.5981 98.9568C20.5981 98.9568 23.3087 104.771 30.1209 107.219Z" fill="#151E34"/>
<path d="M20.5981 98.9567L24.5284 93.9536C24.5284 93.9536 27.2812 88.673 29.7292 88.7113C32.1772 88.7495 32.9039 87.296 33.4777 87.6403C34.0514 87.9845 33.8984 89.3233 33.0187 89.9735C33.0187 89.9735 40.9823 87.7648 41.747 88.6038C42.8688 89.8352 35.7601 92.6329 35.7601 92.6329C35.7601 92.6329 36.9841 94.4689 35.5049 95.8258C35.5049 95.8258 35.6579 97.7 34.3957 98.618C34.3957 98.618 34.5487 100.263 33.1717 101.066C31.7947 101.869 27.5872 104.083 27.5872 104.083L26.9431 105.567C22.4745 102.833 20.5981 98.9567 20.5981 98.9567Z" fill="#D26353"/>
<path d="M28.6711 54.7526C28.6711 54.7526 31.4634 59.4956 27.3324 62.6321L25.542 56.006L28.6711 54.7526Z" fill="#231311"/>
<path d="M13.1629 73.9923L10.8538 76.0643C10.1377 76.7075 9.95291 77.7561 10.4119 78.6019C11.5634 80.724 13.9875 84.6133 17.2305 86.695L22.5895 82.5986L28.0081 85.1867C28.0081 85.1867 29.0657 80.1888 27.5681 78.1487L24.5286 74.2218L13.1629 73.9923Z" fill="white"/>
<path d="M13.1638 73.9712L13.5243 65.3861L24.3491 65.8068L24.6168 77.1288L22.5896 82.5986C22.5896 82.5986 17.2428 79.7488 14.2217 76.7016C13.5044 75.978 13.1213 74.989 13.1638 73.9712Z" fill="#D26353"/>
<path d="M22.6085 96.3976L24.5284 93.9536C24.5284 93.9536 25.3188 92.438 26.4289 91.0365L25.611 87.0227L25.9143 84.3376C25.9534 83.9915 25.843 83.6485 25.6135 83.3865C25.0994 82.8008 24.0216 81.9015 22.3469 82.0759C20.655 82.2519 20.1302 83.4184 19.9674 84.1222C19.8971 84.4263 19.9439 84.7446 20.1006 85.0148L21.7349 87.8388L22.6085 96.3976Z" fill="#6A75C2"/>
<path d="M21.7349 87.8388C21.7349 87.8388 23.622 86.3088 25.611 87.0227" stroke="#A5B0E0" stroke-width="1.33333" stroke-miterlimit="10" stroke-linecap="round" stroke-linejoin="round"/>
<path d="M29.8383 107.764L24.7676 117.548L25.7642 127.313H33.8221L29.8383 107.764Z" fill="#6A75C2"/>
<path d="M29.9717 67.2221L27.6107 56.2667C26.1064 57.099 24.1975 56.797 21.7098 56.1296C18.5733 55.2881 16.2783 55.9766 16.2783 55.9766C16.2783 55.9766 18.1143 58.0421 17.2728 60.5666C16.6779 62.3515 15.3024 63.5972 14.5454 64.1765V64.1762C14.5389 64.0333 14.523 63.8883 14.5004 63.742C14.4961 63.7135 14.4912 63.6851 14.4863 63.6563C14.4606 63.5113 14.43 63.3653 14.3878 63.219C14.3599 63.1226 14.3284 63.0284 14.2948 62.9363C14.2837 62.9063 14.2715 62.8778 14.2602 62.8485C14.236 62.7863 14.2109 62.7251 14.184 62.6655C14.1693 62.6324 14.154 62.6003 14.1384 62.5679C14.1121 62.5128 14.0845 62.4589 14.0558 62.4057C14.0389 62.3745 14.0224 62.343 14.0047 62.3124C13.9735 62.2576 13.9404 62.2046 13.9068 62.1523C13.8905 62.1266 13.8749 62.1003 13.8581 62.0755C13.8091 62.0027 13.7583 61.9326 13.7054 61.865C13.6852 61.8393 13.6638 61.8154 13.6433 61.7903C13.6081 61.7481 13.5732 61.7065 13.5371 61.6667C13.5096 61.6364 13.4811 61.6076 13.4526 61.5786C13.422 61.5474 13.3911 61.5164 13.3593 61.4868C13.3278 61.4568 13.296 61.4277 13.2635 61.3999C13.2342 61.3745 13.2045 61.3503 13.1745 61.3261C13.1396 61.2983 13.1047 61.2698 13.0689 61.2438C13.0429 61.2245 13.0163 61.2077 12.9897 61.1896C12.8988 61.1275 12.8058 61.0712 12.7109 61.0223C12.7036 61.0186 12.6968 61.0143 12.6895 61.0106C12.6439 60.9877 12.5974 60.9681 12.5509 60.9482C12.5282 60.9384 12.5056 60.9283 12.4826 60.9194C12.437 60.9017 12.3911 60.8861 12.3449 60.8714C12.3214 60.8641 12.2975 60.8567 12.2739 60.8503C12.2268 60.8371 12.1797 60.8252 12.1326 60.8154C12.1111 60.8111 12.0897 60.8077 12.068 60.8041C12.0178 60.7955 11.9676 60.7869 11.9174 60.7824C11.9171 60.7824 11.9171 60.7824 11.9171 60.7824C11.6892 60.7609 11.4603 60.7781 11.2357 60.8429C9.9771 61.2052 9.34796 62.8567 9.83022 64.5315C10.3122 66.2062 11.7234 67.2702 12.9823 66.9076C13.1225 66.8672 13.2534 66.8084 13.3777 66.7377C13.8 68.2114 14.2336 69.4679 14.6335 70.1674C16.1635 72.8449 23.8517 74.3366 27.4472 72.8066C31.0427 71.2766 29.9717 67.2221 29.9717 67.2221Z" fill="#D26353"/>
<path d="M21.7098 56.1296C18.5733 55.2881 16.2783 55.9766 16.2783 55.9766C16.2783 55.9766 16.8187 56.5892 17.1789 57.551C18.2226 57.4579 19.9283 57.4038 22.0541 57.6978C25.6496 58.1951 27.6107 56.2667 27.6107 56.2667C26.1064 57.099 24.1976 56.797 21.7098 56.1296Z" fill="#B04637"/>
<path d="M23.2395 46.5288C15.8955 45.7256 11.9558 53.5286 11.9558 53.5286C11.9558 53.5286 10.8083 53.2991 9.20177 54.5613C7.59533 55.8236 9.20177 59.0366 9.20177 59.0366L10.5629 61.2049C10.7602 61.0403 10.9848 60.9151 11.2354 60.8429C12.4943 60.4803 13.9056 61.5442 14.3875 63.219C14.4806 63.5421 14.5314 63.864 14.5451 64.1765C15.3022 63.5972 16.6777 62.3515 17.2725 60.5666C18.114 58.0421 16.278 55.9766 16.278 55.9766C16.278 55.9766 18.573 55.2881 21.7095 56.1296C24.846 56.9711 27.0645 57.2388 28.7093 55.3738C30.354 53.509 30.5835 47.3321 23.2395 46.5288Z" fill="#231311"/>
<path d="M13.4094 64.5663L11.0762 62.4026" stroke="#B04637" stroke-width="1.33333" stroke-miterlimit="10" stroke-linecap="round" stroke-linejoin="round"/>
<path d="M12.2429 63.6266L11.4204 64.1765" stroke="#B04637" stroke-width="1.33333" stroke-miterlimit="10" stroke-linecap="round" stroke-linejoin="round"/>
<path d="M24.5283 73.3999C24.5283 73.3999 18.7021 73.5725 16.6675 71.8699C16.6675 71.8699 18.0907 74.5278 24.5283 74.8721V73.3999Z" fill="#B04637"/>
<path d="M62.124 91.1342C62.124 91.1342 68.2829 96.0087 73.3141 97.2278" stroke="#6A75C2" stroke-width="1.33333" stroke-miterlimit="10" stroke-linecap="round" stroke-linejoin="round"/>
<path d="M48.3062 130.373L42.4922 107.219" stroke="#6A75C2" stroke-width="1.33333" stroke-miterlimit="10" stroke-linecap="round" stroke-linejoin="round"/>
<path d="M54.1204 103.343C54.1204 103.343 49.9383 108.545 50.4484 114.767" stroke="#6A75C2" stroke-width="1.33333" stroke-miterlimit="10" stroke-linecap="round" stroke-linejoin="round"/>
<path d="M-1.06201 126.293C-1.06201 126.293 0.0600281 118.337 6.99595 113.135C13.9319 107.933 17.6758 102.598 17.6758 102.598" stroke="#6A75C2" stroke-width="1.33333" stroke-miterlimit="10" stroke-linecap="round" stroke-linejoin="round"/>
<path d="M7.50635 143.021C7.50635 143.021 15.4246 135.559 21.2851 124.259" stroke="#6A75C2" stroke-width="1.33333" stroke-miterlimit="10" stroke-linecap="round" stroke-linejoin="round"/>
<path d="M4.5178 115.344L3.52832 106.505" stroke="#6A75C2" stroke-width="1.33333" stroke-miterlimit="10" stroke-linecap="round" stroke-linejoin="round"/>
<path d="M15.8994 104.826C15.8994 104.826 21.0638 111.616 26.5758 114.058" stroke="#6A75C2" stroke-width="1.33333" stroke-miterlimit="10" stroke-linecap="round" stroke-linejoin="round"/>
<path d="M33.0186 89.9735L30.6006 90.8872" stroke="#B04637" stroke-width="1.33333" stroke-miterlimit="10" stroke-linecap="round" stroke-linejoin="round"/>
<path d="M35.76 92.6329L32.6489 93.7455" stroke="#B04637" stroke-width="1.33333" stroke-miterlimit="10" stroke-linecap="round" stroke-linejoin="round"/>
<path d="M35.5051 95.8257L32.4629 96.5773" stroke="#B04637" stroke-width="1.33333" stroke-miterlimit="10" stroke-linecap="round" stroke-linejoin="round"/>
<path d="M34.3959 98.618L32.2686 99.3802" stroke="#B04637" stroke-width="1.33333" stroke-miterlimit="10" stroke-linecap="round" stroke-linejoin="round"/>
<path d="M32.6492 93.1684L32.2686 100.13" stroke="#B04637" stroke-width="1.33333" stroke-miterlimit="10" stroke-linecap="round" stroke-linejoin="round"/>
<path d="M74.826 80.8008L74.061 83.4529" stroke="#B04637" stroke-width="1.33333" stroke-miterlimit="10" stroke-linecap="round" stroke-linejoin="round"/>
<path d="M25.2362 59.9417C25.2362 59.9417 25.4584 61.6758 26.0704 63.0017C26.6824 64.3276 27.6876 64.9396 27.1267 65.8576C26.5658 66.7756 24.7041 66.7248 24.7041 66.7248" stroke="#B04637" stroke-width="1.33333" stroke-miterlimit="10" stroke-linecap="round" stroke-linejoin="round"/>
<path d="M21.0213 67.0816L24.8867 67.9488C24.8867 67.9488 24.4657 69.8405 22.2453 69.4277C20.5985 69.1217 21.0213 67.0816 21.0213 67.0816Z" fill="white"/>
<path d="M22.4234 60.9362C22.4234 61.2603 22.218 61.5228 21.9644 61.5228C21.711 61.5228 21.5054 61.2603 21.5054 60.9362C21.5054 60.6125 21.711 60.3496 21.9644 60.3496C22.218 60.3496 22.4234 60.6125 22.4234 60.9362Z" fill="#231311"/>
<path d="M27.2906 60.7196C27.2906 61.0437 27.0849 61.3059 26.8316 61.3059C26.5782 61.3059 26.3726 61.0437 26.3726 60.7196C26.3726 60.3956 26.5782 60.133 26.8316 60.133C27.0849 60.133 27.2906 60.3956 27.2906 60.7196Z" fill="#231311"/>
<path d="M19.2489 59.2786C19.4007 58.9289 19.6424 58.6789 19.9102 58.4784C20.1767 58.2725 20.4827 58.1299 20.8052 58.0381C21.1268 57.9463 21.4723 57.9154 21.8141 57.9604C22.1544 57.9968 22.4986 58.1204 22.7841 58.3612L22.797 58.3719C22.8089 58.382 22.8105 58.4001 22.8004 58.412C22.7942 58.4191 22.7857 58.4224 22.7774 58.4221C22.472 58.408 22.1669 58.4065 21.8643 58.4435C21.5623 58.4815 21.2618 58.5384 20.9702 58.6274C20.6761 58.7073 20.3866 58.8065 20.1048 58.9255C19.8248 59.047 19.5473 59.1789 19.2826 59.3297C19.2691 59.3377 19.2517 59.3331 19.244 59.3193C19.2394 59.3114 19.2391 59.3019 19.2425 59.2942L19.2489 59.2786Z" fill="#231311"/>
<path d="M25.5352 58.5097C25.7053 58.2523 25.9259 58.1128 26.1539 58.0243C26.3828 57.9301 26.6267 57.9038 26.8684 57.9261C27.1095 57.9485 27.3522 58.0292 27.5633 58.174C27.776 58.3108 27.9623 58.5198 28.0477 58.8086L28.0538 58.8303C28.0581 58.8444 28.0502 58.8591 28.0361 58.8634C28.0297 58.8652 28.0229 58.8646 28.0174 58.8619C27.8256 58.7743 27.6316 58.6948 27.4284 58.6409C27.2258 58.5883 27.0189 58.5491 26.8093 58.5351C26.6006 58.5121 26.3895 58.5038 26.1787 58.5112C25.9688 58.5213 25.7567 58.5378 25.5492 58.569C25.5348 58.5712 25.5211 58.5614 25.5189 58.5467C25.5177 58.54 25.5195 58.5332 25.5229 58.528L25.5352 58.5097Z" fill="#231311"/>
<path d="M135.873 76.5L151.581 81.6677C151.581 81.6677 157.14 84.0649 158.874 91.9187C160.608 99.7728 162.444 123.284 159.69 127.874C156.936 132.464 153.519 131.75 153.519 131.75L155.049 143.174H100.683L102.774 129.506C102.774 129.506 91.6051 127.364 95.4304 115.124C98.5693 105.079 102.57 85.4927 102.57 85.4927C102.57 85.4927 105.12 79.2708 110.73 78.7607C116.34 78.2509 120.624 77.0787 120.624 77.0787L135.873 76.5Z" fill="#33427F"/>
<path d="M135.873 76.5L122.025 77.0254C121.928 77.1576 121.83 77.2843 121.734 77.4205C120.415 79.291 119.266 82.8798 118.27 87.4505C119.693 89.1005 121.883 91.0757 124.526 91.5873C124.526 91.5873 120.012 105.357 118.023 113.16C117.078 116.868 115.786 120.694 113.781 123.733C112.975 134.447 112.286 143.174 112.286 143.174H129.454C127.866 121.575 135.873 76.5 135.873 76.5Z" fill="#DCDBF1"/>
<path d="M113.33 129.684C112.734 137.499 112.286 143.174 112.286 143.174H129.454C129.169 139.301 129.194 134.672 129.425 129.684H113.33Z" fill="#202F57"/>
<path d="M150.306 119.357C146.736 111.605 142.656 112.829 133.986 112.115C128.075 111.628 122.096 110.57 118.887 109.945C118.568 111.086 118.275 112.171 118.023 113.16C117.319 115.925 116.42 118.756 115.178 121.277C128.57 128.469 149.592 130.679 149.592 130.679C149.592 130.679 153.876 127.109 150.306 119.357Z" fill="#33427F"/>
<path d="M134.81 74.5854L136.336 76.239C136.912 76.843 137.1 77.7204 136.817 78.5059C135.931 80.9618 132.934 85.3284 130.11 87.278L125.112 83.3507L120.216 86.0029C120.216 86.0029 119.451 82.2798 120.339 77.9474C120.526 77.0331 121.029 76.2124 121.763 75.6362L122.749 74.8617L134.81 74.5854Z" fill="white"/>
<path d="M126.407 84.0371C125.64 83.2822 124.438 83.1971 123.572 83.8366L121.801 85.1445L122.724 87.2779L122.353 89.8143L124.526 91.5873C124.526 91.5873 122.045 99.1574 119.951 106.253L119.377 110.177L125.772 111.135L126.668 87.6665L128.075 85.6781L126.407 84.0371Z" fill="#6A75C2"/>
<path d="M124.525 91.5874C124.525 91.5874 120.012 105.357 118.023 113.16C116.034 120.963 112.515 129.302 104.023 129.684" stroke="#6A75C2" stroke-width="1.33333" stroke-miterlimit="10" stroke-linecap="round" stroke-linejoin="round"/>
<path d="M98.1274 111.092L116.493 85.0338" stroke="#6A75C2" stroke-width="1.33333" stroke-miterlimit="10" stroke-linecap="round" stroke-linejoin="round"/>
<path d="M122.723 87.2779C122.723 87.2779 124.793 86.4618 126.667 87.6666" stroke="#A5B0E0" stroke-width="1.33333" stroke-miterlimit="10" stroke-linecap="round" stroke-linejoin="round"/>
<path d="M122.45 77.0483L123.48 69.5296L135.542 68.1101L134.797 74.6992C134.759 75.0355 134.664 75.3632 134.511 75.6649C133.759 77.1475 131.087 81.5416 125.112 83.3507C125.112 83.3507 122.103 79.9339 122.45 77.0483Z" fill="#B04637"/>
<path d="M122.154 58.1057C122.154 58.1057 118.125 56.7288 119.145 52.2406L119.859 51.2039C119.859 51.2039 119.286 49.3336 120.567 48.1607C121.848 46.9878 123.531 47.8547 123.531 47.8547C123.531 47.8547 123.99 45.7639 126.489 45.9169C128.988 46.0699 129.141 47.2939 129.141 47.2939C129.141 47.2939 130.722 45.5598 133.119 46.6819C135.516 47.8037 135.312 49.6396 135.312 49.6396C135.312 49.6396 137.046 48.5179 138.525 49.9967C140.004 51.4756 139.392 52.6489 139.392 52.6489C139.392 52.6489 140.718 52.2918 141.636 54.0259C142.554 55.7597 141.432 58.8708 138.729 59.0749L136.128 64.0727C136.128 64.0727 136.485 72.0287 129.855 74.1196C123.225 76.2109 117.768 73.6606 117.564 69.2236C117.36 64.7866 121.899 61.8289 121.899 61.8289L122.154 58.1057Z" fill="#231311"/>
<path d="M122.205 55.3517L119.451 65.3986C119.451 65.3986 123.327 63.9708 126.642 66.5207C129.957 69.0706 131.13 68.2548 132.303 66.1636C132.85 65.1884 133.309 64.1581 133.642 63.3368C134.012 62.4255 133.986 61.4096 133.602 60.5045C133.209 59.5791 132.785 58.1868 132.813 56.5246C132.813 56.5246 130.722 56.4227 130.212 55.3517C130.212 55.3517 127.611 56.6268 125.367 54.9946C125.367 54.9946 124.143 56.1678 122.205 55.3517Z" fill="#D26353"/>
<path d="M132.813 56.5247C132.813 56.5247 130.722 56.4228 130.212 55.3518C130.212 55.3518 127.611 56.6269 125.367 54.9947C125.367 54.9947 124.143 56.1679 122.205 55.3518L122.098 55.7434C122.717 56.1272 123.859 56.5118 125.673 55.9766C125.673 55.9766 127.563 57.1624 129.755 56.5504C129.755 56.5504 131.134 57.6657 132.921 58.0886C132.848 57.6015 132.804 57.0797 132.813 56.5247Z" fill="#B04637"/>
<path d="M138.675 59.352C137.82 58.9714 136.731 59.4604 135.962 60.4741C135.617 60.9282 135.525 61.5289 135.699 62.0718C136.19 63.6064 136.099 65.1391 136.099 65.1391C137.179 65.6201 138.631 64.7144 139.342 63.1161C140.054 61.5179 139.755 59.8328 138.675 59.352Z" fill="#D26353"/>
<path d="M116.493 85.0337C116.493 85.0337 124.704 88.1959 124.526 91.5873C124.526 91.5873 119.502 90.8223 116.493 85.0337Z" fill="#151E34"/>
<path d="M116.76 85.5723L117.986 83.6574C117.986 83.6574 116.815 79.0508 117.986 76.7864C119.157 74.5217 117.762 71.9792 117.986 71.6233C118.209 71.2671 119.866 71.7904 120.592 74.2292C121.318 76.668 121.734 77.4205 121.734 77.4205C121.734 77.4205 133.241 72.7065 135.144 73.4969C137.047 74.2877 133.153 76.0444 133.153 76.0444L131.123 77.5836C131.123 77.5836 130.547 79.7629 129.581 80.9343C128.614 82.1056 124.486 87.654 124.486 87.654L123.651 91.4013C123.651 91.4013 118.967 89.6749 116.76 85.5723Z" fill="#D26353"/>
<path d="M103.303 103.688C103.303 103.688 100.97 102.639 97.9905 102.45C97.9905 102.45 92.8929 105.549 93.2754 107.04C93.2754 107.04 93.4284 107.844 94.0786 107.882C94.0786 107.882 93.033 109.335 94.0786 110.483C94.0786 110.483 93.5431 111.605 94.6322 112.727C94.6322 112.727 93.7726 115.047 95.355 115.682C95.355 115.682 100.234 107.464 103.303 103.688Z" fill="#D26353"/>
<path d="M94.0786 107.882C94.0786 107.882 95.7699 106.056 97.4189 104.986" stroke="#B04637" stroke-width="1.33333" stroke-miterlimit="10" stroke-linecap="round" stroke-linejoin="round"/>
<path d="M94.0786 110.483C94.0786 110.483 95.9568 108.597 97.9905 107.415" stroke="#B04637" stroke-width="1.33333" stroke-miterlimit="10" stroke-linecap="round" stroke-linejoin="round"/>
<path d="M133.153 76.0444C133.153 76.0444 127.59 77.9183 124.486 79.851" stroke="#B04637" stroke-width="1.33333" stroke-miterlimit="10" stroke-linecap="round" stroke-linejoin="round"/>
<path d="M133.153 76.0444L126.009 81.4612" stroke="#B04637" stroke-width="1.33333" stroke-miterlimit="10" stroke-linecap="round" stroke-linejoin="round"/>
<path d="M112.637 90.505C112.637 90.505 115.235 95.6094 122.723 97.2064" stroke="#6A75C2" stroke-width="1.33333" stroke-miterlimit="10" stroke-linecap="round" stroke-linejoin="round"/>
<path d="M129.581 126.781C129.581 126.781 142.413 130.38 149.592 130.679" stroke="#6A75C2" stroke-width="1.33333" stroke-miterlimit="10" stroke-linecap="round" stroke-linejoin="round"/>
<path d="M130.576 111.776L140.54 112.52C140.54 112.52 148.66 113.353 149.534 117.834" stroke="#6A75C2" stroke-width="1.33333" stroke-miterlimit="10" stroke-linecap="round" stroke-linejoin="round"/>
<path d="M144.084 113.104L145.002 98.2428" stroke="#6A75C2" stroke-width="1.33333" stroke-miterlimit="10" stroke-linecap="round" stroke-linejoin="round"/>
<path d="M139.904 81.2219L141.667 88.0023C141.896 89.1222 141.571 90.2706 140.766 91.1957L136.225 96.4069L139.33 100.802C140.224 102.067 140.268 103.618 139.447 104.916L135.974 112.156" stroke="#6A75C2" stroke-width="1.33333" stroke-miterlimit="10" stroke-linecap="round" stroke-linejoin="round"/>
<path d="M107.832 97.323L108.231 93.0154" stroke="#6A75C2" stroke-width="1.33333" stroke-miterlimit="10" stroke-linecap="round" stroke-linejoin="round"/>
<path d="M94.6323 112.727L98.1275 110.177" stroke="#B04637" stroke-width="1.33333" stroke-miterlimit="10" stroke-linecap="round" stroke-linejoin="round"/>
<path d="M123.608 59.7251C123.008 60.4818 120.411 63.3362 120.701 64.2004C120.99 65.0645 122.293 65.0042 122.293 65.0042" stroke="#B04637" stroke-width="1.33333" stroke-miterlimit="10" stroke-linecap="round" stroke-linejoin="round"/>
<path d="M122.001 67.8341C122.001 67.8341 123.646 68.4079 124.717 67.8341" stroke="white" stroke-width="1.33333" stroke-miterlimit="10" stroke-linecap="round" stroke-linejoin="round"/>
<path d="M122.723 59.908C122.609 60.211 122.324 60.3845 122.087 60.2951C121.85 60.2061 121.75 59.8878 121.864 59.5846C121.978 59.2817 122.263 59.1082 122.5 59.1972C122.737 59.2865 122.837 59.6048 122.723 59.908Z" fill="#231311"/>
<path d="M127.016 60.4421C126.938 60.7563 126.674 60.9613 126.429 60.9001C126.183 60.8389 126.047 60.5345 126.125 60.2202C126.203 59.9056 126.466 59.7006 126.712 59.7618C126.958 59.8233 127.094 60.1278 127.016 60.4421Z" fill="#231311"/>
<path d="M136.421 62.9763L138.334 60.7425" stroke="#B04637" stroke-width="1.33333" stroke-miterlimit="10" stroke-linecap="round" stroke-linejoin="round"/>
<path d="M137.531 61.6807L138.334 62.4791" stroke="#B04637" stroke-width="1.33333" stroke-miterlimit="10" stroke-linecap="round" stroke-linejoin="round"/>
<path d="M125.511 58.2159C125.773 57.9674 126.075 57.8475 126.381 57.7832C126.688 57.7144 127.006 57.718 127.319 57.7829C127.63 57.853 127.939 57.9855 128.198 58.1991C128.456 58.412 128.668 58.7076 128.715 59.062L128.718 59.0797C128.72 59.095 128.709 59.1091 128.694 59.1112C128.685 59.1125 128.677 59.1094 128.671 59.1039C128.465 58.9148 128.234 58.7596 127.985 58.6357C127.732 58.521 127.465 58.438 127.192 58.3811C126.919 58.3211 126.641 58.2863 126.361 58.2704C126.081 58.2584 125.798 58.2563 125.519 58.2768C125.504 58.2777 125.491 58.2661 125.489 58.2508C125.489 58.2419 125.492 58.2339 125.498 58.2284L125.511 58.2159Z" fill="#231311"/>
<path d="M121.522 57.6666C121.592 57.3918 121.777 57.2253 121.976 57.1283C122.178 57.024 122.409 56.9998 122.624 57.0381C122.838 57.0821 123.043 57.1755 123.19 57.3392C123.343 57.4913 123.45 57.6966 123.462 57.968L123.463 57.9949C123.464 58.0087 123.453 58.02 123.439 58.0206C123.434 58.021 123.429 58.0197 123.425 58.017C123.282 57.9307 123.139 57.8468 122.988 57.7807C122.837 57.7113 122.677 57.67 122.517 57.6403C122.197 57.5754 121.856 57.6069 121.551 57.7205C121.537 57.7257 121.522 57.7186 121.517 57.7049C121.515 57.6996 121.515 57.6944 121.516 57.6892L121.522 57.6666Z" fill="#231311"/>
<path d="M226.959 69.6826C219.207 67.7447 221.859 63.3077 221.4 57.8508C220.941 52.3936 216.81 51.5267 213.546 51.5778C211.596 51.6084 207.807 51.2382 205.073 50.9352L201.867 50.5576C201.867 50.5576 201.306 47.8036 197.583 48.7727C193.86 49.7418 192.483 60.5026 201.51 61.5736H205.794L205.589 58.5359C208.172 61.0797 211.149 62.3897 211.149 62.3897C211.047 64.9396 213.546 66.9286 213.546 66.9286C213.546 66.9286 202.326 67.7958 199.521 68.1526C196.716 68.5097 190.392 69.4788 188.862 76.4657C187.332 83.4529 194.472 86.3088 194.472 86.3088L209.415 87.0738C209.415 87.0738 230.784 89.9808 233.538 83.9119C236.292 77.8427 234.711 71.6208 226.959 69.6826Z" fill="#231311"/>
<path d="M232.008 83.759L222.374 79.3948C221.699 77.3715 219.253 73.2295 210.639 74.4768C207.227 74.9709 204.931 77.1304 203.488 79.1638C201.018 79.8826 196.889 81.0426 194.37 81.5279C190.596 82.2547 188.647 86.819 188.647 86.819C188.647 86.819 174.072 110.789 174.378 118.14C174.684 125.491 189.372 122.927 189.372 122.927C187.638 127.925 182.844 142.919 182.844 142.919H234.797L229.254 116.195C229.254 116.195 235.986 95.999 236.598 90.5929C237.21 85.1868 232.008 83.759 232.008 83.759Z" fill="#70B2C6"/>
<path d="M205.539 78.5569L204.06 71.7227L212.883 67.6428L216.886 76.104C217.199 76.7653 217.265 77.5168 217.071 78.2222L213.495 91.2559H200.643L205.539 78.5569Z" fill="#D26353"/>
<path d="M210.053 68.9516L204.06 71.7227L205.234 77.1475C205.234 77.1475 210.354 75.2943 210.053 68.9516Z" fill="#B04637"/>
<path d="M213.546 66.9286C213.546 66.9286 211.047 64.9396 211.149 62.3897C211.149 62.3897 204.9 59.6391 202.658 54.3676C202.65 54.3735 202.64 54.3771 202.632 54.3826C202.632 54.3826 198.246 61.3187 198.552 67.5406C198.858 73.7628 202.122 78.0468 207.834 74.2726C210.5 72.5119 212.431 69.7772 213.704 67.1376C213.602 67.0039 213.546 66.9286 213.546 66.9286Z" fill="#D26353"/>
<path d="M202.658 54.3676C202.65 54.3734 202.64 54.3771 202.632 54.3826C202.632 54.3826 201.796 55.7061 200.879 57.715C202.836 59.5809 206.41 62.2101 211.149 62.3897C211.149 62.3897 204.9 59.6391 202.658 54.3676Z" fill="#B04637"/>
<path d="M216.616 67.7967C215.541 69.0737 213.826 69.3986 212.785 68.5223C211.744 67.6462 211.772 65.9004 212.847 64.6235C213.922 63.3466 215.638 63.0219 216.679 63.8983C217.719 64.7744 217.691 66.5201 216.616 67.7967Z" fill="#D26353"/>
<path d="M200.643 91.256C200.643 91.256 195.288 102.935 194.676 108.239C194.064 113.543 193.758 142.919 193.758 142.919H211.722C211.722 142.919 206.61 110.177 208.344 105.179C210.078 100.181 213.495 91.256 213.495 91.256H200.643Z" fill="white"/>
<path d="M193.758 142.919H211.722C211.722 142.919 210.46 134.836 209.403 126.089H194.017C193.844 134.646 193.758 142.919 193.758 142.919Z" fill="#6A75C2"/>
<path d="M189.372 122.927L199.47 121.091L220.38 123.641C220.38 123.641 226.503 124.738 229.254 116.195L214.872 105.979L190.494 107.321L189.372 122.927Z" fill="#70B2C6"/>
<path d="M209.007 112.082L216.02 108.723L216.555 106.255C216.555 106.255 212.877 105.151 209.715 106.574C209.715 106.574 208.555 110.659 209.007 112.082Z" fill="#D26353"/>
<path d="M189.372 122.927L199.47 121.091L220.38 123.641C220.38 123.641 226.503 124.738 229.254 116.195" stroke="#6A75C2" stroke-width="1.33333" stroke-miterlimit="10" stroke-linecap="round" stroke-linejoin="round"/>
<path d="M181.518 112.462C181.518 112.462 184.645 106.84 194.863 107.08" stroke="#6A75C2" stroke-width="1.33333" stroke-miterlimit="10" stroke-linecap="round" stroke-linejoin="round"/>
<path d="M194.863 91.8933L191.173 97.9423C190.012 99.8453 189.583 102.106 189.967 104.302L190.494 107.321" stroke="#6A75C2" stroke-width="1.33333" stroke-miterlimit="10" stroke-linecap="round" stroke-linejoin="round"/>
<path d="M199.47 121.091L209.874 118.14C209.874 118.14 207.834 109.982 209.874 106.255" stroke="#6A75C2" stroke-width="1.33333" stroke-miterlimit="10" stroke-linecap="round" stroke-linejoin="round"/>
<path d="M214.731 128.078H231.718L232.558 132.126L226.194 134.504L214.731 132.515V128.078Z" stroke="#6A75C2" stroke-width="1.33333" stroke-miterlimit="10" stroke-linecap="round" stroke-linejoin="round"/>
<path d="M215.405 110.971L220.278 93.1427" stroke="#6A75C2" stroke-width="1.33333" stroke-miterlimit="10" stroke-linecap="round" stroke-linejoin="round"/>
<path d="M213.546 66.9286L215.79 64.5829" stroke="#B04637" stroke-width="1.33333" stroke-miterlimit="10" stroke-linecap="round" stroke-linejoin="round"/>
<path d="M214.668 65.7557L215.79 66.4953" stroke="#B04637" stroke-width="1.33333" stroke-miterlimit="10" stroke-linecap="round" stroke-linejoin="round"/>
<path d="M202.658 54.3676L201.816 51.7816" stroke="#B04637" stroke-width="1.33333" stroke-miterlimit="10" stroke-linecap="round" stroke-linejoin="round"/>
<path d="M222.225 67.0385C223.059 68.5859 224.727 70.7677 227.877 72.1306" stroke="#B04637" stroke-width="1.33333" stroke-miterlimit="10" stroke-linecap="round" stroke-linejoin="round"/>
<path d="M202.02 62.3897C202.02 62.3897 199.049 67.5917 199.521 68.1526C199.993 68.7138 202.02 68.5991 202.02 68.5991" stroke="#B04637" stroke-width="1.33333" stroke-miterlimit="10" stroke-linecap="round" stroke-linejoin="round"/>
<path d="M202.211 70.4351C202.211 70.4351 203.856 71.1823 204.851 69.5847" stroke="#B04637" stroke-width="1.33333" stroke-miterlimit="10" stroke-linecap="round" stroke-linejoin="round"/>
<path d="M200.831 62.7936C200.717 63.0969 200.433 63.2701 200.195 63.181C199.958 63.0917 199.858 62.7738 199.973 62.4705C200.086 62.1673 200.371 61.9941 200.608 62.0831C200.846 62.1725 200.945 62.4904 200.831 62.7936Z" fill="#231311"/>
<path d="M205.678 63.323C205.6 63.6373 205.338 63.8423 205.091 63.7811C204.845 63.7199 204.709 63.4155 204.788 63.1012C204.866 62.7866 205.129 62.5816 205.375 62.6428C205.621 62.7043 205.757 63.0088 205.678 63.323Z" fill="#231311"/>
<path d="M201.025 62.9124C201.025 64.4828 200.067 65.7557 198.885 65.7557C197.703 65.7557 196.745 64.4828 196.745 62.9124C196.745 61.3423 197.703 60.0693 198.885 60.0693C200.067 60.0693 201.025 61.3423 201.025 62.9124Z" stroke="white" stroke-width="1.33333" stroke-miterlimit="10" stroke-linecap="round" stroke-linejoin="round"/>
<path d="M208.148 63.2933C208.148 64.9261 206.964 66.2499 205.503 66.2499C204.042 66.2499 202.858 64.9261 202.858 63.2933C202.858 61.6608 204.042 60.337 205.503 60.337C206.964 60.337 208.148 61.6608 208.148 63.2933Z" stroke="white" stroke-width="1.33333" stroke-miterlimit="10" stroke-linecap="round" stroke-linejoin="round"/>
<path d="M201.026 62.9124C201.026 62.9124 201.942 62.2496 202.858 63.1293" stroke="white" stroke-width="1.33333" stroke-miterlimit="10" stroke-linecap="round" stroke-linejoin="round"/>
<path d="M208.148 63.2933L213.546 63.8561" stroke="white" stroke-width="1.33333" stroke-miterlimit="10" stroke-linecap="round" stroke-linejoin="round"/>
<path d="M-17.3818 143.225H242.454" stroke="#33427F" stroke-width="2.66667" stroke-miterlimit="10" stroke-linecap="round" stroke-linejoin="round"/>
</g>
</g>
<defs>
<clipPath id="clip0_116_163">
<rect width="230" height="153" fill="white"/>
</clipPath>
<clipPath id="clip1_116_163">
<rect width="275.4" height="153" fill="white" transform="translate(-23)"/>
</clipPath>
</defs>
</svg>
