<?xml version="1.0"?>
<svg xmlns:rdf="http://www.w3.org/1999/02/22-rdf-syntax-ns#" xmlns="http://www.w3.org/2000/svg" xmlns:cc="http://creativecommons.org/ns#" xmlns:xlink="http://www.w3.org/1999/xlink" xmlns:dc="http://purl.org/dc/elements/1.1/" id="svg2" viewBox="0 0 1280 904" version="1.1">
  <defs id="defs6">
    <filter id="filter5247" color-interpolation-filters="sRGB">
      <feFlood id="feFlood5249" result="flood" flood-opacity=".734" flood-color="rgb(0,0,0)"/>
      <feComposite id="feComposite5251" operator="in" result="composite1" in2="SourceGraphic" in="flood"/>
      <feGaussianBlur id="feGaussianBlur5253" stdDeviation="4.5" result="blur"/>
      <feOffset id="feOffset5255" result="offset" dx="4.2" dy="4.2"/>
      <feComposite id="feComposite5257" operator="over" result="composite2" in2="offset" in="SourceGraphic"/>
    </filter>
  </defs>
  <path id="path5475" d="m81.308 744.25l847.89-117.68m-847.89 84.29l847.89-102.26m-847.89 68.87l847.89-86.841m-847.89 53.45l847.89-71.423m-847.89 38.03l847.89-56.004m-847.89 22.61l847.89-40.585m-847.89 7.1955l847.89-25.167m-847.89-8.23s847.89-9.7483 847.89-9.7483m-847.89-23.64l847.89 5.6702m-847.89-39.06l847.89 21.089m-847.89-54.48l847.89 36.507m-847.89-69.9l847.89 51.926m-847.89-85.32l847.89 67.345m-847.89-100.74l847.89 82.763m-847.89-116.15s847.89 98.182 847.89 98.182m-847.89-131.57l847.89 113.6m-847.89-146.99l847.89 129.02m-847.89-162.41l847.89 144.44m-847.89-177.83l847.89 159.86m-847.89-193.25l847.89 175.27m-847.89-208.66l847.89 190.69m-847.89 477.11v-667.8m28.262 663.88v-657.52m28.26 653.59v-647.24m28.263 643.32v-636.96m28.27 633.04v-626.68m28.263 622.76v-616.4m28.263 612.48v-606.13m28.263 602.2v-595.85m28.263 591.92v-585.57m28.263 581.64v-575.29m28.263 571.37v-565.01m28.28 561.1v-554.73m28.263 550.81v-544.45m28.263 540.53v-534.17m28.263 530.25v-523.89m28.263 519.97v-513.61m28.263 509.69v-503.33m28.263 499.41v-493.06m28.263 489.13v-482.78m28.263 478.85v-472.5m28.263 468.58v-462.22m28.263 458.3v-451.94m28.263 448.02v-441.66m28.263 437.74v-431.38m28.263 427.46v-421.1m28.263 417.18v-410.82m28.263 406.9v-400.54m28.263 396.62v-390.27m28.263 386.34v-379.99m28.263 376.06v-369.71m28.263 365.78v-359.43" stroke="#000" stroke-width="1.1765" fill="none"/>
  <path id="path5216" style="block-progression:tb;color:#000000;text-transform:none;text-indent:0" d="m-177.48 284.09l-20.796 10.949 5.4956 2.4169s-50.743 83.015-50.743 83.015-29.294-48.788-29.294-48.788-3.8735-6.8907-3.8735-6.8907-4.3819 6.1556-4.3819 6.1556-46.531 71.775-46.531 71.775-35.225-56.414-35.225-56.414-3.123-5.3329-3.123-5.3329l-4.3577 4.2724s-75.849 83.68-75.849 83.68l6.8513 5.8064s71.491-79.218 71.491-79.218l36.218 57.829s4.0672 6.1542 4.0672 6.1542l4.0672-6.7784 46.168-71.537 29.802 49.465s4.4304 6.8956 4.4304 6.8956l4.0188-7.3693s54.786-89.054 54.786-89.054l5.0598 2.1385s1.7189-19.172 1.7189-19.172" transform="matrix(2.353 0 0 2.353 1239 -354.05)" filter="url(#filter5247)" fill="#f00"/>
  <path id="rect3331" stroke-linejoin="round" d="m80.816 75.757 848.87 191.18v359.87l-848.87 118.08z" stroke="#b3b3b3" stroke-linecap="round" stroke-width="12.954" fill="none"/>
  <path id="path28-2" d="m839.9 528.18 6.9452-6.134 2.3788-2.1419-0.2006-0.62928 0.73843-3.8918 3.8918-14.091s3.3997-5.8332 4.3749-6.5715c0.96622-0.71967 0.72923-2.9166 0.72923-2.9166l0.72924-13.845 3.3905-4.6028 0.48277-2.9257 0.4921-11.913 3.1627-12.633s-0.97529-3.6367-0.97529-4.6028c0-0.97523-1.9506-12.15-1.9506-12.15l1.2123-8.996 4.138-16.032 1.2214-4.3658-1.2214-8.0025-0.98435-13.881 2.6797-11.402s1.431-1.3854 3.1263-3.0534l-0.14541-0.1093 0.28217-0.022c2.4428-2.4244 5.4505-5.3866 5.7331-5.815 0.49225-0.71968 11.648-9.716 11.648-9.716l8.9959-4.1289 1.9598-1.9505-0.23713-5.3411c-0.7383 0-3.1718-3.3997-2.6887-5.3411 0.49224-1.9323 0.49224-4.384 0.73829-5.5963 0.22752-1.2031 0.46451-2.6705-0.24578-3.8737-0.73829-1.2213-0.97515-1.9687-0.73829-3.901 0.24578-1.9323 1.4493-3.6549 1.4493-3.6549s-0.23699-1.9231 0.74749-3.6184c0.97515-1.7226 2.9164-2.9257 2.9164-2.9257l-0.22738-5.8424 0.7015-8.9778 1.9687-13.599 4.3566-9.479 8.03-5.5963 8.4946-1.6953 10.445-2.4427 7.7838 3.664 8.9868 0.22749 3.6276 4.3749s2.4427 2.6888 2.6887 3.3997c0.23699 0.74739 1.2031 3.8919 1.2031 3.8919l-0.96609 1.2213-0.10023-0.13703 0.57463 1.5768 4.8671 11.676 0.72924 7.0455-1.2123 1.4492 0.7383 3.6458 5.0858 6.0885 0.74736 4.8489-2.1874 0.49218-3.1718 0.71092 0.97515 2.6979-0.97515 1.6771 0.47384 2.4336-0.22738 9.4973-2.4336 2.1784-11.639 2.2422 4.612 6.2616-4.2748-5.8332 5.9426 0.4827 8.7591-0.96616s6.8175-1.9505 7.5468-1.9505c0.7291 0 4.6028 2.1966 5.341 2.4244 0.72041 0.24572 3.1536 1.9596 3.1536 1.9596l6.5624 0.96614s4.621-0.72915 6.0702-1.7044c1.4492-0.97526 4.6028-1.4492 4.6028-1.4492s5.3593-1.7044 7.0728-3.1627c1.6862-1.4492 4.0924-5.3411 4.0924-5.3411s6.0976-0.73827 7.0637-0.73827c0.9662 0 5.3593-3.3906 5.3593-3.3906l2.9167-6.8176s6.5533-2.1784 7.7563-1.9323c0.9844 0.19176 2.9805-2.0325 3.7734-2.9622l0.237-1.4857v1.1849c0.073-0.073 0.1189-0.13703 0.1189-0.13703l-0.4834-7.3098s4.3749-8.9777 5.1132-9.6796c0.7109-0.75649 4.858-10.956 6.3072-13.872 1.4583-2.8984 3.1627-8.4947 3.1627-8.4947l1.9505-4.3841 0.082-0.0438-0.4827 2.8802 1.7135-10.126-0.3828-11.648-1.3307-9.1691-2.8802-9.3697-0.3733-2.8532 0.1735-10.135-1.1302-1.1393 0.5738-2.8619s-0.3828-12.997-0.5738-13.571c-0.1823-0.58332 0.191-3.0625 0.191-3.0625h2.2969l0.957 1.1484 1.9049 5.1588 1.1484-4.1927 1.1394-4.0195 1.1484-2.2968 0.7656-4.1926-0.1823-4.2018 1.3398-3.2448h2.8346l1.1667 3.4362 0.9479-0.76562 1.5494 3.6276-1.1575 6.8723 1.1575 11.275 2.2878 5.1588 0.7565-1.7226 2.4791-1.7135 1.5221 0.76562-1.7135 3.4362s1.1302 4.2018 1.7135 4.776c0.5833 0.56508 2.1054 6.5077 2.1054 6.5077l0.948 8.2121 1.7226 4.9674 2.3059 2.4609 0.6563 4.7669 1.0755 0.59206 2.6523 6.8905 3.2356 7.0728-8.3944 2.0872 8.4218-2.0872 1.7044 1.5312 18.922 29.412s8.0116 10.7 8.5949 11.265c0.5739 0.56508 0.9479 4.0195 0.9479 4.0195s0.3916 2.6614 0.3916 2.0963c0-0.57457 3.0624 0.76562 3.0624 0.76562l4.776 3.4453 2.2877 3.6093s3.4453-1.3216 4.1927-1.7135c0.7747-0.38279 3.828 0 4.4023 0.20053 0.5745 0.19104 0.9479 2.6705 0.9479 2.6705l4.4205 1.9049 2.8346-1.3307 3.0715 0.5651 1.905-4.2018-1.5495 3.3997c-0.9297 0.1458-1.4948 0.23697-1.4948 0.23697l-2.6887-2.1054-0.1918-2.4882 0.9479-5.7239-2.0872-9.7434-1.1393-4.0104-0.2005-5.5507 2.315-4.0012 0.7474-1.3398-0.1823-4.5846-0.7656-4.2109 0.5564-2.47 3.6366-4.4023 2.4883-4.9765 0.3646-1.7135-0.3646-2.2968-1.9232-2.2695s0-2.8984-0.1735-3.4544c-0.2005-0.57457 0.7474-3.819 0.7474-3.819s4.22-3.0625 4.9856-3.4362c0.7565-0.39228 2.8619 0.5651 2.8619 0.5651l5.332-0.76561 10.901-2.862 6.1158-0.94791 5.9244 1.9232 8.9778 1.3216 6.298 2.6796 6.4895 8.7954 2.6887 8.3944 1.1394 14.519-1.1394 9.7434-5.7329 13.17-6.3072 6.1249-2.8711 1.3307 0.8932-0.41925-0.8111 1.4948 1.6405 0.64751 1.9051 3.2447 3.2537 4.4205 0.5564 4.5664 5.3684 4.1926 2.2969 6.3072 1.914 2.1145 2.47 8.9778 4.7669 6.8723 4.0195 7.647 3.263 9.7251 3.8189 5.1679 1.914 8.9869-0.4011 9.7434 2.8711 3.6184 3.8372 4.5937 5.1497 18.922 3.4453 18.329-2.1055 5.1679-0.2005 9.9348 0.2005 20.444-1.7317 21.592 1.1575 16.798-0.9661 15.859-1.905 0.39229-0.2274-0.0582c0.1099 1.6953 0.3646 4.6848 0.3646 4.6848l1.513 4.0104s2.4334 4.9856 2.5155 5.2317c0.091 0.22749 0 2.7617 0 3.0078 0 0.23698-0.5374 0.94792-0.8658 0.94792-0.3099 0-1.5859-0.25521-1.8138-0.56509-0.2275-0.31865-3.4636-5.0494-3.4636-5.0494l-1.9868-3.0716-1.5587 0.47396s-0.3375 0.85676-0.1734 1.1029c0.1734 0.2275 2.3696 6.5442 2.3696 6.5442l2.8347 4.9036 1.358 1.6497s-0.5468 0.86587-0.7291 1.1028c-0.1641 0.2552-1.7227 1.3398-1.7227 1.3398s-1.8138-1.1666-2.1418-1.3398c-0.3282-0.16406-4.3294-6.1523-4.3294-6.1523l-1.8229-5.5234-0.237-1.513s-1.0207 0.0912-1.5039 0.70144c-0.4558 0.6475-0.3099 1.5312-0.3099 1.5312l2.5156 7.0272 3.5547 4.8124 0.8658 2.7708s-1.0845 0.21876-1.8867 0.45574c-0.7839 0.23697-3.5546-1.6497-3.7916-1.9688-0.237-0.30987-2.1237-3.4817-2.1237-3.4817l-2.6066-5.7512-0.866-0.8841 0.1823 3.8919 1.6588 4.9036 2.2604 3.7825-0.7655 1.276-1.6224 0.4827-3.263-4.3932-1.914-2.9804-0.082 1.4583-2.1874 9.9439-0.9207 4.5025 2.6341 13.963-0.4557 6.9726 4.1836 19.55 2.3332 20.17 0.9388 5.1314 8.367 11.174 3.2449 7.7382 6.371 11.958 4.6574 27.307 5.7422 24.354 5.5871 14.446s0.7474 7.7473 0.6293 8.2212c-0.1823 0.45574 0.6015 6.1887 0.6015 6.1887s2.7982 3.4179 3.1081 4.0468c0.3186 0.6103 4.3385 11.174 4.3385 11.174l0.6379 7.1366 0.1546 5.5872 0.5929 0.30042 0.4826 12.104-8.5493 2.944 6.3073-2.1692 0.3557 8.203-4.4569 8.4673-3.6002 3.8372-8.2851 2.5429-6.9908-0.84764-2.552-1.4857-5.2774 2.9713-7.0089 2.9622-15.057-0.42875-15.048-0.20052-12.323-4.457-4.6575-1.6953 1.9141-1.6862 2.552-2.9804 2.7618-2.5429 10.381-1.0573 7.8294-5.3046s7.0089-3.6093 7.884-3.819c0.4652-0.1093 1.987-2.2148 3.1535-3.9283l8.3034 3.4726-10.372-4.3476v-2.3242l3.5638-7.7564 2.6158-1.0846 1.7226-3.263-9.479-0.92056-1.7044-2.9622-16.278-31.336-8.5312-21.565-3.7278 34.125-5.8789 22.194-1.4401 2.4792 0.8021 2.0416 0.1553 9.7524-1.8594 0.0582-0.5199 2.6159-3.3814 6.3528-2.9804 4.6757-7.401 0.20053-10.4-0.40978-1.4947-7.2187-4.0286 1.0664-10.172 4.8762-4.0286 2.9622-14.209 1.0482-13.772-1.677-5.9427-2.1237-7.6379-1.6953v-1.7044l1.4857 0.21876 0.6293-3.3906 4.4752-1.276s9.0962-2.9713 9.7251-2.9713c0.638 0 11.885-2.7526 11.885-2.7526l4.0195-3.819 5.1861-6.0429-0.7929-0.47394 2.789-6.2069 2.1874-4.3476 2.6341-0.30114 2.3242-2.6432-0.164-1.0937-3.7096-0.92056-2.944-3.427 1.0755-6.9634 2.1784-6.3801 1.996-3.0898-6.6626-56.947 0.7838-13.198 0.7656-23.415 1.3945-45.928-2.0051-37.096v-5.5689l1.3945-2.9531-0.5017-9.6431-19.496-11.84 0.9661-14.72 3.6914-25.785-9.4426-32.265-2.069-1.1667 11.63-31.527 7.0819-18.347-1.5312-9.3514-0.7748-22.941 0.3916-7.8384 2.871-10.874-4.2108-2.4883-2.4883-4.1926-9.5428-3.4453-4.5937-4.9765-16.224-12.031-1.3399-3.0624-4.4113-3.819-8.9687-14.519-8.7863-14.328 6.6535 10.874-0.5199 1.2943-10.728 23.087-6.3072 8.0116s-11.639 9.716-13.818 11.174c-2.2057 1.4583-12.159 8.9868-12.159 8.9868l-17.254 16.032-19.195 10.226 0.51041 6.0611 1.914 18.949 1.4674 28.665 1.7044 3.4179 4.6028 7.0364 1.2305 4.1197-2.6706 1.7135 7.5194 21.146-3.1627 2.1692-5.1041 7.2916-1.9413 2.6796-0.5374-0.70145 0.6744 7.1913 0.7839 16.041 2.1601 17.627 1.0664 20.845-1.0664 24.044-2.1601 23.798-1.6042 8.8137 1.3399 4.2747s-1.8685 0.28218-2.6615 1.0664c-0.1735 0.19104-1.2122 0.56507-2.5702 1.0026 0.49218-0.15527 0.95702-0.30042 1.3125-0.43752l-2.7708 21.1-1.5768 15.759-6.6718 10.154-6.4348 5.8697-10.691 20.845-5.3411 9.8983 0.27352 19.241-1.6042 29.95 1.8593 19.222 5.6146 15.777 8.8227 8.2759s3.6549 4.9583 5.2226 7.246l-2.2695 0.7656 2.3971-0.80207 4.2656 2.6796 6.6718 2.3971 6.6991 2.4062 2.4062 2.151-0.802 4.2838-1.3398 7.483-9.078 4.5481s-12.551 1.0482-13.371 1.0482c-0.80207 0-12.824-0.52864-12.824-0.52864l-5.3502-2.1419-2.3971-6.9452-4.2929-11.767-6.4076-6.4075-7.2096-3.2083-2.3971 1.8685 1.8685 18.712 0.80215 6.9543-1.6042 0.79296-3.4726-1.0664-2.6705-20.316-4.0196-14.155v-4.0195l2.388-8.8046 4.8034-4.2838 8.0481 7.7473-7.4921-7.2369 1.3489-2.1146 0.26391-15.495-2.9348-11.22-7.5011 16.57-5.3412 18.174-0.10985 3.108 2.2605 9.4426s2.6614 7.4647 2.6614 8.8228c0 1.3216-1.8685 4.0012-1.8685 4.0012l-5.8699 2.9349s-2.9438 2.4062-3.7548 2.4062c-0.80228 0-18.703-13.107-18.703-13.107l-4.5481-10.673 4.5481-9.6158 3.181-7.4921-2.6433-9.3514-4.2928-4.0012-8.0208 2.3971-7.4647 4.5481-1.3217-3.4726 5.8697-3.746 5.5963-7.7473 6.6809-6.9361 1.0844-2.6979 6.6811 0.28219 5.0676-0.80207 2.4427 1.1211 1.5678-1.1211 8.5674-14.428 6.9179-16.588 2.151-28.847 4.5572-20.052 1.8685-13.626-3.7552-20.043-0.90225-5.3775 12.678 2.4244-13.918-2.6614-13.353-2.6705-2.6795 1.0755-0.79295-13.107-1.3398-32.338-0.80215-14.693-1.3398-20.845 1.0847-22.987 2.1326-5.8879 0.45586-0.875 21.437-2.2786-22.813 2.4336 0.48263-11.183 0.95689-9.4608 1.2123-4.384 0.72923-17.974 1.7044-2.9075-3.3905-6.0793-5.1224-5.5963-1.4493-2.4336-0.7291-9.716-4.1289-4.3658-2.4154 2.4336 0.72924 3.1627-2.2057 12.605-5.323 17.518-5.3594 26.477-3.8918 17.983-6.3072 23.57-2.0872 2.2148-0.97529 3.0716-1.0663 2.151-2.6798-0.82031-0.90238-1.112-4.4387 1.7773-7.5466 1.2031-3.1629-0.90231-0.23685 1.1849 0.24564 4.539-1.3306 4.2656-0.802 0.53812 0.802 3.746-1.5951 1.6042 0.79309 2.6705-1.8777 1.0664-4.2656-5.6145-1.8685-2.9348-2.6706-6.6809 1.0665-6.1432-1.8685 2.1328-0.79294 2.944 0.79294 6.4075-1.0573 1.8776h-1.6224l-1.8502-7.7472 0.51998-6.4257zm318.29-275.79-3.2447 4.7669 2.9713-4.3476 0.7929-0.58333-0.5191 0.16406zm-85.02 11.466-2.4154 1.6041-5.5963 3.7278 8.0117-5.332zm-87.216 345.4c0.36459-0.0998 0.86587-0.25521 1.5404-0.41927-0.61979 0.16406-1.1758 0.31938-1.5404 0.41927zm-68.39-280.8c0.0508-0.0292 0.0906-0.0438 0.13731-0.0655-0.26405 0.13634-0.57463 0.29167-0.90238 0.41052 0.2639-0.10065 0.52863-0.21875 0.76562-0.34636zm0.42853-0.2275c0.15543-0.091 0.27352-0.15527 0.27352-0.15527s-0.19168 0.091-0.27352 0.15527zm80.18 277.5c-0.73828 0.23697-1.5768 0.49218-2.4791 0.75651 0.90232-0.26396 1.7408-0.51917 2.4791-0.75651zm-2.6067 0.79296c-0.84765 0.26396-1.7409 0.51917-2.625 0.77473 0.88412-0.25521 1.7773-0.51041 2.625-0.77473zm-5.3411 1.5403c0.74739-0.20999 1.4857-0.41926 2.2968-0.64747-0.77472 0.22749-1.5495 0.43748-2.2968 0.64747zm-0.49217 0.13634c-0.68323 0.19179-1.3763 0.3923-1.9505 0.53812 0.60154-0.14581 1.2396-0.34633 1.9505-0.53812zm-3.8281 1.0573c-0.40978 0.10929-0.6475 0.17354-0.6475 0.17354s0.26396-0.0655 0.6475-0.17354"/>
  <metadata>
    <rdf:RDF>
      <cc:Work>
        <dc:format>image/svg+xml</dc:format>
        <dc:type rdf:resource="http://purl.org/dc/dcmitype/StillImage"/>
        <cc:license rdf:resource="http://creativecommons.org/licenses/publicdomain/"/>
        <dc:publisher>
          <cc:Agent rdf:about="http://openclipart.org/">
            <dc:title>Openclipart</dc:title>
          </cc:Agent>
        </dc:publisher>
      </cc:Work>
      <cc:License rdf:about="http://creativecommons.org/licenses/publicdomain/">
        <cc:permits rdf:resource="http://creativecommons.org/ns#Reproduction"/>
        <cc:permits rdf:resource="http://creativecommons.org/ns#Distribution"/>
        <cc:permits rdf:resource="http://creativecommons.org/ns#DerivativeWorks"/>
      </cc:License>
    </rdf:RDF>
  </metadata>
</svg>
