<svg xmlns="http://www.w3.org/2000/svg" viewBox="0 0 176 146">
  <rect id="clear-space" style="fill: #fff" width="176" height="146"/>
  <path id="squarespace-logo-stacked" style="fill: #222" d="M67.97266,97.21484c0,1.4541-0.78027,2.19531-2.00586,2.19531c-1.26465,0-2.03516-0.80762-2.03516-2.24316V93.3457h-0.75098v3.86914c0,1.88184,1.12207,2.88965,2.7666,2.88965c1.66406,0,2.77637-1.00781,2.77637-2.94727V93.3457h-0.75098V97.21484zM73.48047,93.29785L70.44824,100h0.76953l0.78906-1.75879h3.62207L76.4082,100h0.80859l-3.03223-6.70215H73.48047zM72.30176,97.55664l1.52148-3.38379l1.51074,3.38379H72.30176zM104.31738,93.3457h-2.49121V100h0.75098v-2.34766h1.61621c1.41699,0,2.61426-0.74219,2.61426-2.17773v-0.01855C106.80762,94.14453,105.81934,93.3457,104.31738,93.3457zM106.04785,95.50391c0,0.87402-0.72266,1.46387-1.8252,1.46387h-1.64551v-2.92773h1.68262c1.07422,0,1.78809,0.49414,1.78809,1.44434V95.50391zM60.61133,96.67285v-0.01953c0-1.83398-1.35938-3.42188-3.38477-3.42188c-2.02441,0-3.40332,1.60645-3.40332,3.44141v0.01855c0,1.83496,1.35938,3.42285,3.38477,3.42285c0.81738,0,1.53027-0.2666,2.09082-0.7041l0.88379,0.78906l0.51367-0.56055l-0.87402-0.74121C60.31641,98.28906,60.61133,97.5,60.61133,96.67285zM59.27051,98.43164l-1.24512-1.13184l-0.50391,0.56152l1.24512,1.06445c-0.41797,0.31348-0.9502,0.49414-1.54004,0.49414c-1.52051,0-2.62402-1.23535-2.62402-2.74707v-0.01953c0-1.51074,1.08398-2.72754,2.60547-2.72754c1.52051,0,2.62305,1.23535,2.62305,2.74707v0.01855C59.83105,97.35742,59.63184,97.95605,59.27051,98.43164zM49.52148,96.31152c-1.46387-0.31348-1.80566-0.66504-1.80566-1.29297V95c0-0.59961,0.55078-1.07422,1.41602-1.07422c0.68457,0,1.30273,0.21875,1.9209,0.72266l0.43652-0.58008c-0.6748-0.54199-1.36816-0.81738-2.33789-0.81738c-1.26465,0-2.18652,0.76953-2.18652,1.81543v0.01855c0,1.09375,0.70312,1.58789,2.2334,1.9209c1.39746,0.29395,1.73047,0.64648,1.73047,1.26367v0.01953c0,0.65527-0.58984,1.13086-1.4834,1.13086c-0.92188,0-1.58691-0.31348-2.28125-0.94043l-0.46582,0.55078c0.79883,0.71289,1.66406,1.06445,2.71875,1.06445c1.32129,0,2.27246-0.74121,2.27246-1.88184v-0.01953C51.68945,97.17676,51.00488,96.63477,49.52148,96.31152zM124.89258,99.31543v-2.3291h3.63184v-0.68457h-3.63184v-2.27148h4.05957V93.3457h-4.81055V100H129v-0.68457H124.89258zM97.08789,96.31152c-1.46387-0.31348-1.80664-0.66504-1.80664-1.29297V95c0-0.59961,0.55176-1.07422,1.41699-1.07422c0.68457,0,1.30176,0.21875,1.91992,0.72266l0.4375-0.58008c-0.6748-0.54199-1.36914-0.81738-2.33887-0.81738c-1.26465,0-2.18652,0.76953-2.18652,1.81543v0.01855c0,1.09375,0.7041,1.58789,2.23438,1.9209c1.39746,0.29395,1.72949,0.64648,1.72949,1.26367v0.01953c0,0.65527-0.58887,1.13086-1.48242,1.13086c-0.92188,0-1.58789-0.31348-2.28125-0.94043l-0.46582,0.55078c0.79784,0.71289,1.66309,1.06445,2.71875,1.06445c1.32129,0,2.27148-0.74121,2.27148-1.88184v-0.01953C99.25488,97.17676,98.57031,96.63477,97.08789,96.31152zM88.04297,96.98633h3.63184v-0.68457h-3.63184v-2.27148h4.05957V93.3457h-4.81055V100h4.85742v-0.68457h-4.10645V96.98633zM110.63477,93.29785L107.60254,100h0.76953l0.78906-1.75879h3.62207L113.56249,100h0.8086l-3.03223-6.70215H110.63477zM109.45605,97.55664l1.52148-3.38379l1.51074,3.38379H109.45605zM119.05176,99.41992c-1.46387,0-2.57617-1.20703-2.57617-2.74707v-0.01953c0-1.53027,1.10352-2.72754,2.57617-2.72754c0.90332,0,1.53125,0.37988,2.0918,0.91211l0.51367-0.55078c-0.66602-0.62793-1.38867-1.05566-2.5957-1.05566c-1.95801,0-3.36523,1.55957-3.36523,3.44141v0.01855c0,1.91113,1.41699,3.42285,3.33691,3.42285c1.20703,0,1.96777-0.46582,2.66211-1.16992l-0.49512-0.48438C120.56348,99.06836,119.96484,99.41992,119.05176,99.41992zM84.59766,95.3418v-0.01855c0-0.52344-0.19043-0.98926-0.51367-1.3125c-0.41797-0.41797-1.07422-0.66504-1.8916-0.66504h-2.86133V100h0.75098v-2.58594h1.90137L83.91309,100h0.92188l-2.04395-2.71875C83.83691,97.09082,84.59766,96.44434,84.59766,95.3418zM80.08203,96.73926v-2.69922h2.05371c1.07422,0,1.70117,0.49414,1.70117,1.31152v0.01855c0,0.85547-0.71289,1.36914-1.71094,1.36914H80.08203zM72.4469,65.09534c0.60541,0.60541,1.58527,0.60541,2.19067,0l14.45776-14.45776c2.05377-2.05377,5.39545-2.05377,7.44818-0.0011c0.60541,0.60547,1.58527,0.60547,2.19067,0c0.60547-0.60541,0.60547-1.58521,0-2.19067c-3.26141-3.26147-8.56812-3.26038-11.82953,0.0011L72.4469,62.90466C71.84143,63.51007,71.84143,64.48987,72.4469,65.09534zM79.45648,69.91425l14.45776-14.45776c0.60547-0.60547,0.60547-1.58527,0-2.19073c-0.60541-0.60541-1.58527-0.60541-2.19067,0L77.26581,67.72351c-2.05383,2.05383-5.39545,2.05383-7.44818,0.0011c-2.05377-2.05377-2.05377-5.39545,0-7.44922l11.63062-11.63062c0.60541-0.60547,0.60541-1.58527,0-2.19073c-0.60547-0.60541-1.58527-0.60541-2.19073,0L67.62689,58.08466c-3.26141,3.26147-3.26141,8.56921,0,11.83063C70.88837,73.17676,76.19507,73.17566,79.45648,69.91425zM89.09534,79.5531l14.45776-14.45776c0.60547-0.60547,0.60547-1.58527,0-2.19067c-0.60541-0.60547-1.58527-0.60547-2.19067,0L86.90466,77.36243c-2.05377,2.05377-5.39545,2.05377-7.44818,0.00104c-0.60541-0.60541-1.58527-0.60541-2.19067,0c-0.60547,0.60547-0.60547,1.58527,0,2.19067C80.52722,82.81561,85.83392,82.81451,89.09534,79.5531zM96.74249,81.5459l11.63062-11.63062c3.26141-3.26141,3.26141-8.56915,0-11.83063c-3.26147-3.26141-8.56818-3.26038-11.82959,0.0011L82.08575,72.54352c-0.60547,0.60541-0.60547,1.58527,0,2.19067c0.60541,0.60547,1.58527,0.60547,2.19067,0l14.45776-14.45776c2.05383-2.05377,5.39545-2.05377,7.44818-0.00104c2.05377,2.05377,2.05377,5.39545,0,7.44922L94.55176,79.35522c-0.60541,0.60541-0.60541,1.58527,0,2.19067C95.15723,82.15137,96.13702,82.15137,96.74249,81.5459z"/>
</svg>
