<svg width="824" height="860" viewBox="0 0 824 860" fill="none" xmlns="http://www.w3.org/2000/svg">
<path id="wheel-4" d="M359.48 0.00577828C361.689 -0.00302349 363.899 -0.00301489 366.125 0.0145886C398.923 0.102606 431.721 0.0145779 464.519 0.0585867C464.545 31.2432 464.46 62.4191 464.561 93.595C506.872 100.654 547.775 116.647 584.166 140.236C607.063 116.189 630.213 92.3891 652.992 68.2194C666.317 81.4397 679.06 95.3288 692.157 108.804C703.905 121.021 715.569 133.317 727.367 145.481C706.359 167.961 684.736 189.825 663.703 212.278C700.852 258.663 725.352 315.787 734.451 375.445C764.298 375.445 794.144 375.445 823.99 375.445C824.007 411.893 823.999 448.341 823.99 484.798C794.152 484.807 764.306 484.833 734.468 484.781C726.76 534.423 708.662 582.392 681.126 623.717C700.726 644.559 720.764 664.97 740.38 685.804C716.21 710.88 692.14 736.071 668.063 761.235C667.371 761.684 666.486 763.427 665.651 762.353C646.574 742.47 627.464 722.631 608.488 702.651C595.787 712.166 582.791 721.319 569.011 729.091C536.584 747.628 501.121 760.461 464.587 766.464C464.426 797.631 464.561 828.798 464.519 859.974C429.537 860.009 394.555 859.947 359.564 860C359.412 828.824 359.64 797.648 359.454 766.481C302.317 757.028 247.718 731.301 203.231 692.687C183.716 713.063 164.209 733.448 144.66 753.798C122.506 730.684 100.351 707.553 78.1957 684.44C75.7078 681.597 72.7056 679.229 70.5803 676.07C91.9678 654.074 113.102 631.814 134.321 609.651C111.694 571.689 96.4291 528.983 89.6317 484.842C59.7601 484.684 29.8716 484.983 0 484.693C0.0674683 448.297 0.0674683 411.893 0 375.498C29.8969 375.287 59.8022 375.656 89.6991 375.313C97.8121 321.156 119.157 269.313 150.665 225.498C150.572 225.252 150.378 224.777 150.277 224.53C128.072 201.408 106.001 178.136 83.6775 155.137C105.799 131.531 128.401 108.382 150.707 84.9516C153.162 82.5839 155.236 79.7586 157.994 77.7518C170.315 90.8928 182.898 103.779 195.321 116.832C205.753 127.596 215.966 138.625 226.55 149.24C266.019 120.484 311.948 101.561 359.454 93.6301C359.606 64.4611 359.496 35.2833 359.505 6.11421C359.48 4.0634 359.471 2.03018 359.48 0.00577828ZM271.391 242.098C310.582 282.78 349.621 323.638 388.685 364.461C396.014 361.934 403.654 360.051 411.43 360.244C427.378 359.822 443.343 365.974 455.394 376.853C510.06 361.257 564.609 345.167 619.283 329.561C605.756 298.368 585.153 270.607 560.257 248.365C523.31 215.315 476.006 195.123 427.429 191.893C371.877 187.809 314.984 205.853 271.391 242.098ZM228.701 287.234C221.119 298.254 214.018 309.669 208.207 321.825C194.005 350.668 185.707 382.627 183.775 414.983C180.52 466.385 193.853 518.756 221.229 561.638C245.475 599.864 280.407 630.652 320.719 648.907C338.522 656.873 357.27 663.034 376.507 665.613C376.161 606.764 376.617 547.898 376.279 489.041C362.44 480.168 352.109 465.654 347.647 449.389C344.088 436.837 344.35 423.344 347.571 410.749C311.459 373.236 275.49 335.547 239.437 297.963C235.793 294.451 232.673 290.314 228.701 287.234ZM598.646 400.935C558.714 412.421 518.848 424.137 478.898 435.517C477.659 448.095 473.644 460.47 466.484 470.742C459.13 481.638 448.614 489.991 436.866 495.105C436.95 530.022 436.874 564.947 436.899 599.873C437.018 622.379 436.655 644.894 437.085 667.391C455.715 665.058 474.134 660.666 491.726 653.801C523.394 641.523 552.38 621.763 575.893 596.44C599.059 571.742 616.93 541.658 627.885 509.047C640.603 470.98 644.305 429.356 637.196 389.678C624.394 393.612 611.482 397.141 598.646 400.935ZM406.648 407.598C395.584 410.283 387.799 422.755 390.27 434.408C392.075 445.402 402.415 453.957 413.117 453.138C425.826 452.874 436.343 439.443 433.914 426.372C432.253 413.434 418.734 404.024 406.648 407.598Z" fill="#DF2925"/>
</svg>
