<svg width="497" height="267" fill="none" xmlns="http://www.w3.org/2000/svg"><g clip-path="url(#a)"><path fill="#fff" d="M0 0h497v266.896H0z"/><mask id="b" style="mask-type:luminance" maskUnits="userSpaceOnUse" x="58" y="-24" width="381" height="250"><path d="M439-24H58v250h381V-24Z" fill="#fff"/></mask><g mask="url(#b)"><path d="M253.437 62.578c-11.974-1.77-23.323-6.652-33.115-14.053-14.627-11.054-45.236-29.865-74.436-20.496-40.275 12.924-40.455 50.312-29.964 70.622 10.49 20.309 84.884 79.782 181.328 70.319 86.304-8.468 103.122-105.4 57.093-122.94-39.922-15.212-53.541 23.55-100.906 16.548ZM381.425 48.231c0 2.228-1.676 4.033-3.742 4.033-2.067 0-3.743-1.805-3.743-4.033 0-2.227 1.676-4.033 3.743-4.033 2.066 0 3.742 1.806 3.742 4.033ZM133.363 21.663c1.148-.211 2.309.425 2.714 1.522.689 1.872-1.117 3.967-3.547 3.027-2.096-1.554-1.183-4.177.833-4.549ZM372.34 12.182a4.877 4.877 0 0 1-4.875 4.881 4.877 4.877 0 0 1-4.874-4.88 4.877 4.877 0 0 1 4.874-4.882 4.877 4.877 0 0 1 4.875 4.881ZM148.139 17.814a4.932 4.932 0 0 1-3.412 6.08 4.925 4.925 0 0 1-6.072-3.417 4.932 4.932 0 0 1 3.413-6.08 4.923 4.923 0 0 1 6.071 3.417ZM342.982 164.72c1.089-.421 2.348-.012 2.949.99 1.025 1.71-.359 4.106-2.922 3.635-2.349-1.137-1.939-3.885-.027-4.625ZM356.787 158.186a4.935 4.935 0 0 1-2.225 6.609 4.922 4.922 0 0 1-6.6-2.227 4.934 4.934 0 0 1 2.224-6.608 4.923 4.923 0 0 1 6.601 2.226ZM361.281 4.712a3 3 0 0 1-2.999 3.003 3 3 0 0 1-2.998-3.003 3 3 0 0 1 2.998-3.003 3 3 0 0 1 2.999 3.003Z" fill="#CED2E6"/><path d="M369.269 59.112c-.005-26.826-22.311-56.221-50.073-57.997a85.54 85.54 0 0 0-1.478-.081c-39.799-1.858-42.832 46.748-78.842 52.23-36.009 5.482-63.508-22.193-106.596-4.136-38.698 16.216-49.18 107.341 64.522 110.994 90.972 2.924 172.478-20.975 172.467-101.01ZM385.671 188.062c0 2.503-39.281 4.531-87.738 4.531-48.456 0-87.738-2.028-87.738-4.531 0-2.503 39.282-4.532 87.738-4.532 48.457 0 87.738 2.029 87.738 4.532Z" fill="#CED2E6"/><path d="M357.362 175.377h-12.159v12.661h14.218v-10.6a2.06 2.06 0 0 0-2.059-2.061ZM322.367 175.377h-42.205v-27.131h42.205v27.131Z" fill="#CED2E6"/><path d="M354.637 188.038H238.205v-4.7c0-4.397 3.559-7.961 7.95-7.961h100.53c4.391 0 7.952 3.564 7.952 7.961v4.7ZM317.194 175.377H274.99v-27.131h42.204v27.131Z" fill="#fff"/><path d="m274.99 156.577 42.205-3.384.006-4.947h-42.156l-.055 8.331Z" fill="#CED2E6"/><path d="M392.103 36.214v106.393a5.643 5.643 0 0 1-5.639 5.646H206.261a5.643 5.643 0 0 1-5.639-5.646V36.214a5.643 5.643 0 0 1 5.639-5.647h180.203a5.643 5.643 0 0 1 5.639 5.647Z" fill="#CED2E6"/><path d="M392.103 36.213v98.526h-17.434V30.567h11.794a5.644 5.644 0 0 1 5.64 5.646Z" fill="#575758"/><path d="M384.932 36.214v106.393a5.643 5.643 0 0 1-5.639 5.646H206.261a5.643 5.643 0 0 1-5.639-5.646V36.214a5.643 5.643 0 0 1 5.639-5.647h173.032c.085 0 .168.002.251.006.061.003.122.005.182.011h.008c.043.003.087.007.13.013.073.005.145.015.218.025.048.006.094.013.142.023l.067.01a5.646 5.646 0 0 1 4.641 5.558Z" fill="#fff"/><path d="M380.429 30.683a1.6 1.6 0 0 0-.138-.027.935.935 0 0 0-.067-.011 1.817 1.817 0 0 0-.142-.023c-.073-.01-.144-.02-.218-.025a2.376 2.376 0 0 0-.13-.013h-.007a4.61 4.61 0 0 0-.433-.017H206.261a5.643 5.643 0 0 0-5.639 5.647v98.525h184.31V36.214a5.647 5.647 0 0 0-4.503-5.531Zm-2.807 94.215c0 .848-.686 1.535-1.534 1.535H209.466a1.534 1.534 0 0 1-1.534-1.535V39.423c0-.848.687-1.535 1.534-1.535h166.622c.848 0 1.534.687 1.534 1.535v85.475Z" fill="#39393A"/><path d="M377.622 39.423v85.475c0 .848-.686 1.535-1.534 1.535H209.467a1.535 1.535 0 0 1-1.535-1.535V39.423c0-.85.687-1.535 1.535-1.535h166.621c.848 0 1.534.686 1.534 1.535Z" fill="#CED2E6"/><path d="M377.622 39.423v8.067h-169.69v-8.067c0-.849.687-1.535 1.535-1.535h166.621c.848 0 1.534.686 1.534 1.535Z" fill="#fff"/><path d="M364.479 42.56a1.304 1.304 0 1 1-2.608 0 1.304 1.304 0 0 1 2.608 0Z" fill="#DF605C"/><path d="M368.701 42.56a1.303 1.303 0 1 1-1.302-1.305c.719 0 1.302.584 1.302 1.305Z" fill="#5292F3"/><path d="M356.528 43.94H223.965a1.22 1.22 0 0 1-1.216-1.217v-.326c0-.67.547-1.217 1.216-1.217h132.563a1.22 1.22 0 0 1 1.216 1.217v.326a1.22 1.22 0 0 1-1.216 1.217Z" fill="#D2DCEB"/><path d="M214.059 42.56v1.277c0 .18-.195.294-.351.203l-1.105-.638-1.105-.64a.235.235 0 0 1 0-.405l1.105-.64 1.105-.638a.234.234 0 0 1 .351.203v1.278ZM216.001 42.56v1.277c0 .18.195.294.351.203l1.105-.638 1.105-.64a.235.235 0 0 0 0-.405l-1.105-.64-1.105-.638a.234.234 0 0 0-.351.203v1.278Z" fill="#000"/><path d="m370.458 43.65-.058-.059a.327.327 0 0 1 0-.463l1.749-1.752a.326.326 0 0 1 .462 0l.059.058a.329.329 0 0 1 0 .463l-1.75 1.752a.326.326 0 0 1-.462 0Z" fill="#39393A"/><path d="m372.611 43.65.059-.059a.329.329 0 0 0 0-.463l-1.751-1.752a.325.325 0 0 0-.461 0l-.059.058a.327.327 0 0 0 0 .463l1.75 1.752a.326.326 0 0 0 .462 0Z" fill="#39393A"/><path d="M354.779 123.028H230.32a3.21 3.21 0 0 1-3.207-3.211V52.681a3.21 3.21 0 0 1 3.207-3.211h124.459a3.21 3.21 0 0 1 3.207 3.211v67.136a3.21 3.21 0 0 1-3.207 3.211Z" fill="#fff"/><path d="M264.994 87.106H236.3a.798.798 0 0 1 0-1.596h28.694a.797.797 0 0 1 0 1.596ZM264.994 80.353H236.3a.798.798 0 0 1 0-1.596h28.694a.797.797 0 0 1 0 1.596ZM264.994 93.86H236.3a.798.798 0 0 1 0-1.597h28.694a.797.797 0 0 1 0 1.596ZM353.16 87.106h-28.694a.798.798 0 1 1 0-1.596h28.694a.797.797 0 1 1 0 1.596ZM353.16 80.353h-28.694a.798.798 0 1 1 0-1.596h28.694a.797.797 0 1 1 0 1.596ZM353.16 93.86h-28.694a.798.798 0 1 1 0-1.597h28.694a.797.797 0 1 1 0 1.596Z" fill="#CED2E6"/><path d="M227.113 111.604h130.873v10.743a.68.68 0 0 1-.68.68H227.793a.68.68 0 0 1-.68-.68v-10.743Z" fill="#39393A"/><path d="M345.131 115.838v-.968h1.21v-.862H344.7a.43.43 0 0 0-.43.431v1.399h.861ZM345.131 117.562h-.861v1.472c0 .239.193.432.43.432h1.641v-.862h-1.21v-1.042ZM348.86 115.838h.861v-1.399a.431.431 0 0 0-.431-.431h-1.578v.862h1.148v.968ZM348.86 117.562v1.042h-1.148v.862h1.578a.431.431 0 0 0 .431-.432v-1.472h-.861ZM234.737 116.923v-2.722l2.354 1.361 2.354 1.361-2.354 1.36-2.354 1.362v-2.722ZM247.787 119.428h-.619a.42.42 0 0 1-.42-.42v-4.113c0-.232.189-.421.42-.421h.619c.231 0 .42.189.42.421v4.113a.42.42 0 0 1-.42.42ZM250.835 119.428h-.619a.42.42 0 0 1-.42-.42v-4.113c0-.232.189-.421.42-.421h.619c.231 0 .42.189.42.421v4.113a.42.42 0 0 1-.42.42Z" fill="#fff"/><path d="M357.986 111.604H227.113v-2.148h130.873v2.148Z" fill="#CED2E6"/><path d="M294.266 111.605h-67.152v-2.148h67.152v2.148Z" fill="#DF605C"/><path d="M337.059 101.098h1.476v3.239h1.977v1.146h-3.453v-4.385ZM340.918 101.098h1.477v4.385h-1.477v-4.385ZM347.787 101.098l-1.852 4.385h-1.451l-1.852-4.385h1.589l1.045 2.562 1.07-2.562h1.451ZM351.572 104.368v1.115h-3.641v-4.385h3.559v1.115h-2.108v.514h1.852v1.065h-1.852v.576h2.19Z" fill="#39393A"/><path d="M334.629 103.255a1.802 1.802 0 1 1-3.605.001 1.802 1.802 0 0 1 3.605-.001Z" fill="#DF605C" opacity=".358"/><path d="M243.099 104.475c0 1.001-.948 1.649-2.308 1.649-1.36 0-2.308-.648-2.308-1.649 0-.515.257-.919.691-1.184-.316-.25-.507-.589-.507-1.016 0-.935.875-1.538 2.124-1.538 1.25 0 2.124.603 2.124 1.538 0 .427-.191.766-.507 1.016.434.265.691.669.691 1.184Zm-1.742-.058c0-.332-.236-.537-.566-.537-.331 0-.566.205-.566.537 0 .331.235.537.566.537.33 0 .566-.206.566-.537Zm-.978-2.068c0 .279.177.441.412.441s.411-.162.411-.441c0-.28-.176-.442-.411-.442s-.412.162-.412.442ZM243.422 103.43c0-1.708.97-2.693 2.33-2.693s2.33.985 2.33 2.693c0 1.708-.97 2.694-2.33 2.694s-2.33-.986-2.33-2.694Zm2.918 0c0-.993-.25-1.302-.588-1.302-.338 0-.588.309-.588 1.302 0 .994.25 1.303.588 1.303.338 0 .588-.309.588-1.303Z" fill="#39393A"/><path d="M235.467 101.984a1.582 1.582 0 1 1-1.581-1.584c.873 0 1.581.709 1.581 1.584ZM236.842 105.992h-5.913s.672-1.882 2.911-1.882l.045.002.045-.002c2.24 0 2.912 1.882 2.912 1.882Z" fill="#DF605C"/><path d="M252.425 67.886s-.537 4.865-4.04 5.916c-2.829.847-5.674-1.767-6.665-2.803-.236-.248-.367-.405-.367-.405s-.212.033-.53.045c-.748.03-2.084-.053-2.652-.946-.81-1.272 1.84-2.308 1.84-2.308s-1.447-1.165-1.148-2.082c.295-.902 2.14-1.184 2.14-1.184s-2.065-1.193-1.455-2.36c.916-1.756 3.08.008 3.25.103-.138-.143-2.866-2.688-1.475-3.245 1.214-.485 3.319.8 4.728 2.11.224.207.349.328.349.328s.078-.066.213-.166c.646-.483 2.634-1.79 3.999-.766 1.649 1.238 1.813 7.763 1.813 7.763Z" fill="#EA9B79"/><path d="M248.878 71.043a.282.282 0 0 1-.379-.392c.431-.721.538-1.44.319-2.135-.563-1.782-3.041-2.905-3.066-2.916-.143-.063-.207-.23-.143-.373a.281.281 0 0 1 .372-.143c.111.05 2.736 1.24 3.374 3.262.27.856.145 1.729-.372 2.595a.283.283 0 0 1-.105.102Z" fill="#D96C62"/><path d="M246.051 64.218c.016.334-.108.607-.358.79-.051.038-.111.07-.177.102-.141.064-.313.11-.502.14.143.086.272.176.377.276a.968.968 0 0 1 .234.32c.069.166.108.423-.087.719-.421.623-1.451.923-2.295 1.068.626.327 1.181.787 1.382 1.267.128.31.108.61-.064.865-.118.177-.327.338-.587.48-.647.36-1.608.612-2.252.754a7.027 7.027 0 0 1-.367-.406s-.214.035-.533.047a.27.27 0 0 1 .143-.067c1.036-.177 2.802-.636 3.129-1.123.041-.064.082-.16.01-.334-.221-.528-1.27-1.188-2.158-1.358a.277.277 0 0 1-.227-.297.278.278 0 0 1 .269-.262c.697-.023 2.606-.243 3.081-.95.069-.103.047-.156.034-.183-.051-.126-.218-.25-.446-.368-.466-.24-1.183-.445-1.701-.54a.269.269 0 0 1-.15-.081.276.276 0 0 1-.077-.247.283.283 0 0 1 .33-.227c.099.017.303.058.558.123.476.03.933.032 1.276-.02.204-.031.367-.082.469-.156.063-.046.133-.122.126-.308-.01-.233-.143-.534-.348-.84a.275.275 0 0 1 .007-.316l.005-.007a.276.276 0 0 1 .455.005c.256.383.427.781.444 1.134Z" fill="#D96C62"/><path d="M243.71 59.048c.502.275.939.532 1.37.901.421.36.684.541.971.779.018-.033-.017.03 0 0l-6.617-22.715c-.1-.348-.62-.213-.539.14l4.815 20.895c.003.001-.002-.002 0 0ZM249.085 71.572c-1.813 1.311-2.386.441-2.386.441l-1.234-5.351c.026-.03.05-.064.073-.097.196-.296.156-.553.088-.718a.979.979 0 0 0-.235-.32 1.671 1.671 0 0 0-.229-.182l-.027-.116c.141-.03.271-.07.381-.12.066-.03.126-.063.178-.102a.83.83 0 0 0 .324-.474c.239.206.528.318.864.335.09.005.18.002.273-.006l1.93 6.71Z" fill="#39393A"/><path d="M250.274 63.053c-.05.05-.84.818-1.783 1.34-.522.289-1.092.502-1.61.476a1.411 1.411 0 0 1-1.049-.523c-.955-1.154-.273-2.762.22-3.619.223.207.349.328.349.328s.077-.065.213-.166c-.426.706-1.122 2.161-.348 3.095a.847.847 0 0 0 .644.32c.999.053 2.483-1.176 2.97-1.654a.282.282 0 1 1 .394.403Z" fill="#D96C62"/><path d="m280.455 52.996-1.576 3.287-.017.297c-.018.125-.039.255-.062.387a43.996 43.996 0 0 1-.378 2.01 53.347 53.347 0 0 1-.795 3.247 53.487 53.487 0 0 1-1.001 3.194c-.191.522-.378 1.045-.584 1.559-.193.52-.412 1.026-.621 1.537a45.48 45.48 0 0 1-1.417 2.966c-.12.245-.257.478-.386.718-.133.236-.254.48-.395.711-.277.465-.543.936-.835 1.386-.562.92-1.191 1.784-1.817 2.646-.652.837-1.316 1.665-2.032 2.438-.178.194-.353.393-.533.584l-.556.559-.278.281-.068.07.035-.035.048-.046c.066-.06.137-.114.21-.165a3.42 3.42 0 0 1 1.024-.542c.088-.028.162-.056.246-.075.042-.01.083-.019.125-.026l.104-.024c.068-.014.143-.022.208-.027.054-.009.109-.014.164-.015.025 0 .059.002.077 0a.75.75 0 0 1 .058-.003c.037 0 .081.006.111.009.023-.001.046 0 .069.004l.033.007h.013c.083.023-.082.006-.331-.088a8.383 8.383 0 0 1-.964-.442 16.567 16.567 0 0 1-1.19-.697c-.832-.525-1.708-1.162-2.588-1.841a66.313 66.313 0 0 1-2.653-2.18 87.176 87.176 0 0 1-2.645-2.367 137.146 137.146 0 0 1-2.618-2.481c-.435-.418-.867-.84-1.292-1.265l-1.243-1.227-8.731 7.302.327.442.309.41.618.804c.415.53.835 1.052 1.259 1.572a94.24 94.24 0 0 0 2.632 3.055c.91.998 1.839 1.99 2.812 2.963a61.649 61.649 0 0 0 3.068 2.866 42.13 42.13 0 0 0 3.5 2.75c.641.444 1.314.883 2.051 1.31.737.428 1.536.84 2.463 1.224.93.377 1.987.738 3.329.947l.249.037c.086.011.179.02.269.03.181.017.363.032.544.045.188.011.392.014.588.016h.296c.097 0 .21-.009.315-.014.213-.013.426-.03.638-.05.223-.028.453-.065.678-.104.114-.021.225-.04.339-.066.119-.027.237-.057.355-.089.237-.064.466-.124.703-.207a9.842 9.842 0 0 0 2.701-1.437c.195-.153.384-.31.571-.475l.138-.122.126-.116.099-.097.397-.394.793-.79c.258-.267.507-.544.761-.816 1.02-1.086 1.95-2.245 2.852-3.419.877-1.19 1.719-2.405 2.475-3.662.775-1.248 1.462-2.538 2.114-3.84l.469-.983c.156-.328.296-.662.444-.992.147-.332.293-.664.426-1l.408-1.002a53.33 53.33 0 0 0 3.187-12.462 45.362 45.362 0 0 0 .267-2.718 33.275 33.275 0 0 0 .059-1.144l.015-.696-10.563-3.43Z" fill="#F9AE39"/><path d="M251.241 72.95a.785.785 0 1 0 1.555-.215.785.785 0 0 0-1.555.214ZM268.238 85.577a.335.335 0 0 0 .311-.27c.497-2.552.252-5.707.242-5.84a.335.335 0 1 0-.669.055c.002.03.248 3.197-.23 5.656a.334.334 0 0 0 .346.4Z" fill="#C67D2D"/><path d="M270.253 83.038a.337.337 0 0 0 .274-.5c-.051-.09-1.246-2.2-1.792-2.819a.335.335 0 0 0-.502.444c.499.567 1.698 2.683 1.711 2.705a.334.334 0 0 0 .309.17ZM249.175 79.588a.335.335 0 0 0 .235-.114c2.651-3.042 8.738-7.947 8.799-7.996a.336.336 0 1 0-.42-.524c-.061.05-6.194 4.992-8.884 8.078a.335.335 0 0 0 .27.556Z" fill="#C67D2D"/><path d="M251.753 76.971a.335.335 0 0 0 .228-.563l-3.596-3.888a.335.335 0 0 0-.473-.018.337.337 0 0 0-.019.475l3.596 3.887a.335.335 0 0 0 .264.107Z" fill="#C67D2D"/><path d="M275.315 109.432c13.008-.065 26.178-.128 40.108-.055 1.522-4.164 2.447-13.965 2.895-18.407.091-.885.162-1.77.221-2.656.28-4.261.22-8.552.015-13.045l-.035-.734c-.182-3.694-.454-7.526-.709-11.593-.507-8.053-3.191-13.014-7.854-13.757-2.169-.345-3.883-.957-5.148-1.555-.155-.073-.3-.145-.442-.218-1.504-.767-2.356-1.459-2.356-1.459h-10.4c-.896 1.307-2.025 2.13-3.238 2.71-.135.064-.27.126-.408.186-3.692 1.595-7.997 1.278-8.885 5.736-.557 2.799 1.583 8.557 1.359 20.232a91.846 91.846 0 0 1-.09 2.666 101.233 101.233 0 0 1-.394 5.329 118.811 118.811 0 0 1-.619 5.097c-.692 4.85-2.425 15.284-4.02 21.523Z" fill="#F9AE39"/><path d="M311.837 106.865c-.028 0 .07-.129.042-.136-.166-.046.24-.342.281-.509 5-20.353 2.988-36.642 2.975-36.858a.314.314 0 0 1 .294-.33.313.313 0 0 1 .33.294c.012.217 2.432 16.627-3.371 37.933-.038.139-.414-.394-.551-.394ZM279.492 85.192a.334.334 0 0 0 .333-.297c.691-6.134.699-18.338.699-18.46a.335.335 0 1 0-.67 0c0 .122-.008 12.288-.695 18.385a.335.335 0 0 0 .333.373ZM293.741 107.42a.784.784 0 1 0 1.563-.131.784.784 0 0 0-1.563.131ZM284.458 70.308c-2.041-2.375-1.275-7.661-1.242-7.885a.334.334 0 0 1 .331-.285h6.927c.166 0 .307.12.331.285.034.224.8 5.51-1.242 7.885-.649.754-1.507 1.136-2.552 1.136-1.045 0-1.904-.382-2.553-1.136Zm-.615-7.5c-.128 1.117-.468 5.21 1.123 7.062.523.608 1.192.903 2.045.903.852 0 1.521-.295 2.044-.902 1.59-1.85 1.251-5.945 1.123-7.062h-6.335Z" fill="#C67D2D"/><path d="M346.068 55.484s2.941 3.145 5.962 2.035c2.44-.896 3.068-4.24 3.22-5.494.036-.3.045-.478.045-.478s.167-.09.398-.25c.542-.373 1.44-1.137 1.37-2.066-.099-1.324-2.513-.655-2.513-.655s.407-1.584-.287-2.073c-.683-.48-2.131.296-2.131.296s.826-1.932-.218-2.433c-1.57-.753-2.166 1.634-2.236 1.79.023-.174.985-7.514-.289-7.171-1.111.298-2.298 6.423-2.601 8.09l-.074.414s-.088-.005-.237-.004c-.709 0-2.799.13-3.22 1.572-.511 1.743 2.811 6.427 2.811 6.427Z" fill="#EA9B79"/><path d="M352.405 50.457c-.269.561-.418 1.177-.306 1.623.072.287.245.487.501.576.175.062.407.065.665.029.646-.09 1.455-.418 1.984-.659.038-.3.045-.48.045-.48s.168-.087.4-.248a.245.245 0 0 0-.137.029c-.822.422-2.308 1.03-2.795.86-.062-.023-.142-.07-.183-.229-.123-.49.269-1.51.805-2.097a.245.245 0 0 0 .004-.33.245.245 0 0 0-.328-.041c-.504.351-1.964 1.204-2.671.956-.103-.036-.116-.084-.121-.11-.03-.115.023-.293.121-.496.201-.414.599-.938.914-1.278a.247.247 0 0 0-.013-.35.25.25 0 0 0-.352.013c-.141.152-.629.699-.93 1.268a2.099 2.099 0 0 0-.226.615.852.852 0 0 0 .003.349.646.646 0 0 0 .439.459c.626.217 1.51-.114 2.181-.46Z" fill="#D96C62"/><path d="M348.668 48.26c.097.03.166.117.172.218.016.324.081.606.196.776.093.134.183.151.251.15.11-.001.252-.052.412-.138.399-.213.914-.644 1.358-1.066a.244.244 0 0 1-.062.135c-.316.34-.713.864-.915 1.278-.05.031-.101.06-.151.087-.16.084-.315.148-.456.18a.887.887 0 0 1-.178.021c-.272.004-.503-.124-.668-.368-.174-.257-.263-.627-.285-1.032a.243.243 0 0 1 .318-.244l.008.002Z" fill="#D96C62"/><path d="M345.038 50.943c.063.009 1.023.133 1.962.003.52-.072 1.035-.223 1.385-.515.288-.241.445-.551.464-.923.065-1.317-1.263-2.09-2.061-2.434l-.074.416s-.088-.006-.237-.005c.672.273 1.93.93 1.876 1.998a.75.75 0 0 1-.285.566c-.677.564-2.37.481-2.965.402a.247.247 0 0 0-.278.213.25.25 0 0 0 .213.279ZM350.23 55.835a.249.249 0 0 0 .06-.477c-.684-.28-1.138-.729-1.349-1.334-.542-1.553.613-3.654.624-3.675a.248.248 0 1 0-.433-.242c-.052.094-1.274 2.319-.659 4.08.26.746.808 1.295 1.628 1.632a.257.257 0 0 0 .129.016Z" fill="#D96C62"/><path d="m313.326 50.997 5.233 4.646c.805.797 1.613 1.587 2.425 2.372a267.65 267.65 0 0 0 2.427 2.346c.813.77 1.62 1.542 2.43 2.295a117.54 117.54 0 0 0 2.427 2.2c.8.711 1.603 1.4 2.356 1.993.373.294.736.563 1.031.768l.196.134.081.053c.017.013.019.017.028.027.031.03.051.051.063.07.026.035.022.062.055.091.031.029.109.052.254.047.288-.01.836-.18 1.466-.524.631-.341 1.332-.842 2.03-1.432a26.843 26.843 0 0 0 2.1-1.996c1.382-1.467 2.724-3.125 3.995-4.868a74.068 74.068 0 0 0 3.347-4.943c1.734 2.221 4.457 3.373 7.456 3.096a67.197 67.197 0 0 1-3.102 6.655c-1.172 2.174-2.463 4.323-4.019 6.419-.779 1.047-1.616 2.091-2.577 3.103-.963 1.012-2.03 2.01-3.326 2.94-.649.464-1.356.913-2.15 1.314-.793.4-1.672.758-2.65 1.02-.976.26-2.053.422-3.176.412a11.512 11.512 0 0 1-3.338-.522 12.118 12.118 0 0 1-1.533-.593l-.355-.173-.299-.156c-.104-.054-.188-.102-.281-.153-.089-.05-.186-.103-.268-.152a31.551 31.551 0 0 1-1.842-1.16 64.017 64.017 0 0 1-3.105-2.262 112.095 112.095 0 0 1-2.842-2.291c-.924-.769-1.834-1.54-2.725-2.324a225.791 225.791 0 0 1-2.653-2.36 311.264 311.264 0 0 1-2.594-2.397 238.433 238.433 0 0 1-2.546-2.438l-1.258-1.237-.624-.627a59.372 59.372 0 0 1-.633-.644l8.496-8.75Z" fill="#F9AE39"/><path d="M317.855 72.386a.31.31 0 0 1-.177-.061c-3.348-2.49-9.281-7.702-9.34-7.754a.313.313 0 0 1 .412-.47c.059.052 5.972 5.248 9.3 7.722a.313.313 0 0 1-.195.563Z" fill="#C67D2D"/><path d="M310.943 66.734a.274.274 0 0 1-.045-.004l-2.396-.418a.312.312 0 0 1-.254-.361.31.31 0 0 1 .361-.254l2.396.417a.312.312 0 0 1-.062.62ZM350.938 61.213a.318.318 0 0 0-.198-.6c-4.558.863-6.693-3.528-6.714-3.572a.318.318 0 0 0-.424-.151l-.002.001a.318.318 0 0 0-.149.423c.023.049 2.372 4.877 7.407 3.925a.33.33 0 0 0 .08-.026Z" fill="#C67D2D"/><path d="M348.607 61.231a.316.316 0 0 0 .15-.153l1.588-3.445a.317.317 0 1 0-.577-.267l-1.589 3.446a.32.32 0 0 0 .156.422c.09.042.189.037.272-.003ZM346.03 57.804a.552.552 0 1 0 .989-.482.552.552 0 0 0-.989.482ZM331.249 71.89a.318.318 0 0 0 .174-.225c.004-.02.393-1.998 1.015-3.142a.318.318 0 1 0-.558-.304c-.67 1.231-1.065 3.24-1.081 3.324a.318.318 0 0 0 .45.347Z" fill="#C67D2D"/><path d="M333.332 71.233a.318.318 0 0 0 .111-.484c-.008-.012-.863-1.103-1.046-2.15a.318.318 0 1 0-.626.11c.211 1.207 1.135 2.385 1.174 2.435.094.119.256.152.387.088Z" fill="#C67D2D"/><path d="M291.453 44.182v2.648c.309.25.622.468.935.656 4.591 2.76 9.544-.656 9.544-.656l-1.561-9.242-7.669 5.815-1.249.779Z" fill="#EA9B79"/><path d="M291.453 44.105v2.725c.309.25.622.467.935.656 3.909-1.55 6.755-5.656 6.755-5.656l-6.441 1.573-1.249.703Z" fill="#39393A"/><path d="M301.909 44.14s3.089.517 3.938 4.059c-3.01 3.153-5.672 5.887-9.979 6.685V48.55s3.802-.951 6.041-4.41ZM291.356 45.055s-2.758.593-3.832 4.128c2.782 3.39 4.268 4.664 8.344 5.701V48.55s-2.272-.036-4.512-3.495Z" fill="#F9AE39"/><path d="M300.491 56.937c.076 0 .15-.026.209-.073 2.895-2.312 5.36-8.285 5.464-8.538a.336.336 0 0 0-.62-.255c-.024.059-2.346 5.683-4.995 8.043l-4.403-5.989a.335.335 0 0 0-.544.005l-4.109 5.84c-.626-1.133-2.276-4.145-3.661-6.937a.336.336 0 0 0-.601.299c1.749 3.524 3.915 7.395 3.936 7.433.057.1.161.165.276.171a.332.332 0 0 0 .291-.142l4.148-5.896 4.339 5.902a.336.336 0 0 0 .27.137Z" fill="#C67D2D"/><path d="M295.876 50.66c.185 0 .335-.15.335-.336v-1.499a.335.335 0 1 0-.67 0v1.499c0 .186.15.336.335.336Z" fill="#C67D2D"/><path d="m289.801 94.281 1.789 4.323v.002l.803 1.943 2.269 5.489 1.096-2.12.388-.75.88-1.699.387-.751.88-1.7.387-.75.88-1.7v-.001l.388-.749.827-1.597-.018-.174-.128-1.267-.293-2.873-.128-1.269-.293-2.872-.128-1.267-.293-2.873-.129-1.267-.292-2.874-.128-1.267-.292-2.873-.129-1.267-.293-2.873-.129-1.269-.292-2.871-.129-1.268-.292-2.873-.129-1.267-.301-2.97-2.192-.085-.065.493-.132 1.005-.301 2.28-.132 1.005-.301 2.28-.132 1.006-.3 2.28-.133 1.006-.3 2.279-.133 1.005-.301 2.281-.132 1.005-.301 2.28-.132 1.005-.301 2.28-.133 1.007-.3 2.279-.132 1.005-.301 2.28-.132 1.007-.3 2.279-.133 1.005-.301 2.28-.132 1.007-.006.04Z" fill="#39393A"/><path d="m294.569 58.1 2.82 2.824-.129-1.267-2.558-2.562-.133 1.005ZM294.137 61.386l3.673 3.68-.128-1.27-3.412-3.416-.133 1.006ZM293.704 64.672l4.527 4.533-.129-1.269-4.266-4.271-.132 1.007ZM293.271 67.957l5.38 5.388-.127-1.267-5.121-5.127-.132 1.006ZM292.838 71.242l6.235 6.243-.129-1.267-5.974-5.982-.132 1.006ZM292.405 74.528l7.089 7.098-.129-1.267-6.827-6.837-.133 1.005ZM291.972 77.812l7.942 7.954-.128-1.267-7.682-7.692-.132 1.005ZM291.539 81.099l8.797 8.808-.129-1.268-8.536-8.547-.132 1.007ZM291.105 84.383l9.652 9.664-.129-1.267-9.39-9.402-.133 1.005ZM290.673 87.67l8.887 8.897.389-.75-9.143-9.154-.133 1.007ZM290.24 90.954l8.053 8.065.387-.751-8.307-8.319-.133 1.005ZM289.807 94.24l7.219 7.228.387-.75-7.474-7.484-.132 1.006ZM291.589 98.606l.803 1.943 3.365 3.369.389-.75-4.557-4.562Z" fill="#575758"/><path d="m296.96 56.687-1.092 1.625-1.101-1.71-.192 1.46 1.276 1.301 1.223-1.544-.114-1.132Z" fill="#575758"/><path d="m298.792 53.959-2.924 4.352-2.802-4.352 2.802-3.636 2.924 3.636ZM298.35 18.828c-2.144-.864-8.255-.316-8.255-.316s-1.49-2.402-2.745-2.927c-2.851-1.194-2.501 2.281-2.501 2.281s-3.138-2.978-5.167-1.558c-2.029 1.421 1.431 4.08 1.431 4.08s-3.449.03-2.528 2.799c.921 2.769 4.368 3.38 4.368 3.38s-.674 1.798.322 4.296c.998 2.497 2.132 2.405 2.132 2.405l14.055-1.454s2.838-.552 2.882-4.277c.045-3.727-2.71-4.729-2.71-4.729s1.076-3.03-1.284-3.98Z" fill="#39393A"/><path d="M286.14 33.607s-1.812-1.457-2.307.449c-.494 1.906.831 5.31 2.963 4.296l-.656-4.745Z" fill="#D96C62"/><path d="M285.756 40.028s1.034 5.374 6.614 4.276c5.545-1.09 8.477-6.188 8.635-6.428l.005-.006-.158-1.141-.823-5.922-.44-3.166s-.386-5.779-5.939-5.765c-4.058.009-7.6 1.373-9.054 3.777a5.133 5.133 0 0 0-.134.237c-.442.831-.643 1.78-.542 2.831l.919 5.66.226 1.388.691 4.259Z" fill="#EA9B79"/><path d="M290.291 29.133s2.68 1.29 3.858-.094c1.178-1.385-2.305-1.965-3.355-1.666-1.05.3-1.276 1.5-.503 1.76ZM287.742 29.63s-2.002 2.201-3.613 1.36c-1.61-.843 1.402-2.688 2.488-2.804 1.085-.116 1.744.912 1.125 1.443Z" fill="#39393A"/><path d="M291.597 39.62c.909-.094 1.467-.787 1.496-.823a.252.252 0 0 0-.042-.354.25.25 0 0 0-.352.041c-.031.038-.678.828-1.664.6a.251.251 0 0 0-.113.491c.242.056.467.066.675.044Z" fill="#D96C62"/><path d="M293.271 35.313s-3.272 1.35-5.022 1.53c0 0 1.133 2.412 3.543 1.278 1.875-.881 1.479-2.808 1.479-2.808Z" fill="#fff"/><path d="M283.978 26.175c.816-.481 1.989-.6 3.469-.266 2.141.484 4.195-.726 5.95-2.103 1.755-1.376 3.194-.216 2.706.824-.486 1.04-.271 1.763.69 2.78.962 1.018-1.063 1.972.291 2.654.57.287.651.866.555 1.44-.106.625.521 1.12 1.11.888.603-.285 1.28-1.585 1.28-1.585l.019-3.255s-.707-6.29-6.26-6.276c-4.058.01-8.195 1.744-9.649 4.148-.047.078-.119.67-.161.751Z" fill="#39393A"/><path d="M292.253 33.656c.076.392.942.552 1.935.359.992-.193 1.735-.667 1.659-1.058-.076-.391-.942-.552-1.934-.359-.993.194-1.736.667-1.66 1.058ZM285.064 35.77c.141-.014.288-.035.438-.065.991-.192 1.734-.666 1.658-1.057-.076-.391-.942-.552-1.933-.359a4.535 4.535 0 0 0-.388.093l.225 1.387Z" fill="#D96C62"/><path d="M291.057 31.655c.104.537.431.926.731.867.301-.058.46-.541.356-1.078-.105-.538-.433-.926-.733-.867-.3.058-.459.54-.354 1.078ZM285.665 32.705c.104.537.432.925.732.867.301-.059.459-.542.355-1.079-.104-.537-.432-.925-.733-.867-.3.059-.458.541-.354 1.079ZM298.835 36.036c.037.054 1.061 1.557 2.17 1.84a.038.038 0 0 0 .004-.006l-.158-1.141s-.911.02-2.016-.693Z" fill="#39393A"/><path d="M299.093 32.114s1.585-3.303 3.597-1.342c1.658 1.617.154 6.963-2.733 5.793l-.864-4.451Z" fill="#EA9B79"/><path d="M300.082 35.64a.224.224 0 0 0 .181-.24c-.185-2.23 1.494-3.347 1.565-3.394a.226.226 0 0 0 .067-.311.224.224 0 0 0-.311-.067c-.08.052-1.977 1.303-1.769 3.81a.225.225 0 0 0 .267.201Z" fill="#39393A"/><path d="M301.881 33.898a.224.224 0 0 0 .064-.42c-.103-.054-1.015-.524-1.645-.226a.225.225 0 1 0 .193.408c.362-.172 1.018.098 1.24.216a.22.22 0 0 0 .148.022ZM289.839 34.698a.225.225 0 0 0-.085-.441c-.813.158-1.276-.198-1.438-.359.527-1.989 1.047-3.99 1.052-4.011a.224.224 0 1 0-.434-.113c-.006.02-.545 2.1-1.083 4.125a.226.226 0 0 0 .035.19c.025.035.645.864 1.953.61Z" fill="#39393A"/><path d="M391.946 108.96s-12.081-8.36-11.765-19.196c.317-10.836 16.804-11.897 21.76-3.85 5.304 8.61-9.995 23.046-9.995 23.046Z" fill="#20B573"/><path d="M389.38 136.653a.262.262 0 0 1-.245-.329c2.454-9.125 2.702-23.681 2.478-34.286-.242-11.5-1.076-20.954-1.085-21.049a.26.26 0 1 1 .519-.047c.009.095.845 9.568 1.088 21.085.224 10.638-.027 25.248-2.496 34.433a.261.261 0 0 1-.259.193Z" fill="#39393A"/><path d="M391.932 107.873a.26.26 0 0 1-.251-.239c-1.099-13.22-7.059-25.056-7.119-25.174a.261.261 0 0 1 .464-.237c.061.119 6.068 12.043 7.174 25.367a.26.26 0 0 1-.238.282l-.03.001Z" fill="#39393A"/><path d="M391.861 108.754a.263.263 0 0 1-.242-.185c-2.048-6.764-5.009-11.702-7.132-14.653-2.301-3.2-4.142-4.82-4.16-4.836a.261.261 0 0 1 .343-.394c.076.066 1.894 1.666 4.228 4.908 2.15 2.986 5.148 7.982 7.22 14.823a.261.261 0 0 1-.257.337ZM391.917 105.438l-.013-.001a.26.26 0 0 1-.239-.281c.885-10.87 7.061-21.863 7.123-21.972a.262.262 0 0 1 .454.258c-.062.109-6.182 11.004-7.058 21.756a.261.261 0 0 1-.267.24Z" fill="#39393A"/><path d="M391.916 107.665a.26.26 0 0 1-.246-.325c1.614-6.422 4.502-11.018 6.641-13.743 2.322-2.958 4.236-4.376 4.317-4.435a.262.262 0 0 1 .308.422c-.019.014-1.949 1.444-4.228 4.353-2.103 2.682-4.943 7.207-6.532 13.531a.262.262 0 0 1-.26.197Z" fill="#39393A"/><path d="M395.683 127.679s14.444-2.663 18.594-12.675c4.151-10.011-10.451-17.752-18.269-12.449-8.363 5.673-.325 25.124-.325 25.124Z" fill="#20B573"/><path d="M391.23 150.866h-.003a.26.26 0 0 1-.269-.252c-.166-4.812.629-10.338 2.36-16.426 1.383-4.863 3.364-10.094 5.887-15.549 4.296-9.283 8.74-16.09 8.784-16.158a.26.26 0 1 1 .436.287c-.044.068-4.47 6.848-8.75 16.098-3.943 8.524-8.566 20.948-8.196 31.73a.26.26 0 0 1-.249.27Z" fill="#39393A"/><path d="M396.252 126.711a.26.26 0 0 1-.24-.387c6.468-11.697 16.831-20.103 16.935-20.186a.26.26 0 0 1 .327.406c-.103.083-10.389 8.429-16.806 20.033a.26.26 0 0 1-.216.134Z" fill="#39393A"/><path d="M395.957 127.544a.26.26 0 0 1-.208-.432c4.693-5.388 9.473-8.712 12.657-10.552 3.457-1.998 5.771-2.709 5.867-2.739a.261.261 0 0 1 .152.5c-.024.008-2.367.729-5.776 2.701-3.146 1.82-7.868 5.107-12.508 10.433a.257.257 0 0 1-.184.089ZM397.264 124.497a.262.262 0 0 1-.258-.348c3.607-10.165 2.488-22.615 2.476-22.74a.261.261 0 0 1 .519-.049c.012.126 1.142 12.688-2.504 22.964a.259.259 0 0 1-.233.173Z" fill="#39393A"/><path d="M396.354 126.529a.262.262 0 0 1-.269-.307c1.141-6.418.399-11.673-.424-14.952-.893-3.554-2.07-5.617-2.082-5.638a.26.26 0 1 1 .451-.261c.049.085 1.22 2.132 2.132 5.75.839 3.333 1.595 8.673.436 15.193a.26.26 0 0 1-.244.215Z" fill="#39393A"/><path d="M381.839 125.182s-14.361-3.077-18.223-13.203c-3.863-10.127 10.953-17.445 18.616-11.92 8.199 5.911-.393 25.123-.393 25.123Z" fill="#20B573"/><path d="M389.993 151.755a.261.261 0 0 1-.255-.227c-1.234-9.369-6.586-22.905-10.859-32.61-4.633-10.525-9.03-18.934-9.074-19.018a.26.26 0 1 1 .462-.242c.044.083 4.449 8.509 9.089 19.05 4.287 9.736 9.657 23.321 10.899 32.751a.262.262 0 0 1-.225.294c-.012.002-.025.002-.037.002Z" fill="#39393A"/><path d="M381.314 124.2a.262.262 0 0 1-.227-.141c-6.084-11.784-16.126-20.421-16.227-20.507a.261.261 0 0 1 .338-.398c.102.087 10.221 8.787 16.352 20.664a.263.263 0 0 1-.236.382Z" fill="#39393A"/><path d="M381.585 125.041a.26.26 0 0 1-.197-.095c-4.485-5.458-9.113-8.879-12.205-10.788-3.351-2.07-5.672-2.858-5.695-2.866a.261.261 0 0 1 .165-.495c.096.033 2.388.81 5.787 2.906 3.13 1.931 7.814 5.391 12.35 10.911a.26.26 0 0 1-.205.427ZM380.366 121.958a.261.261 0 0 1-.244-.181c-3.351-10.377-1.863-22.901-1.847-23.026a.26.26 0 1 1 .517.064c-.015.124-1.489 12.537 1.826 22.802a.261.261 0 0 1-.252.341Z" fill="#39393A"/><path d="M381.218 124.015a.261.261 0 0 1-.254-.223c-.972-6.551-.064-11.868.87-15.174 1.015-3.591 2.244-5.604 2.296-5.687a.26.26 0 1 1 .443.274c-.012.02-1.249 2.048-2.243 5.576-.916 3.253-1.808 8.485-.85 14.934a.262.262 0 0 1-.262.3Z" fill="#39393A"/><path d="M418.691 207.622c0 1.513-12.402 2.74-27.701 2.74-15.299 0-27.702-1.227-27.702-2.74 0-1.514 12.403-2.742 27.702-2.742 15.299 0 27.701 1.228 27.701 2.742Z" fill="#CED2E6"/><path d="M407.949 187.805h-34.971c-.665 0-1.204-.54-1.204-1.206v-.553c0-.666.539-1.206 1.204-1.206h34.971c.666 0 1.204.54 1.204 1.206v.553c0 .666-.538 1.206-1.204 1.206Z" fill="#39393A"/><path d="M373.416 151.992h34.169c.568 0 1.028.461 1.028 1.03v4.203c0 .569-.46 1.03-1.028 1.03h-34.169a1.03 1.03 0 0 1-1.028-1.03v-4.203c0-.569.461-1.03 1.028-1.03Z" fill="#575758"/><path d="m406.143 135.348-.43 1.142-.271.723-.78 2.073-.272.723-.801 2.129-.271.722-3.435 9.132H381.12l-3.434-9.132-.272-.722-.801-2.129-.273-.723-.779-2.073-.271-.723-.43-1.142a1.195 1.195 0 0 1 1.118-1.618h29.047c.835 0 1.412.835 1.118 1.618Z" fill="#0775F7"/><path d="m405.713 136.49-.272.723H375.56l-.271-.723h30.424ZM404.662 139.286l-.272.723h-27.777l-.273-.723h28.322ZM403.588 142.138l-.271.723h-25.632l-.272-.723h26.175Z" fill="#074FC6"/><path d="m385.475 158.255-1.041 3.359-14.485 46.75h-2.83l9.186-45.795.865-4.314h8.305ZM413.968 208.364h-2.831l-14.913-48.134-.612-1.975h8.303l.21 1.047h.001l9.842 49.062Z" fill="#39393A"/><path d="M407.949 181.359h-34.971c-.665 0-1.204-.54-1.204-1.206v-.553c0-.666.539-1.205 1.204-1.205h34.971c.666 0 1.204.539 1.204 1.205v.553c0 .666-.538 1.206-1.204 1.206Z" fill="#575758"/><path d="M193.442 24.73c0 7.395-6.062 13.39-13.539 13.39-7.479 0-13.54-5.995-13.54-13.39 0-7.395 6.061-13.39 13.54-13.39 7.477 0 13.539 5.995 13.539 13.39Z" fill="#CED2E6"/><path d="M193.442 22.987c0 7.395-6.062 13.39-13.539 13.39-7.479 0-13.54-5.995-13.54-13.39 0-7.395 6.061-13.39 13.54-13.39 7.477 0 13.539 5.995 13.539 13.39Z" fill="#0775F7"/><path d="M179.903 33.872c-6.07 0-11.008-4.883-11.008-10.885s4.938-10.885 11.008-10.885c6.069 0 11.007 4.883 11.007 10.885s-4.938 10.885-11.007 10.885Z" fill="#fff"/><path d="M190.911 22.988c0 .29-.012.577-.035.86-.445-5.602-5.197-10.026-10.972-10.026-5.778 0-10.53 4.424-10.975 10.026a11.1 11.1 0 0 1-.033-.86c0-6.003 4.937-10.885 11.008-10.885 6.068 0 11.007 4.882 11.007 10.885Z" fill="#CED2E6"/><path d="M179.903 24.12a.276.276 0 0 1-.221-.11l-5.4-7.19a.271.271 0 0 1 .057-.38.278.278 0 0 1 .386.056l5.269 7.015 5.987-2.6c.14-.06.301.003.363.14a.271.271 0 0 1-.141.36l-6.189 2.686a.278.278 0 0 1-.111.023ZM134.358 45.982s-2.753-5.797-9.192-4.354c-4.501 1.009-6.15 6.772-5.442 15.503 1.032 12.709-2.882 20.596-2.882 20.596l5.772 1.01s13.429-22.554 11.744-32.755Z" fill="#39393A"/><path d="m149.944 84.78 7.306 26.749-2.604-3.007c.965.513 2.08.908 3.316 1.186 1.235.278 2.583.439 3.991.512 1.409.073 2.877.06 4.378-.002 1.501-.063 3.036-.175 4.593-.308l.009-.001a4.176 4.176 0 0 1 4.514 3.81 4.193 4.193 0 0 1-3.502 4.484c-1.606.256-3.24.499-4.916.693-1.675.194-3.394.34-5.173.38-1.778.038-3.621-.028-5.526-.305-1.901-.276-3.874-.772-5.801-1.605a4.546 4.546 0 0 1-2.512-2.728l-.092-.278-8.765-26.305a5.645 5.645 0 0 1 3.563-7.139 5.634 5.634 0 0 1 7.221 3.864Z" fill="#EA9B79"/><path d="M152.757 181.665a.97.97 0 0 1-.328-.058l-38.272-13.816a.966.966 0 0 1 .655-1.819l38.272 13.817a.966.966 0 0 1-.327 1.876Z" fill="#C67D2D"/><path d="M112.895 181.665a.968.968 0 0 1-.329-1.876l38.726-14.044a.966.966 0 0 1 .659 1.818l-38.728 14.044a.961.961 0 0 1-.328.058Z" fill="#C67D2D"/><path d="M156.161 206.358a1.655 1.655 0 0 1-1.636-1.436l-6.912-51.682h-28.928l-6.805 51.679a1.652 1.652 0 1 1-3.275-.433l6.994-53.117a1.653 1.653 0 0 1 1.638-1.438h31.821c.828 0 1.528.614 1.638 1.435l7.104 53.117a1.654 1.654 0 0 1-1.639 1.875Z" fill="#F9AE39"/><path d="M139.842 151.585h-20.667c-6.548 0-13.559-3.588-14.565-10.066a123.096 123.096 0 0 1-1.301-24.751 30.15 30.15 0 0 1 11.413-22.205s4.128 18.014-1.063 42.878c1.982 9.447 26.183 14.144 26.183 14.144Z" fill="#F9AE39"/><path d="M226.781 207.402c0 2.434-32.381 4.407-72.325 4.407s-72.326-1.973-72.326-4.407 32.382-4.407 72.326-4.407c39.944 0 72.325 1.973 72.325 4.407Z" fill="#CED2E6"/><path d="M113.457 115.282s-.292 1.993 2.375 2.553l27.802.929s1.878-.947 1.54-3.278c0 0-11.739-6.601-31.717-.204Z" fill="#074FC6"/><path d="M144.015 124.489c-14.431 7.948-30.189 1.548-30.189 1.548.771-2.106 1.342-4.481 1.756-6.641a73.32 73.32 0 0 0 .874-5.9c6.139-.337 21.185-.978 27.082.422l.047 2.366.43 8.205Z" fill="#EA9B79"/><path d="M133.356 120.677c-.107.745-.443 1.313-.751 1.269-.308-.045-.471-.684-.364-1.429.107-.746.443-1.313.751-1.269.307.044.47.684.364 1.429ZM143.585 116.284c-6.145-.374-18.238-.504-28.003 3.112a73.32 73.32 0 0 0 .874-5.9c6.139-.337 21.186-.978 27.082.423l.047 2.365Z" fill="#D96C62"/><path d="M150.441 104.851a3.472 3.472 0 0 1-.207.502c-.03.059-.06.118-.092.175-.773 1.436-1.97 2.68-2.971 3.565a20.728 20.728 0 0 1-1.494 1.191c-.199.142-.315.216-.315.216a.766.766 0 0 1-.004.043c-.011.107-.019.22-.029.339-.034.455-.065.997-.087 1.615-.02.497-.033 1.042-.047 1.628-.007.434-.016.889-.021 1.361-8.156-3.647-24.951-1.345-31.716-.205.124-.585.237-1.157.341-1.717.478-2.584.746-4.911.853-6.993.161-3.102-.111-7.762-.768-12.577-.041-.313-.086-.623-.131-.936-.029-.204-.06-.407-.093-.61a85.363 85.363 0 0 0-.805-4.495c-1.335-6.408-.398-13.134 6.09-13.93a97.632 97.632 0 0 1 7.853-.631l12.543 3.648 1.193.346c.685.221 1.32.435 1.906.644.25.09.493.18.726.266.608.229 1.16.452 1.66.673 1.004.444 1.8.878 2.429 1.326 2.752 1.956 2.325 4.166 2.255 8.531l-.001.06-.002.167c-.002.025 0 .05 0 .075a31.555 31.555 0 0 0 .056 2.22c.046.824.12 1.643.21 2.446a69.178 69.178 0 0 0 .225 1.848c.503 3.821 1.125 7.17.443 9.209Z" fill="#0775F7"/><path d="m149.509 88.885-.002.169v.075c-.003.178-.003.356-.001.534l-2.636 1.656a.365.365 0 0 1-.507-.115.369.369 0 0 1 .116-.508l2.795-1.756a.367.367 0 0 1 .235-.055ZM132.131 103.021a.368.368 0 0 1-.246-.642l2.452-2.21a.368.368 0 0 1 .493.548l-2.453 2.21a.366.366 0 0 1-.246.094ZM149.999 95.642l-1.68 1.514a.368.368 0 0 1-.247.094.366.366 0 0 1-.274-.12.37.37 0 0 1 .027-.521l2.059-1.856c.037.299.075.595.115.889ZM127.157 94.135a.369.369 0 0 1 .386-.568l3.212.757a.368.368 0 0 1-.169.717l-3.211-.757a.366.366 0 0 1-.218-.149ZM115.699 100.443a.369.369 0 0 1-.246-.642l2.452-2.21a.368.368 0 1 1 .493.547l-2.453 2.21a.363.363 0 0 1-.246.095ZM144.244 99.917a.366.366 0 0 1 .685-.03l1.318 3.029a.368.368 0 0 1-.675.294l-1.317-3.029a.37.37 0 0 1-.011-.264ZM150.441 104.851a3.472 3.472 0 0 1-.207.502c-.03.059-.06.118-.092.175l-1.792-.565a.364.364 0 0 1-.206-.165.368.368 0 0 1 .427-.538l1.87.591ZM140.315 105.115a.369.369 0 0 1 .309.615l-2.218 2.446a.366.366 0 0 1-.519.025.37.37 0 0 1-.025-.52l2.217-2.447a.367.367 0 0 1 .236-.119ZM139.009 99.474a.368.368 0 0 1-.133-.675l2.795-1.756a.368.368 0 0 1 .391.623l-2.794 1.757a.368.368 0 0 1-.259.05ZM140.789 88.835a.368.368 0 0 1-.314.612l-3.28-.358a.369.369 0 0 1 .08-.732l3.28.357c.094.01.176.055.234.12ZM136.02 81.71a.369.369 0 0 1 .682-.086l1.56 2.91a.368.368 0 1 1-.648.349l-1.561-2.91a.365.365 0 0 1-.033-.262ZM147.171 109.093c-.209.183-.409.352-.594.503l-.432-1.1a.367.367 0 0 1 .208-.478.368.368 0 0 1 .477.207l.341.868ZM117.011 103.496a.367.367 0 0 1 .448-.52l3.105 1.117a.368.368 0 0 1-.249.694l-3.105-1.119a.365.365 0 0 1-.199-.172ZM118.532 107.698a.37.37 0 0 1 .241.644l-2.471 2.189a.368.368 0 1 1-.488-.552l2.472-2.188a.36.36 0 0 1 .246-.093ZM123.01 111.174a.368.368 0 0 1-.35.592l-3.253-.555a.368.368 0 1 1 .123-.726l3.253.554a.37.37 0 0 1 .227.135ZM125.73 80.244a.367.367 0 0 1 .554-.406l2.773 1.791a.368.368 0 0 1-.399.62l-2.772-1.792a.367.367 0 0 1-.156-.213ZM144.647 82.355a.369.369 0 0 1 .522.448l-1.104 3.112a.367.367 0 1 1-.693-.246l1.103-3.114a.368.368 0 0 1 .172-.2ZM143.166 78.296l-1.705 2.188a.369.369 0 0 1-.58-.453l1.558-2.001c.25.09.493.18.727.266Z" fill="#074FC6"/><path d="M126.503 108.515a.297.297 0 0 0 .226.199c.05.011.102.009.153-.009.055-.018 5.391-1.748 11.007.582 2.854 1.183 5.39 1.636 7.441 1.595a12.788 12.788 0 0 1 .033-.381s.115-.075.314-.217c-2.016.099-4.601-.327-7.557-1.553-5.83-2.417-11.202-.671-11.427-.596a.3.3 0 0 0-.19.38ZM139.34 77.04c-.701 1.092-2.153 2.328-5.089 2.115-4.051-.295-6.716-4.164-7.647-5.755l.193-.007 12.543 3.648Z" fill="#074FC6"/><path d="M135.033 84.22c.119.024.238.041.358.051 1.12.09 2.027-.235 2.696-.967 1.948-2.13 1.148-6.988 1.113-7.194a.3.3 0 1 0-.592.101c.008.048.786 4.774-.964 6.688-.545.595-1.267.848-2.205.772-3.926-.316-8.323-10.298-8.366-10.399a.301.301 0 0 0-.396-.155.301.301 0 0 0-.155.396c.181.414 4.351 9.863 8.511 10.707Z" fill="#fff"/><path d="M147.256 80.295c-.259 2.882.449 7.636 2.307 11.053a31.556 31.556 0 0 1-.056-2.22l-.001-.075.005-.226c.07-4.365.495-6.576-2.255-8.532ZM124.183 85.365c-1.439 5.56-6.7 10.021-10.299 8.63a76.626 76.626 0 0 0-.224-1.548c-.23-1.511-.5-3.025-.807-4.494-1.333-6.407-.396-13.133 6.092-13.93.471-.057.935-.11 1.386-.158 3.249 1.386 5.509 5.098 3.852 11.5Z" fill="#EA9B79"/><path d="M139.28 93.622c3.732.757 5.364-3.107 5.379-3.146a.3.3 0 1 0-.555-.228c-.06.145-1.465 3.441-4.705 2.784-3.398-.69-9.74-7.387-9.804-7.454a.3.3 0 0 0-.437.412c.265.282 6.538 6.904 10.122 7.632Z" fill="#074FC6"/><path d="M171.585 184.28h-9.232s-2.136-10.259-2.853-16.012c-.717-5.753-1.089-19.392-1.089-19.392s-7.356 2.393-22.755 1.491c-34.12-1.996-21.183-27.097-21.183-27.097 1.153 1.595 9.801 3.792 14.627 4.554 14.814 1.424 26.075 3.942 33.785 7.273 1.857.802 3.507 1.65 4.952 2.543 1.86 1.147 3.023 4.628 3.724 9.206 2.106 13.761.024 37.434.024 37.434Z" fill="#39393A"/><path d="M163.498 179.337a.33.33 0 0 1-.323-.266c-1.331-6.599-1.778-14.814-2.138-21.415-.298-5.473-.579-10.642-1.281-11.264-.569-.503-2.93-.11-5.92.387-5.947.988-14.933 2.482-24.844.173-5.398-1.258-9.367-3.883-11.795-7.804-4.188-6.761-2.279-15.144-2.259-15.228a.33.33 0 0 1 .643.152c-.019.081-1.864 8.208 2.18 14.732 2.333 3.763 6.162 6.288 11.38 7.503 9.783 2.28 18.691.799 24.587-.181 3.53-.587 5.661-.941 6.465-.23.869.769 1.113 4.549 1.504 11.724.358 6.58.804 14.768 2.125 21.32a.33.33 0 0 1-.324.397Z" fill="#575758"/><path d="M171.761 179.511h-.007l-10.265-.221a.33.33 0 0 1-.324-.338.328.328 0 0 1 .338-.324l10.265.221a.33.33 0 0 1-.007.662Z" fill="#575758"/><path d="m185.854 66.757-16.269-.01a1.143 1.143 0 0 1-1.142-1.146l.007-10.009a1.144 1.144 0 0 1 1.143-1.142l16.269.01c.631.001 1.142.514 1.142 1.145l-.008 10.01c0 .631-.511 1.142-1.142 1.142Z" fill="#DF605C"/><path d="m184.884 64.91-1.485 5.61-2.592-5.274 4.077-.336Z" fill="#DF605C"/><path d="M181.832 59.695c-.332 2.102-4.25 4.732-4.25 4.732s-3.771-2.636-3.985-4.738c-.233-2.28 2.462-2.976 4.153-1.257 1.785-1.717 4.442-1.016 4.082 1.263Z" fill="#fff"/><path d="m124.925 81.178 8.431 30.869-3.005-3.469c1.114.592 2.402 1.048 3.828 1.368 1.425.321 2.98.507 4.605.591 1.626.085 3.321.07 5.053-.002 1.733-.072 3.504-.202 5.301-.356l.01-.001a4.82 4.82 0 0 1 5.21 4.398c.216 2.531-1.578 4.774-4.042 5.174-1.854.297-3.74.576-5.673.801a64.855 64.855 0 0 1-5.97.438c-2.052.044-4.179-.032-6.378-.352-2.194-.319-4.47-.892-6.695-1.852a5.25 5.25 0 0 1-2.899-3.149l-.107-.32-10.114-30.358a6.516 6.516 0 0 1 4.112-8.24 6.503 6.503 0 0 1 8.333 4.46Z" fill="#EA9B79"/><path d="M128.697 111.059a.251.251 0 0 1-.124-.468c.078-.044 1.923-1.087 3.851-1.236a.249.249 0 0 1 .268.231.25.25 0 0 1-.23.268c-1.814.14-3.623 1.162-3.641 1.173a.255.255 0 0 1-.124.032Z" fill="#D96C62"/><path d="M131.761 109.944a.248.248 0 0 1-.13-.036c-1.162-.706-2.57-.813-2.584-.814a.25.25 0 0 1 .036-.499c.062.005 1.543.117 2.808.886a.25.25 0 0 1-.13.463Z" fill="#D96C62"/><path d="M187.655 184.192h-9.231s-2.136-10.26-2.853-16.012c-.717-5.753-1.089-19.393-1.089-19.393s-7.357 2.393-22.756 1.491c-34.12-1.995-21.182-27.096-21.182-27.096 1.153 1.594 8.214.489 13.041 1.25 14.813 1.424 27.66 7.246 35.371 10.577 1.856.801 3.507 1.65 4.952 2.542 1.859 1.148 3.022 4.629 3.723 9.207 2.106 13.76.024 37.434.024 37.434Z" fill="#39393A"/><path d="M179.569 179.249a.332.332 0 0 1-.324-.266c-1.33-6.6-1.778-14.814-2.137-21.415-.298-5.473-.58-10.642-1.282-11.264-.568-.503-2.93-.11-5.919.387-5.947.988-14.934 2.482-24.844.173-5.399-1.258-9.367-3.883-11.796-7.804-4.188-6.761-2.278-15.144-2.259-15.228a.331.331 0 0 1 .644.152c-.02.081-1.865 8.207 2.18 14.732 2.333 3.763 6.162 6.288 11.381 7.503 9.782 2.28 18.691.799 24.585-.181 3.531-.587 5.662-.941 6.466-.23.869.769 1.113 4.549 1.504 11.724.358 6.579.803 14.768 2.125 21.32a.33.33 0 0 1-.324.397Z" fill="#575758"/><path d="M187.832 179.422h-.008l-10.265-.22a.331.331 0 0 1-.323-.338.327.327 0 0 1 .337-.324l10.266.221a.33.33 0 0 1-.007.661Z" fill="#575758"/><path d="M187.401 196.035h-6.516l-1.255-7.655-.687-4.188h8.095l.129 4.188.234 7.655Z" fill="#EA9B79"/><path d="M187.401 196.035h-6.516l-.935-5.699-.32-1.956h7.537l.062 2.028.172 5.627Z" fill="#F9AE39"/><path d="m187.229 190.407-7.279-.072-.32-1.955h7.536l.063 2.027Z" fill="#C67D2D"/><path d="M203.479 206.338h-24.644c-.183-.333-.283-.806-.324-1.37-.154-2.088.51-5.419.836-7.519.04-.246.074-.474.1-.681a7.17 7.17 0 0 0 .074-.859c0-1.713 1.515-1.42 1.515-1.42 2.494 2.449 5.317-1.223 6.966-.018 0 0 .067.049.218.167.138.109.349.278.641.524.42.352 1.009.862 1.807 1.581 1.956 1.762 5.283 2.926 8.117 4.112.361.151.696.302 1.007.452.237.114.459.229.669.343 2.316 1.252 3.053 2.448 3.22 3.318.16.835-.202 1.37-.202 1.37Z" fill="#015ECD"/><path d="M200.461 201.65c-.634.506-2.046 1.518-3.178 1.518-.05 0-.1-.001-.149-.006-.8-.066-3.736-1.512-6.126-2.826-1.369-.755-2.62-1.496-3.519-2.091-1.476-.973-1.731-1.345-1.789-1.603-.216-.973 1.392-1.652 2.52-2.003.138.108.349.278.641.523-1.401.383-2.551.982-2.498 1.323.138.289 1.596 1.402 5.083 3.313 2.661 1.458 5.185 2.638 5.745 2.685.758.061 1.874-.631 2.601-1.175.237.114.459.228.669.342ZM203.479 206.339h-24.644c-.183-.334-.282-.807-.324-1.371h25.17c.16.835-.202 1.371-.202 1.371Z" fill="#074FC6"/><path d="M181.35 206.338h-.732c.731-.836 1.414-2.118 1.325-3.951-.119-2.438-1.58-4.081-2.595-4.938.039-.246.073-.475.1-.682 1.094.838 2.938 2.671 3.081 5.591.085 1.75-.488 3.056-1.179 3.98Z" fill="#074FC6"/><path d="M190.251 198.198a.408.408 0 0 1-.098-.802l1.539-.382a.406.406 0 1 1 .197.789l-1.54.383a.417.417 0 0 1-.098.012ZM188.721 196.915a.407.407 0 0 1-.097-.802l1.539-.382a.405.405 0 0 1 .492.297.406.406 0 0 1-.296.492l-1.539.383a.419.419 0 0 1-.099.012ZM191.79 199.094a.407.407 0 0 1-.097-.802l1.539-.382a.406.406 0 0 1 .196.789l-1.539.383a.419.419 0 0 1-.099.012ZM193.33 199.956a.407.407 0 0 1-.098-.802l1.54-.382a.405.405 0 1 1 .195.789l-1.539.383a.417.417 0 0 1-.098.012ZM195.008 200.752a.407.407 0 0 1-.097-.801l1.539-.383a.406.406 0 1 1 .195.789l-1.539.384a.415.415 0 0 1-.098.011ZM196.829 201.432a.407.407 0 0 1-.098-.802l1.54-.382a.407.407 0 0 1 .195.789l-1.539.383a.417.417 0 0 1-.098.012Z" fill="#fff"/><path d="M171.585 184.238h-9.232s-2.136-10.259-2.853-16.012c-.717-5.753-1.089-19.392-1.089-19.392s-7.356 2.393-22.755 1.491c-34.12-1.996-21.183-27.097-21.183-27.097 1.153 1.595 9.801 3.792 14.627 4.554 14.814 1.424 26.075 3.942 33.785 7.273 1.857.802 3.507 1.65 4.952 2.543 1.86 1.147 3.023 4.628 3.724 9.206 2.106 13.761.024 37.434.024 37.434Z" fill="#39393A"/><path d="M163.499 179.295a.332.332 0 0 1-.324-.266c-1.331-6.599-1.778-14.814-2.137-21.415-.299-5.473-.58-10.642-1.282-11.264-.568-.503-2.93-.11-5.919.387-5.947.988-14.934 2.482-24.844.173-5.399-1.258-9.367-3.883-11.796-7.804-4.188-6.761-2.279-15.144-2.259-15.228a.33.33 0 1 1 .643.152c-.019.081-1.864 8.208 2.181 14.732 2.333 3.763 6.162 6.288 11.38 7.503 9.783 2.28 18.691.799 24.586-.181 3.531-.587 5.662-.941 6.466-.23.869.769 1.113 4.549 1.504 11.724.358 6.58.803 14.768 2.125 21.32a.33.33 0 0 1-.324.397Z" fill="#575758"/><path d="M171.761 179.469h-.007l-10.265-.221a.33.33 0 0 1-.324-.338.328.328 0 0 1 .338-.324l10.265.221a.33.33 0 0 1-.007.662Z" fill="#575758"/><path d="M171.33 196.033h-6.515l-1.255-7.654-.687-4.189h8.094l.129 4.189.234 7.654Z" fill="#EA9B79"/><path d="M171.33 196.034h-6.516l-.934-5.698-.32-1.957h7.536l.062 2.028.172 5.627Z" fill="#F9AE39"/><path d="m171.159 190.406-7.279-.072-.32-1.955h7.536l.063 2.027Z" fill="#C67D2D"/><path d="M187.408 206.318h-24.644c-.183-.333-.283-.806-.323-1.37-.155-2.088.509-5.419.835-7.519.04-.246.074-.474.1-.681a7.17 7.17 0 0 0 .074-.859c0-1.713 1.515-1.42 1.515-1.42 2.494 2.449 5.317-1.223 6.966-.018a23.891 23.891 0 0 1 .859.691c.42.352 1.01.862 1.808 1.581 1.955 1.762 5.283 2.926 8.116 4.112.361.151.697.302 1.008.452.236.114.459.229.669.343 2.316 1.252 3.052 2.448 3.219 3.318.161.835-.202 1.37-.202 1.37Z" fill="#0775F7"/><path d="M184.391 201.629c-.635.506-2.046 1.519-3.179 1.519-.05 0-.1-.002-.149-.007-.799-.066-3.736-1.511-6.125-2.826-1.37-.754-2.62-1.495-3.519-2.09-1.476-.973-1.732-1.345-1.789-1.604-.216-.973 1.392-1.652 2.52-2.003.139.108.348.278.64.523-1.4.383-2.55.982-2.497 1.323.137.289 1.596 1.403 5.083 3.314 2.661 1.458 5.185 2.637 5.744 2.684.759.061 1.874-.63 2.603-1.175.236.114.458.228.668.342ZM187.408 206.318h-24.644c-.183-.333-.282-.806-.323-1.37h25.169c.161.834-.202 1.37-.202 1.37Z" fill="#074FC6"/><path d="M165.279 206.318h-.732c.731-.836 1.414-2.118 1.325-3.951-.119-2.438-1.58-4.081-2.595-4.938.039-.245.073-.475.1-.682 1.094.838 2.938 2.671 3.082 5.591.085 1.751-.489 3.056-1.18 3.98Z" fill="#074FC6"/><path d="M174.18 198.178a.406.406 0 0 1-.097-.801l1.539-.382a.407.407 0 0 1 .196.789l-1.54.383a.46.46 0 0 1-.098.011ZM172.651 196.895a.406.406 0 0 1-.098-.802l1.54-.382a.407.407 0 0 1 .195.789l-1.54.383a.403.403 0 0 1-.097.012ZM175.72 199.074a.407.407 0 0 1-.098-.802l1.54-.382a.407.407 0 0 1 .195.789l-1.539.383a.417.417 0 0 1-.098.012ZM177.259 199.935a.406.406 0 0 1-.097-.801l1.539-.382a.406.406 0 0 1 .196.789l-1.539.383a.417.417 0 0 1-.099.011ZM178.938 200.732a.406.406 0 0 1-.098-.802l1.539-.382a.406.406 0 1 1 .196.789l-1.539.383a.417.417 0 0 1-.098.012ZM180.758 201.411a.406.406 0 0 1-.097-.801l1.539-.383a.406.406 0 1 1 .196.789l-1.54.383a.417.417 0 0 1-.098.012Z" fill="#fff"/><path d="m204.945 81.171-6.617 28.019-.174.736-.445 1.887a1.806 1.806 0 0 1-1.759 1.394h-44.572a1.81 1.81 0 0 1-1.76-2.226l7.236-30.642a1.805 1.805 0 0 1 1.758-1.393h44.573a1.81 1.81 0 0 1 1.76 2.225Z" fill="#39393A"/><path d="m198.328 109.189-.175.737h-46.28v-.737h46.455Z" fill="#575758"/><path d="M169.34 85.88c-.37 1.985-2.278 3.595-4.261 3.595s-3.291-1.61-2.921-3.596c.37-1.986 2.278-3.595 4.261-3.595 1.984 0 3.291 1.61 2.921 3.595Z" fill="#F9AE39"/><path d="M165.285 85.191c-.074.397-.275.72-.447.72-.173 0-.253-.323-.179-.72.074-.397.274-.719.447-.719.172 0 .252.322.179.72ZM167.158 85.191c-.074.397-.274.72-.447.72-.172 0-.252-.323-.178-.72.074-.397.274-.719.446-.719.173 0 .253.322.179.72Z" fill="#39393A"/><path d="M165.454 87.63c-1.544 0-1.61-1.546-1.61-1.561-.003-.085.066-.168.154-.186.087-.019.161.035.163.12.002.055.063 1.315 1.352 1.315 1.289 0 1.819-1.262 1.841-1.316.034-.084.128-.137.208-.12.08.02.118.102.084.187-.006.015-.647 1.561-2.192 1.561Z" fill="#39393A"/><path d="M189.945 102.668c.039 1.86 3.186 4.189 3.186 4.189s3.655-2.329 4.099-4.189c.482-2.017-1.818-2.635-3.521-1.115-1.371-1.52-3.806-.902-3.764 1.115Z" fill="#DF605C"/><path d="M183.287 97.274c-.212 1.929-1.946 3.492-3.873 3.492-1.926 0-3.315-1.563-3.102-3.492.212-1.928 1.945-3.492 3.872-3.492 1.926 0 3.315 1.564 3.103 3.492ZM160.379 78.946l-7.704 34.261h-1.297a1.81 1.81 0 0 1-1.76-2.226l7.235-30.642a1.809 1.809 0 0 1 1.76-1.393h1.766Z" fill="#575758"/><path d="m173.29 113.207-1.353 7.614h4.466l1.352-7.614h-4.465Z" fill="#fff"/><path d="m165.254 119.511.914-1.288a1.74 1.74 0 0 1 1.418-.732h12.244c.648 0 1.243.36 1.543.935l.616 1.18a.829.829 0 0 1-.734 1.214h-15.326a.829.829 0 0 1-.675-1.309Z" fill="#fff"/><path d="M139.742 120.816h36.782l.399-1.389a1.367 1.367 0 0 0-1.312-1.746h-33.94c-.609 0-1.144.404-1.313.99l-.616 2.145Z" fill="#fff"/><path d="m104.179 118.336-1.952.299-2.254-14.732 1.952-.3 2.254 14.733Z" fill="#F9AE39"/><path d="m101.925 103.604-1.952.299.43-1.493.222-.772.444.67.856 1.296Z" fill="#EA9B79"/><path d="m104.179 118.336-1.952.299-.164-1.07 1.952-.3.164 1.071Z" fill="#39393A"/><path d="m104.179 119.208-1.692.26a.132.132 0 0 1-.15-.11l-.11-.723 1.952-.299.11.722a.13.13 0 0 1-.11.15Z" fill="#DF605C"/><path d="m101.068 102.308-.666.102.223-.772.443.67Z" fill="#39393A"/><path d="m101.945 116.797 1.952-.299.118.768-1.952.299-.118-.768ZM100.569 104.554l1.669 10.91a.151.151 0 0 0 .298-.046l-1.669-10.91a.151.151 0 0 0-.172-.126.152.152 0 0 0-.126.172ZM101.333 104.436l1.669 10.91a.15.15 0 1 0 .298-.045l-1.669-10.91a.152.152 0 0 0-.172-.127.151.151 0 0 0-.126.172Z" fill="#C67D2D"/><path d="m105.502 118.575-1.975.007-.048-14.904 1.974-.007.049 14.904Z" fill="#20B573"/><path d="m105.453 103.672-1.974.006.645-1.412.335-.731.339.729.655 1.408Z" fill="#EA9B79"/><path d="m105.502 118.575-1.975.007-.003-1.083 1.974-.006.004 1.082Z" fill="#39393A"/><path d="m105.373 119.438-1.712.006a.13.13 0 0 1-.131-.131l-.003-.732 1.975-.006.002.731a.13.13 0 0 1-.131.132Z" fill="#DF605C"/><path d="m104.798 102.263-.674.003.335-.731.339.728Z" fill="#39393A"/><path d="m103.521 116.722 1.975-.006.002.776-1.974.007-.003-.777ZM103.972 104.411l.036 11.036a.15.15 0 1 0 .301-.001l-.035-11.037a.15.15 0 1 0-.302.002ZM104.744 104.407l.036 11.037a.152.152 0 0 0 .151.151.152.152 0 0 0 .151-.152l-.036-11.037a.152.152 0 0 0-.152-.151.152.152 0 0 0-.15.152Z" fill="#207B57"/><path d="m106.766 118.637-1.954-.278 2.093-14.756 1.954.278-2.093 14.756Z" fill="#0775F7"/><path d="m108.86 103.881-1.956-.278.843-1.304.436-.676.23.77.447 1.488Z" fill="#EA9B79"/><path d="m106.766 118.637-1.954-.278.152-1.072 1.955.278-.153 1.072Z" fill="#39393A"/><path d="m106.515 119.473-1.695-.241a.13.13 0 0 1-.111-.149l.102-.724 1.955.278-.103.724a.13.13 0 0 1-.148.112Z" fill="#DF605C"/><path d="m108.414 102.394-.667-.095.436-.675.231.77Z" fill="#39393A"/><path d="m105.073 116.518 1.954.279-.109.768-1.954-.278.109-.769ZM107.288 104.4l-1.551 10.927a.15.15 0 1 0 .299.042l1.55-10.927a.151.151 0 0 0-.128-.171.151.151 0 0 0-.17.129ZM108.052 104.507l-1.55 10.927a.15.15 0 0 0 .128.171.152.152 0 0 0 .171-.128l1.55-10.927a.151.151 0 0 0-.299-.043Z" fill="#074FC6"/><path d="m109.501 109.567-.104.799-.094.726-.141 1.103-.093.717-.143 1.112-.092.709-.144 1.12-.09.699-.146 1.13-.089.691-.146 1.139-.089.682-.076.589h-7.759l-.075-.589-.089-.682-.147-1.139-.088-.691-.146-1.13-.09-.699-.145-1.12-.092-.709-.142-1.112-.093-.717-.142-1.103-.094-.726-.102-.799H109.5Z" fill="#DF605C"/><path d="m109.398 110.367-.094.725H99.046l-.093-.725h10.445ZM109.161 112.195l-.091.717h-9.79l-.091-.717h9.972ZM108.926 114.024l-.092.709h-9.318l-.092-.709h9.502ZM108.69 115.853l-.09.699h-8.85l-.09-.699h9.03ZM108.453 117.683l-.088.69h-8.38l-.089-.69h8.557ZM108.219 119.512l-.089.682h-7.91l-.089-.682h8.088Z" fill="#B01621"/><path d="M205.589 122.847v2.049c0 1.179-.712 2.134-1.59 2.134H93.413c-.878 0-1.59-.955-1.59-2.134v-2.049c0-1.178.712-2.134 1.59-2.134H204c.878 0 1.59.956 1.59 2.134Z" fill="#20B573"/><path d="M205.589 124.434H91.824v-.938h113.765v.938ZM202.266 132.297H98.316a.844.844 0 0 1-.843-.844v-4.447h105.635v4.447a.843.843 0 0 1-.842.844ZM197.597 162.047h-92.961v-3.628h92.961v3.628Z" fill="#207B57"/><path d="m97.933 207.017 17.997-74.72h-6.32l-17.998 74.72h6.32ZM204.176 207.017l-17.998-74.72h6.32l17.998 74.72h-6.32Z" fill="#20B573"/><path d="M133.415 69.401s-6.037-.825-8.028-6.782c-1.895-5.672-.81-8.72.703-11.913 1.139-2.404 4.968-5.769 10.618-4.916 5.706.86 10.072 3.549 10.931 8.167 1.606 8.641-4.868 19.608-14.224 15.444Z" fill="#39393A"/><path d="M125.718 63.536a.313.313 0 0 1-.279-.144c-.117-.185-2.863-4.588-1.074-10.656 1.117-3.79 3.604-5.586 5.494-6.426 2.042-.909 3.801-.92 3.875-.921.173 0 .312.14.312.312a.31.31 0 0 1-.311.313c-.017 0-1.72.015-3.645.877-2.562 1.147-4.286 3.172-5.126 6.022-1.706 5.784.974 10.1 1.001 10.143a.312.312 0 0 1-.247.48Z" fill="#F9AE39"/><path d="M144.704 62.675s1.868-1.638 2.482.375c.615 2.011-.646 5.706-2.966 4.72l.484-5.095Z" fill="#D96C62"/><path d="M142.993 66.514c-.95.37-1.764 1.269-1.926 2.347a2.94 2.94 0 0 0 2.464 3.343 2.937 2.937 0 0 0 .874-5.81l-.029-.003c-.046.202-.014.362.106.48a2.486 2.486 0 0 1 1.937 2.797 2.482 2.482 0 0 1-2.82 2.085 2.485 2.485 0 0 1-2.082-2.824 2.41 2.41 0 0 1 1.728-1.975l-.252-.44Z" fill="#F9AE39"/><path d="m139.248 71.703-.559 5.142s-3.617 4.09-10.936-2.55c1.8-1.49 2.351-4.758 2.027-6.838 0 0 .566.304 1.451 1.028.172.142.39.247.606.38 1.904 1.16 4.808 2.65 7.411 2.838Z" fill="#EA9B79"/><path d="m139.248 71.702-.265 2.439c-2.136-.827-5.932-2.635-7.752-5.656.188.12.39.247.606.379 1.904 1.16 4.807 2.65 7.411 2.838Z" fill="#39393A"/><path d="M146.526 61.35c-.081.545-.158 1.063-.235 1.557-.082.535-.162 1.04-.243 1.516-.593 3.57-1.133 5.493-2.126 6.253-5.02 3.844-13.85-2.98-14.134-3.2l-.008-.006a32.82 32.82 0 0 1-.06-1.233 31.954 31.954 0 0 1 1.102-9.454c.306-3.138 2.592-5.758 5.678-6.385 3.198-.649 5.716 1.097 7.273 1.846 2.352 1.134 3.423 4.558 2.753 9.106Z" fill="#EA9B79"/><path d="M130.838 53.572s3.286-7.194 10.647-5.605c7.36 1.59 7.916 4.947 8.129 6.63.213 1.682-3.826-1.113-3.826-1.113s.037 3.383-1.312 2.408c-1.654-1.195-3.571-3.86-3.571-3.86s-4.11 4.475-8.278 3.535c-2.367-.534-1.789-1.995-1.789-1.995Z" fill="#39393A"/><path d="M140.536 68.546c-.944.047-1.623-.573-1.657-.605a.26.26 0 1 1 .353-.38c.036.032.823.738 1.793.35a.26.26 0 1 1 .192.483c-.237.096-.466.14-.681.152Z" fill="#D96C62"/><path d="M138.148 64.41s3.555.864 5.371.772c0 0-.777 2.643-3.417 1.865-2.055-.606-1.954-2.636-1.954-2.636Z" fill="#fff"/><path d="M144.28 56.783s-.915-.046-.722.829c.192.875 2.137.235 3.201 1.954 0 0 .849-1.901-2.479-2.783ZM140.196 56.167s.888.226.447 1.005c-.441.779-2.112-.405-3.635.924 0 0-.251-2.068 3.188-1.928Z" fill="#39393A"/><path d="M138.937 62.575c-.064.42-.981.631-2.049.47-1.068-.16-1.883-.633-1.82-1.054.064-.42.981-.63 2.049-.47 1.068.161 1.883.633 1.82 1.054Z" fill="#D96C62"/><path d="m149.285 62.328-2.853-.34c-.009.12-.031.239-.052.359a.277.277 0 0 1-.018.058l2.873.342a.21.21 0 0 0 .234-.184.204.204 0 0 0-.184-.235ZM141.613 60.29a3.576 3.576 0 0 0-2.982-3.35c-.012-.002-.023-.005-.035-.006a3.572 3.572 0 0 0-1.091 7.06 3.564 3.564 0 0 0 3.057-.994 3.549 3.549 0 0 0 1.014-1.99l.001-.01c.036-.239.048-.476.036-.71Zm-4.043 3.286a3.138 3.138 0 0 1-2.168-1.416 3.142 3.142 0 0 1-.338-2.678 3.15 3.15 0 0 1 3.467-2.13 3.15 3.15 0 0 1 2.627 3.594 3.147 3.147 0 0 1-3.588 2.63Z" fill="#fff"/><path d="M147.875 58.51a3.458 3.458 0 0 0-.682-.233 3.288 3.288 0 0 0-.773-.096 3.566 3.566 0 0 0-2.081.642 3.557 3.557 0 0 0-1.333 1.759c-.002.008-.005.015-.006.023a3.577 3.577 0 0 0 2.53 4.619c.066.016.133.03.2.04.033.01.068.014.102.02a3.526 3.526 0 0 0 1.612-.122 3.572 3.572 0 0 0 .431-6.65Zm1.61 3.724a2.621 2.621 0 0 1-.039.203 3.134 3.134 0 0 1-1.283 1.906 3.104 3.104 0 0 1-1.248.512 3.128 3.128 0 0 1-1.019.01l-.095-.015a3.12 3.12 0 0 1-1.574-.8 3.149 3.149 0 0 1 2.922-5.35c.133.035.261.076.386.127a3.154 3.154 0 0 1 1.95 3.407ZM130.264 60.011a.211.211 0 0 1-.151-.314c1.304-2.287 4.809-.47 4.844-.451a.213.213 0 0 1 .088.286.21.21 0 0 1-.285.088c-.032-.016-3.178-1.645-4.28.288a.211.211 0 0 1-.216.103Z" fill="#fff"/><path d="M143.169 60.696a.21.21 0 0 1-.138-.085c-.488-.677-1.442-.314-1.451-.31a.211.211 0 1 1-.154-.394c.437-.171 1.405-.296 1.947.457a.212.212 0 0 1-.204.332Z" fill="#fff"/><path d="M146.291 62.907a81.66 81.66 0 0 1-.243 1.516c-.973-.183-1.69-.625-1.63-1.022.06-.398.882-.607 1.873-.494Z" fill="#D96C62"/><path d="M139.574 60.444c-.086.578-.419 1.008-.742.959-.323-.049-.515-.557-.427-1.135.086-.578.419-1.007.742-.959.323.049.514.557.427 1.135ZM145.287 61.306c-.087.578-.419 1.008-.742.959-.323-.049-.515-.557-.428-1.136.087-.578.42-1.006.743-.958.323.048.514.557.427 1.135ZM142.445 62.99c.276.041.47.023.487.022a.24.24 0 0 0 .211-.284l-.499-2.655a.24.24 0 0 0-.472.09l.445 2.363a1.899 1.899 0 0 1-.942-.356.24.24 0 1 0-.288.384c.369.277.761.39 1.058.436ZM132.019 65.413c-.038.06-1.062 1.71-2.232 2.063h-.002l-.005-.006a35.144 35.144 0 0 1-.061-1.233c.042 0 1.174-.027 2.3-.824Z" fill="#39393A"/><path d="M131.566 61.239s-1.842-3.453-3.901-1.268c-1.696 1.8.151 7.438 3.18 6.059l.721-4.791Z" fill="#EA9B79"/><path d="M127.625 64.495c-.95.369-1.763 1.269-1.926 2.347a2.94 2.94 0 0 0 2.464 3.343 2.938 2.938 0 0 0 .874-5.81l-.028-.004c-.046.203-.014.362.105.481a2.486 2.486 0 0 1 1.937 2.797 2.48 2.48 0 0 1-2.819 2.085 2.485 2.485 0 0 1-2.082-2.824 2.408 2.408 0 0 1 1.728-1.975l-.253-.44Z" fill="#F9AE39"/><path d="M130.67 65.046a.24.24 0 0 0 .276-.228c.109-2.684-1.973-3.934-2.062-3.986a.24.24 0 0 0-.243.416c.078.046 1.921 1.162 1.824 3.551a.242.242 0 0 0 .205.247Z" fill="#39393A"/><path d="M128.67 63.27a.24.24 0 0 0 .157-.03c.232-.137.921-.454 1.315-.287a.241.241 0 0 0 .186-.444c-.687-.29-1.639.254-1.745.317a.239.239 0 0 0-.085.329.242.242 0 0 0 .172.115ZM133.409 55.131s-1.931 6.201-1.991 7.434c-.083 1.68-2.579-3.938-.604-8.946l2.595 1.512Z" fill="#39393A"/></g><path d="M197.576 235.152 192.92 252h-1.176l-4.608-15.168-4.68 15.168h-1.128l-4.584-16.848h1.152l4.032 15.336 4.632-15.336h1.2l4.584 15.432 4.056-15.432h1.176Zm8.417 17.04c-1.216 0-2.312-.272-3.288-.816a5.865 5.865 0 0 1-2.304-2.328c-.544-1.024-.816-2.216-.816-3.576 0-1.344.28-2.52.84-3.528.56-1.024 1.328-1.8 2.304-2.328.992-.544 2.096-.816 3.312-.816 1.216 0 2.312.272 3.288.816.976.528 1.736 1.296 2.28 2.304.56 1.008.84 2.192.84 3.552 0 1.36-.28 2.552-.84 3.576a5.821 5.821 0 0 1-2.328 2.328c-.976.544-2.072.816-3.288.816Zm0-.96a5.73 5.73 0 0 0 2.64-.624c.832-.432 1.496-1.08 1.992-1.944.496-.864.744-1.928.744-3.192 0-1.248-.248-2.304-.744-3.168-.496-.864-1.152-1.504-1.968-1.92a5.557 5.557 0 0 0-2.64-.648c-.944 0-1.824.216-2.64.648-.8.416-1.448 1.056-1.944 1.92-.496.864-.744 1.92-.744 3.168 0 1.264.24 2.328.72 3.192.496.864 1.144 1.512 1.944 1.944a5.73 5.73 0 0 0 2.64.624Zm10.813-9.576c.32-.96.888-1.688 1.704-2.184.816-.512 1.856-.768 3.12-.768v1.128h-.36c-1.28 0-2.344.368-3.192 1.104-.848.72-1.272 1.904-1.272 3.552V252h-1.08v-13.032h1.08v2.688ZM230.884 252l-5.688-5.976V252h-1.08v-17.76h1.08v10.632l5.592-5.904h1.512l-6.312 6.48 6.384 6.552h-1.488Zm8.053.192c-1.456 0-2.648-.32-3.576-.96-.912-.64-1.424-1.552-1.536-2.736h1.104c.08.848.464 1.52 1.152 2.016.704.496 1.656.744 2.856.744.992 0 1.776-.248 2.352-.744.592-.512.888-1.136.888-1.872 0-.512-.16-.928-.48-1.248a2.92 2.92 0 0 0-1.152-.768 19.228 19.228 0 0 0-1.896-.576c-.96-.256-1.736-.504-2.328-.744a4.042 4.042 0 0 1-1.512-1.128c-.416-.496-.624-1.16-.624-1.992 0-.608.184-1.168.552-1.68.368-.528.88-.944 1.536-1.248.656-.304 1.4-.456 2.232-.456 1.36 0 2.456.344 3.288 1.032.848.672 1.304 1.608 1.368 2.808h-1.08c-.048-.864-.384-1.568-1.008-2.112s-1.488-.816-2.592-.816c-.928 0-1.696.24-2.304.72-.608.48-.912 1.064-.912 1.752 0 .608.168 1.104.504 1.488.352.368.776.656 1.272.864a22.9 22.9 0 0 0 2.016.624c.912.24 1.64.48 2.184.72.56.224 1.032.56 1.416 1.008.384.432.576 1.016.576 1.752 0 .672-.184 1.28-.552 1.824-.368.544-.88.968-1.536 1.272-.656.304-1.392.456-2.208.456Zm13.49-13.488c1.536 0 2.792.48 3.768 1.44.976.944 1.464 2.352 1.464 4.224V252h-1.056v-7.56c0-1.552-.392-2.736-1.176-3.552-.784-.832-1.848-1.248-3.192-1.248-1.408 0-2.536.448-3.384 1.344-.832.896-1.248 2.224-1.248 3.984V252h-1.08v-17.76h1.08v7.488c.368-.976.984-1.72 1.848-2.232.864-.528 1.856-.792 2.976-.792Zm14.785 13.488c-1.216 0-2.312-.272-3.288-.816a5.865 5.865 0 0 1-2.304-2.328c-.544-1.024-.816-2.216-.816-3.576 0-1.344.28-2.52.84-3.528.56-1.024 1.328-1.8 2.304-2.328.992-.544 2.096-.816 3.312-.816 1.216 0 2.312.272 3.288.816.976.528 1.736 1.296 2.28 2.304.56 1.008.84 2.192.84 3.552 0 1.36-.28 2.552-.84 3.576a5.821 5.821 0 0 1-2.328 2.328c-.976.544-2.072.816-3.288.816Zm0-.96a5.73 5.73 0 0 0 2.64-.624c.832-.432 1.496-1.08 1.992-1.944.496-.864.744-1.928.744-3.192 0-1.248-.248-2.304-.744-3.168-.496-.864-1.152-1.504-1.968-1.92a5.557 5.557 0 0 0-2.64-.648c-.944 0-1.824.216-2.64.648-.8.416-1.448 1.056-1.944 1.92-.496.864-.744 1.92-.744 3.168 0 1.264.24 2.328.72 3.192.496.864 1.144 1.512 1.944 1.944a5.73 5.73 0 0 0 2.64.624Zm10.813-8.832c.368-1.056 1.032-1.92 1.992-2.592.976-.672 2.152-1.008 3.528-1.008 1.216 0 2.296.272 3.24.816a5.596 5.596 0 0 1 2.232 2.328c.544 1.008.816 2.184.816 3.528 0 1.344-.272 2.528-.816 3.552a5.753 5.753 0 0 1-2.232 2.352c-.944.544-2.024.816-3.24.816-1.36 0-2.528-.336-3.504-1.008-.96-.688-1.632-1.552-2.016-2.592v9.552h-1.08v-19.176h1.08v3.432Zm10.704 3.072c0-1.184-.224-2.208-.672-3.072-.448-.864-1.08-1.52-1.896-1.968-.8-.464-1.728-.696-2.784-.696-1.008 0-1.92.24-2.736.72-.816.464-1.456 1.136-1.92 2.016-.464.864-.696 1.864-.696 3 0 1.152.232 2.168.696 3.048a5.068 5.068 0 0 0 1.92 2.016c.816.464 1.728.696 2.736.696 1.056 0 1.984-.232 2.784-.696a4.75 4.75 0 0 0 1.896-1.992c.448-.864.672-1.888.672-3.072Zm8.708 6.72c-1.456 0-2.648-.32-3.576-.96-.912-.64-1.424-1.552-1.536-2.736h1.104c.08.848.464 1.52 1.152 2.016.704.496 1.656.744 2.856.744.992 0 1.776-.248 2.352-.744.592-.512.888-1.136.888-1.872 0-.512-.16-.928-.48-1.248a2.92 2.92 0 0 0-1.152-.768 19.228 19.228 0 0 0-1.896-.576c-.96-.256-1.736-.504-2.328-.744a4.042 4.042 0 0 1-1.512-1.128c-.416-.496-.624-1.16-.624-1.992 0-.608.184-1.168.552-1.68.368-.528.88-.944 1.536-1.248.656-.304 1.4-.456 2.232-.456 1.36 0 2.456.344 3.288 1.032.848.672 1.304 1.608 1.368 2.808h-1.08c-.048-.864-.384-1.568-1.008-2.112s-1.488-.816-2.592-.816c-.928 0-1.696.24-2.304.72-.608.48-.912 1.064-.912 1.752 0 .608.168 1.104.504 1.488.352.368.776.656 1.272.864a22.9 22.9 0 0 0 2.016.624c.912.24 1.64.48 2.184.72.56.224 1.032.56 1.416 1.008.384.432.576 1.016.576 1.752 0 .672-.184 1.28-.552 1.824-.368.544-.88.968-1.536 1.272-.656.304-1.392.456-2.208.456Z" fill="#000"/><path d="M176 254.4h127.053v1.2H176v-1.2Z" fill="#000"/></g><defs><clipPath id="a"><path fill="#fff" d="M0 0h497v266.896H0z"/></clipPath></defs></svg>