<svg width="214" height="223" fill="none" xmlns="http://www.w3.org/2000/svg"><path d="m89.447 218.984 36.041-67.967a1.96 1.96 0 0 1 3.42-.081l.055.095 10.454 17.839-4.305-.123 62.364-103.276a4.882 4.882 0 1 1 8.255 5.21l-66.388 100.736-.06.092a2.466 2.466 0 0 1-4.243-.217l-9.559-18.335 3.474.015-39.508 66.012Z" fill="#009A33"/><path d="m212.605 80.539 1.255-31.882-28.241 14.851 26.986 17.03Z" fill="#009A33"/><path d="M86.75 128.363c-.154 10.346 3.095 16.716-18.589 17.928-9.398.524-15.9-7.582-16.057-17.928-.159-10.534 7.596-19.216 17.323-19.216 9.725 0 17.481 8.682 17.324 19.216Z" fill="#406482"/><path d="M103.879 157.993c1.229-5.408 1.765-11.265 1.904-17.005l.021-2.091-.041-.54-.058-.414a14.047 14.047 0 0 0-.29-1.464c-.122-.438-.247-.827-.448-1.155-.082-.153-.274-.367-.564-.175l-.731.291c-.953.408-1.565.808-2.207 1.239-2.602 1.064-5.284 2.29-8.177 3.533-2.89 1.241-6.007 2.493-9.387 3.508a55.377 55.377 0 0 1-10.697 2.123l-.663-19.204c4.694.27 9.582-.574 15.234-2.14 2.817-.76 5.808-1.651 8.965-2.447 2.488-.716 5.199-1.281 7.689-1.744 1.246-.164 2.515-.397 3.708-.5l3.356.093c.307-.028.478.107.699.178l.636.244 1.268.482.633.235c.199.113.435.296.616.488.382.377.655.773.918 1.183 1.008 1.626 1.581 3.685 1.809 6.032.2 2.357.095 4.885-.089 7.35l-.166 1.848-.193 1.724a84.274 84.274 0 0 1-.368 2.43c-1.065 6.294-2.488 12.45-4.835 18.614l-8.542-2.716Z" fill="#406482"/><path d="M103.431 165.629a5.896 5.896 0 0 1-.61-1.709c-.301-1.629-.457-4.785 2.163-6.873 4.665-3.714 10.344-3.664 13.883-5.352 2.997-1.428 4.905-.716 6.552 1.5.52.701.576 1.589.146 2.2-1.221 1.733-4.394 5.454-11.441 9.459-8.111 4.61-9.601 2.801-10.693.775Z" fill="#C4955C"/><path d="M104.568 167.139c1.793-.363 4.436-1.468 8.348-3.724 7.371-4.252 10.725-8.163 12.019-9.987.114-.161.198-.343.249-.532.079.097.157.195.235.299a2.186 2.186 0 0 1 .39.846c.042.194.055.388.036.576a1.593 1.593 0 0 1-.28.778c-1.221 1.733-4.398 5.448-11.441 9.459-5.867 3.335-8.264 3.314-9.556 2.285Z" fill="#A67A46"/><path d="M33.567 209.811a5.86 5.86 0 0 1 1.06-1.471c1.169-1.175 3.678-3.096 6.884-2.127 5.706 1.728 8.893 6.428 12.293 8.382 2.879 1.654 3.377 3.629 2.49 6.242-.282.828-.98 1.379-1.727 1.371-2.12-.019-6.986-.514-14.286-4.037-8.404-4.055-7.761-6.31-6.714-8.36Z" fill="#C4955C"/><path d="M32.97 211.604c1.317 1.271 3.73 2.816 7.809 4.755 7.688 3.648 12.812 4.185 15.046 4.214.2.003.395-.033.582-.098-.036.12-.072.24-.114.362a2.297 2.297 0 0 1-.125.3 2.09 2.09 0 0 1-.35.502 1.818 1.818 0 0 1-.453.358c-.246.14-.518.214-.798.211-2.12-.019-6.983-.523-14.286-4.037-6.078-2.934-7.424-4.919-7.31-6.567Z" fill="#A67A46"/><path d="M37.556 206.244a1835.275 1835.275 0 0 0 11.439-41.981 950.472 950.472 0 0 0 5.19-21.01c.8-3.493 1.58-6.977 2.282-10.43.378-1.739.644-3.418.972-5.126.328-1.712.488-3.265.745-4.894l19.068 3.502c-.528 1.918-1.012 3.943-1.585 5.748-.575 1.812-1.111 3.679-1.719 5.435-1.176 3.565-2.408 7.061-3.655 10.539a982.22 982.22 0 0 1-7.772 20.606 1857.001 1857.001 0 0 1-16.437 40.618l-8.528-3.007Z" fill="#466E8F"/><path d="m13.623 100.907-5.279-6.56 5.66-5.316 5.49 4.528-5.871 7.348Z" fill="#BF8160"/><path d="M18.107 98.167 9.27 90.084l4.81-2.861 7.06 5.818-3.034 5.126Z" fill="#B8C9DE"/><path d="M20.987 97.547 10.967 86.75c.144-.135 15.409-13.887 20.772-16.559 11.908-5.941 28.289-6.999 35.298-6.72l-.578 14.72c-6.346-.233-19.638.936-28.144 5.181-2.41 1.291-13.408 10.538-17.328 14.174Z" fill="#444B75"/><path d="M14.175 99.363s.849 3.574-.207 7.185c-1.055 3.611-4.216 1.34-6.19.605-.963-.36 1.802-.329 2.605-2.32.804-1.99.097-2.353.097-2.353l3.695-3.117Z" fill="#BF8160"/><path d="M9.457 93.393s-4.704.387-7.81 3.46c-3.108 3.07-.003 5.099 1.3 8.066 1.304 2.969 3.388 4.456 6.541 2.009 3.155-2.447 5.088-5.431 4.773-7.435l-4.804-6.1Z" fill="#BF8160"/><path d="M9.457 93.393s-4.704.387-7.81 3.46c-3.108 3.07-.003 5.099 1.3 8.066 1.304 2.969 3.388 4.456 6.541 2.009 3.155-2.447 5.088-5.431 4.773-7.435l-4.804-6.1ZM139.241 52.06s9.698-6.05 9.567-6.185c-.132-.132-5.649-6.612-5.649-6.612l-10.135 6.176 6.217 6.621Z" fill="#BF8160"/><path d="M136.273 56.041s9.454-6.62 9.298-6.81c-.155-.19-6.812-9.328-6.812-9.328l-9.752 6.71 7.266 9.428Z" fill="#B8C9DE"/><path d="M142.773 41.219s-.658-3.614.584-7.164c1.243-3.55 4.282-1.116 6.212-.28.946.41-1.814.234-2.721 2.181-.908 1.945-.219 2.345-.219 2.345l-3.856 2.918Z" fill="#BF8160"/><path d="M145.965 45.717a3.453 3.453 0 0 0 3.591 1.368c1.641-.368 3.832-1.129 5.599-2.701 3.264-2.905.27-5.092-.876-8.127-1.147-3.032-3.151-4.625-6.428-2.346-3.278 2.278-5.366 5.156-5.155 7.173l3.269 4.633Z" fill="#BF8160"/><path d="M145.444 37.887c.171.772.879 1.362 1.444 1.021.64-.3 1.301-.74 1.941-1.155.654-.412 1.295-.845 1.964-1.244.664-.406 1.331-.813 2.04-1.168-.529.591-1.118 1.111-1.721 1.614a20.05 20.05 0 0 1-1.896 1.398c-.676.41-1.331.84-2.16 1.074a1.222 1.222 0 0 1-1.284-.362 1.641 1.641 0 0 1-.328-1.178ZM146.305 40.732c.17.772.878 1.361 1.443 1.02.64-.299 1.3-.739 1.941-1.153.652-.412 1.295-.847 1.963-1.244.665-.407 1.332-.814 2.041-1.168-.53.59-1.118 1.11-1.721 1.613-.599.507-1.239.963-1.896 1.397-.677.411-1.331.84-2.16 1.075a1.227 1.227 0 0 1-1.284-.361 1.631 1.631 0 0 1-.327-1.179ZM147.959 43.172c.169.772.877 1.36 1.442 1.02.64-.3 1.302-.74 1.943-1.155.651-.41 1.293-.844 1.963-1.244.665-.406 1.332-.812 2.04-1.168-.53.592-1.119 1.112-1.722 1.615-.598.508-1.238.961-1.896 1.397-.677.411-1.33.84-2.16 1.074a1.22 1.22 0 0 1-1.282-.36 1.63 1.63 0 0 1-.328-1.179ZM149.291 45.605c.202.711.626 1.523 1.192 1.04.661-.32 1.313-.65 1.945-1.02.64-.356 1.256-.752 1.881-1.145.62-.399 1.23-.824 1.854-1.256-.416.641-.954 1.19-1.522 1.693-.568.51-1.201.943-1.861 1.328-.668.37-1.363.7-2.1.91-.157.05-.432.138-.685.068-.262-.07-.439-.271-.534-.458a2.28 2.28 0 0 1-.17-1.16Z" fill="#8F5C42"/><path d="M148.089 33.737s5.591-4.353 7.927-6.229c2.335-1.877 4.797-4.052 5.476-2.525.583 1.308-7.712 8.434-9.311 9.653l-4.092-.899Z" fill="#BF8160"/><path d="M86.497 79.127 80.56 65.644c2.364-1.04 4.988-2.179 7.828-3.41 12.508-5.427 29.639-12.858 46.588-21.595l6.749 13.093c-17.385 8.963-34.776 16.507-47.473 22.016-2.815 1.22-5.415 2.348-7.755 3.379Z" fill="#444B75"/><path d="M71.179 109.008c-9.686-.892-18.203 7.043-19.012 17.547a21.34 21.34 0 0 0-.056 1.536c5.197 1.437 19.17 4.7 34.325 3.2.095-.512.175-1.032.232-1.559 1.123-10.476-5.803-19.832-15.49-20.724Z" fill="#233252"/><path d="M89.217 126.013c5.864-26.81 2.296-55.274 2.296-55.274l-15.489-9.662-20.68 6.331s-5.78 27.605-4.92 55.033c0 0 18.724 6.144 38.793 3.572Z" fill="#D9E4F1"/><path d="M75.932 70.341c.29 4.244.292 8.502.223 12.752-.071 4.252-.324 8.498-.575 12.742-.368 4.236-.708 8.473-1.245 12.693-.252 2.111-.562 4.213-.848 6.319-.338 2.098-.67 4.198-1.056 6.289l1.029-12.699c.355-4.226.703-8.453.98-12.685.347-4.225.581-8.459.84-12.693.252-4.234.47-8.471.652-12.718ZM83.587 71.805c2.176-5.173 1.73-6.44 1.73-6.44l-.45-.393-4.366-1.924c-.809 2.41-1.83 3.085-1.83 3.085 1.908 2.403 4.916 5.672 4.916 5.672ZM65.51 70.14s6.33-1.25 8.645-4.119c0 0-2.132-1.256-3.896-3.929l-5.17.912c-.165.55-.569 2.55.42 7.136Z" fill="#B8C9DE"/><path d="M76.772 128.952a5.04 5.04 0 1 1-10.036-.924 5.04 5.04 0 0 1 10.036.924Z" fill="#FFCF00"/><path d="M75.33 128.819a3.591 3.591 0 1 1-7.152-.656 3.591 3.591 0 0 1 7.153.656Z" fill="#FFE67A"/><path d="M65.839 62.51 53.187 67.2s-3.244 41.171-8.358 70.583c0 0 7.8 3.123 13.232 4.209 4.21-30.657 5.431-67.602 7.778-79.484ZM95.108 70.375l-10.317-5.58c.057 12.189.005 45.297-1.908 75.94 1.658-.106 5.58.47 7.268.248 3.752-26.726 4.957-70.608 4.957-70.608Z" fill="#444B75"/><path d="M61.535 109.147c2.565-14.962 1.728-33.464 3.364-41.848.264-1.663.514-3.147.766-4.427l-.154.016c-1.616 1.873-8.832 10.416-11.386 16.388 0 0 3.442 1.34 4.822 2.564 0 0-2.127 2.412-5.379 4.892l7.967 22.415ZM84.344 106.381c.679-1.822 5.875-10.633 6.81-14.585l-2.387-6.288s2.68-.743 3.741-.572c0 0-3.135-13.84-7.67-20.128l-.047-.013c.038 8.38.186 21.03-.447 41.586Z" fill="#233252"/><path d="m80.86 61.445-.236-4.749-10.448-.961-1.08 4.54c-.407 1.718.535 2.541 2.147 3.265 1.086.488 4.689 4.801 4.689 4.801l4.928-6.896Z" fill="#BF8160"/><path d="m75.932 70.341 2.807-4.933s1.876-.235 2.912.743c1.036.98-1.656 3.797-5.719 4.19ZM74.219 65.333l1.713 5.008s-4.245-2.134-6.119-4.07l1.494-.966 2.912.028Z" fill="#94A1B3"/><path d="m80.853 63.32-.229-4.624-10.448-.961-.59 2.482c3.18 1.532 7.053 2.658 11.267 3.103Z" fill="#AD7050"/><path d="m69.587 60.217-3.748 2.292s-.762 1.547.374 6.37c0 0 5.872-1.058 8.006-3.546 0 0-2.93-1.625-4.632-5.116ZM80.763 61.513l4.028 3.282s.413 1.076-1.539 5.454c0 0-2.763-2.79-4.513-4.841 0 0 1.302-.79 2.024-3.895Z" fill="#D9E4F1"/><path d="M59.456 37.487s-3.903-4.759-7.255-1.424c-3.01 2.993 3.623 15.362 8.611 10.082l-1.356-8.658Z" fill="#BF8160"/><path d="M58.432 38.313s-2.893-3.892-5.212-1.302c-2.081 2.324 2.77 11.346 6.21 7.24l-.998-5.938Z" fill="#AD7050"/><path d="M56.05 41.156c.177.699.994 1.095 1.827.883.834-.21 1.367-.947 1.191-1.644-.176-.699-.995-1.092-1.828-.883-.833.21-1.367.947-1.19 1.644Z" fill="#BF8160"/><path d="M53.835 37.23c-1.272 1.42-.115 5.467 1.86 7.386-2.232-1.705-3.835-6.087-2.475-7.605.973-1.088 2.048-1.031 2.968-.599-.764-.183-1.59-.036-2.353.817Z" fill="#8F5C42"/><path d="M100.105 26.69c-4.361-1.826-6.181 4.054-6.181 4.054l2.005 8.53c6.611 3.013 8.095-10.945 4.176-12.583Z" fill="#AD7050"/><path d="M92.572 16.419c1.877 3.226 2.89 9.177 4.635 13.493 1.689 4.179 7.033 18.101-5.519 26.043-12.55 7.942-26.53 2.616-30.977-6.254-5.015-10-4.86-16.82-3.727-24.16 1.493-9.658 8.41-14.176 16.29-15.804 7.591-1.568 15.258-.428 19.298 6.682Z" fill="#BF8160"/><path d="M86.46 47.919c-.324.634-3.856 4.658-10.01 4.704-6.578.049-7.065-6.166-7.065-6.166 9.444 2.99 17.075 1.462 17.075 1.462Z" fill="#FCFFFF"/><path d="M79.836 33.707s2.112 6.276 5.74 7.118c0 0 .041 3.279-3.684 3.391 0 0 1.523-.817 2.193-2.664 0 0-4.42-2.317-4.249-7.845Z" fill="#8F5C42"/><path d="M73.293 25.615c-.885.369-1.71.58-2.529.781-.808.213-1.653.19-2.472.383a9.862 9.862 0 0 0-2.343.877c-.754.384-1.409.93-2.032 1.552l-.125-.087a7.608 7.608 0 0 1 1.73-2.094 10.797 10.797 0 0 1 2.389-1.404c.853-.344 1.733-.734 2.666-.738.923-.01 1.859.107 2.728.578l-.012.152ZM82.895 24.505c.442-.789 1.14-1.304 1.885-1.685.755-.392 1.637-.401 2.464-.432a8.68 8.68 0 0 1 2.467.263c.8.201 1.54.566 2.214.982l-.065.138c-.764-.188-1.504-.379-2.264-.368a7.693 7.693 0 0 0-2.208.193c-.724.155-1.372.515-2.09.655-.72.158-1.449.316-2.315.38l-.088-.126Z" fill="#2E1E18"/><path d="M54.155 31.612s.29 8.381 3.436 9.324c1.477-.541 3.872-5.607.793-12.663 0 0 5.21-1.165 3.683-8.244 0 0 6.78 2.306 12.209-4.413 0 0 5.015 6.939 14.083.468 0 0 .688 5.552 6.342 5.68 0 0 1.362 8.397 2.851 9.023 1.768-.346.9-9.212-1.22-11.815 0 0 2.028-2.767-.219-7.036-2.245-4.27-6.016-3.127-6.016-3.127s.746-4.856-3.226-6.91c-3.295-1.704-6.474.062-7.92 2.292 0 0-2.472-4.855-7.334-3.455-4.861 1.4-4.928 5.23-4.928 5.23s-3.313-3.345-7.973-.083c-3.475 2.433-2.605 7.596-2.605 7.596s-3.162-.216-4.535 4.222c-1.099 3.552 1.925 6.566 2.368 6.151 0 0-1.115.84-1.532 2.345-.419 1.504.04 3.802 1.743 5.415Z" fill="#2E1E18"/><path d="M76.475 37.44s-1.764-6.677-6.623-5.859c-4.86.818-3.888 7.627-3.888 7.627s5.504 1.63 10.51-1.768Z" fill="#FCFFFF"/><path d="M76.475 37.44c-.603-1.476-1.364-2.91-2.444-4.016-.551-.535-1.155-1.01-1.85-1.279a4.44 4.44 0 0 0-2.177-.224c-.723.138-1.452.362-2.007.852-.568.467-.984 1.106-1.301 1.803-.599 1.419-.752 3.037-.732 4.632-.31-1.572-.31-3.245.227-4.83a5.056 5.056 0 0 1 1.376-2.114c.648-.597 1.504-.876 2.334-1.039a5.022 5.022 0 0 1 2.532.304c.79.352 1.46.898 1.996 1.532 1.074 1.271 1.715 2.81 2.046 4.379Z" fill="#2E1E18"/><path d="M72.305 32.93c.394-.066.804.254 1.11.794l-.367.748.728.197c.023.092.041.188.059.284.205 1.226-.144 2.304-.784 2.412-.639.107-1.324-.797-1.53-2.022-.205-1.224.144-2.306.784-2.412Z" fill="#2E1E18"/><path d="M93.573 33.828s-1.497-6.145-5.944-5.399c-4.436.747-3.546 6.979-3.546 6.979s4.941 1.48 9.49-1.58Z" fill="#FCFFFF"/><path d="M93.573 33.828c-.536-1.353-1.21-2.67-2.181-3.687-.495-.49-1.039-.924-1.665-1.169a4.013 4.013 0 0 0-1.97-.2c-.656.127-1.31.335-1.812.777-.514.424-.889 1.006-1.178 1.638-.547 1.289-.691 2.765-.684 4.221-.295-1.436-.306-2.963.178-4.416.24-.725.664-1.41 1.251-1.95.595-.549 1.377-.813 2.14-.966a4.585 4.585 0 0 1 2.33.281c.723.33 1.335.836 1.814 1.427.964 1.183 1.516 2.604 1.777 4.044Z" fill="#2E1E18"/><path d="M90.008 29.581c.36-.06.736.23 1.015.724l-.095.644.425.22c.02.084.038.171.054.26.188 1.12-.134 2.106-.716 2.204-.584.098-1.21-.729-1.399-1.848-.188-1.12.133-2.106.716-2.204Z" fill="#2E1E18"/></svg>