<svg width="214" height="223" viewBox="0 0 214 223" fill="none" xmlns="http://www.w3.org/2000/svg">
<path d="M89.4467 218.984L125.488 151.017C125.995 150.06 127.183 149.695 128.139 150.203C128.471 150.379 128.731 150.636 128.908 150.936L128.963 151.031L139.417 168.87L135.112 168.747L197.476 65.4707C198.871 63.1627 201.871 62.42 204.177 63.8147C206.485 65.208 207.227 68.208 205.833 70.5174C205.804 70.5667 205.763 70.632 205.731 70.68L139.343 171.417L139.283 171.509C138.533 172.645 137.004 172.96 135.869 172.211C135.508 171.973 135.227 171.648 135.04 171.292L125.481 152.957L128.955 152.972L89.4467 218.984Z" fill="#009A33"/>
<path d="M212.605 80.5387L213.86 48.6574L185.619 63.5081L212.605 80.5387Z" fill="#009A33"/>
<path d="M86.7507 128.363C86.596 138.709 89.8453 145.079 68.1613 146.291C58.7627 146.815 52.2613 138.709 52.104 128.363C51.9453 117.829 59.7 109.147 69.4267 109.147C79.152 109.147 86.908 117.829 86.7507 128.363Z" fill="#406482"/>
<path d="M103.879 157.993C105.108 152.585 105.644 146.728 105.783 140.988L105.804 138.897L105.763 138.357L105.705 137.943C105.625 137.405 105.529 136.917 105.415 136.479C105.293 136.041 105.168 135.652 104.967 135.324C104.885 135.171 104.693 134.957 104.403 135.149L103.672 135.44C102.719 135.848 102.107 136.248 101.465 136.679C98.8626 137.743 96.1813 138.969 93.288 140.212C90.3986 141.453 87.2813 142.705 83.9013 143.72C80.5293 144.739 76.9013 145.491 73.204 145.843L72.5413 126.639C77.2347 126.909 82.1227 126.065 87.7747 124.499C90.592 123.739 93.5827 122.848 96.74 122.052C99.228 121.336 101.939 120.771 104.429 120.308C105.675 120.144 106.944 119.911 108.137 119.808L111.493 119.901C111.8 119.873 111.971 120.008 112.192 120.079L112.828 120.323L114.096 120.805L114.729 121.04C114.928 121.153 115.164 121.336 115.345 121.528C115.727 121.905 116 122.301 116.263 122.711C117.271 124.337 117.844 126.396 118.072 128.743C118.272 131.1 118.167 133.628 117.983 136.093L117.817 137.941L117.624 139.665C117.501 140.577 117.388 141.283 117.256 142.095C116.191 148.389 114.768 154.545 112.421 160.709L103.879 157.993Z" fill="#406482"/>
<path d="M103.431 165.629C103.14 165.087 102.931 164.512 102.821 163.92C102.52 162.291 102.364 159.135 104.984 157.047C109.649 153.333 115.328 153.383 118.867 151.695C121.864 150.267 123.772 150.979 125.419 153.195C125.939 153.896 125.995 154.784 125.565 155.395C124.344 157.128 121.171 160.849 114.124 164.854C106.013 169.464 104.523 167.655 103.431 165.629Z" fill="#C4955C"/>
<path d="M104.568 167.139C106.361 166.776 109.004 165.671 112.916 163.415C120.287 159.163 123.641 155.252 124.935 153.428C125.049 153.267 125.133 153.085 125.184 152.896C125.263 152.993 125.341 153.091 125.419 153.195C125.484 153.283 125.541 153.373 125.593 153.468C125.695 153.653 125.765 153.847 125.809 154.041C125.851 154.235 125.864 154.429 125.845 154.617C125.819 154.899 125.727 155.165 125.565 155.395C124.344 157.128 121.167 160.843 114.124 164.854C108.257 168.189 105.86 168.168 104.568 167.139Z" fill="#A67A46"/>
<path d="M33.5667 209.811C33.8467 209.264 34.2027 208.765 34.6267 208.34C35.796 207.165 38.3053 205.244 41.5107 206.213C47.2173 207.941 50.404 212.641 53.804 214.595C56.6827 216.249 57.1813 218.224 56.2933 220.837C56.012 221.665 55.3147 222.216 54.5667 222.208C52.4467 222.189 47.5813 221.694 40.2813 218.171C31.8773 214.116 32.52 211.861 33.5667 209.811Z" fill="#C4955C"/>
<path d="M32.9707 211.604C34.2867 212.875 36.7 214.42 40.7787 216.359C48.4667 220.007 53.5906 220.544 55.8253 220.573C56.0253 220.576 56.22 220.54 56.4067 220.475C56.3707 220.595 56.3346 220.715 56.2933 220.837C56.2586 220.941 56.216 221.041 56.168 221.137C56.0733 221.325 55.9546 221.495 55.8173 221.639C55.6826 221.784 55.5306 221.906 55.3653 221.997C55.1186 222.137 54.8467 222.211 54.5667 222.208C52.4467 222.189 47.584 221.685 40.2813 218.171C34.2027 215.237 32.8573 213.252 32.9707 211.604Z" fill="#A67A46"/>
<path d="M37.556 206.244C41.5293 192.3 45.36 178.272 48.9946 164.263C50.804 157.255 52.5493 150.244 54.1853 143.253C54.9853 139.76 55.7653 136.276 56.4666 132.823C56.8453 131.084 57.1107 129.405 57.4387 127.697C57.7667 125.985 57.9266 124.432 58.184 122.803L77.252 126.305C76.724 128.223 76.24 130.248 75.6666 132.053C75.092 133.865 74.556 135.732 73.948 137.488C72.772 141.053 71.54 144.549 70.2933 148.027C67.7746 154.96 65.1733 161.813 62.5213 168.633C57.196 182.265 51.72 195.77 46.084 209.251L37.556 206.244Z" fill="#466E8F"/>
<path d="M13.6226 100.907L8.34399 94.3467L14.004 89.0307L19.4946 93.5587L13.6226 100.907Z" fill="#BF8160"/>
<path d="M18.1067 98.1667L9.27066 90.0841L14.0813 87.2227L21.1413 93.0414L18.1067 98.1667Z" fill="#B8C9DE"/>
<path d="M20.9867 97.5467L10.9667 86.7507C11.1107 86.6161 26.376 72.8641 31.7387 70.1921C43.6467 64.2507 60.028 63.1934 67.0373 63.472L66.4587 78.1921C60.1133 77.9587 46.8214 79.1281 38.3147 83.3734C35.9054 84.6641 24.9067 93.9107 20.9867 97.5467Z" fill="#444B75"/>
<path d="M14.1747 99.3627C14.1747 99.3627 15.024 102.937 13.968 106.548C12.9133 110.159 9.75201 107.888 7.77868 107.153C6.81468 106.793 9.58001 106.824 10.3827 104.833C11.1867 102.843 10.48 102.48 10.48 102.48L14.1747 99.3627Z" fill="#BF8160"/>
<path d="M9.45732 93.3934C9.45732 93.3934 4.75334 93.7801 1.64667 96.8521C-1.46133 99.9227 1.644 101.952 2.94667 104.919C4.25067 107.888 6.33465 109.375 9.48798 106.928C12.6426 104.481 14.576 101.497 14.2613 99.4934L9.45732 93.3934Z" fill="#BF8160"/>
<path d="M9.45732 93.3934C9.45732 93.3934 4.75334 93.7801 1.64667 96.8521C-1.46133 99.9227 1.644 101.952 2.94667 104.919C4.25067 107.888 6.33465 109.375 9.48798 106.928C12.6426 104.481 14.576 101.497 14.2613 99.4934L9.45732 93.3934Z" fill="#BF8160"/>
<path d="M139.241 52.06C139.241 52.06 148.939 46.0094 148.808 45.8747C148.676 45.7427 143.159 39.2627 143.159 39.2627L133.024 45.4387L139.241 52.06Z" fill="#BF8160"/>
<path d="M136.273 56.0414C136.273 56.0414 145.727 49.4201 145.571 49.2307C145.416 49.0401 138.759 39.9027 138.759 39.9027L129.007 46.6121L136.273 56.0414Z" fill="#B8C9DE"/>
<path d="M142.773 41.2187C142.773 41.2187 142.115 37.6054 143.357 34.0547C144.6 30.5041 147.639 32.9387 149.569 33.7747C150.515 34.1854 147.755 34.0094 146.848 35.956C145.94 37.9014 146.629 38.3014 146.629 38.3014L142.773 41.2187Z" fill="#BF8160"/>
<path d="M145.965 45.7174C146.773 46.8614 148.189 47.3947 149.556 47.0854C151.197 46.7174 153.388 45.956 155.155 44.384C158.419 41.4787 155.425 39.292 154.279 36.2574C153.132 33.2254 151.128 31.632 147.851 33.9107C144.573 36.1894 142.485 39.0667 142.696 41.084L145.965 45.7174Z" fill="#BF8160"/>
<path d="M145.444 37.8867C145.615 38.6587 146.323 39.2494 146.888 38.908C147.528 38.608 148.189 38.1681 148.829 37.7534C149.483 37.3414 150.124 36.908 150.793 36.5094C151.457 36.1027 152.124 35.696 152.833 35.3414C152.304 35.932 151.715 36.4521 151.112 36.9547C150.513 37.4627 149.873 37.9174 149.216 38.3534C148.54 38.7627 147.885 39.1934 147.056 39.4267C146.6 39.5787 146.061 39.4147 145.772 39.0654C145.495 38.7067 145.404 38.2814 145.444 37.8867Z" fill="#8F5C42"/>
<path d="M146.305 40.7321C146.475 41.5041 147.183 42.0934 147.748 41.7521C148.388 41.4534 149.048 41.0134 149.689 40.5987C150.341 40.1867 150.984 39.7521 151.652 39.3547C152.317 38.9481 152.984 38.5414 153.693 38.1867C153.163 38.7774 152.575 39.2974 151.972 39.8001C151.373 40.3067 150.733 40.7627 150.076 41.1974C149.399 41.6081 148.745 42.0374 147.916 42.272C147.46 42.4227 146.921 42.2587 146.632 41.9107C146.355 41.5521 146.263 41.1267 146.305 40.7321Z" fill="#8F5C42"/>
<path d="M147.959 43.172C148.128 43.944 148.836 44.532 149.401 44.192C150.041 43.892 150.703 43.452 151.344 43.0374C151.995 42.6267 152.637 42.1934 153.307 41.7934C153.972 41.3867 154.639 40.9814 155.347 40.6254C154.817 41.2174 154.228 41.7374 153.625 42.24C153.027 42.748 152.387 43.2014 151.729 43.6374C151.052 44.048 150.399 44.4774 149.569 44.7107C149.113 44.8627 148.575 44.6987 148.287 44.3507C148.009 43.9907 147.917 43.5667 147.959 43.172Z" fill="#8F5C42"/>
<path d="M149.291 45.6053C149.493 46.316 149.917 47.128 150.483 46.6454C151.144 46.3254 151.796 45.9947 152.428 45.6253C153.068 45.2693 153.684 44.8734 154.309 44.48C154.929 44.0814 155.539 43.656 156.163 43.224C155.747 43.8653 155.209 44.4134 154.641 44.9174C154.073 45.4267 153.44 45.86 152.78 46.2454C152.112 46.6147 151.417 46.9454 150.68 47.1547C150.523 47.2054 150.248 47.2933 149.995 47.2227C149.733 47.1533 149.556 46.952 149.461 46.7654C149.289 46.3734 149.255 45.9867 149.291 45.6053Z" fill="#8F5C42"/>
<path d="M148.089 33.7374C148.089 33.7374 153.68 29.384 156.016 27.508C158.351 25.6307 160.813 23.456 161.492 24.9827C162.075 26.2907 153.78 33.4174 152.181 34.636L148.089 33.7374Z" fill="#BF8160"/>
<path d="M86.4973 79.1267L80.56 65.644C82.924 64.604 85.548 63.4654 88.388 62.2334C100.896 56.8067 118.027 49.376 134.976 40.6387L141.725 53.732C124.34 62.6947 106.949 70.2387 94.252 75.748C91.4373 76.968 88.8373 78.096 86.4973 79.1267Z" fill="#444B75"/>
<path d="M71.1787 109.008C61.4933 108.116 52.976 116.051 52.1666 126.555C52.128 127.072 52.112 127.584 52.1107 128.091C57.308 129.528 71.2813 132.791 86.436 131.291C86.5306 130.779 86.6106 130.259 86.668 129.732C87.7906 119.256 80.8653 109.9 71.1787 109.008Z" fill="#233252"/>
<path d="M89.2173 126.013C95.0813 99.2027 91.5133 70.7387 91.5133 70.7387L76.024 61.0774L55.344 67.408C55.344 67.408 49.564 95.0134 50.424 122.441C50.424 122.441 69.148 128.585 89.2173 126.013Z" fill="#D9E4F1"/>
<path d="M75.932 70.3414C76.2213 74.5854 76.224 78.8427 76.1547 83.0934C76.084 87.3454 75.8307 91.5907 75.58 95.8347C75.212 100.071 74.872 104.308 74.3347 108.528C74.0827 110.639 73.7733 112.741 73.4867 114.847C73.1493 116.945 72.8173 119.045 72.4307 121.136L73.46 108.437C73.8147 104.211 74.1627 99.984 74.44 95.752C74.7867 91.5267 75.0213 87.2934 75.28 83.0587C75.532 78.8254 75.7507 74.588 75.932 70.3414Z" fill="#B8C9DE"/>
<path d="M83.5866 71.8054C85.7626 66.6321 85.3173 65.3641 85.3173 65.3641L84.8667 64.9721L80.5013 63.0481C79.692 65.4574 78.6707 66.1334 78.6707 66.1334C80.5787 68.5361 83.5866 71.8054 83.5866 71.8054Z" fill="#B8C9DE"/>
<path d="M65.5093 70.14C65.5093 70.14 71.8399 68.8894 74.1546 66.0214C74.1546 66.0214 72.0226 64.7654 70.2586 62.092L65.0893 63.0041C64.9239 63.5534 64.52 65.5534 65.5093 70.14Z" fill="#B8C9DE"/>
<path d="M76.772 128.952C76.5173 131.724 74.0626 133.763 71.292 133.508C68.5213 133.252 66.4813 130.8 66.736 128.028C66.9906 125.256 69.444 123.217 72.216 123.472C74.9867 123.728 77.028 126.181 76.772 128.952Z" fill="#FFCF00"/>
<path d="M75.3307 128.819C75.1493 130.795 73.4 132.249 71.4253 132.067C69.4493 131.885 67.9947 130.137 68.1773 128.161C68.36 126.187 70.108 124.732 72.084 124.915C74.0587 125.095 75.512 126.844 75.3307 128.819Z" fill="#FFE67A"/>
<path d="M65.8387 62.5094L53.1867 67.2014C53.1867 67.2014 49.9427 108.372 44.8293 137.784C44.8293 137.784 52.6293 140.907 58.0613 141.993C62.2707 111.336 63.492 74.3907 65.8387 62.5094Z" fill="#444B75"/>
<path d="M95.108 70.3747L84.7907 64.7947C84.848 76.984 84.796 110.092 82.8827 140.735C84.5414 140.629 88.4627 141.205 90.1507 140.983C93.9027 114.257 95.108 70.3747 95.108 70.3747Z" fill="#444B75"/>
<path d="M61.5347 109.147C64.1 94.1854 63.2627 75.6827 64.8987 67.2987C65.1627 65.636 65.4133 64.152 65.6653 62.872L65.5107 62.888C63.8947 64.7614 56.6787 73.304 54.1253 79.276C54.1253 79.276 57.5667 80.616 58.9467 81.84C58.9467 81.84 56.82 84.252 53.568 86.732L61.5347 109.147Z" fill="#233252"/>
<path d="M84.344 106.381C85.0227 104.559 90.2186 95.748 91.1546 91.796L88.7667 85.508C88.7667 85.508 91.4467 84.7654 92.508 84.936C92.508 84.936 89.3733 71.096 84.8387 64.808L84.7906 64.7947C84.8293 73.1747 84.9773 85.8254 84.344 106.381Z" fill="#233252"/>
<path d="M80.86 61.4454L80.624 56.696L70.176 55.7347L69.096 60.2747C68.6893 61.9934 69.6307 62.816 71.2427 63.54C72.3294 64.028 75.932 68.3414 75.932 68.3414L80.86 61.4454Z" fill="#BF8160"/>
<path d="M75.932 70.3414L78.7387 65.408C78.7387 65.408 80.6147 65.1734 81.6507 66.1507C82.6867 67.1307 79.9947 69.948 75.932 70.3414Z" fill="#94A1B3"/>
<path d="M74.2187 65.3334L75.932 70.3414C75.932 70.3414 71.6867 68.2067 69.8134 66.2707L71.3067 65.3054L74.2187 65.3334Z" fill="#94A1B3"/>
<path d="M80.8533 63.32L80.624 58.696L70.176 57.7347L69.5867 60.2174C72.7667 61.7494 76.6387 62.8747 80.8533 63.32Z" fill="#AD7050"/>
<path d="M69.5866 60.2174L65.8386 62.5094C65.8386 62.5094 65.0773 64.0561 66.2133 68.8787C66.2133 68.8787 72.0853 67.8214 74.2186 65.3334C74.2186 65.3334 71.2893 63.7081 69.5866 60.2174Z" fill="#D9E4F1"/>
<path d="M80.7627 61.5134L84.7907 64.7947C84.7907 64.7947 85.204 65.8707 83.252 70.2494C83.252 70.2494 80.4893 67.4587 78.7387 65.408C78.7387 65.408 80.0413 64.6174 80.7627 61.5134Z" fill="#D9E4F1"/>
<path d="M59.4559 37.4867C59.4559 37.4867 55.5533 32.7281 52.2013 36.0627C49.1906 39.0561 55.824 51.4254 60.812 46.1454L59.4559 37.4867Z" fill="#BF8160"/>
<path d="M58.432 38.3134C58.432 38.3134 55.5386 34.4214 53.2199 37.0107C51.1386 39.3347 55.9893 48.3574 59.4293 44.2507L58.432 38.3134Z" fill="#AD7050"/>
<path d="M56.0493 41.156C56.2267 41.8547 57.044 42.2507 57.8773 42.0387C58.7107 41.8294 59.244 41.0921 59.068 40.3947C58.892 39.6961 58.0733 39.3027 57.24 39.5121C56.4067 39.7227 55.8733 40.4587 56.0493 41.156Z" fill="#BF8160"/>
<path d="M53.8346 37.2294C52.5626 38.6494 53.7199 42.6974 55.6959 44.616C53.4626 42.9107 51.8599 38.5294 53.2199 37.0107C54.1933 35.9227 55.2679 35.98 56.1879 36.412C55.4239 36.2294 54.5973 36.376 53.8346 37.2294Z" fill="#8F5C42"/>
<path d="M100.105 26.6907C95.744 24.864 93.924 30.7441 93.924 30.7441L95.9293 39.2747C102.54 42.2867 104.024 28.3294 100.105 26.6907Z" fill="#AD7050"/>
<path d="M92.572 16.4187C94.4494 19.6454 95.4614 25.5961 97.2067 29.9121C98.896 34.0907 104.24 48.0134 91.688 55.9547C79.1373 63.8974 65.1587 58.5707 60.7107 49.7014C55.696 39.7001 55.8507 32.8814 56.984 25.5414C58.4773 15.8827 65.3934 11.3654 73.2734 9.73738C80.8654 8.16938 88.532 9.30939 92.572 16.4187Z" fill="#BF8160"/>
<path d="M86.46 47.9187C86.136 48.5534 82.604 52.5774 76.4506 52.6227C69.872 52.672 69.3853 46.4574 69.3853 46.4574C78.8293 49.4467 86.46 47.9187 86.46 47.9187Z" fill="#FCFFFF"/>
<path d="M79.836 33.7067C79.836 33.7067 81.948 39.9827 85.576 40.8254C85.576 40.8254 85.6173 44.104 81.892 44.216C81.892 44.216 83.4146 43.3987 84.0853 41.552C84.0853 41.552 79.6653 39.2347 79.836 33.7067Z" fill="#8F5C42"/>
<path d="M73.2933 25.6147C72.408 25.984 71.5827 26.1947 70.764 26.396C69.956 26.6094 69.1107 26.5867 68.292 26.7787C67.48 26.972 66.6933 27.2614 65.9493 27.656C65.1947 28.04 64.54 28.5854 63.9173 29.208L63.792 29.1214C64.2267 28.3414 64.816 27.624 65.5227 27.0267C66.2493 26.46 67.0573 25.988 67.9107 25.6227C68.764 25.2787 69.644 24.8894 70.5773 24.8854C71.5 24.8747 72.436 24.992 73.3053 25.4627L73.2933 25.6147Z" fill="#2E1E18"/>
<path d="M82.8947 24.5054C83.3373 23.716 84.0347 23.2014 84.78 22.82C85.5347 22.428 86.4173 22.4187 87.244 22.388C88.0787 22.3547 88.916 22.4494 89.7107 22.6507C90.5107 22.852 91.2507 23.2173 91.9253 23.6333L91.86 23.7707C91.096 23.5827 90.356 23.392 89.596 23.4027C88.848 23.3627 88.104 23.424 87.388 23.596C86.664 23.7507 86.016 24.1107 85.2987 24.2507C84.5773 24.4094 83.8493 24.5667 82.9827 24.6307L82.8947 24.5054Z" fill="#2E1E18"/>
<path d="M54.1547 31.612C54.1547 31.612 54.4453 39.9934 57.5907 40.936C59.068 40.3947 61.4626 35.3294 58.384 28.2734C58.384 28.2734 63.5933 27.108 62.0667 20.0294C62.0667 20.0294 68.8467 22.3347 74.276 15.616C74.276 15.616 79.2907 22.5547 88.3587 16.084C88.3587 16.084 89.0467 21.636 94.7013 21.764C94.7013 21.764 96.0627 30.1614 97.552 30.7867C99.32 30.4414 98.452 21.5747 96.332 18.972C96.332 18.972 98.36 16.2054 96.1133 11.936C93.868 7.66669 90.0973 8.80936 90.0973 8.80936C90.0973 8.80936 90.8427 3.95335 86.8707 1.89868C83.576 0.194684 80.3973 1.96138 78.9506 4.19071C78.9506 4.19071 76.4786 -0.663979 71.6173 0.736021C66.756 2.13602 66.6893 5.96669 66.6893 5.96669C66.6893 5.96669 63.376 2.62137 58.716 5.8827C55.2413 8.31603 56.1107 13.4787 56.1107 13.4787C56.1107 13.4787 52.9493 13.2627 51.576 17.7014C50.4773 21.2534 53.5013 24.2667 53.944 23.852C53.944 23.852 52.8293 24.692 52.412 26.1974C51.9933 27.7014 52.452 29.9987 54.1547 31.612Z" fill="#2E1E18"/>
<path d="M76.4747 37.44C76.4747 37.44 74.7106 30.7627 69.852 31.5814C64.992 32.3987 65.964 39.208 65.964 39.208C65.964 39.208 71.468 40.8387 76.4747 37.44Z" fill="#FCFFFF"/>
<path d="M76.4747 37.44C75.872 35.964 75.1107 34.5294 74.0307 33.424C73.48 32.8894 72.876 32.4147 72.1813 32.1454C71.4853 31.8934 70.744 31.8107 70.004 31.9214C69.2813 32.0587 68.552 32.2827 67.9973 32.7734C67.4293 33.24 67.0133 33.8787 66.696 34.576C66.0973 35.9947 65.944 37.6134 65.964 39.208C65.6547 37.636 65.6546 35.9627 66.1906 34.3787C66.4586 33.588 66.9253 32.8467 67.5667 32.264C68.2147 31.6667 69.0707 31.388 69.9013 31.2254C70.7507 31.1107 71.6333 31.208 72.4333 31.5294C73.2227 31.8814 73.8933 32.4267 74.4293 33.0614C75.5026 34.332 76.144 35.8707 76.4747 37.44Z" fill="#2E1E18"/>
<path d="M72.3053 32.9307C72.6987 32.864 73.1094 33.184 73.4147 33.724L73.048 34.472L73.776 34.6694C73.7987 34.7614 73.8173 34.8574 73.8347 34.9534C74.04 36.1787 73.6907 37.2574 73.0507 37.3654C72.412 37.472 71.7267 36.568 71.5213 35.3427C71.316 34.1187 71.6653 33.0374 72.3053 32.9307Z" fill="#2E1E18"/>
<path d="M93.5733 33.828C93.5733 33.828 92.076 27.6827 87.6293 28.4294C83.1933 29.176 84.0827 35.408 84.0827 35.408C84.0827 35.408 89.024 36.888 93.5733 33.828Z" fill="#FCFFFF"/>
<path d="M93.5733 33.828C93.0373 32.4747 92.3639 31.1574 91.3919 30.1414C90.8973 29.6507 90.3533 29.2174 89.7266 28.972C89.0986 28.7414 88.4279 28.6747 87.7573 28.772C87.1013 28.8987 86.4466 29.1067 85.9453 29.5494C85.4306 29.9734 85.056 30.5547 84.7666 31.1867C84.22 32.476 84.076 33.952 84.0826 35.408C83.788 33.972 83.7773 32.4454 84.2613 30.992C84.5013 30.2667 84.9253 29.5827 85.512 29.0427C86.1066 28.4934 86.8893 28.2294 87.6519 28.076C88.4319 27.9734 89.2453 28.0547 89.9826 28.3574C90.7053 28.6867 91.3173 29.1934 91.7959 29.784C92.7599 30.9667 93.312 32.388 93.5733 33.828Z" fill="#2E1E18"/>
<path d="M90.008 29.5814C90.368 29.5214 90.744 29.8107 91.0227 30.3054L90.928 30.9494L91.3533 31.1694C91.3733 31.2534 91.3907 31.3401 91.4067 31.4281C91.5947 32.5481 91.2733 33.5347 90.6907 33.6334C90.1067 33.7307 89.4813 32.9041 89.292 31.7854C89.104 30.6654 89.4253 29.6787 90.008 29.5814Z" fill="#2E1E18"/>
</svg>
